<svg width="37" height="36" viewBox="0 0 37 36" fill="none" xmlns="http://www.w3.org/2000/svg">
<g id="formkit:android">
<path id="Vector" d="M30.2315 14.0626C29.174 14.0626 28.2965 14.9401 28.2965 16.0201V23.8951C28.2965 24.9751 29.174 25.8751 30.2315 25.8751C31.289 25.8751 32.1665 24.9976 32.1665 23.8951V16.0201C32.1665 14.9401 31.289 14.0626 30.2315 14.0626ZM7.07904 14.0626C6.02154 14.0626 5.14404 14.9401 5.14404 16.0201V23.8951C5.14404 24.9751 6.02154 25.8751 7.07904 25.8751C8.13654 25.8751 9.01404 24.9976 9.01404 23.8951V16.0201C9.01404 14.9401 8.13654 14.0626 7.07904 14.0626ZM9.98154 24.8851C9.98154 25.6726 10.2965 26.4151 10.8365 26.9776C11.3765 27.5401 12.119 27.8326 12.884 27.8326V31.7701C12.884 32.8501 13.7615 33.7501 14.819 33.7501C15.8765 33.7501 16.754 32.8726 16.754 31.7701V27.8326H20.6015V31.7701C20.6015 32.8501 21.479 33.7501 22.5365 33.7501C23.594 33.7501 24.4715 32.8726 24.4715 31.7701V27.8326C25.2365 27.8326 25.979 27.5176 26.519 26.9776C27.059 26.4151 27.374 25.6726 27.374 24.8851V14.0626H9.98154V24.8851ZM27.284 12.0826C27.149 10.7776 26.7215 9.51757 26.0465 8.41507C25.3715 7.29007 24.4715 6.34507 23.3915 5.64757L24.359 3.66757C24.4715 3.44257 24.494 3.17257 24.404 2.92507C24.3642 2.80251 24.2998 2.68939 24.2147 2.59266C24.1296 2.49593 24.0255 2.41763 23.909 2.36257C23.7948 2.30523 23.67 2.27167 23.5424 2.26394C23.4148 2.2562 23.2869 2.27445 23.1665 2.31757C22.919 2.40757 22.7165 2.58757 22.604 2.81257L21.6365 4.79257L21.389 4.68007C19.6115 4.07257 17.699 4.07257 15.9215 4.68007L15.674 4.79257L14.7065 2.81257C14.5892 2.58171 14.3879 2.40457 14.144 2.31757C14.0237 2.27445 13.8958 2.2562 13.7682 2.26394C13.6406 2.27167 13.5158 2.30523 13.4015 2.36257C13.1765 2.47507 12.9965 2.67757 12.9065 2.92507C12.8634 3.04544 12.8452 3.17331 12.8529 3.30093C12.8606 3.42856 12.8942 3.55329 12.9515 3.66757L13.919 5.64757C12.839 6.36757 11.939 7.31257 11.264 8.41507C10.589 9.54007 10.1615 10.7776 10.0265 12.0826V13.0726H27.329V12.0826H27.284ZM15.764 10.1251C15.5165 10.1251 15.269 10.0126 15.089 9.83257C14.9031 9.64794 14.7979 9.39712 14.7965 9.13507C14.7965 8.86507 14.8865 8.61757 15.089 8.43757C15.269 8.25757 15.5165 8.14507 15.764 8.14507C16.0115 8.14507 16.259 8.25757 16.439 8.43757C16.619 8.61757 16.7315 8.86507 16.7315 9.13507C16.7315 9.40507 16.619 9.65257 16.439 9.83257C16.259 10.0126 16.0115 10.1251 15.764 10.1251ZM21.5465 10.1251C21.299 10.1251 21.0515 10.0126 20.8715 9.83257C20.6856 9.64794 20.5804 9.39712 20.579 9.13507C20.579 8.86507 20.669 8.61757 20.8715 8.43757C21.0515 8.25757 21.299 8.14507 21.5465 8.14507C21.794 8.14507 22.0415 8.25757 22.2215 8.43757C22.4015 8.61757 22.514 8.86507 22.514 9.13507C22.514 9.40507 22.4015 9.65257 22.2215 9.83257C22.0415 10.0126 21.794 10.1251 21.5465 10.1251Z" fill="#000000"/>
</g>
</svg>
