<svg width="24" height="24" viewBox="0 0 24 24" fill="none" xmlns="http://www.w3.org/2000/svg">
<g id="stash:data-date">
<path id="Vector" d="M8.5 13.9993C8.83152 13.9993 9.14946 13.8676 9.38388 13.6332C9.6183 13.3987 9.75 13.0808 9.75 12.7493C9.75 12.4177 9.6183 12.0998 9.38388 11.8654C9.14946 11.631 8.83152 11.4993 8.5 11.4993C8.16848 11.4993 7.85054 11.631 7.61612 11.8654C7.3817 12.0998 7.25 12.4177 7.25 12.7493C7.25 13.0808 7.3817 13.3987 7.61612 13.6332C7.85054 13.8676 8.16848 13.9993 8.5 13.9993ZM8.5 17.4993C8.83152 17.4993 9.14946 17.3676 9.38388 17.1332C9.6183 16.8987 9.75 16.5808 9.75 16.2493C9.75 15.9177 9.6183 15.5998 9.38388 15.3654C9.14946 15.131 8.83152 14.9993 8.5 14.9993C8.16848 14.9993 7.85054 15.131 7.61612 15.3654C7.3817 15.5998 7.25 15.9177 7.25 16.2493C7.25 16.5808 7.3817 16.8987 7.61612 17.1332C7.85054 17.3676 8.16848 17.4993 8.5 17.4993ZM13.25 12.7493C13.25 13.0808 13.1183 13.3987 12.8839 13.6332C12.6495 13.8676 12.3315 13.9993 12 13.9993C11.6685 13.9993 11.3505 13.8676 11.1161 13.6332C10.8817 13.3987 10.75 13.0808 10.75 12.7493C10.75 12.4177 10.8817 12.0998 11.1161 11.8654C11.3505 11.631 11.6685 11.4993 12 11.4993C12.3315 11.4993 12.6495 11.631 12.8839 11.8654C13.1183 12.0998 13.25 12.4177 13.25 12.7493ZM12 17.4993C12.3315 17.4993 12.6495 17.3676 12.8839 17.1332C13.1183 16.8987 13.25 16.5808 13.25 16.2493C13.25 15.9177 13.1183 15.5998 12.8839 15.3654C12.6495 15.131 12.3315 14.9993 12 14.9993C11.6685 14.9993 11.3505 15.131 11.1161 15.3654C10.8817 15.5998 10.75 15.9177 10.75 16.2493C10.75 16.5808 10.8817 16.8987 11.1161 17.1332C11.3505 17.3676 11.6685 17.4993 12 17.4993ZM16.75 12.7493C16.75 13.0808 16.6183 13.3987 16.3839 13.6332C16.1495 13.8676 15.8315 13.9993 15.5 13.9993C15.1685 13.9993 14.8505 13.8676 14.6161 13.6332C14.3817 13.3987 14.25 13.0808 14.25 12.7493C14.25 12.4177 14.3817 12.0998 14.6161 11.8654C14.8505 11.631 15.1685 11.4993 15.5 11.4993C15.8315 11.4993 16.1495 11.631 16.3839 11.8654C16.6183 12.0998 16.75 12.4177 16.75 12.7493Z" fill="black"/>
<path id="Vector_2" fill-rule="evenodd" clip-rule="evenodd" d="M8 3.24927C8.19891 3.24927 8.38968 3.32829 8.53033 3.46894C8.67098 3.60959 8.75 3.80036 8.75 3.99927V4.74927H15.25V3.99927C15.25 3.80036 15.329 3.60959 15.4697 3.46894C15.6103 3.32829 15.8011 3.24927 16 3.24927C16.1989 3.24927 16.3897 3.32829 16.5303 3.46894C16.671 3.60959 16.75 3.80036 16.75 3.99927V4.75727C16.902 4.76127 17.0437 4.7686 17.175 4.77927C17.555 4.80927 17.911 4.87727 18.248 5.04927C18.7656 5.31294 19.1863 5.73371 19.45 6.25127C19.622 6.58827 19.69 6.94427 19.72 7.32427C19.75 7.68927 19.75 8.13427 19.75 8.66927V16.3293C19.75 16.8643 19.75 17.3093 19.72 17.6743C19.69 18.0543 19.622 18.4103 19.45 18.7473C19.1866 19.2647 18.7662 19.6854 18.249 19.9493C17.911 20.1213 17.555 20.1893 17.175 20.2193C16.81 20.2493 16.365 20.2493 15.831 20.2493H8.17C7.635 20.2493 7.19 20.2493 6.825 20.2193C6.445 20.1893 6.089 20.1213 5.752 19.9493C5.23475 19.6861 4.81401 19.2661 4.55 18.7493C4.378 18.4113 4.31 18.0553 4.28 17.6753C4.25 17.3103 4.25 16.8653 4.25 16.3313V8.66927C4.25 8.13427 4.25 7.68927 4.28 7.32427C4.31 6.94427 4.378 6.58827 4.55 6.25127C4.81367 5.73371 5.23445 5.31294 5.752 5.04927C6.089 4.87727 6.445 4.80927 6.825 4.77927C6.95633 4.7686 7.098 4.76127 7.25 4.75727V3.99927C7.25 3.90078 7.2694 3.80325 7.30709 3.71226C7.34478 3.62126 7.40003 3.53858 7.46967 3.46894C7.53931 3.39929 7.62199 3.34405 7.71299 3.30636C7.80398 3.26867 7.90151 3.24927 8 3.24927ZM7.25 6.49927V6.25727C7.14887 6.26038 7.04784 6.26605 6.947 6.27427C6.66 6.29727 6.523 6.33927 6.433 6.38527C6.19741 6.50518 6.00591 6.69668 5.886 6.93227C5.84 7.02227 5.798 7.15927 5.775 7.44627C5.751 7.74227 5.75 8.12627 5.75 8.69927V9.24927H18.25V8.69927C18.25 8.12727 18.25 7.74227 18.225 7.44627C18.202 7.15927 18.16 7.02227 18.114 6.93227C17.9941 6.69668 17.8026 6.50518 17.567 6.38527C17.477 6.33927 17.34 6.29727 17.052 6.27427C16.9515 6.26606 16.8508 6.2604 16.75 6.25727V6.49927C16.75 6.69818 16.671 6.88895 16.5303 7.0296C16.3897 7.17025 16.1989 7.24927 16 7.24927C15.8011 7.24927 15.6103 7.17025 15.4697 7.0296C15.329 6.88895 15.25 6.69818 15.25 6.49927V6.24927H8.75V6.49927C8.75 6.69818 8.67098 6.88895 8.53033 7.0296C8.38968 7.17025 8.19891 7.24927 8 7.24927C7.80109 7.24927 7.61032 7.17025 7.46967 7.0296C7.32902 6.88895 7.25 6.69818 7.25 6.49927ZM18.25 10.2493H5.75V16.2993C5.75 16.8713 5.75 17.2563 5.775 17.5513C5.798 17.8393 5.84 17.9763 5.886 18.0663C6.006 18.3023 6.197 18.4933 6.433 18.6133C6.523 18.6593 6.66 18.7013 6.947 18.7243C7.243 18.7483 7.627 18.7493 8.2 18.7493H15.8C16.372 18.7493 16.757 18.7493 17.052 18.7243C17.34 18.7013 17.477 18.6593 17.567 18.6133C17.8026 18.4934 17.9941 18.3019 18.114 18.0663C18.16 17.9763 18.202 17.8393 18.225 17.5513C18.249 17.2563 18.25 16.8713 18.25 16.2993V10.2493Z" fill="black"/>
<path id="Vector_3" fill-rule="evenodd" clip-rule="evenodd" d="M9.75 7.74927C9.75 7.55036 9.82902 7.35959 9.96967 7.21894C10.1103 7.07829 10.3011 6.99927 10.5 6.99927H13.5C13.6989 6.99927 13.8897 7.07829 14.0303 7.21894C14.171 7.35959 14.25 7.55036 14.25 7.74927C14.25 7.94818 14.171 8.13894 14.0303 8.2796C13.8897 8.42025 13.6989 8.49927 13.5 8.49927H10.5C10.3011 8.49927 10.1103 8.42025 9.96967 8.2796C9.82902 8.13894 9.75 7.94818 9.75 7.74927Z" fill="black"/>
</g>
</svg>
