<svg width="36" height="37" viewBox="0 0 36 37" fill="none" xmlns="http://www.w3.org/2000/svg">
<path d="M5.625 4.80859C5.32663 4.80859 5.04048 4.92712 4.82951 5.1381C4.61853 5.34908 4.5 5.63523 4.5 5.93359C4.5 6.23196 4.61853 6.51811 4.82951 6.72909C5.04048 6.94007 5.32663 7.05859 5.625 7.05859H6.1785C6.42279 7.05902 6.66029 7.13894 6.85514 7.28629C7.04998 7.43364 7.19157 7.64041 7.2585 7.87534L10.827 20.3628C11.0288 21.0676 11.4546 21.6874 12.04 22.1287C12.6253 22.5699 13.3385 22.8086 14.0715 22.8086H24.3517C25.0264 22.8087 25.6856 22.6066 26.2443 22.2284C26.803 21.8502 27.2355 21.3133 27.486 20.6868L30.8025 12.3933C30.9388 12.0521 30.9895 11.6826 30.9501 11.3172C30.9107 10.9519 30.7824 10.6017 30.5764 10.2974C30.3704 9.99304 30.093 9.7438 29.7684 9.57144C29.4438 9.39907 29.082 9.30883 28.7145 9.30859H10.008L9.42075 7.25659C9.21943 6.55183 8.79416 5.93176 8.20922 5.49011C7.62427 5.04846 6.91145 4.80923 6.1785 4.80859H5.625ZM12.9915 19.7418L10.6515 11.5586H28.7145L25.3958 19.8521C25.3122 20.0606 25.1681 20.2394 24.982 20.3653C24.7959 20.4912 24.5764 20.5585 24.3517 20.5586H14.0715C13.8272 20.5582 13.5897 20.4782 13.3949 20.3309C13.2 20.1835 13.0584 19.9768 12.9915 19.7418ZM14.625 31.8086C15.0682 31.8086 15.5071 31.7213 15.9166 31.5517C16.326 31.3821 16.6981 31.1335 17.0115 30.8201C17.3249 30.5067 17.5735 30.1346 17.7431 29.7252C17.9127 29.3157 18 28.8768 18 28.4336C18 27.9904 17.9127 27.5515 17.7431 27.142C17.5735 26.7326 17.3249 26.3605 17.0115 26.0471C16.6981 25.7337 16.326 25.4851 15.9166 25.3155C15.5071 25.1459 15.0682 25.0586 14.625 25.0586C13.7299 25.0586 12.8714 25.4142 12.2385 26.0471C11.6056 26.68 11.25 27.5385 11.25 28.4336C11.25 29.3287 11.6056 30.1871 12.2385 30.8201C12.8714 31.453 13.7299 31.8086 14.625 31.8086ZM14.625 29.5586C14.3266 29.5586 14.0405 29.4401 13.8295 29.2291C13.6185 29.0181 13.5 28.732 13.5 28.4336C13.5 28.1352 13.6185 27.8491 13.8295 27.6381C14.0405 27.4271 14.3266 27.3086 14.625 27.3086C14.9234 27.3086 15.2095 27.4271 15.4205 27.6381C15.6315 27.8491 15.75 28.1352 15.75 28.4336C15.75 28.732 15.6315 29.0181 15.4205 29.2291C15.2095 29.4401 14.9234 29.5586 14.625 29.5586ZM23.625 31.8086C24.0682 31.8086 24.5071 31.7213 24.9166 31.5517C25.326 31.3821 25.6981 31.1335 26.0115 30.8201C26.3249 30.5067 26.5735 30.1346 26.7431 29.7252C26.9127 29.3157 27 28.8768 27 28.4336C27 27.9904 26.9127 27.5515 26.7431 27.142C26.5735 26.7326 26.3249 26.3605 26.0115 26.0471C25.6981 25.7337 25.326 25.4851 24.9166 25.3155C24.5071 25.1459 24.0682 25.0586 23.625 25.0586C22.7299 25.0586 21.8714 25.4142 21.2385 26.0471C20.6056 26.68 20.25 27.5385 20.25 28.4336C20.25 29.3287 20.6056 30.1871 21.2385 30.8201C21.8714 31.453 22.7299 31.8086 23.625 31.8086ZM23.625 29.5586C23.3266 29.5586 23.0405 29.4401 22.8295 29.2291C22.6185 29.0181 22.5 28.732 22.5 28.4336C22.5 28.1352 22.6185 27.8491 22.8295 27.6381C23.0405 27.4271 23.3266 27.3086 23.625 27.3086C23.9234 27.3086 24.2095 27.4271 24.4205 27.6381C24.6315 27.8491 24.75 28.1352 24.75 28.4336C24.75 28.732 24.6315 29.0181 24.4205 29.2291C24.2095 29.4401 23.9234 29.5586 23.625 29.5586Z" fill="white"/>
</svg>
