<svg width="20" height="20" viewBox="0 0 20 20" fill="none" xmlns="http://www.w3.org/2000/svg">
<path d="M11.998 5H12.008M7.99805 17H3.99805C3.2024 17 2.43934 16.6839 1.87673 16.1213C1.31412 15.5587 0.998047 14.7956 0.998047 14V4C0.998047 3.20435 1.31412 2.44129 1.87673 1.87868C2.43934 1.31607 3.2024 1 3.99805 1H13.998C14.7937 1 15.5568 1.31607 16.1194 1.87868C16.682 2.44129 16.998 3.20435 16.998 4V8" stroke="white" stroke-width="2" stroke-linecap="round" stroke-linejoin="round"/>
<path d="M0.998047 12.0001L4.99805 8.00007C5.92605 7.10707 7.07005 7.10707 7.99805 8.00007L10.998 11.0001L11.998 10.0001C12.308 9.70207 12.642 9.50307 12.985 9.40407M15.418 12.6101C15.6131 12.4151 15.8446 12.2604 16.0994 12.1548C16.3542 12.0493 16.6273 11.995 16.903 11.995C17.1788 11.995 17.4519 12.0493 17.7067 12.1548C17.9615 12.2604 18.193 12.4151 18.388 12.6101C18.5831 12.8051 18.7378 13.0366 18.8433 13.2914C18.9488 13.5462 19.0032 13.8193 19.0032 14.0951C19.0032 14.3709 18.9488 14.644 18.8433 14.8987C18.7378 15.1535 18.5831 15.3851 18.388 15.5801L14.998 19.0001H11.998V16.0001L15.418 12.6101Z" stroke="white" stroke-width="2" stroke-linecap="round" stroke-linejoin="round"/>
</svg>
