<svg width="24" height="24" viewBox="0 0 24 24" fill="none" xmlns="http://www.w3.org/2000/svg">
<path d="M8.75007 4.273C8.75007 4.273 8.69469 4.86431 8.58245 5.13924C8.4702 5.41417 8.30488 5.66429 8.09592 5.87529C7.88696 6.08629 7.63847 6.25404 7.36464 6.36896C7.09082 6.48387 6.79703 6.54369 6.50007 6.545C6.20311 6.54369 5.90932 6.48387 5.6355 6.36896C5.36167 6.25404 5.11318 6.08629 4.90422 5.87529C4.69526 5.66429 4.52994 5.41417 4.41769 5.13924C4.30545 4.86431 4.24849 4.56996 4.25007 4.273C4.24836 3.97596 4.30522 3.6815 4.41741 3.40645C4.52959 3.1314 4.69489 2.88117 4.90387 2.67006C5.11284 2.45896 5.36138 2.29111 5.63527 2.17614C5.90916 2.06116 6.20303 2.00131 6.50007 2C6.79711 2.00131 7.09098 2.06116 7.36487 2.17614C7.63876 2.29111 7.8873 2.45896 8.09628 2.67006C8.30525 2.88117 8.47055 3.1314 8.58274 3.40645C8.69492 3.6815 8.75007 4.273 8.75007 4.273Z" fill="#E04B20"/>
<path d="M3.78907 9.037C3.08107 9.42 1.22707 10.202 2.35607 11.18C2.90807 11.658 3.52307 12 4.29607 12H8.70507C9.47707 12 10.0921 11.658 10.6441 11.18C11.7741 10.202 9.91907 9.42 9.21107 9.037C7.55207 8.139 5.44807 8.139 3.78907 9.037Z" fill="#E04B20"/>
<path d="M4.00007 15C4.00007 18.317 6.68307 21 10.0001 21L9.14307 19.286M20.0001 9C20.0001 5.683 17.3171 3 14.0001 3L14.8571 4.714M3.78907 9.037C3.08107 9.42 1.22707 10.202 2.35607 11.18C2.90807 11.658 3.52307 12 4.29607 12H8.70507C9.47707 12 10.0921 11.658 10.6441 11.18C11.7741 10.202 9.91907 9.42 9.21107 9.037C7.55207 8.139 5.44807 8.139 3.78907 9.037ZM8.75007 4.273C8.75007 4.273 8.69469 4.86431 8.58245 5.13924C8.4702 5.41417 8.30488 5.66429 8.09592 5.87529C7.88696 6.08629 7.63847 6.25404 7.36464 6.36896C7.09082 6.48387 6.79703 6.54369 6.50007 6.545C6.20311 6.54369 5.90932 6.48387 5.6355 6.36896C5.36167 6.25404 5.11318 6.08629 4.90422 5.87529C4.69526 5.66429 4.52994 5.41417 4.41769 5.13924C4.30545 4.86431 4.24849 4.56996 4.25007 4.273C4.24836 3.97596 4.30522 3.6815 4.41741 3.40645C4.52959 3.1314 4.69489 2.88117 4.90387 2.67006C5.11284 2.45896 5.36138 2.29111 5.63527 2.17614C5.90916 2.06116 6.20303 2.00131 6.50007 2C6.79711 2.00131 7.09098 2.06116 7.36487 2.17614C7.63876 2.29111 7.8873 2.45896 8.09628 2.67006C8.30525 2.88117 8.47055 3.1314 8.58274 3.40645C8.69492 3.6815 8.75007 4.273 8.75007 4.273ZM14.7891 19.037C14.0811 19.42 12.2271 20.202 13.3561 21.18C13.9081 21.658 14.5231 22 15.2961 22H19.7051C20.4771 22 21.0921 21.658 21.6441 21.18C22.7741 20.202 20.9191 19.42 20.2111 19.037C18.5521 18.139 16.4481 18.139 14.7891 19.037ZM19.7501 14.273C19.7518 14.57 19.6949 14.8645 19.5827 15.1395C19.4706 15.4146 19.3052 15.6648 19.0963 15.8759C18.8873 16.087 18.6388 16.2549 18.3649 16.3699C18.091 16.4848 17.7971 16.5447 17.5001 16.546C17.203 16.5447 16.9092 16.4848 16.6353 16.3699C16.3614 16.2549 16.1128 16.087 15.9039 15.8759C15.6949 15.6648 15.5296 15.4146 15.4174 15.1395C15.3052 14.8645 15.2484 14.57 15.2501 14.273C15.2484 13.976 15.3052 13.6815 15.4174 13.4065C15.5296 13.1314 15.6949 12.8812 15.9039 12.6701C16.1128 12.459 16.3614 12.2911 16.6353 12.1761C16.9092 12.0612 17.203 12.0013 17.5001 12C17.7971 12.0013 18.091 12.0612 18.3649 12.1761C18.6388 12.2911 18.8873 12.459 19.0963 12.6701C19.3052 12.8812 19.4706 13.1314 19.5827 13.4065C19.6949 13.6815 19.7518 13.976 19.7501 14.273Z" stroke="#1A2626" stroke-linecap="round" stroke-linejoin="round"/>
</svg>
