<svg width="36" height="36" viewBox="0 0 36 36" fill="none" xmlns="http://www.w3.org/2000/svg">
<g id="fxemoji:email">
<path id="Vector" d="M35.9877 29.8833C36.1242 29.5145 20.4546 17.6827 20.4546 17.6827C18.4929 16.2351 17.4611 16.2123 15.5212 17.6827C15.5212 17.6827 -0.125602 29.505 0.00609375 29.8687L0.00292969 29.8713C0.00454688 29.8745 0.00714844 29.8767 0.00932813 29.8796C0.142026 30.2412 0.335047 30.5778 0.580195 30.875C0.683766 31.0006 0.80857 31.1058 0.928594 31.2151L0.922758 31.2196C0.93232 31.2281 0.945047 31.232 0.954609 31.2405C1.46332 31.6943 2.10485 31.9882 2.81754 32.0721C2.82872 32.0735 2.83772 32.0793 2.8489 32.0806H2.89193C3.00028 32.091 3.10329 32.117 3.21424 32.117H32.7962C34.2529 32.117 35.487 31.201 35.9772 29.9168C35.983 29.9073 35.992 29.9004 35.9974 29.8905L35.9877 29.8833Z" fill="#96A9B2"/>
<path id="Vector_2" d="M18.0093 16.3249L0.0854492 29.7678V10.7237C0.0854492 8.86746 1.58993 7.36298 3.44618 7.36298H32.5724C34.4287 7.36298 35.9332 8.86746 35.9332 10.7237V29.7678L18.0093 16.3249Z" fill="#B9C5C6"/>
<path id="Vector_3" d="M0.294434 9.55518L15.5976 21.575C17.5291 23.0003 18.545 23.0228 20.455 21.575L35.7341 9.57424C35.469 9.09372 35.0722 8.71411 34.6183 8.41141L34.8285 8.24674C34.3156 7.77979 33.6599 7.4771 32.9321 7.39891L3.0876 7.39997C2.36183 7.4771 1.70511 7.78085 1.19324 8.24674L1.40186 8.40937C0.953262 8.70785 0.560074 9.08093 0.294434 9.55518Z" fill="#EDECE6"/>
<path id="Vector_4" d="M0.289451 9.58036C0.155084 9.94353 15.5833 21.5929 15.5833 21.5929C17.5148 23.0182 18.5306 23.0407 20.4407 21.5929C20.4407 21.5929 35.8463 9.95295 35.7166 9.59478L35.7198 9.59217C35.7182 9.58901 35.7156 9.58697 35.7135 9.58409C35.5829 9.22796 35.3929 8.89656 35.1514 8.604C35.0495 8.48032 34.9266 8.37682 34.8085 8.2691L34.8142 8.26468C34.8048 8.25631 34.7923 8.25237 34.7829 8.244C34.282 7.79724 33.6503 7.50783 32.9487 7.42521C32.9377 7.42388 32.9288 7.41818 32.9178 7.41685H32.8755C32.7688 7.40665 32.6674 7.38106 32.5581 7.38106H3.43186C1.99762 7.38106 0.782483 8.28303 0.299928 9.54732C0.294162 9.55674 0.285303 9.56356 0.280029 9.57319L0.289451 9.58036Z" fill="#DCE2E2"/>
<path id="Vector_5" d="M20.4891 10.8735H17.7728C17.6581 10.8735 17.548 10.9191 17.4668 11.0002C17.3857 11.0814 17.3401 11.1915 17.3401 11.3062V12.8336C17.3401 12.9484 17.3857 13.0584 17.4668 13.1396C17.548 13.2208 17.6581 13.2664 17.7728 13.2664H19.9817C20.0965 13.2664 20.2066 13.3119 20.2877 13.3931C20.3689 13.4743 20.4145 13.5843 20.4145 13.6991V14.5159C20.4145 14.6307 20.3689 14.7407 20.2877 14.8219C20.2066 14.9031 20.0965 14.9486 19.9817 14.9486H17.7728C17.6581 14.9486 17.548 14.9942 17.4668 15.0754C17.3857 15.1566 17.3401 15.2666 17.3401 15.3814V17.0392C17.3401 17.154 17.3857 17.2641 17.4668 17.3453C17.548 17.4264 17.6581 17.472 17.7728 17.472H20.6779C20.7926 17.472 20.9027 17.5176 20.9839 17.5988C21.065 17.6799 21.1106 17.79 21.1106 17.9048V18.7796C21.1106 18.8943 21.065 19.0044 20.9839 19.0856C20.9027 19.1667 20.7926 19.2123 20.6779 19.2123H15.351C15.2362 19.2123 15.1261 19.1667 15.045 19.0856C14.9638 19.0044 14.9182 18.8943 14.9182 18.7796V9.59491C14.9182 9.48013 14.9638 9.37006 15.045 9.2889C15.1261 9.20774 15.2362 9.16214 15.351 9.16214H20.6111C20.8747 9.16214 21.077 9.39572 21.0394 9.65665L20.9176 10.5024C20.9027 10.6054 20.8512 10.6996 20.7725 10.7678C20.6939 10.836 20.5932 10.8735 20.4891 10.8735Z" fill="#597B91"/>
</g>
</svg>
