<svg width="3" height="11" viewBox="0 0 3 11" fill="none" xmlns="http://www.w3.org/2000/svg">
<path id="Vector" d="M1.54063 4.05112C1.32315 4.05112 1.11458 4.13751 0.960798 4.29129C0.807018 4.44507 0.720625 4.65364 0.720625 4.87112V9.79112C0.720625 10.0086 0.807018 10.2172 0.960798 10.3709C1.11458 10.5247 1.32315 10.6111 1.54063 10.6111C1.7581 10.6111 1.96667 10.5247 2.12045 10.3709C2.27423 10.2172 2.36063 10.0086 2.36063 9.79112V4.87112C2.36063 4.65364 2.27423 4.44507 2.12045 4.29129C1.96667 4.13751 1.7581 4.05112 1.54063 4.05112ZM1.54063 0.771118C1.3379 0.771118 1.13973 0.831233 0.971166 0.943862C0.802606 1.05649 0.671229 1.21657 0.593649 1.40387C0.516069 1.59116 0.495771 1.79726 0.53532 1.99609C0.57487 2.19492 0.672492 2.37755 0.815841 2.5209C0.95919 2.66425 1.14183 2.76187 1.34066 2.80142C1.53949 2.84097 1.74558 2.82067 1.93288 2.74309C2.12017 2.66551 2.28025 2.53414 2.39288 2.36558C2.50551 2.19702 2.56563 1.99884 2.56563 1.79612C2.56563 1.52427 2.45763 1.26356 2.26541 1.07133C2.07318 0.879109 1.81247 0.771118 1.54063 0.771118Z" fill="#1A2626"/>
</svg>
