<svg width="4" height="13" viewBox="0 0 4 13" fill="none" xmlns="http://www.w3.org/2000/svg">
<path id="Vector" d="M2 4.96045C1.73478 4.96045 1.48043 5.06581 1.29289 5.25334C1.10536 5.44088 1 5.69523 1 5.96045V11.9604C1 12.2257 1.10536 12.48 1.29289 12.6676C1.48043 12.8551 1.73478 12.9604 2 12.9604C2.26522 12.9604 2.51957 12.8551 2.70711 12.6676C2.89464 12.48 3 12.2257 3 11.9604V5.96045C3 5.69523 2.89464 5.44088 2.70711 5.25334C2.51957 5.06581 2.26522 4.96045 2 4.96045ZM2 0.960449C1.75277 0.960449 1.5111 1.03376 1.30554 1.17111C1.09998 1.30846 0.939761 1.50369 0.845151 1.73209C0.750542 1.9605 0.725787 2.21184 0.774019 2.45431C0.82225 2.69679 0.941301 2.91952 1.11612 3.09433C1.29093 3.26915 1.51366 3.3882 1.75614 3.43643C1.99861 3.48466 2.24995 3.45991 2.47836 3.3653C2.70676 3.27069 2.90199 3.11047 3.03934 2.90491C3.17669 2.69935 3.25 2.45768 3.25 2.21045C3.25 1.87893 3.1183 1.56099 2.88388 1.32657C2.64946 1.09215 2.33152 0.960449 2 0.960449Z" fill="white"/>
</svg>
