<svg width="25" height="24" viewBox="0 0 25 24" fill="none" xmlns="http://www.w3.org/2000/svg">
<path d="M22.5 12L18.5 8V11H10.5V13H18.5V16M20.5 18C19.2407 19.6791 17.485 20.9193 15.4817 21.5451C13.4783 22.1709 11.3288 22.1505 9.33772 21.4868C7.3466 20.8231 5.61478 19.5498 4.38758 17.8471C3.16037 16.1444 2.5 14.0988 2.5 12C2.5 9.90118 3.16037 7.85555 4.38758 6.1529C5.61478 4.45024 7.3466 3.17687 9.33772 2.51317C11.3288 1.84946 13.4783 1.82906 15.4817 2.45486C17.485 3.08067 19.2407 4.32094 20.5 6H17.77C16.6153 4.98166 15.1913 4.31814 13.6689 4.08906C12.1464 3.85997 10.5902 4.07506 9.18699 4.7085C7.78376 5.34194 6.59312 6.36683 5.75793 7.66019C4.92274 8.95354 4.4785 10.4604 4.4785 12C4.4785 13.5396 4.92274 15.0465 5.75793 16.3398C6.59312 17.6332 7.78376 18.6581 9.18699 19.2915C10.5902 19.9249 12.1464 20.14 13.6689 19.9109C15.1913 19.6819 16.6153 19.0183 17.77 18H20.5Z" fill="#1A2626"/>
</svg>
