<svg width="64" height="65" viewBox="0 0 64 65" fill="none" xmlns="http://www.w3.org/2000/svg">
<g id="ei:plus">
<g id="Vector">
<path d="M32.0002 54.0644C19.9682 54.0644 10.2402 44.3364 10.2402 32.3044C10.2402 20.2724 19.9682 10.5444 32.0002 10.5444C44.0322 10.5444 53.7602 20.2724 53.7602 32.3044C53.7602 44.3364 44.0322 54.0644 32.0002 54.0644ZM32.0002 13.1044C21.3762 13.1044 12.8002 21.6804 12.8002 32.3044C12.8002 42.9284 21.3762 51.5044 32.0002 51.5044C42.6242 51.5044 51.2002 42.9284 51.2002 32.3044C51.2002 21.6804 42.6242 13.1044 32.0002 13.1044Z" fill="#4EA9B4"/>
<path d="M32.0002 13.1044C21.3762 13.1044 12.8002 21.6804 12.8002 32.3044C12.8002 42.9284 21.3762 51.5044 32.0002 51.5044C42.6242 51.5044 51.2002 42.9284 51.2002 32.3044C51.2002 21.6804 42.6242 13.1044 32.0002 13.1044Z" fill="#4EA9B4"/>
</g>
<path id="Vector_2" d="M20.48 31.0244H43.52V33.5844H20.48V31.0244Z" fill="#1A2626"/>
<path id="Vector_3" d="M30.7202 20.7842H33.2802V43.8242H30.7202V20.7842Z" fill="#1A2626"/>
</g>
</svg>
