<svg width="37" height="36" viewBox="0 0 37 36" fill="none" xmlns="http://www.w3.org/2000/svg">
<path opacity="0.15" d="M6.96289 33.7801C6.96289 34.1699 8.14974 34.5438 10.2623 34.8195C12.3749 35.0952 15.2402 35.2501 18.2279 35.2501C21.2156 35.2501 24.0809 35.0952 26.1934 34.8195C28.306 34.5438 29.4929 34.1699 29.4929 33.7801C29.4929 33.3902 28.306 33.0163 26.1934 32.7406C24.0809 32.4649 21.2156 32.3101 18.2279 32.3101C15.2402 32.3101 12.3749 32.4649 10.2623 32.7406C8.14974 33.0163 6.96289 33.3902 6.96289 33.7801Z" fill="#45413C"/>
<path d="M18.2275 15.6V33.375C18.8328 33.3741 19.4327 33.2622 19.9975 33.045L31.54 28.545C32.0919 28.3305 32.5661 27.9544 32.9006 27.466C33.2352 26.9776 33.4145 26.3995 33.415 25.8075V11.7375C33.4135 11.0943 33.2 10.4696 32.8075 9.95996L18.2275 15.6ZM3.64754 9.95996C3.25512 10.4696 3.0416 11.0943 3.04004 11.7375V25.8375C3.04061 26.4295 3.2199 27.0076 3.55445 27.496C3.889 27.9844 4.36322 28.3605 4.91504 28.575L16.4575 33.075C17.0243 33.282 17.6242 33.3837 18.2275 33.375V15.6L3.64754 9.95996Z" fill="#DAEDF7"/>
<path d="M18.2275 15.6V33.375C18.8328 33.3741 19.4327 33.2622 19.9975 33.045L31.54 28.545C32.0919 28.3305 32.5661 27.9544 32.9006 27.466C33.2352 26.9776 33.4145 26.3995 33.415 25.8075V11.7375C33.4135 11.0943 33.2 10.4696 32.8075 9.95996L18.2275 15.6ZM3.64754 9.95996C3.25512 10.4696 3.0416 11.0943 3.04004 11.7375V25.8375C3.04061 26.4295 3.2199 27.0076 3.55445 27.496C3.889 27.9844 4.36322 28.3605 4.91504 28.575L16.4575 33.075C17.0243 33.282 17.6242 33.3837 18.2275 33.375V15.6L3.64754 9.95996Z" fill="white"/>
<path d="M31.54 25.8002L19.9975 30.3002C19.4308 30.5072 18.8309 30.6089 18.2275 30.6002V33.3752C18.8328 33.3743 19.4327 33.2625 19.9975 33.0452L31.54 28.5452C32.0919 28.3307 32.5661 27.9547 32.9006 27.4662C33.2352 26.9778 33.4145 26.3997 33.415 25.8077V23.0552C33.4139 23.648 33.2345 24.2268 32.9001 24.7163C32.5658 25.2059 32.0919 25.5835 31.54 25.8002ZM4.91504 25.8002C4.36322 25.5835 3.88932 25.2059 3.55494 24.7163C3.22056 24.2268 3.04116 23.648 3.04004 23.0552V25.8377C3.04061 26.4297 3.2199 27.0078 3.55445 27.4962C3.889 27.9847 4.36322 28.3607 4.91504 28.5752L16.4575 33.0752C17.0243 33.2822 17.6242 33.3839 18.2275 33.3752V30.6002C17.6223 30.5993 17.0224 30.4875 16.4575 30.2702L4.91504 25.8002Z" fill="#DAEDF7"/>
<path d="M18.2275 15.6V33.375M18.2275 15.6L32.8075 9.95996C33.2 10.4696 33.4135 11.0943 33.415 11.7375V25.8075C33.4145 26.3995 33.2352 26.9776 32.9006 27.466C32.5661 27.9544 32.0919 28.3305 31.54 28.545L19.9975 33.045C19.4327 33.2622 18.8328 33.3741 18.2275 33.375M18.2275 15.6L3.64754 9.95996C3.25512 10.4696 3.0416 11.0943 3.04004 11.7375V25.8375C3.04061 26.4295 3.2199 27.0076 3.55445 27.496C3.889 27.9844 4.36322 28.3605 4.91504 28.575L16.4575 33.075C17.0243 33.282 17.6242 33.3837 18.2275 33.375" stroke="#45413C" stroke-width="0.5" stroke-linecap="round" stroke-linejoin="round"/>
<path d="M18.2275 15.6002L32.8075 9.96015C32.479 9.53198 32.0411 9.20033 31.54 9.00015L19.9975 4.50015C18.8591 4.05659 17.5958 4.05659 16.4575 4.50015L4.91496 9.00015C4.41292 9.20241 3.97495 9.53672 3.64746 9.96765L18.2275 15.6002Z" fill="white"/>
<path d="M31.54 9L30.58 8.6325L19.7275 12.8175C18.7485 13.1999 17.6615 13.1999 16.6825 12.8175L5.87496 8.625L4.91496 9C4.41292 9.20226 3.97495 9.53657 3.64746 9.9675L18.2275 15.6L32.8075 9.96C32.479 9.53182 32.0411 9.20017 31.54 9Z" fill="#DAEDF7"/>
<path d="M18.2275 15.6002L32.8075 9.96015C32.479 9.53198 32.0411 9.20033 31.54 9.00015L19.9975 4.50015C18.8591 4.05659 17.5958 4.05659 16.4575 4.50015L4.91496 9.00015C4.41292 9.20241 3.97495 9.53672 3.64746 9.96765L18.2275 15.6002Z" stroke="#45413C" stroke-width="0.5" stroke-linecap="round" stroke-linejoin="round"/>
<path d="M14.7998 9.66727C14.7998 10.0571 15.1609 10.431 15.8037 10.7067C16.4465 10.9824 17.3183 11.1373 18.2273 11.1373C19.1363 11.1373 20.0081 10.9824 20.6509 10.7067C21.2937 10.431 21.6548 10.0571 21.6548 9.66727C21.6548 9.2774 21.2937 8.9035 20.6509 8.62782C20.0081 8.35214 19.1363 8.19727 18.2273 8.19727C17.3183 8.19727 16.4465 8.35214 15.8037 8.62782C15.1609 8.9035 14.7998 9.2774 14.7998 9.66727Z" fill="#FF6242" stroke="#45413C" stroke-width="0.5" stroke-linecap="round" stroke-linejoin="round"/>
<path d="M8.90538 18.0598C9.07788 19.2673 8.68038 20.3098 8.01288 20.4223C7.34538 20.5348 6.65538 19.6198 6.51288 18.4123C6.37038 17.2048 6.73788 16.1623 7.40538 16.0573C8.07288 15.9523 8.73288 16.8598 8.90538 18.0598ZM28.9904 15.5998C28.8179 16.7998 29.2154 17.8498 29.8904 17.9548C30.5654 18.0598 31.2404 17.1523 31.3904 15.9448C31.5404 14.7373 31.1654 13.6948 30.4979 13.5898C29.8304 13.4848 29.1629 14.3923 28.9904 15.5998ZM20.7179 27.3523C20.5454 28.5598 20.9429 29.6023 21.6179 29.7148C22.2929 29.8273 22.9679 28.9123 23.1179 27.7048C23.2679 26.4973 22.8929 25.4548 22.2254 25.3498C21.5579 25.2448 20.8904 26.1523 20.7179 27.3523ZM25.0679 21.5098C24.8954 22.7098 25.3004 23.7598 25.9679 23.8648C26.6354 23.9698 27.3179 23.0623 27.4679 21.8623C27.6179 20.6623 27.2354 19.6123 26.5679 19.4998C25.9004 19.3873 25.2479 20.3023 25.0679 21.5098ZM13.3454 24.9373C13.5179 26.1448 13.1204 27.1873 12.4454 27.2923C11.7704 27.3973 11.0954 26.4898 10.9454 25.2898C10.7954 24.0898 11.1704 23.0398 11.8379 22.9273C12.5054 22.8148 13.1729 23.7298 13.3454 24.9373Z" fill="#656769" stroke="#45413C" stroke-width="0.5" stroke-linecap="round" stroke-linejoin="round"/>
</svg>
