<svg width="51" height="52" viewBox="0 0 51 52" fill="none" xmlns="http://www.w3.org/2000/svg">
<rect x="0.716873" y="1.21687" width="49.5658" height="49.5658" rx="24.7829" fill="white"/>
<rect x="0.716873" y="1.21687" width="49.5658" height="49.5658" rx="24.7829" stroke="#828375" stroke-width="1.41617"/>
<path d="M38.8742 31.1126C38.8616 31.0868 38.848 31.0619 38.8334 31.0379C38.8276 31.029 38.8228 31.0201 38.8169 31.0121C38.8102 31.0023 38.8034 30.9925 38.7956 30.9827C38.7907 30.9765 38.7859 30.9694 38.781 30.9631C38.7772 30.9578 38.7723 30.9516 38.7675 30.9462C38.7636 30.9409 38.7587 30.9356 38.7539 30.9293C38.7461 30.9204 38.7383 30.9115 38.7296 30.9027C38.7228 30.8955 38.716 30.8884 38.7092 30.8813C38.7034 30.8742 38.6957 30.8671 38.6879 30.8608C38.6811 30.8546 38.6733 30.8475 38.6656 30.8413C38.651 30.827 38.6355 30.8146 38.619 30.803C38.5986 30.787 38.5773 30.7728 38.5559 30.7585C38.5472 30.7523 38.5375 30.747 38.5278 30.7416C38.519 30.7363 38.5084 30.731 38.4987 30.7256C38.4958 30.7238 38.4928 30.722 38.4899 30.7212C38.488 30.7203 38.4773 30.7141 38.4608 30.7052C38.4599 30.7052 38.4589 30.7043 38.4569 30.7034C38.4482 30.6989 38.4385 30.6954 38.4298 30.6909C38.0785 30.5352 37.671 30.5993 37.3983 30.8244C37.311 30.8964 37.2362 30.9845 37.1829 31.0877L34.5522 36.0546L33.8352 37.4078L33.2044 38.5981L32.6309 38.0287L32.4097 37.809C32.3971 37.7965 32.3835 37.7841 32.3709 37.7734C32.3612 37.7645 32.3515 37.7556 32.3418 37.7485C32.3311 37.7387 32.3195 37.7298 32.3078 37.7218C32.2981 37.7147 32.2894 37.7085 32.2797 37.7022C32.2748 37.6996 32.27 37.696 32.2651 37.6925L32.4155 37.4078L33.1317 36.0546L35.3664 31.835C35.4362 31.7033 35.4653 31.5628 35.4586 31.4258C35.4586 31.4186 35.4586 31.4106 35.4576 31.4035C35.4576 31.3937 35.4566 31.3831 35.4547 31.3742C35.4527 31.3546 35.4498 31.335 35.4459 31.3155C35.445 31.3074 35.443 31.2985 35.4411 31.2905C35.4391 31.279 35.4362 31.2683 35.4324 31.2576C35.4314 31.2496 35.4285 31.2416 35.4265 31.2336C35.4256 31.2274 35.4236 31.222 35.4207 31.2167C35.4178 31.2078 35.4149 31.1989 35.412 31.19C35.4062 31.1722 35.3984 31.1553 35.3906 31.1375C35.3867 31.1295 35.3829 31.1215 35.379 31.1126C35.3625 31.0788 35.3431 31.0459 35.3217 31.013C35.312 30.9996 35.3033 30.9863 35.2936 30.9729C35.2858 30.9631 35.279 30.9543 35.2703 30.9445C35.2664 30.9391 35.2616 30.9338 35.2567 30.9284C35.2266 30.8929 35.1927 30.8599 35.1558 30.8288C35.148 30.8217 35.1393 30.8155 35.1306 30.8083C35.1238 30.803 35.117 30.7977 35.1092 30.7923C35.0675 30.7612 35.0219 30.7336 34.9734 30.7096C34.9598 30.7034 34.9462 30.6963 34.9326 30.69C34.5814 30.5343 34.1748 30.5984 33.9011 30.8226C33.8934 30.8297 33.8846 30.8368 33.8769 30.8439C33.8711 30.8493 33.8643 30.8546 33.8584 30.8608C33.7896 30.9249 33.7304 31.0005 33.6848 31.0859L31.0551 36.0528H22.4471L27.9121 31.9284C29.0649 31.0477 30.1721 30.1598 31.2016 29.2897C32.2535 28.4001 33.1889 27.4508 33.9807 26.4678C34.7812 25.474 35.4265 24.4082 35.8972 23.2988C36.3765 22.1699 36.6191 20.9039 36.6191 19.5365C36.6191 18.1691 36.3513 16.8231 35.8215 15.6309C35.2878 14.4335 34.5028 13.3783 33.4878 12.494C32.4747 11.6133 31.2181 10.9202 29.7529 10.4354C28.3032 9.95674 26.6381 9.71387 24.8031 9.71387C22.9682 9.71387 21.4389 9.93272 20.0562 10.366C18.6715 10.8001 17.444 11.3989 16.4096 12.1453C15.3732 12.8926 14.5019 13.7707 13.8207 14.7546C13.1492 15.7226 12.6223 16.7608 12.2526 17.839L12.0459 18.444L18.917 20.8754L19.1353 20.1575C19.4856 19.0071 20.0746 18.0125 20.8868 17.2012C21.6427 16.4458 22.7518 16.0784 24.2762 16.0784C25.4862 16.0784 26.4789 16.3809 27.3105 17.0028C28.0965 17.5917 28.4778 18.4342 28.4778 19.5792V20.1512C28.4778 21.3585 28.0984 22.4981 27.3522 23.539C26.5604 24.6413 25.2805 25.9046 23.5494 27.2933L12.795 35.9381V42.2857H37.4827V36.0519H36.6249L38.8596 31.8323C38.9838 31.5957 38.98 31.3332 38.8732 31.1099L38.8742 31.1126ZM36.0078 37.4069V40.9352H33.6469C33.6256 40.9397 33.6042 40.9432 33.5819 40.9468C33.5188 40.9548 33.4567 40.9575 33.3956 40.9548C33.3432 40.9521 33.2927 40.9459 33.2423 40.9352H30.1527C30.1313 40.9397 30.11 40.9432 30.0877 40.9468C30.0236 40.9548 29.9625 40.9575 29.9004 40.9548C29.8849 40.9548 29.8693 40.953 29.8538 40.9512C29.8412 40.9503 29.8295 40.9486 29.8179 40.9468C29.815 40.9468 29.8111 40.9468 29.8072 40.9459C29.7975 40.945 29.7868 40.9432 29.7771 40.9415C29.7684 40.9406 29.7587 40.9388 29.75 40.9361H14.2699V36.5546L24.5207 28.3147C26.3528 26.8458 27.719 25.49 28.5836 24.2863C29.4919 23.0212 29.9528 21.6316 29.9528 20.1548V19.5827C29.9528 18.0285 29.3774 16.8088 28.243 15.9592C27.1523 15.1434 25.8181 14.7288 24.2752 14.7288C22.3413 14.7288 20.8353 15.2537 19.799 16.2893C19.0014 17.0864 18.3852 18.0259 17.9612 19.0899L13.8857 17.6478C14.1943 16.896 14.5892 16.1701 15.0666 15.4824C15.6575 14.6274 16.4164 13.8641 17.3217 13.2111C18.2251 12.559 19.3061 12.0332 20.5326 11.6489C21.7611 11.2645 23.1972 11.0697 24.8021 11.0697C26.4071 11.0697 27.9636 11.285 29.2522 11.7111C30.5243 12.1319 31.6072 12.7271 32.4718 13.478C33.3335 14.2288 34.0011 15.1265 34.4552 16.1451C34.9122 17.1736 35.1442 18.315 35.1442 19.54C35.1442 20.7651 34.9346 21.8398 34.5231 22.8122C34.1001 23.8095 33.5179 24.7703 32.7949 25.6679C32.0584 26.5825 31.1871 27.4668 30.2022 28.2986C29.191 29.1536 28.1023 30.0263 26.9719 30.8902L18.3338 37.4095H30.3399L29.7092 38.5999L29.1338 38.0287L28.9135 37.8108C28.9009 37.7983 28.8883 37.7868 28.8757 37.7752C28.865 37.7654 28.8534 37.7556 28.8417 37.7467C28.8408 37.7458 28.8388 37.7441 28.8369 37.7423C28.8262 37.7334 28.8146 37.7254 28.8039 37.7174C28.7942 37.7111 28.7845 37.704 28.7748 37.6978C28.768 37.6933 28.7602 37.688 28.7525 37.6836C28.734 37.672 28.7136 37.6604 28.6942 37.6498C28.6874 37.6462 28.6777 37.6417 28.668 37.6364C28.3284 37.4709 27.8966 37.5101 27.5958 37.7627C27.3037 38.0101 27.2232 38.3908 27.3629 38.7111C27.3678 38.7236 27.3726 38.7351 27.3784 38.7458C27.3843 38.7574 27.3901 38.7689 27.3969 38.7805C27.4017 38.7894 27.4066 38.7983 27.4114 38.8063C27.4163 38.8152 27.4221 38.8241 27.4279 38.8321C27.459 38.8819 27.4978 38.9282 27.5415 38.9718L29.2638 40.6826C29.2755 40.6941 29.2871 40.7057 29.2988 40.7155C29.3075 40.7226 29.3162 40.7297 29.325 40.7377C29.356 40.7635 29.389 40.7875 29.423 40.8089C29.4298 40.8125 29.4366 40.8169 29.4433 40.8214C29.4492 40.8249 29.456 40.8285 29.4627 40.8329C29.4627 40.8329 29.4647 40.8329 29.4657 40.8338C29.4657 40.8338 29.4666 40.8338 29.4676 40.8347C29.4676 40.8347 29.4695 40.8356 29.4705 40.8365C29.4705 40.8365 29.4715 40.8374 29.4734 40.8383C29.4734 40.8383 29.4754 40.8391 29.4773 40.84C29.4783 40.8409 29.4802 40.8418 29.4812 40.8418C29.4987 40.8516 29.5161 40.8605 29.5355 40.8685C29.5501 40.8747 29.5646 40.8818 29.5792 40.8872C29.5947 40.8934 29.6093 40.8987 29.6248 40.9041C29.6277 40.905 29.6316 40.9059 29.6345 40.9076C29.65 40.9121 29.6656 40.9174 29.6811 40.9219C29.6985 40.9263 29.716 40.9308 29.7344 40.9343C29.7383 40.9343 29.7432 40.9361 29.748 40.937H30.1507C30.4282 40.881 30.664 40.711 30.7892 40.4753L31.1609 39.7742L31.2715 39.5661L31.3967 39.3294L32.759 40.6826C32.7697 40.6932 32.7814 40.7048 32.793 40.7146C32.8027 40.7235 32.8134 40.7324 32.8241 40.7404C32.8347 40.7493 32.8464 40.7582 32.858 40.7671C32.8697 40.776 32.8813 40.784 32.8929 40.7929C32.9182 40.8089 32.9434 40.8249 32.9696 40.8391C32.9822 40.8454 32.9948 40.8516 33.0074 40.8578C33.0201 40.8641 33.0336 40.8703 33.0472 40.8765C33.0608 40.8818 33.0744 40.8872 33.088 40.8934C33.0996 40.8979 33.1122 40.9023 33.1239 40.9068C33.1617 40.9192 33.2005 40.9299 33.2403 40.937H33.645C33.9225 40.881 34.1583 40.711 34.2835 40.4753L35.9078 37.4087H36.0058L36.0078 37.4069Z" fill="#828375"/>
</svg>
