<svg width="24" height="24" viewBox="0 0 24 24" fill="none" xmlns="http://www.w3.org/2000/svg">
<rect x="0.5" y="0.5" width="23" height="23" rx="11.5" fill="#E04B20"/>
<rect x="0.5" y="0.5" width="23" height="23" rx="11.5" stroke="white"/>
<path d="M12 20C9.86307 20 7.85432 19.1681 6.34312 17.6569C4.83234 16.1461 4 14.1369 4 12C4 9.86307 4.83192 7.85432 6.34312 6.34312C7.8539 4.83234 9.86307 4 12 4C14.1369 4 16.1457 4.83192 17.6569 6.34312C19.1677 7.8539 20 9.86307 20 12C20 14.1369 19.1681 16.1457 17.6569 17.6569C16.1461 19.1677 14.1369 20 12 20ZM12 4.91372C8.09255 4.91372 4.91372 8.09255 4.91372 12C4.91372 15.9074 8.09255 19.0863 12 19.0863C15.9074 19.0863 19.0863 15.9074 19.0863 12C19.0863 8.09255 15.9074 4.91372 12 4.91372Z" fill="white"/>
<path d="M9.13956 11.4645C8.12886 11.4645 7.30664 10.6418 7.30664 9.63071C7.30664 9.22382 7.43735 8.83842 7.68486 8.51544C7.96273 8.15324 8.36204 7.9091 8.81025 7.82773C8.91693 7.80749 9.02782 7.79736 9.13998 7.79736C10.1511 7.79736 10.9737 8.61959 10.9737 9.63029C10.9737 10.641 10.1511 11.4641 9.13998 11.4641L9.13956 11.4645ZM9.13956 8.5399C9.07294 8.5399 9.00801 8.5458 8.94644 8.5576H8.94307C8.67659 8.60609 8.43878 8.75157 8.27349 8.96703C8.12633 9.15888 8.04833 9.38868 8.04833 9.63071C8.04833 10.2324 8.53786 10.7224 9.13914 10.7224C9.74041 10.7224 10.2308 10.2328 10.2308 9.63071C10.2308 9.02859 9.74126 8.5399 9.13914 8.5399H9.13956Z" fill="white"/>
<path d="M8.69162 10.0014C8.08402 10.0014 7.58984 9.50725 7.58984 8.89965C7.58984 8.81743 7.5987 8.73647 7.61683 8.65847L7.63496 8.57962L7.68429 8.51553C7.96216 8.15291 8.36231 7.90877 8.81095 7.82782L8.89064 7.81348L8.96907 7.83372C9.45481 7.95895 9.79382 8.39704 9.79382 8.90007C9.79382 9.50767 9.29964 10.0019 8.69204 10.0019L8.69162 10.0014ZM8.33153 8.89586C8.33153 8.89586 8.33153 8.89796 8.33153 8.89923C8.33153 9.09783 8.49302 9.25932 8.69162 9.25932C8.89022 9.25932 9.05171 9.09783 9.05171 8.89923C9.05171 8.76051 8.97286 8.63696 8.85353 8.57751C8.65283 8.63148 8.47236 8.74153 8.33195 8.89586H8.33153Z" fill="white"/>
<path d="M14.6532 11.4645C13.6425 11.4645 12.8203 10.6418 12.8203 9.63071C12.8203 9.22382 12.951 8.83842 13.1985 8.51544C13.4764 8.15324 13.8757 7.9091 14.3239 7.82773C14.4306 7.80749 14.5415 7.79736 14.6537 7.79736C15.6648 7.79736 16.4874 8.61959 16.4874 9.63029C16.4874 10.641 15.6648 11.4641 14.6537 11.4641L14.6532 11.4645ZM14.6532 8.5399C14.5866 8.5399 14.5217 8.5458 14.4601 8.5576H14.4567C14.1903 8.60609 13.9524 8.75157 13.7872 8.96703C13.64 9.15888 13.562 9.38868 13.562 9.63071C13.562 10.2324 14.0515 10.7224 14.6528 10.7224C15.2541 10.7224 15.7445 10.2328 15.7445 9.63071C15.7445 9.02859 15.2549 8.5399 14.6528 8.5399H14.6532Z" fill="white"/>
<path d="M14.2072 10.0014C13.5996 10.0014 13.1055 9.50725 13.1055 8.89965C13.1055 8.81743 13.1143 8.73647 13.1325 8.65847L13.1506 8.57962L13.1999 8.51553C13.4778 8.15291 13.8779 7.90877 14.3266 7.82782L14.4063 7.81348L14.4847 7.83372C14.9704 7.95895 15.3094 8.39704 15.3094 8.90007C15.3094 9.50767 14.8153 10.0019 14.2077 10.0019L14.2072 10.0014ZM13.8476 8.89586C13.8476 8.89586 13.8476 8.89796 13.8476 8.89923C13.8476 9.09783 14.0091 9.25932 14.2077 9.25932C14.4063 9.25932 14.5678 9.09783 14.5678 8.89923C14.5678 8.76051 14.4889 8.63696 14.3696 8.57751C14.1689 8.63148 13.9884 8.74153 13.848 8.89586H13.8476Z" fill="white"/>
<path d="M16.5622 16.8058C16.3754 16.8058 16.1882 16.7388 16.0385 16.6034L15.2353 15.8778C15.0797 15.7369 14.9886 15.5438 14.9789 15.3343C14.9692 15.1247 15.0422 14.924 15.1843 14.7697L15.2538 14.6938L14.8794 14.2983H8.06637C7.86144 14.2983 7.69531 14.1321 7.69531 13.9272C7.69531 13.7223 7.86144 13.5562 8.06637 13.5562H15.1986L15.7725 14.1625L15.7919 14.1439C16.0946 13.8505 16.5707 13.8492 16.8751 14.141L17.6568 14.8898C17.8082 15.0349 17.8938 15.2301 17.8976 15.4401C17.9014 15.6497 17.823 15.8482 17.6767 15.9984L17.1218 16.5689C16.9683 16.7266 16.7655 16.8062 16.5622 16.8062V16.8058ZM16.0272 14.9489L15.7303 15.2714C15.7231 15.2794 15.7198 15.2887 15.7202 15.2997C15.7206 15.3102 15.7248 15.3195 15.7328 15.3267L16.5361 16.0523C16.5517 16.0667 16.5753 16.0658 16.5901 16.0506L17.145 15.4801C17.1525 15.4726 17.1563 15.4633 17.1559 15.4523C17.1559 15.4418 17.1517 15.4325 17.1441 15.4249L16.3624 14.6761C16.3472 14.6617 16.3236 14.6617 16.3084 14.6761L16.0272 14.9484V14.9489Z" fill="white"/>
<path d="M15.0156 14.2984C14.8107 14.2984 14.6445 14.1322 14.6445 13.9273V12.9638C14.6445 12.7589 14.8107 12.5928 15.0156 12.5928C15.2205 12.5928 15.3866 12.7589 15.3866 12.9638V13.9273C15.3866 14.1322 15.2205 14.2984 15.0156 14.2984Z" fill="white"/>
<path d="M14.3867 15.273C14.1818 15.273 14.0156 15.1069 14.0156 14.9019V13.9262C14.0156 13.7213 14.1818 13.5552 14.3867 13.5552C14.5916 13.5552 14.7577 13.7213 14.7577 13.9262V14.9019C14.7577 15.1069 14.5916 15.273 14.3867 15.273Z" fill="white"/>
<path d="M13.7695 14.2984C13.5646 14.2984 13.3984 14.1322 13.3984 13.9273V12.9638C13.3984 12.7589 13.5646 12.5928 13.7695 12.5928C13.9744 12.5928 14.1405 12.7589 14.1405 12.9638V13.9273C14.1405 14.1322 13.9744 14.2984 13.7695 14.2984Z" fill="white"/>
<path d="M13.1445 15.273C12.9396 15.273 12.7734 15.1069 12.7734 14.9019V13.9262C12.7734 13.7213 12.9396 13.5552 13.1445 13.5552C13.3494 13.5552 13.5155 13.7213 13.5155 13.9262V14.9019C13.5155 15.1069 13.3494 15.273 13.1445 15.273Z" fill="white"/>
<path d="M12.5664 14.2984C12.3614 14.2984 12.1953 14.1322 12.1953 13.9273V12.9638C12.1953 12.7589 12.3614 12.5928 12.5664 12.5928C12.7713 12.5928 12.9374 12.7589 12.9374 12.9638V13.9273C12.9374 14.1322 12.7713 14.2984 12.5664 14.2984Z" fill="white"/>
<path d="M11.9375 15.273C11.7325 15.273 11.5664 15.1069 11.5664 14.9019V13.9262C11.5664 13.7213 11.7325 13.5552 11.9375 13.5552C12.1424 13.5552 12.3085 13.7213 12.3085 13.9262V14.9019C12.3085 15.1069 12.1424 15.273 11.9375 15.273Z" fill="white"/>
<path d="M11.3046 14.2984C11.0997 14.2984 10.9336 14.1322 10.9336 13.9273V12.9638C10.9336 12.7589 11.0997 12.5928 11.3046 12.5928C11.5096 12.5928 11.6757 12.7589 11.6757 12.9638V13.9273C11.6757 14.1322 11.5096 14.2984 11.3046 14.2984Z" fill="white"/>
<path d="M10.6757 15.273C10.4708 15.273 10.3047 15.1069 10.3047 14.9019V13.9262C10.3047 13.7213 10.4708 13.5552 10.6757 13.5552C10.8807 13.5552 11.0468 13.7213 11.0468 13.9262V14.9019C11.0468 15.1069 10.8807 15.273 10.6757 15.273Z" fill="white"/>
<path d="M10.0859 14.2984C9.88097 14.2984 9.71484 14.1322 9.71484 13.9273V12.9638C9.71484 12.7589 9.88097 12.5928 10.0859 12.5928C10.2908 12.5928 10.457 12.7589 10.457 12.9638V13.9273C10.457 14.1322 10.2908 14.2984 10.0859 14.2984Z" fill="white"/>
<path d="M8.86129 14.2984C8.65637 14.2984 8.49023 14.1322 8.49023 13.9273V12.9638C8.49023 12.7589 8.65637 12.5928 8.86129 12.5928C9.06621 12.5928 9.23234 12.7589 9.23234 12.9638V13.9273C9.23234 14.1322 9.06621 14.2984 8.86129 14.2984Z" fill="white"/>
<path d="M9.45699 15.273C9.25207 15.273 9.08594 15.1069 9.08594 14.9019V13.9262C9.08594 13.7213 9.25207 13.5552 9.45699 13.5552C9.66191 13.5552 9.82804 13.7213 9.82804 13.9262V14.9019C9.82804 15.1069 9.66191 15.273 9.45699 15.273Z" fill="white"/>
</svg>
