<svg width="51" height="52" viewBox="0 0 51 52" fill="none" xmlns="http://www.w3.org/2000/svg">
<rect x="0.699295" y="1.21687" width="49.5658" height="49.5658" rx="24.7829" fill="white"/>
<rect x="0.699295" y="1.21687" width="49.5658" height="49.5658" rx="24.7829" stroke="#828375" stroke-width="1.41617"/>
<path d="M13.9712 33.2376C12.8916 33.1229 12.4463 32.612 12.4463 31.5363C12.4463 31.1701 12.4429 30.8047 12.4463 30.4385C12.4558 29.5632 13.0239 28.9746 13.8706 28.9604C14.0073 28.9578 14.1448 28.9604 14.315 28.9604V18.9712C13.8156 18.9712 13.3153 18.9712 12.8142 18.9712C12.1145 18.9695 11.922 18.7189 12.0801 18.0279C12.7128 15.2641 13.3446 12.5003 13.9763 9.73652C14.1225 9.09763 14.2316 9.00586 14.8634 9.00586C21.9401 9.00586 29.0177 9.00586 36.0944 9.00586C36.7279 9.00586 36.838 9.09587 36.9832 9.73387C37.6184 12.5091 38.2536 15.2844 38.8897 18.0597C39.0376 18.7039 38.8338 18.9695 38.1832 18.9721C37.6786 18.9739 37.1749 18.9721 36.642 18.9721V28.9613C36.8199 28.9613 36.9884 28.9569 37.1569 28.9613C37.9201 28.986 38.4935 29.5773 38.5124 30.3662C38.5218 30.7668 38.515 31.1683 38.515 31.5698C38.5141 32.6102 38.0456 33.1379 36.9884 33.2367C36.9884 33.3665 36.9884 33.5024 36.9884 33.6383C36.9884 36.4824 36.9884 39.3256 36.9884 42.1697C36.9884 42.8218 36.8242 42.9939 36.2002 42.9939C29.0538 42.9939 21.9083 42.9939 14.762 42.9939C14.1345 42.9939 13.9712 42.8244 13.9712 42.1741C13.9712 39.3423 13.9712 36.5106 13.9712 33.6788C13.9712 33.5394 13.9712 33.3991 13.9712 33.2394V33.2376ZM18.0799 18.988V28.9375H32.8763V19.0004H26.054V22.7543C26.6135 22.7543 27.1516 22.7507 27.6897 22.7551C28.2261 22.7596 28.4324 22.9731 28.3799 23.5167C28.2407 24.9595 28.0911 26.4014 27.9347 27.8424C27.8814 28.3357 27.7017 28.4786 27.2015 28.4786C26.0531 28.4795 24.9047 28.4804 23.7555 28.4786C23.2595 28.4786 23.0876 28.3392 23.0318 27.8336C22.8753 26.4164 22.7258 24.9983 22.5874 23.5785C22.5263 22.9502 22.7206 22.7551 23.3515 22.7543C23.8655 22.7534 24.3787 22.7543 24.9039 22.7543V18.9871H18.0781L18.0799 18.988ZM13.2629 17.8152H37.6846C37.6691 17.7217 37.6623 17.6529 37.6477 17.5867C37.3399 16.2454 37.0236 14.9067 36.7314 13.561C36.6729 13.2936 36.5638 13.2345 36.3179 13.2354C33.7221 13.2433 31.1262 13.2407 28.5312 13.2407C23.9025 13.2407 19.2738 13.2424 14.6459 13.2354C14.4018 13.2354 14.278 13.2866 14.2316 13.5601C14.1551 14.0119 14.0305 14.4549 13.9282 14.9023C13.7081 15.8624 13.4898 16.8234 13.2638 17.8152H13.2629ZM25.4798 30.0935C24.4002 30.0935 23.3197 30.0935 22.2401 30.0935C19.5291 30.0935 16.8172 30.0935 14.1061 30.0935C13.568 30.0935 13.55 30.1129 13.55 30.6786C13.55 30.938 13.55 31.1974 13.55 31.4578C13.55 32.071 13.5655 32.0869 14.1757 32.0869C21.7123 32.0869 29.2498 32.0869 36.7864 32.0869C36.844 32.0869 36.9016 32.0834 36.9583 32.0869C37.2746 32.1099 37.4302 31.9766 37.4147 31.6342C37.4001 31.3166 37.4121 30.9971 37.4113 30.6786C37.4113 30.1147 37.3915 30.0935 36.8543 30.0935C33.0628 30.0935 29.2713 30.0935 25.4798 30.0935ZM35.944 10.1619H15.0155C14.8677 10.8113 14.725 11.4396 14.5772 12.0917H36.385C36.2345 11.4326 36.0884 10.7954 35.944 10.1619ZM16.9289 28.9419V18.9951H15.4788V28.9419H16.9289ZM35.4859 18.9951H34.0358V28.941H35.4859V18.9951ZM20.0998 36.5935H15.1006V38.7608H20.0998V36.5935ZM26.8705 27.3332C26.9892 26.1931 27.1069 25.0636 27.2264 23.9147H23.7314C23.8526 25.0733 23.9713 26.2019 24.0899 27.3332H26.8705ZM31.3076 36.583V38.767H35.8658V36.583H31.3076ZM21.231 38.7679H25.1256V36.5882H21.231V38.7679ZM26.262 38.767H30.1575V36.5891H26.262V38.767ZM18.8646 35.4102H22.6965V33.2438H18.8646V35.4102ZM27.6682 33.2412H23.8397V35.4058H27.6682V33.2412ZM32.6321 35.412V33.2394H28.8045V35.412H32.6321ZM18.4581 41.8352H22.4911V39.9548H18.4581V41.8352ZM27.6545 41.8538V39.9468H23.6446V41.8538H27.6545ZM28.8063 41.8335H32.8273V39.9424H28.8063V41.8335ZM17.7214 35.4155V33.2447H15.0998V35.4155H17.7214ZM35.8675 33.2438H33.7762V35.4093H35.8675V33.2438ZM15.0989 39.9442V41.8405H17.326V39.9442H15.0989ZM33.9825 39.9371V41.8423H35.8572V39.9371H33.9825Z" fill="#828375"/>
</svg>
