<svg width="52" height="51" viewBox="0 0 52 51" fill="none" xmlns="http://www.w3.org/2000/svg">
<rect x="1.21687" y="0.717117" width="49.5658" height="49.5658" rx="24.7829" fill="white"/>
<rect x="1.21687" y="0.717117" width="49.5658" height="49.5658" rx="24.7829" stroke="#4EA9B4" stroke-width="1.41617"/>
<path d="M39.3742 30.6129C39.3616 30.5871 39.348 30.5621 39.3334 30.5381C39.3276 30.5292 39.3228 30.5203 39.3169 30.5123C39.3102 30.5025 39.3034 30.4928 39.2956 30.483C39.2907 30.4767 39.2859 30.4696 39.281 30.4634C39.2772 30.458 39.2723 30.4518 39.2675 30.4465C39.2636 30.4412 39.2587 30.4358 39.2539 30.4296C39.2461 30.4207 39.2383 30.4118 39.2296 30.4029C39.2228 30.3958 39.216 30.3887 39.2092 30.3815C39.2034 30.3744 39.1957 30.3673 39.1879 30.3611C39.1811 30.3549 39.1733 30.3477 39.1656 30.3415C39.151 30.3273 39.1355 30.3148 39.119 30.3033C39.0986 30.2872 39.0773 30.273 39.0559 30.2588C39.0472 30.2525 39.0375 30.2472 39.0278 30.2419C39.019 30.2365 39.0084 30.2312 38.9987 30.2259C38.9958 30.2241 38.9928 30.2223 38.9899 30.2214C38.988 30.2205 38.9773 30.2143 38.9608 30.2054C38.9599 30.2054 38.9589 30.2045 38.9569 30.2036C38.9482 30.1992 38.9385 30.1956 38.9298 30.1912C38.5785 30.0355 38.171 30.0995 37.8983 30.3246C37.811 30.3967 37.7362 30.4847 37.6829 30.5879L35.0522 35.5548L34.3352 36.908L33.7044 38.0984L33.1309 37.529L32.9097 37.3092C32.8971 37.2968 32.8835 37.2843 32.8709 37.2737C32.8612 37.2648 32.8515 37.2559 32.8418 37.2487C32.8311 37.239 32.8195 37.2301 32.8078 37.2221C32.7981 37.2149 32.7894 37.2087 32.7797 37.2025C32.7748 37.1998 32.77 37.1963 32.7651 37.1927L32.9155 36.908L33.6317 35.5548L35.8664 31.3352C35.9362 31.2036 35.9653 31.063 35.9586 30.926C35.9586 30.9189 35.9586 30.9109 35.9576 30.9038C35.9576 30.894 35.9566 30.8833 35.9547 30.8744C35.9527 30.8548 35.9498 30.8353 35.9459 30.8157C35.945 30.8077 35.943 30.7988 35.9411 30.7908C35.9391 30.7792 35.9362 30.7685 35.9324 30.7579C35.9314 30.7499 35.9285 30.7418 35.9265 30.7338C35.9256 30.7276 35.9236 30.7223 35.9207 30.7169C35.9178 30.708 35.9149 30.6991 35.912 30.6903C35.9062 30.6725 35.8984 30.6556 35.8906 30.6378C35.8867 30.6298 35.8829 30.6217 35.879 30.6129C35.8625 30.579 35.8431 30.5461 35.8217 30.5132C35.812 30.4999 35.8033 30.4865 35.7936 30.4732C35.7858 30.4634 35.779 30.4545 35.7703 30.4447C35.7664 30.4394 35.7616 30.434 35.7567 30.4287C35.7266 30.3931 35.6927 30.3602 35.6558 30.329C35.648 30.3219 35.6393 30.3157 35.6306 30.3086C35.6238 30.3033 35.617 30.2979 35.6092 30.2926C35.5675 30.2614 35.5219 30.2339 35.4734 30.2098C35.4598 30.2036 35.4462 30.1965 35.4326 30.1903C35.0814 30.0346 34.6748 30.0986 34.4011 30.3228C34.3934 30.3299 34.3846 30.3371 34.3769 30.3442C34.3711 30.3495 34.3643 30.3549 34.3584 30.3611C34.2896 30.4251 34.2304 30.5008 34.1848 30.5862L31.5551 35.5531H22.9471L28.4121 31.4287C29.5649 30.5479 30.6721 29.66 31.7016 28.79C32.7535 27.9003 33.6889 26.9511 34.4807 25.968C35.2812 24.9743 35.9265 23.9085 36.3972 22.7991C36.8765 21.6701 37.1191 20.4041 37.1191 19.0367C37.1191 17.6693 36.8513 16.3233 36.3215 15.1312C35.7878 13.9337 35.0028 12.8786 33.9878 11.9943C32.9747 11.1135 31.7181 10.4205 30.2529 9.93562C28.8032 9.45698 27.1381 9.21411 25.3031 9.21411C23.4682 9.21411 21.9389 9.43297 20.5562 9.86623C19.1715 10.3004 17.944 10.8991 16.9096 11.6455C15.8732 12.3928 15.0019 13.2709 14.3207 14.2549C13.6492 15.2228 13.1223 16.261 12.7526 17.3393L12.5459 17.9442L19.417 20.3757L19.6353 19.6577C19.9856 18.5074 20.5746 17.5128 21.3868 16.7014C22.1427 15.9461 23.2518 15.5787 24.7762 15.5787C25.9862 15.5787 26.9789 15.8811 27.8105 16.503C28.5965 17.092 28.9778 17.9345 28.9778 19.0794V19.6515C28.9778 20.8587 28.5984 21.9984 27.8522 23.0393C27.0604 24.1415 25.7805 25.4048 24.0494 26.7936L13.295 35.4383V41.786H37.9827V35.5522H37.1249L39.3596 31.3326C39.4838 31.0959 39.48 30.8335 39.3732 30.6102L39.3742 30.6129ZM36.5078 36.9071V40.4355H34.1469C34.1256 40.4399 34.1042 40.4435 34.0819 40.447C34.0188 40.455 33.9567 40.4577 33.8956 40.455C33.8432 40.4524 33.7927 40.4462 33.7423 40.4355H30.6527C30.6313 40.4399 30.61 40.4435 30.5877 40.447C30.5236 40.455 30.4625 40.4577 30.4004 40.455C30.3849 40.455 30.3693 40.4533 30.3538 40.4515C30.3412 40.4506 30.3295 40.4488 30.3179 40.447C30.315 40.447 30.3111 40.447 30.3072 40.4461C30.2975 40.4453 30.2868 40.4435 30.2771 40.4417C30.2684 40.4408 30.2587 40.439 30.25 40.4364H14.7699V36.0548L25.0207 27.8149C26.8528 26.3461 28.219 24.9903 29.0836 23.7866C29.9919 22.5215 30.4528 21.1319 30.4528 19.655V19.083C30.4528 17.5288 29.8774 16.3091 28.743 15.4595C27.6523 14.6436 26.3181 14.2291 24.7752 14.2291C22.8413 14.2291 21.3353 14.754 20.299 15.7895C19.5014 16.5866 18.8852 17.5261 18.4612 18.5901L14.3857 17.148C14.6943 16.3963 15.0892 15.6703 15.5666 14.9826C16.1575 14.1276 16.9164 13.3643 17.8217 12.7113C18.7251 12.0592 19.8061 11.5334 21.0326 11.1491C22.2611 10.7648 23.6972 10.5699 25.3021 10.5699C26.9071 10.5699 28.4636 10.7852 29.7522 11.2114C31.0243 11.6322 32.1072 12.2274 32.9718 12.9782C33.8335 13.7291 34.5011 14.6267 34.9552 15.6454C35.4122 16.6738 35.6442 17.8152 35.6442 19.0403C35.6442 20.2653 35.4346 21.34 35.0231 22.3124C34.6001 23.3097 34.0179 24.2705 33.2949 25.1682C32.5584 26.0828 31.6871 26.9671 30.7022 27.7989C29.691 28.6538 28.6023 29.5266 27.4719 30.3904L18.8338 36.9098H30.8399L30.2092 38.1001L29.6338 37.529L29.4135 37.311C29.4009 37.2986 29.3883 37.287 29.3757 37.2754C29.365 37.2657 29.3534 37.2559 29.3417 37.247C29.3408 37.2461 29.3388 37.2443 29.3369 37.2425C29.3262 37.2336 29.3146 37.2256 29.3039 37.2176C29.2942 37.2114 29.2845 37.2043 29.2748 37.198C29.268 37.1936 29.2602 37.1882 29.2525 37.1838C29.234 37.1722 29.2136 37.1607 29.1942 37.15C29.1874 37.1464 29.1777 37.142 29.168 37.1366C28.8284 36.9712 28.3966 37.0103 28.0958 37.263C27.8037 37.5103 27.7232 37.8911 27.8629 38.2114C27.8678 38.2238 27.8726 38.2354 27.8784 38.246C27.8843 38.2576 27.8901 38.2692 27.8969 38.2807C27.9017 38.2896 27.9066 38.2985 27.9114 38.3065C27.9163 38.3154 27.9221 38.3243 27.9279 38.3323C27.959 38.3822 27.9978 38.4284 28.0415 38.472L29.7638 40.1828C29.7755 40.1944 29.7871 40.2059 29.7988 40.2157C29.8075 40.2228 29.8162 40.23 29.825 40.238C29.856 40.2638 29.889 40.2878 29.923 40.3091C29.9298 40.3127 29.9366 40.3172 29.9433 40.3216C29.9492 40.3252 29.956 40.3287 29.9627 40.3332C29.9627 40.3332 29.9647 40.3332 29.9657 40.3341C29.9657 40.3341 29.9666 40.3341 29.9676 40.3349C29.9676 40.3349 29.9695 40.3358 29.9705 40.3367C29.9705 40.3367 29.9715 40.3376 29.9734 40.3385C29.9734 40.3385 29.9754 40.3394 29.9773 40.3403C29.9783 40.3412 29.9802 40.3421 29.9812 40.3421C29.9987 40.3518 30.0161 40.3607 30.0355 40.3688C30.0501 40.375 30.0646 40.3821 30.0792 40.3874C30.0947 40.3937 30.1093 40.399 30.1248 40.4043C30.1277 40.4052 30.1316 40.4061 30.1345 40.4079C30.15 40.4123 30.1656 40.4177 30.1811 40.4221C30.1985 40.4266 30.216 40.431 30.2344 40.4346C30.2383 40.4346 30.2432 40.4364 30.248 40.4372H30.6507C30.9282 40.3812 31.164 40.2113 31.2892 39.9755L31.6609 39.2745L31.7715 39.0663L31.8967 38.8297L33.259 40.1828C33.2697 40.1935 33.2814 40.205 33.293 40.2148C33.3027 40.2237 33.3134 40.2326 33.3241 40.2406C33.3347 40.2495 33.3464 40.2584 33.358 40.2673C33.3697 40.2762 33.3813 40.2842 33.3929 40.2931C33.4182 40.3091 33.4434 40.3252 33.4696 40.3394C33.4822 40.3456 33.4948 40.3518 33.5074 40.3581C33.5201 40.3643 33.5336 40.3705 33.5472 40.3768C33.5608 40.3821 33.5744 40.3874 33.588 40.3937C33.5996 40.3981 33.6122 40.4026 33.6239 40.407C33.6617 40.4195 33.7005 40.4301 33.7403 40.4372H34.145C34.4225 40.3812 34.6583 40.2113 34.7835 39.9755L36.4078 36.9089H36.5058L36.5078 36.9071Z" fill="#4EA9B4"/>
</svg>
