<svg width="51" height="52" viewBox="0 0 51 52" fill="none" xmlns="http://www.w3.org/2000/svg">
<rect x="0.708084" y="1.69002" width="49.5658" height="49.5658" rx="24.7829" fill="#EDB22E"/>
<rect x="0.708084" y="1.69002" width="49.5658" height="49.5658" rx="24.7829" stroke="#EDB22E" stroke-width="1.41617"/>
<path d="M13.98 33.7108C12.9004 33.5961 12.4551 33.0851 12.4551 32.0094C12.4551 31.6432 12.4517 31.2779 12.4551 30.9117C12.4646 30.0363 13.0327 29.4477 13.8794 29.4336C14.0161 29.4309 14.1536 29.4336 14.3238 29.4336V19.4444C13.8244 19.4444 13.3241 19.4444 12.823 19.4444C12.1233 19.4426 11.9308 19.192 12.0889 18.5011C12.7216 15.7373 13.3533 12.9735 13.9851 10.2097C14.1312 9.57078 14.2404 9.479 14.8722 9.479C21.9489 9.479 29.0265 9.479 36.1032 9.479C36.7367 9.479 36.8467 9.56901 36.992 10.207C37.6272 12.9823 38.2624 15.7576 38.8985 18.5328C39.0464 19.177 38.8426 19.4426 38.192 19.4453C37.6874 19.447 37.1837 19.4453 36.6508 19.4453V29.4345C36.8287 29.4345 36.9972 29.4301 37.1656 29.4345C37.9289 29.4592 38.5023 30.0504 38.5212 30.8393C38.5306 31.2399 38.5237 31.6415 38.5237 32.043C38.5229 33.0834 38.0544 33.6111 36.9972 33.7099C36.9972 33.8396 36.9972 33.9755 36.9972 34.1114C36.9972 36.9555 36.9972 39.7987 36.9972 42.6428C36.9972 43.2949 36.833 43.467 36.209 43.467C29.0626 43.467 21.9171 43.467 14.7708 43.467C14.1433 43.467 13.98 43.2976 13.98 42.6472C13.98 39.8155 13.98 36.9837 13.98 34.152C13.98 34.0126 13.98 33.8723 13.98 33.7125V33.7108ZM18.0886 19.4612V29.4107H32.885V19.4735H26.0627V23.2274C26.6223 23.2274 27.1604 23.2239 27.6985 23.2283C28.2348 23.2327 28.4411 23.4462 28.3887 23.9898C28.2495 25.4326 28.0999 26.8745 27.9435 28.3155C27.8902 28.8088 27.7105 28.9518 27.2103 28.9518C26.0619 28.9527 24.9135 28.9535 23.7643 28.9518C23.2683 28.9518 23.0964 28.8124 23.0405 28.3067C22.8841 26.8895 22.7345 25.4714 22.5962 24.0516C22.5351 23.4233 22.7294 23.2283 23.3603 23.2274C23.8743 23.2265 24.3875 23.2274 24.9127 23.2274V19.4603H18.0869L18.0886 19.4612ZM13.2717 18.2884H37.6934C37.6779 18.1949 37.6711 18.126 37.6564 18.0598C37.3487 16.7185 37.0324 15.3799 36.7402 14.0342C36.6817 13.7668 36.5725 13.7077 36.3267 13.7085C33.7309 13.7165 31.135 13.7138 28.54 13.7138C23.9113 13.7138 19.2826 13.7156 14.6547 13.7085C14.4106 13.7085 14.2868 13.7597 14.2404 14.0333C14.1639 14.4851 14.0393 14.9281 13.937 15.3755C13.7169 16.3356 13.4986 17.2965 13.2725 18.2884H13.2717ZM25.4886 30.5666C24.409 30.5666 23.3285 30.5666 22.2489 30.5666C19.5379 30.5666 16.826 30.5666 14.1149 30.5666C13.5768 30.5666 13.5588 30.5861 13.5588 31.1517C13.5588 31.4111 13.5588 31.6706 13.5588 31.9309C13.5588 32.5442 13.5742 32.5601 14.1845 32.5601C21.7211 32.5601 29.2586 32.5601 36.7952 32.5601C36.8528 32.5601 36.9104 32.5565 36.9671 32.5601C37.2834 32.583 37.439 32.4498 37.4235 32.1074C37.4089 31.7897 37.4209 31.4703 37.4201 31.1517C37.4201 30.5878 37.4003 30.5666 36.8631 30.5666C33.0716 30.5666 29.2801 30.5666 25.4886 30.5666ZM35.9528 10.635H15.0243C14.8765 11.2845 14.7338 11.9128 14.5859 12.5649H36.3938C36.2433 11.9057 36.0972 11.2686 35.9528 10.635ZM16.9377 29.4151V19.4682H15.4876V29.4151H16.9377ZM35.4947 19.4682H34.0446V29.4142H35.4947V19.4682ZM20.1086 37.0667H15.1094V39.234H20.1086V37.0667ZM26.8793 27.8064C26.9979 26.6663 27.1157 25.5367 27.2352 24.3878H23.7402C23.8614 25.5464 23.98 26.6751 24.0987 27.8064H26.8793ZM31.3164 37.0561V39.2401H35.8746V37.0561H31.3164ZM21.2398 39.241H25.1344V37.0614H21.2398V39.241ZM26.2708 39.2401H30.1663V37.0623H26.2708V39.2401ZM18.8734 35.8833H22.7053V33.7169H18.8734V35.8833ZM27.677 33.7143H23.8485V35.8789H27.677V33.7143ZM32.6409 35.8851V33.7125H28.8133V35.8851H32.6409ZM18.4668 42.3084H22.4999V40.4279H18.4668V42.3084ZM27.6632 42.3269V40.42H23.6534V42.3269H27.6632ZM28.815 42.3066H32.8361V40.4155H28.815V42.3066ZM17.7302 35.8886V33.7178H15.1086V35.8886H17.7302ZM35.8763 33.7169H33.785V35.8825H35.8763V33.7169ZM15.1077 40.4173V42.3137H17.3348V40.4173H15.1077ZM33.9913 40.4102V42.3154H35.866V40.4102H33.9913Z" fill="white"/>
</svg>
