<svg width="52" height="52" viewBox="0 0 52 52" fill="none" xmlns="http://www.w3.org/2000/svg">
<rect x="1.19929" y="1.21712" width="49.5658" height="49.5658" rx="24.7829" fill="white"/>
<rect x="1.19929" y="1.21712" width="49.5658" height="49.5658" rx="24.7829" stroke="#EDB22E" stroke-width="1.41617"/>
<path d="M14.4712 33.2379C13.3916 33.1232 12.9463 32.6122 12.9463 31.5365C12.9463 31.1703 12.9429 30.805 12.9463 30.4388C12.9558 29.5634 13.5239 28.9748 14.3706 28.9607C14.5073 28.958 14.6448 28.9607 14.815 28.9607V18.9715C14.3156 18.9715 13.8153 18.9715 13.3142 18.9715C12.6145 18.9697 12.422 18.7191 12.5801 18.0282C13.2128 15.2644 13.8446 12.5006 14.4763 9.73676C14.6225 9.09788 14.7316 9.0061 15.3634 9.0061C22.4401 9.0061 29.5177 9.0061 36.5944 9.0061C37.2279 9.0061 37.338 9.09611 37.4832 9.73412C38.1184 12.5094 38.7536 15.2847 39.3897 18.0599C39.5376 18.7041 39.3338 18.9697 38.6832 18.9724C38.1786 18.9741 37.6749 18.9724 37.142 18.9724V28.9616C37.3199 28.9616 37.4884 28.9572 37.6569 28.9616C38.4201 28.9863 38.9935 29.5775 39.0124 30.3664C39.0218 30.767 39.015 31.1686 39.015 31.5701C39.0141 32.6105 38.5456 33.1382 37.4884 33.237C37.4884 33.3667 37.4884 33.5026 37.4884 33.6385C37.4884 36.4826 37.4884 39.3258 37.4884 42.1699C37.4884 42.822 37.3242 42.9941 36.7002 42.9941C29.5538 42.9941 22.4083 42.9941 15.262 42.9941C14.6345 42.9941 14.4712 42.8247 14.4712 42.1743C14.4712 39.3426 14.4712 36.5108 14.4712 33.6791C14.4712 33.5397 14.4712 33.3994 14.4712 33.2396V33.2379ZM18.5799 18.9883V28.9377H33.3763V19.0006H26.554V22.7545C27.1135 22.7545 27.6516 22.751 28.1897 22.7554C28.7261 22.7598 28.9324 22.9733 28.8799 23.5169C28.7407 24.9597 28.5911 26.4016 28.4347 27.8426C28.3814 28.3359 28.2017 28.4789 27.7015 28.4789C26.5531 28.4798 25.4047 28.4806 24.2555 28.4789C23.7595 28.4789 23.5876 28.3395 23.5318 27.8338C23.3753 26.4166 23.2258 24.9985 23.0874 23.5787C23.0263 22.9504 23.2206 22.7554 23.8515 22.7545C24.3655 22.7536 24.8787 22.7545 25.4039 22.7545V18.9874H18.5781L18.5799 18.9883ZM13.7629 17.8155H38.1846C38.1691 17.722 38.1623 17.6531 38.1477 17.5869C37.8399 16.2456 37.5236 14.907 37.2314 13.5613C37.1729 13.2939 37.0638 13.2347 36.8179 13.2356C34.2221 13.2436 31.6262 13.2409 29.0312 13.2409C24.4025 13.2409 19.7738 13.2427 15.1459 13.2356C14.9018 13.2356 14.778 13.2868 14.7316 13.5604C14.6551 14.0122 14.5305 14.4552 14.4282 14.9026C14.2081 15.8627 13.9898 16.8236 13.7638 17.8155H13.7629ZM25.9798 30.0937C24.9002 30.0937 23.8197 30.0937 22.7401 30.0937C20.0291 30.0937 17.3172 30.0937 14.6061 30.0937C14.068 30.0937 14.05 30.1132 14.05 30.6788C14.05 30.9382 14.05 31.1977 14.05 31.458C14.05 32.0713 14.0655 32.0872 14.6757 32.0872C22.2123 32.0872 29.7498 32.0872 37.2864 32.0872C37.344 32.0872 37.4016 32.0836 37.4583 32.0872C37.7746 32.1101 37.9302 31.9769 37.9147 31.6345C37.9001 31.3168 37.9121 30.9974 37.9113 30.6788C37.9113 30.1149 37.8915 30.0937 37.3543 30.0937C33.5628 30.0937 29.7713 30.0937 25.9798 30.0937ZM36.444 10.1621H15.5155C15.3677 10.8116 15.225 11.4399 15.0772 12.092H36.885C36.7345 11.4328 36.5884 10.7957 36.444 10.1621ZM17.4289 28.9422V18.9953H15.9788V28.9422H17.4289ZM35.9859 18.9953H34.5358V28.9413H35.9859V18.9953ZM20.5998 36.5938H15.6006V38.7611H20.5998V36.5938ZM27.3705 27.3335C27.4892 26.1934 27.6069 25.0638 27.7264 23.9149H24.2314C24.3526 25.0735 24.4713 26.2022 24.5899 27.3335H27.3705ZM31.8076 36.5832V38.7672H36.3658V36.5832H31.8076ZM21.731 38.7681H25.6256V36.5885H21.731V38.7681ZM26.762 38.7672H30.6575V36.5894H26.762V38.7672ZM19.3646 35.4104H23.1965V33.244H19.3646V35.4104ZM28.1682 33.2414H24.3397V35.406H28.1682V33.2414ZM33.1321 35.4122V33.2396H29.3045V35.4122H33.1321ZM18.9581 41.8355H22.9911V39.955H18.9581V41.8355ZM28.1545 41.854V39.9471H24.1446V41.854H28.1545ZM29.3063 41.8337H33.3273V39.9426H29.3063V41.8337ZM18.2214 35.4157V33.2449H15.5998V35.4157H18.2214ZM36.3675 33.244H34.2762V35.4096H36.3675V33.244ZM15.5989 39.9444V41.8408H17.826V39.9444H15.5989ZM34.4825 39.9373V41.8425H36.3572V39.9373H34.4825Z" fill="#EDB22E"/>
</svg>
