<svg width="24" height="24" viewBox="0 0 24 24" fill="none" xmlns="http://www.w3.org/2000/svg">
<rect x="0.5" y="0.5" width="23" height="23" rx="11.5" fill="#4EA9B4"/>
<rect x="0.5" y="0.5" width="23" height="23" rx="11.5" stroke="white"/>
<path d="M18.2955 14.407C18.2896 14.3949 18.2832 14.3832 18.2764 14.3719C18.2736 14.3677 18.2713 14.3635 18.2686 14.3597C18.2654 14.3551 18.2622 14.3505 18.2585 14.3459C18.2563 14.343 18.254 14.3396 18.2517 14.3367C18.2499 14.3342 18.2476 14.3312 18.2453 14.3287C18.2435 14.3262 18.2412 14.3237 18.2389 14.3208C18.2353 14.3166 18.2316 14.3124 18.2275 14.3082C18.2243 14.3049 18.2211 14.3015 18.2179 14.2982C18.2152 14.2948 18.2115 14.2915 18.2078 14.2885C18.2046 14.2856 18.201 14.2822 18.1973 14.2793C18.1905 14.2726 18.1832 14.2667 18.1754 14.2613C18.1658 14.2538 18.1558 14.2471 18.1457 14.2404C18.1416 14.2374 18.137 14.2349 18.1325 14.2324C18.1284 14.2299 18.1233 14.2274 18.1188 14.2249C18.1174 14.224 18.116 14.2232 18.1147 14.2228C18.1137 14.2223 18.1087 14.2194 18.101 14.2152C18.1005 14.2152 18.1 14.2148 18.0991 14.2144C18.095 14.2123 18.0904 14.2106 18.0863 14.2085C17.921 14.1352 17.7291 14.1654 17.6008 14.2713C17.5596 14.3053 17.5245 14.3467 17.4994 14.3953L16.261 16.7335L15.9234 17.3705L15.6265 17.9309L15.3565 17.6628L15.2524 17.5594C15.2464 17.5535 15.24 17.5477 15.2341 17.5426C15.2295 17.5385 15.225 17.5343 15.2204 17.5309C15.2154 17.5263 15.2099 17.5221 15.2044 17.5184C15.1998 17.515 15.1957 17.5121 15.1912 17.5091C15.1889 17.5079 15.1866 17.5062 15.1843 17.5045L15.2551 17.3705L15.5922 16.7335L16.6442 14.7471C16.6771 14.6851 16.6908 14.619 16.6876 14.5545C16.6876 14.5511 16.6876 14.5473 16.6872 14.544C16.6872 14.5394 16.6867 14.5344 16.6858 14.5302C16.6849 14.521 16.6835 14.5117 16.6817 14.5025C16.6812 14.4988 16.6803 14.4946 16.6794 14.4908C16.6785 14.4854 16.6771 14.4803 16.6753 14.4753C16.6748 14.4715 16.6735 14.4678 16.6725 14.464C16.6721 14.4611 16.6712 14.4586 16.6698 14.456C16.6684 14.4519 16.6671 14.4477 16.6657 14.4435C16.663 14.4351 16.6593 14.4271 16.6556 14.4188C16.6538 14.415 16.652 14.4112 16.6502 14.407C16.6424 14.3911 16.6333 14.3756 16.6232 14.3601C16.6186 14.3539 16.6145 14.3476 16.61 14.3413C16.6063 14.3367 16.6031 14.3325 16.599 14.3279C16.5972 14.3254 16.5949 14.3229 16.5926 14.3203C16.5784 14.3036 16.5625 14.2881 16.5451 14.2734C16.5414 14.2701 16.5373 14.2672 16.5332 14.2638C16.53 14.2613 16.5268 14.2588 16.5232 14.2563C16.5035 14.2416 16.4821 14.2286 16.4592 14.2173C16.4528 14.2144 16.4464 14.211 16.44 14.2081C16.2747 14.1348 16.0833 14.165 15.9545 14.2705C15.9508 14.2739 15.9467 14.2772 15.943 14.2806C15.9403 14.2831 15.9371 14.2856 15.9344 14.2885C15.9019 14.3187 15.8741 14.3543 15.8526 14.3945L14.6147 16.7327H10.5624L13.1351 14.7911C13.6778 14.3765 14.199 13.9585 14.6837 13.5489C15.1788 13.1301 15.6192 12.6832 15.9919 12.2205C16.3688 11.7527 16.6725 11.2509 16.8941 10.7287C17.1198 10.1972 17.234 9.60124 17.234 8.95754C17.234 8.31383 17.1079 7.68018 16.8585 7.11898C16.6072 6.55526 16.2377 6.05856 15.7599 5.64227C15.283 5.22765 14.6914 4.9014 14.0017 4.67315C13.3192 4.44783 12.5353 4.3335 11.6715 4.3335C10.8077 4.3335 10.0878 4.43652 9.43688 4.64048C8.78503 4.84486 8.20718 5.12672 7.72023 5.47809C7.23237 5.82989 6.82217 6.24325 6.5015 6.70645C6.18539 7.16211 5.93735 7.65086 5.76331 8.15845L5.66602 8.44324L8.9006 9.58784L9.00338 9.24986C9.16828 8.70835 9.44556 8.24012 9.8279 7.85817C10.1837 7.5026 10.7059 7.32964 11.4235 7.32964C11.9931 7.32964 12.4604 7.47203 12.8519 7.76477C13.2219 8.04202 13.4014 8.43863 13.4014 8.97764V9.24693C13.4014 9.81525 13.2228 10.3517 12.8715 10.8417C12.4988 11.3606 11.8963 11.9553 11.0813 12.6091L6.01866 16.6786V19.6668H17.6405V16.7323H17.2367L18.2887 14.7459C18.3472 14.6345 18.3453 14.5109 18.2951 14.4058L18.2955 14.407ZM16.9462 17.3701V19.0311H15.8348C15.8247 19.0332 15.8147 19.0349 15.8042 19.0365C15.7745 19.0403 15.7452 19.0416 15.7165 19.0403C15.6918 19.039 15.6681 19.0361 15.6443 19.0311H14.1899C14.1798 19.0332 14.1698 19.0349 14.1592 19.0365C14.1291 19.0403 14.1003 19.0416 14.0711 19.0403C14.0638 19.0403 14.0565 19.0395 14.0492 19.0386C14.0432 19.0382 14.0377 19.0374 14.0323 19.0365C14.0309 19.0365 14.0291 19.0365 14.0272 19.0361C14.0227 19.0357 14.0176 19.0349 14.0131 19.034C14.009 19.0336 14.0044 19.0328 14.0003 19.0315H6.713V16.9689L11.5386 13.0899C12.401 12.3984 13.0442 11.7602 13.4512 11.1935C13.8788 10.598 14.0958 9.94382 14.0958 9.2486V8.97931C14.0958 8.24766 13.8249 7.67348 13.2909 7.27352C12.7774 6.88947 12.1493 6.69431 11.423 6.69431C10.5126 6.69431 9.80369 6.9414 9.31583 7.42889C8.94034 7.80414 8.65027 8.2464 8.45065 8.74729L6.5321 8.06841C6.67736 7.71452 6.86328 7.37277 7.08803 7.04904C7.36622 6.64656 7.72343 6.28723 8.14962 5.97982C8.5749 5.67284 9.08377 5.42532 9.66116 5.2444C10.2395 5.06348 10.9155 4.97176 11.6711 4.97176C12.4266 4.97176 13.1593 5.07311 13.7659 5.27372C14.3648 5.47181 14.8746 5.75199 15.2816 6.10546C15.6872 6.45894 16.0015 6.88151 16.2153 7.36105C16.4304 7.84519 16.5396 8.38251 16.5396 8.95921C16.5396 9.53591 16.441 10.0418 16.2473 10.4996C16.0481 10.9691 15.774 11.4214 15.4337 11.8439C15.087 12.2745 14.6768 12.6908 14.2132 13.0824C13.7372 13.4848 13.2246 13.8957 12.6925 14.3023L8.62606 17.3714H14.278L13.9811 17.9317L13.7102 17.6628L13.6065 17.5602C13.6006 17.5544 13.5946 17.5489 13.5887 17.5435C13.5837 17.5389 13.5782 17.5343 13.5727 17.5301C13.5723 17.5297 13.5714 17.5288 13.5704 17.528C13.5654 17.5238 13.5599 17.52 13.5549 17.5163C13.5503 17.5133 13.5458 17.51 13.5412 17.507C13.538 17.505 13.5344 17.5024 13.5307 17.5003C13.522 17.4949 13.5124 17.4895 13.5033 17.4844C13.5001 17.4828 13.4955 17.4807 13.491 17.4781C13.3311 17.4002 13.1278 17.4187 12.9862 17.5376C12.8487 17.654 12.8108 17.8333 12.8766 17.9841C12.8788 17.9899 12.8811 17.9954 12.8839 18.0004C12.8866 18.0058 12.8894 18.0113 12.8926 18.0167C12.8948 18.0209 12.8971 18.0251 12.8994 18.0289C12.9017 18.0331 12.9044 18.0373 12.9072 18.041C12.9218 18.0645 12.9401 18.0863 12.9606 18.1068L13.7714 18.9121C13.7769 18.9176 13.7824 18.923 13.7879 18.9276C13.792 18.931 13.7961 18.9343 13.8002 18.9381C13.8148 18.9502 13.8304 18.9616 13.8463 18.9716C13.8495 18.9733 13.8527 18.9754 13.8559 18.9775C13.8587 18.9791 13.8619 18.9808 13.8651 18.9829C13.8651 18.9829 13.866 18.9829 13.8664 18.9833C13.8664 18.9833 13.8669 18.9833 13.8674 18.9838C13.8674 18.9838 13.8683 18.9842 13.8687 18.9846C13.8687 18.9846 13.8692 18.985 13.8701 18.9854C13.8701 18.9854 13.871 18.9858 13.8719 18.9863C13.8724 18.9867 13.8733 18.9871 13.8738 18.9871C13.882 18.9917 13.8902 18.9959 13.8993 18.9997C13.9062 19.0026 13.913 19.006 13.9199 19.0085C13.9272 19.0114 13.934 19.0139 13.9414 19.0164C13.9427 19.0168 13.9446 19.0173 13.9459 19.0181C13.9532 19.0202 13.9605 19.0227 13.9679 19.0248C13.9761 19.0269 13.9843 19.029 13.993 19.0307C13.9948 19.0307 13.9971 19.0315 13.9994 19.0319H14.1889C14.3196 19.0055 14.4306 18.9255 14.4895 18.8146L14.6645 18.4845L14.7165 18.3865L14.7755 18.2751L15.4168 18.9121C15.4218 18.9172 15.4273 18.9226 15.4328 18.9272C15.4374 18.9314 15.4424 18.9356 15.4474 18.9394C15.4524 18.9436 15.4579 18.9477 15.4634 18.9519C15.4689 18.9561 15.4744 18.9599 15.4798 18.9641C15.4917 18.9716 15.5036 18.9791 15.5159 18.9858C15.5219 18.9888 15.5278 18.9917 15.5338 18.9946C15.5397 18.9976 15.5461 19.0005 15.5525 19.0034C15.5589 19.006 15.5653 19.0085 15.5717 19.0114C15.5771 19.0135 15.5831 19.0156 15.5886 19.0177C15.6064 19.0235 15.6247 19.0286 15.6434 19.0319H15.8339C15.9645 19.0055 16.0755 18.9255 16.1344 18.8146L16.8991 17.3709H16.9453L16.9462 17.3701Z" fill="white"/>
</svg>
