<svg width="51" height="52" viewBox="0 0 51 52" fill="none" xmlns="http://www.w3.org/2000/svg">
<rect x="0.735427" y="1.21687" width="49.5658" height="49.5658" rx="24.7829" fill="white"/>
<rect x="0.735427" y="1.21687" width="49.5658" height="49.5658" rx="24.7829" stroke="#828375" stroke-width="1.41617"/>
<path d="M25.5184 42.9939C20.979 42.9939 16.712 41.2267 13.5018 38.0165C10.2925 34.8072 8.52441 30.5392 8.52441 25.9999C8.52441 21.4605 10.2916 17.1934 13.5018 13.9832C16.7111 10.774 20.979 9.00586 25.5184 9.00586C30.0578 9.00586 34.3249 10.7731 37.5351 13.9832C40.7443 17.1925 42.5124 21.4605 42.5124 25.9999C42.5124 30.5392 40.7452 34.8063 37.5351 38.0165C34.3258 41.2258 30.0578 42.9939 25.5184 42.9939ZM25.5184 10.9468C17.218 10.9468 10.4654 17.6995 10.4654 25.9999C10.4654 34.3003 17.218 41.0529 25.5184 41.0529C33.8188 41.0529 40.5715 34.3003 40.5715 25.9999C40.5715 17.6995 33.8188 10.9468 25.5184 10.9468Z" fill="#828375"/>
<path d="M19.4424 24.8626C17.2954 24.8626 15.5488 23.1151 15.5488 20.9672C15.5488 20.1029 15.8265 19.2842 16.3523 18.5981C16.9425 17.8287 17.7908 17.3101 18.7429 17.1373C18.9695 17.0943 19.2051 17.0728 19.4433 17.0728C21.5912 17.0728 23.3387 18.8194 23.3387 20.9663C23.3387 23.1133 21.5912 24.8617 19.4433 24.8617L19.4424 24.8626ZM19.4424 18.6501C19.3009 18.6501 19.163 18.6626 19.0322 18.6877H19.025C18.4589 18.7907 17.9538 19.0997 17.6027 19.5574C17.2901 19.965 17.1244 20.4531 17.1244 20.9672C17.1244 22.2454 18.1643 23.2862 19.4415 23.2862C20.7188 23.2862 21.7605 22.2463 21.7605 20.9672C21.7605 19.6882 20.7206 18.6501 19.4415 18.6501H19.4424Z" fill="#828375"/>
<path d="M18.4938 21.7542C17.2031 21.7542 16.1533 20.7044 16.1533 19.4138C16.1533 19.2391 16.1721 19.0671 16.2106 18.9014L16.2492 18.7339L16.354 18.5978C16.9442 17.8275 17.7942 17.3089 18.7472 17.1369L18.9165 17.1064L19.0831 17.1494C20.115 17.4155 20.8351 18.3461 20.8351 19.4147C20.8351 20.7053 19.7854 21.7551 18.4947 21.7551L18.4938 21.7542ZM17.7288 19.4057C17.7288 19.4057 17.7288 19.4102 17.7288 19.4129C17.7288 19.8347 18.0719 20.1778 18.4938 20.1778C18.9156 20.1778 19.2587 19.8347 19.2587 19.4129C19.2587 19.1182 19.0912 18.8557 18.8377 18.7294C18.4114 18.8441 18.028 19.0779 17.7297 19.4057H17.7288Z" fill="#828375"/>
<path d="M31.1573 24.8626C29.0103 24.8626 27.2637 23.1151 27.2637 20.9672C27.2637 20.1029 27.5413 19.2842 28.0671 18.5981C28.6574 17.8287 29.5056 17.3101 30.4577 17.1373C30.6843 17.0943 30.9199 17.0728 31.1582 17.0728C33.306 17.0728 35.0535 18.8194 35.0535 20.9663C35.0535 23.1133 33.306 24.8617 31.1582 24.8617L31.1573 24.8626ZM31.1573 18.6501C31.0157 18.6501 30.8778 18.6626 30.747 18.6877H30.7399C30.1738 18.7907 29.6686 19.0997 29.3175 19.5574C29.0049 19.965 28.8392 20.4531 28.8392 20.9672C28.8392 22.2454 29.8791 23.2862 31.1564 23.2862C32.4336 23.2862 33.4753 22.2463 33.4753 20.9672C33.4753 19.6882 32.4354 18.6501 31.1564 18.6501H31.1573Z" fill="#828375"/>
<path d="M30.2067 21.7542C28.916 21.7542 27.8662 20.7044 27.8662 19.4138C27.8662 19.2391 27.885 19.0671 27.9235 18.9014L27.9621 18.7339L28.0668 18.5978C28.6571 17.8275 29.5071 17.3089 30.4601 17.1369L30.6294 17.1064L30.796 17.1494C31.8279 17.4155 32.548 18.3461 32.548 19.4147C32.548 20.7053 31.4983 21.7551 30.2076 21.7551L30.2067 21.7542ZM29.4426 19.4057C29.4426 19.4057 29.4426 19.4102 29.4426 19.4129C29.4426 19.8347 29.7857 20.1778 30.2076 20.1778C30.6294 20.1778 30.9725 19.8347 30.9725 19.4129C30.9725 19.1182 30.805 18.8557 30.5515 18.7294C30.1252 18.8441 29.7418 19.0779 29.4435 19.4057H29.4426Z" fill="#828375"/>
<path d="M35.2096 36.2088C34.8128 36.2088 34.4151 36.0664 34.0971 35.7788L32.3908 34.2374C32.0603 33.9382 31.8668 33.528 31.8462 33.0828C31.8256 32.6376 31.9806 32.2113 32.2824 31.8835L32.4302 31.7222L31.6349 30.8821H17.1622C16.7269 30.8821 16.374 30.5292 16.374 30.0939C16.374 29.6586 16.7269 29.3057 17.1622 29.3057H32.3129L33.5319 30.5937L33.5731 30.5543C34.2163 29.9309 35.2275 29.9282 35.8742 30.548L37.5348 32.1387C37.8564 32.4469 38.0382 32.8616 38.0462 33.3076C38.0543 33.7528 37.8877 34.1747 37.5769 34.4935L36.3982 35.7054C36.0721 36.0404 35.6413 36.2097 35.2096 36.2097V36.2088ZM34.0729 32.2641L33.4424 32.9493C33.4271 32.9664 33.42 32.9861 33.4209 33.0094C33.4218 33.0317 33.4307 33.0515 33.4477 33.0667L35.154 34.6082C35.1872 34.6386 35.2373 34.6368 35.2687 34.6046L36.4474 33.3927C36.4636 33.3766 36.4716 33.3569 36.4707 33.3336C36.4707 33.3112 36.4618 33.2915 36.4456 33.2754L34.785 31.6846C34.7528 31.6542 34.7026 31.6542 34.6704 31.6846L34.0729 32.2632V32.2641Z" fill="#828375"/>
<path d="M31.921 30.8819C31.4857 30.8819 31.1328 30.529 31.1328 30.0937V28.047C31.1328 27.6117 31.4857 27.2588 31.921 27.2588C32.3563 27.2588 32.7092 27.6117 32.7092 28.047V30.0937C32.7092 30.529 32.3563 30.8819 31.921 30.8819Z" fill="#828375"/>
<path d="M30.588 32.9528C30.1527 32.9528 29.7998 32.5999 29.7998 32.1646V30.0919C29.7998 29.6566 30.1527 29.3037 30.588 29.3037C31.0233 29.3037 31.3762 29.6566 31.3762 30.0919V32.1646C31.3762 32.5999 31.0233 32.9528 30.588 32.9528Z" fill="#828375"/>
<path d="M29.2804 30.8819C28.8451 30.8819 28.4922 30.529 28.4922 30.0937V28.047C28.4922 27.6117 28.8451 27.2588 29.2804 27.2588C29.7157 27.2588 30.0686 27.6117 30.0686 28.047V30.0937C30.0686 30.529 29.7157 30.8819 29.2804 30.8819Z" fill="#828375"/>
<path d="M27.9464 32.9528C27.5111 32.9528 27.1582 32.5999 27.1582 32.1646V30.0919C27.1582 29.6566 27.5111 29.3037 27.9464 29.3037C28.3817 29.3037 28.7346 29.6566 28.7346 30.0919V32.1646C28.7346 32.5999 28.3817 32.9528 27.9464 32.9528Z" fill="#828375"/>
<path d="M26.7199 30.8819C26.2845 30.8819 25.9316 30.529 25.9316 30.0937V28.047C25.9316 27.6117 26.2845 27.2588 26.7199 27.2588C27.1552 27.2588 27.5081 27.6117 27.5081 28.047V30.0937C27.5081 30.529 27.1552 30.8819 26.7199 30.8819Z" fill="#828375"/>
<path d="M25.3868 32.9528C24.9515 32.9528 24.5986 32.5999 24.5986 32.1646V30.0919C24.5986 29.6566 24.9515 29.3037 25.3868 29.3037C25.8222 29.3037 26.1751 29.6566 26.1751 30.0919V32.1646C26.1751 32.5999 25.8222 32.9528 25.3868 32.9528Z" fill="#828375"/>
<path d="M24.0402 30.8819C23.6049 30.8819 23.252 30.529 23.252 30.0937V28.047C23.252 27.6117 23.6049 27.2588 24.0402 27.2588C24.4755 27.2588 24.8284 27.6117 24.8284 28.047V30.0937C24.8284 30.529 24.4755 30.8819 24.0402 30.8819Z" fill="#828375"/>
<path d="M22.7072 32.9528C22.2718 32.9528 21.9189 32.5999 21.9189 32.1646V30.0919C21.9189 29.6566 22.2718 29.3037 22.7072 29.3037C23.1425 29.3037 23.4954 29.6566 23.4954 30.0919V32.1646C23.4954 32.5999 23.1425 32.9528 22.7072 32.9528Z" fill="#828375"/>
<path d="M21.4533 30.8819C21.0179 30.8819 20.665 30.529 20.665 30.0937V28.047C20.665 27.6117 21.0179 27.2588 21.4533 27.2588C21.8886 27.2588 22.2415 27.6117 22.2415 28.047V30.0937C22.2415 30.529 21.8886 30.8819 21.4533 30.8819Z" fill="#828375"/>
<path d="M18.8507 30.8819C18.4154 30.8819 18.0625 30.529 18.0625 30.0937V28.047C18.0625 27.6117 18.4154 27.2588 18.8507 27.2588C19.286 27.2588 19.6389 27.6117 19.6389 28.047V30.0937C19.6389 30.529 19.286 30.8819 18.8507 30.8819Z" fill="#828375"/>
<path d="M20.1173 32.9528C19.682 32.9528 19.3291 32.5999 19.3291 32.1646V30.0919C19.3291 29.6566 19.682 29.3037 20.1173 29.3037C20.5526 29.3037 20.9055 29.6566 20.9055 30.0919V32.1646C20.9055 32.5999 20.5526 32.9528 20.1173 32.9528Z" fill="#828375"/>
</svg>
