<svg width="52" height="51" viewBox="0 0 52 51" fill="none" xmlns="http://www.w3.org/2000/svg">
<rect x="1.23543" y="0.717117" width="49.5658" height="49.5658" rx="24.7829" fill="white"/>
<rect x="1.23543" y="0.717117" width="49.5658" height="49.5658" rx="24.7829" stroke="#E04B20" stroke-width="1.41617"/>
<path d="M26.0184 42.4941C21.479 42.4941 17.212 40.7269 14.0018 37.5167C10.7925 34.3075 9.02441 30.0395 9.02441 25.5001C9.02441 20.9607 10.7916 16.6936 14.0018 13.4835C17.2111 10.2742 21.479 8.5061 26.0184 8.5061C30.5578 8.5061 34.8249 10.2733 38.0351 13.4835C41.2443 16.6927 43.0124 20.9607 43.0124 25.5001C43.0124 30.0395 41.2452 34.3066 38.0351 37.5167C34.8258 40.726 30.5578 42.4941 26.0184 42.4941ZM26.0184 10.4471C17.718 10.4471 10.9654 17.1997 10.9654 25.5001C10.9654 33.8005 17.718 40.5532 26.0184 40.5532C34.3188 40.5532 41.0715 33.8005 41.0715 25.5001C41.0715 17.1997 34.3188 10.4471 26.0184 10.4471Z" fill="#E04B20"/>
<path d="M19.9424 24.3629C17.7954 24.3629 16.0488 22.6154 16.0488 20.4675C16.0488 19.6031 16.3265 18.7845 16.8523 18.0984C17.4425 17.329 18.2908 16.8104 19.2429 16.6375C19.4695 16.5945 19.7051 16.573 19.9433 16.573C22.0912 16.573 23.8387 18.3196 23.8387 20.4666C23.8387 22.6136 22.0912 24.362 19.9433 24.362L19.9424 24.3629ZM19.9424 18.1503C19.8009 18.1503 19.663 18.1629 19.5322 18.1879H19.525C18.9589 18.2909 18.4538 18.6 18.1027 19.0577C17.7901 19.4652 17.6244 19.9534 17.6244 20.4675C17.6244 21.7456 18.6643 22.7864 19.9415 22.7864C21.2188 22.7864 22.2605 21.7465 22.2605 20.4675C22.2605 19.1884 21.2206 18.1503 19.9415 18.1503H19.9424Z" fill="#E04B20"/>
<path d="M18.9938 21.2547C17.7031 21.2547 16.6533 20.2049 16.6533 18.9142C16.6533 18.7396 16.6721 18.5676 16.7106 18.4019L16.7492 18.2344L16.854 18.0983C17.4442 17.328 18.2942 16.8094 19.2472 16.6374L19.4165 16.6069L19.5831 16.6499C20.615 16.9159 21.3351 17.8466 21.3351 18.9151C21.3351 20.2058 20.2854 21.2556 18.9947 21.2556L18.9938 21.2547ZM18.2288 18.9062C18.2288 18.9062 18.2288 18.9107 18.2288 18.9133C18.2288 19.3352 18.5719 19.6783 18.9938 19.6783C19.4156 19.6783 19.7587 19.3352 19.7587 18.9133C19.7587 18.6187 19.5912 18.3562 19.3377 18.2299C18.9114 18.3446 18.528 18.5784 18.2297 18.9062H18.2288Z" fill="#E04B20"/>
<path d="M31.6573 24.3629C29.5103 24.3629 27.7637 22.6154 27.7637 20.4675C27.7637 19.6031 28.0413 18.7845 28.5671 18.0984C29.1574 17.329 30.0056 16.8104 30.9577 16.6375C31.1843 16.5945 31.4199 16.573 31.6582 16.573C33.806 16.573 35.5535 18.3196 35.5535 20.4666C35.5535 22.6136 33.806 24.362 31.6582 24.362L31.6573 24.3629ZM31.6573 18.1503C31.5157 18.1503 31.3778 18.1629 31.247 18.1879H31.2399C30.6738 18.2909 30.1686 18.6 29.8175 19.0577C29.5049 19.4652 29.3392 19.9534 29.3392 20.4675C29.3392 21.7456 30.3791 22.7864 31.6564 22.7864C32.9336 22.7864 33.9753 21.7465 33.9753 20.4675C33.9753 19.1884 32.9354 18.1503 31.6564 18.1503H31.6573Z" fill="#E04B20"/>
<path d="M30.7067 21.2547C29.416 21.2547 28.3662 20.2049 28.3662 18.9142C28.3662 18.7396 28.385 18.5676 28.4235 18.4019L28.4621 18.2344L28.5668 18.0983C29.1571 17.328 30.0071 16.8094 30.9601 16.6374L31.1294 16.6069L31.296 16.6499C32.3279 16.9159 33.048 17.8466 33.048 18.9151C33.048 20.2058 31.9983 21.2556 30.7076 21.2556L30.7067 21.2547ZM29.9426 18.9062C29.9426 18.9062 29.9426 18.9107 29.9426 18.9133C29.9426 19.3352 30.2857 19.6783 30.7076 19.6783C31.1294 19.6783 31.4725 19.3352 31.4725 18.9133C31.4725 18.6187 31.305 18.3562 31.0515 18.2299C30.6252 18.3446 30.2418 18.5784 29.9435 18.9062H29.9426Z" fill="#E04B20"/>
<path d="M35.7096 35.7093C35.3128 35.7093 34.9151 35.5669 34.5971 35.2793L32.8908 33.7378C32.5603 33.4387 32.3668 33.0284 32.3462 32.5833C32.3256 32.1381 32.4806 31.7118 32.7824 31.384L32.9302 31.2227L32.1349 30.3826H17.6622C17.2269 30.3826 16.874 30.0297 16.874 29.5944C16.874 29.159 17.2269 28.8062 17.6622 28.8062H32.8129L34.0319 30.0942L34.0731 30.0547C34.7163 29.4313 35.7275 29.4287 36.3742 30.0485L38.0348 31.6392C38.3564 31.9474 38.5382 32.3621 38.5462 32.8081C38.5543 33.2533 38.3877 33.6751 38.0769 33.994L36.8982 35.2059C36.5721 35.5409 36.1413 35.7102 35.7096 35.7102V35.7093ZM34.5729 31.7646L33.9424 32.4498C33.9271 32.4668 33.92 32.4866 33.9209 32.5098C33.9218 32.5322 33.9307 32.5519 33.9477 32.5672L35.654 34.1087C35.6872 34.1391 35.7373 34.1373 35.7687 34.1051L36.9474 32.8932C36.9636 32.8771 36.9716 32.8574 36.9707 32.8341C36.9707 32.8117 36.9618 32.792 36.9456 32.7759L35.285 31.1851C35.2528 31.1547 35.2026 31.1547 35.1704 31.1851L34.5729 31.7637V31.7646Z" fill="#E04B20"/>
<path d="M32.421 30.3824C31.9857 30.3824 31.6328 30.0294 31.6328 29.5941V27.5475C31.6328 27.1122 31.9857 26.7593 32.421 26.7593C32.8563 26.7593 33.2092 27.1122 33.2092 27.5475V29.5941C33.2092 30.0294 32.8563 30.3824 32.421 30.3824Z" fill="#E04B20"/>
<path d="M31.088 32.453C30.6527 32.453 30.2998 32.1001 30.2998 31.6648V29.5922C30.2998 29.1569 30.6527 28.804 31.088 28.804C31.5233 28.804 31.8762 29.1569 31.8762 29.5922V31.6648C31.8762 32.1001 31.5233 32.453 31.088 32.453Z" fill="#E04B20"/>
<path d="M29.7804 30.3824C29.3451 30.3824 28.9922 30.0294 28.9922 29.5941V27.5475C28.9922 27.1122 29.3451 26.7593 29.7804 26.7593C30.2157 26.7593 30.5686 27.1122 30.5686 27.5475V29.5941C30.5686 30.0294 30.2157 30.3824 29.7804 30.3824Z" fill="#E04B20"/>
<path d="M28.4464 32.453C28.0111 32.453 27.6582 32.1001 27.6582 31.6648V29.5922C27.6582 29.1569 28.0111 28.804 28.4464 28.804C28.8817 28.804 29.2346 29.1569 29.2346 29.5922V31.6648C29.2346 32.1001 28.8817 32.453 28.4464 32.453Z" fill="#E04B20"/>
<path d="M27.2199 30.3824C26.7845 30.3824 26.4316 30.0294 26.4316 29.5941V27.5475C26.4316 27.1122 26.7845 26.7593 27.2199 26.7593C27.6552 26.7593 28.0081 27.1122 28.0081 27.5475V29.5941C28.0081 30.0294 27.6552 30.3824 27.2199 30.3824Z" fill="#E04B20"/>
<path d="M25.8868 32.453C25.4515 32.453 25.0986 32.1001 25.0986 31.6648V29.5922C25.0986 29.1569 25.4515 28.804 25.8868 28.804C26.3222 28.804 26.6751 29.1569 26.6751 29.5922V31.6648C26.6751 32.1001 26.3222 32.453 25.8868 32.453Z" fill="#E04B20"/>
<path d="M24.5402 30.3824C24.1049 30.3824 23.752 30.0294 23.752 29.5941V27.5475C23.752 27.1122 24.1049 26.7593 24.5402 26.7593C24.9755 26.7593 25.3284 27.1122 25.3284 27.5475V29.5941C25.3284 30.0294 24.9755 30.3824 24.5402 30.3824Z" fill="#E04B20"/>
<path d="M23.2072 32.453C22.7718 32.453 22.4189 32.1001 22.4189 31.6648V29.5922C22.4189 29.1569 22.7718 28.804 23.2072 28.804C23.6425 28.804 23.9954 29.1569 23.9954 29.5922V31.6648C23.9954 32.1001 23.6425 32.453 23.2072 32.453Z" fill="#E04B20"/>
<path d="M21.9533 30.3824C21.5179 30.3824 21.165 30.0294 21.165 29.5941V27.5475C21.165 27.1122 21.5179 26.7593 21.9533 26.7593C22.3886 26.7593 22.7415 27.1122 22.7415 27.5475V29.5941C22.7415 30.0294 22.3886 30.3824 21.9533 30.3824Z" fill="#E04B20"/>
<path d="M19.3507 30.3824C18.9154 30.3824 18.5625 30.0294 18.5625 29.5941V27.5475C18.5625 27.1122 18.9154 26.7593 19.3507 26.7593C19.786 26.7593 20.1389 27.1122 20.1389 27.5475V29.5941C20.1389 30.0294 19.786 30.3824 19.3507 30.3824Z" fill="#E04B20"/>
<path d="M20.6173 32.453C20.182 32.453 19.8291 32.1001 19.8291 31.6648V29.5922C19.8291 29.1569 20.182 28.804 20.6173 28.804C21.0526 28.804 21.4055 29.1569 21.4055 29.5922V31.6648C21.4055 32.1001 21.0526 32.453 20.6173 32.453Z" fill="#E04B20"/>
</svg>
