<svg width="25" height="24" viewBox="0 0 25 24" fill="none" xmlns="http://www.w3.org/2000/svg">
<rect x="1" y="0.5" width="23" height="23" rx="11.5" fill="#1A2626"/>
<rect x="1" y="0.5" width="23" height="23" rx="11.5" stroke="white"/>
<path d="M7.08062 15.4072C6.57239 15.3532 6.36279 15.1127 6.36279 14.6063C6.36279 14.4339 6.36117 14.2619 6.36279 14.0895C6.36724 13.6774 6.63471 13.4004 7.03328 13.3937C7.09761 13.3925 7.16236 13.3937 7.24248 13.3937V8.69125C7.00738 8.69125 6.77188 8.69125 6.53597 8.69125C6.2066 8.69041 6.11596 8.57244 6.19041 8.24717C6.48823 6.9461 6.78564 5.64503 7.08305 4.34396C7.15184 4.0432 7.20323 4 7.50064 4C10.832 4 14.1638 4 17.4952 4C17.7935 4 17.8453 4.04237 17.9136 4.34271C18.2127 5.64918 18.5117 6.95565 18.8111 8.26212C18.8807 8.56537 18.7848 8.69041 18.4785 8.69166C18.241 8.69249 18.0039 8.69166 17.753 8.69166V13.3941C17.8368 13.3941 17.9161 13.392 17.9954 13.3941C18.3547 13.4058 18.6246 13.6841 18.6335 14.0555C18.6379 14.2441 18.6347 14.4331 18.6347 14.6221C18.6343 15.1118 18.4138 15.3603 17.9161 15.4068C17.9161 15.4679 17.9161 15.5318 17.9161 15.5958C17.9161 16.9347 17.9161 18.2731 17.9161 19.612C17.9161 19.919 17.8388 20 17.545 20C14.1808 20 10.8171 20 7.45289 20C7.1575 20 7.08062 19.9202 7.08062 19.6141C7.08062 18.281 7.08062 16.948 7.08062 15.6149C7.08062 15.5493 7.08062 15.4832 7.08062 15.408V15.4072ZM9.0148 8.69914V13.3829H15.9803V8.70495H12.7686V10.4721C13.0321 10.4721 13.2854 10.4705 13.5387 10.4725C13.7912 10.4746 13.8883 10.5751 13.8636 10.831C13.798 11.5102 13.7276 12.189 13.654 12.8674C13.6289 13.0996 13.5443 13.1669 13.3088 13.1669C12.7682 13.1673 12.2276 13.1677 11.6866 13.1669C11.4532 13.1669 11.3722 13.1013 11.3459 12.8632C11.2723 12.1961 11.2019 11.5285 11.1367 10.8601C11.108 10.5643 11.1994 10.4725 11.4965 10.4721C11.7384 10.4717 11.98 10.4721 12.2272 10.4721V8.69872H9.01399L9.0148 8.69914ZM6.7472 8.14706H18.2438C18.2365 8.10302 18.2333 8.07062 18.2264 8.03946C18.0816 7.40804 17.9327 6.77786 17.7951 6.14436C17.7676 6.01849 17.7162 5.99065 17.6004 5.99107C16.3784 5.99481 15.1564 5.99356 13.9348 5.99356C11.7558 5.99356 9.57684 5.99439 7.39826 5.99107C7.28334 5.99107 7.22508 6.01516 7.20323 6.14394C7.16721 6.35663 7.10854 6.56517 7.06039 6.77578C6.9568 7.22775 6.85402 7.68013 6.7476 8.14706H6.7472ZM12.4983 13.9271C11.9901 13.9271 11.4815 13.9271 10.9733 13.9271C9.69702 13.9271 8.42038 13.9271 7.14415 13.9271C6.89084 13.9271 6.88235 13.9362 6.88235 14.2025C6.88235 14.3246 6.88235 14.4468 6.88235 14.5693C6.88235 14.858 6.88963 14.8655 7.17692 14.8655C10.7248 14.8655 14.2731 14.8655 17.821 14.8655C17.8481 14.8655 17.8752 14.8638 17.9019 14.8655C18.0508 14.8763 18.1241 14.8136 18.1168 14.6524C18.1099 14.5029 18.1156 14.3525 18.1152 14.2025C18.1152 13.9371 18.1058 13.9271 17.8529 13.9271C16.0681 13.9271 14.2832 13.9271 12.4983 13.9271ZM17.4244 4.54419H7.57226C7.50266 4.84993 7.43549 5.14571 7.36589 5.45269H17.632C17.5612 5.14238 17.4924 4.84246 17.4244 4.54419ZM8.47299 13.385V8.70246H7.79036V13.385H8.47299ZM17.2088 8.70246H16.5261V13.3846H17.2088V8.70246ZM9.9657 16.987H7.61232V18.0073H9.9657V16.987ZM13.1531 12.6277C13.2089 12.091 13.2643 11.5592 13.3206 11.0184H11.6753C11.7324 11.5638 11.7882 12.0951 11.844 12.6277H13.1531ZM15.2418 16.982V18.0102H17.3876V16.982H15.2418ZM10.4982 18.0106H12.3316V16.9845H10.4982V18.0106ZM12.8666 18.0102H14.7004V16.9849H12.8666V18.0102ZM9.38424 16.4299H11.1881V15.4101H9.38424V16.4299ZM13.5286 15.4089H11.7263V16.4279H13.5286V15.4089ZM15.8654 16.4308V15.408H14.0635V16.4308H15.8654ZM9.19284 19.4546H11.0914V18.5693H9.19284V19.4546ZM13.5221 19.4633V18.5656H11.6344V19.4633H13.5221ZM14.0643 19.4537H15.9572V18.5635H14.0643V19.4537ZM8.84606 16.4324V15.4105H7.61191V16.4324H8.84606ZM17.3884 15.4101H16.4039V16.4295H17.3884V15.4101ZM7.61151 18.5643V19.4571H8.65993V18.5643H7.61151ZM16.501 18.561V19.4579H17.3836V18.561H16.501Z" fill="#EDB22E"/>
</svg>
