<svg width="24" height="24" viewBox="0 0 24 24" fill="none" xmlns="http://www.w3.org/2000/svg">
<g id="hugeicons:view">
<path id="Vector" d="M18.3434 15.8192L19.0456 16.5264C20.5492 15.3332 21.7251 13.7757 22.4607 12C20.7578 7.89096 16.7171 5 12 5C10.6658 5 9.38491 5.23318 8.19594 5.6553L8.98026 6.43453C9.94183 6.15559 10.9613 6.00001 11.9999 6L18.3434 15.8192ZM18.3434 15.8192C19.5759 14.8577 20.577 13.628 21.2687 12.2205L21.3769 12.0004L21.269 11.78C20.4195 10.0459 19.1005 8.58487 17.4619 7.56308C15.8234 6.54131 13.931 5.99976 12 6L18.3434 15.8192ZM2.62302 11.9996L2.73133 11.7793C3.36132 10.4984 4.23326 9.38445 5.27429 8.49064L5.6264 8.18833L5.95407 8.51697L9.35407 11.927L9.47839 12.0516L9.49715 12.2267C9.55957 12.809 9.81943 13.3524 10.2335 13.7665C10.6476 14.1806 11.191 14.4404 11.7733 14.5028L11.9494 14.5217L12.0743 14.6472L14.3543 16.9372L14.9953 17.581L14.1085 17.7781C13.4395 17.9267 12.7229 18 12.0001 18L2.62302 11.9996ZM2.62302 11.9996L2.73098 12.22M2.62302 11.9996L2.73098 12.22M2.73098 12.22C3.58048 13.9541 4.8995 15.4151 6.53807 16.4369M2.73098 12.22L6.53807 16.4369M6.53807 16.4369C8.17662 17.4587 10.069 18.0002 12 18L6.53807 16.4369ZM19.2943 20.7214L18.7286 21.2915L16.0036 18.5664L15.7857 18.3486L15.4931 18.4452C14.3942 18.8084 13.2272 19 12 19C7.2827 19 3.24193 16.1088 1.5391 11.9995C2.20287 10.3905 3.22771 8.971 4.52001 7.83562L4.9207 7.48359L4.54355 7.10645L2.7085 5.27139L3.27862 4.70572L19.2943 20.7214ZM14.4997 11.9626L12.0374 9.50028C12.6869 9.50998 13.3077 9.77221 13.7678 10.2322C14.2278 10.6923 14.49 11.3131 14.4997 11.9626Z" fill="black" stroke="#1A2626"/>
</g>
</svg>
