<svg width="37" height="36" viewBox="0 0 37 36" fill="none" xmlns="http://www.w3.org/2000/svg">
<g id="icon / jam-icons / outline &#38; logos / instagram">
<path id="Vector" d="M24.359 3H12.254C9.88873 3.00278 7.62115 3.94371 5.94879 5.61635C4.27643 7.28899 3.33588 9.55673 3.3335 11.922L3.3335 24.027C3.33628 26.3923 4.27721 28.6598 5.94985 30.3322C7.62249 32.0046 9.89023 32.9451 12.2555 32.9475H24.3605C26.7258 32.9447 28.9933 32.0038 30.6657 30.3311C32.3381 28.6585 33.2786 26.3908 33.281 24.0255V11.9205C33.2782 9.55523 32.3373 7.28765 30.6646 5.61529C28.992 3.94293 26.7243 3.00238 24.359 3V3ZM30.269 24.0255C30.269 24.8016 30.1161 25.5701 29.8191 26.2872C29.5221 27.0042 29.0868 27.6557 28.538 28.2045C27.9892 28.7533 27.3377 29.1886 26.6207 29.4856C25.9036 29.7826 25.1351 29.9355 24.359 29.9355H12.254C10.6868 29.9351 9.18398 29.3123 8.07596 28.204C6.96795 27.0957 6.3455 25.5927 6.3455 24.0255V11.9205C6.34589 10.3533 6.96873 8.85048 8.07703 7.74247C9.18532 6.63445 10.6883 6.012 12.2555 6.012H24.3605C25.9277 6.0124 27.4305 6.63523 28.5385 7.74353C29.6465 8.85183 30.269 10.3548 30.269 11.922V24.027V24.0255Z" fill="#000000"/>
<path id="Vector_2" d="M18.3065 10.2285C16.2536 10.2317 14.2858 11.0487 12.8343 12.5004C11.3829 13.9522 10.5663 15.9202 10.5635 17.973C10.5659 20.0264 11.3825 21.995 12.8343 23.4471C14.2861 24.8992 16.2546 25.7162 18.308 25.719C20.3616 25.7166 22.3305 24.8998 23.7826 23.4476C25.2347 21.9955 26.0516 20.0267 26.054 17.973C26.0508 15.9196 25.2334 13.9513 23.781 12.4998C22.3286 11.0483 20.3599 10.232 18.3065 10.23V10.2285ZM18.3065 22.707C17.0513 22.707 15.8476 22.2084 14.9601 21.3209C14.0726 20.4334 13.574 19.2297 13.574 17.9745C13.574 16.7194 14.0726 15.5156 14.9601 14.6281C15.8476 13.7406 17.0513 13.242 18.3065 13.242C19.5616 13.242 20.7653 13.7406 21.6529 14.6281C22.5404 15.5156 23.039 16.7194 23.039 17.9745C23.039 19.2297 22.5404 20.4334 21.6529 21.3209C20.7653 22.2084 19.5616 22.707 18.3065 22.707Z" fill="#000000"/>
<path id="Vector_3" d="M26.0674 12.1424C27.0922 12.1424 27.9229 11.3117 27.9229 10.2869C27.9229 9.26213 27.0922 8.4314 26.0674 8.4314C25.0427 8.4314 24.2119 9.26213 24.2119 10.2869C24.2119 11.3117 25.0427 12.1424 26.0674 12.1424Z" fill="#000000"/>
</g>
</svg>
