<svg width="32" height="32" viewBox="0 0 32 32" fill="none" xmlns="http://www.w3.org/2000/svg">
<path d="M23.4933 11.5195H23.5053M23.5053 8.5135V4.7575M9.25226 31H5.07626C4.59176 31 4.10426 30.931 3.65876 30.7405C2.20976 30.118 1.47326 29.2945 1.13126 28.78C1.03844 28.6375 0.992837 28.4694 1.00091 28.2995C1.00899 28.1296 1.07034 27.9666 1.17626 27.8335C2.85626 25.6015 6.75026 24.2545 9.25226 24.2545M9.25976 31H13.4343C13.9203 31 14.4063 30.931 14.8518 30.7405C16.3023 30.118 17.0373 29.2945 17.3808 28.78C17.4736 28.6375 17.5192 28.4694 17.5111 28.2995C17.503 28.1296 17.4417 27.9666 17.3358 27.8335C15.6558 25.6015 11.7618 24.2545 9.25976 24.2545M30.9993 8.188C30.9993 12.157 27.6393 15.376 23.4933 15.376C23.0053 15.376 22.5213 15.331 22.0413 15.241C21.6963 15.1765 21.5253 15.145 21.4038 15.163C21.2838 15.181 21.1128 15.271 20.7738 15.454C19.8027 15.9717 18.6852 16.1456 17.6028 15.9475C18.0138 15.4405 18.2928 14.833 18.4173 14.182C18.4923 13.7845 18.3063 13.3975 18.0273 13.114C16.7245 11.8051 15.9914 10.0347 15.9873 8.188C15.9873 4.219 19.3473 1 23.4933 1C27.6393 1 30.9993 4.219 30.9993 8.188ZM13.4268 16.4335C13.4252 17.5373 12.9853 18.5954 12.204 19.3751C11.4226 20.1548 10.3636 20.5923 9.25976 20.5915C8.71293 20.5923 8.17131 20.4854 7.66581 20.2768C7.1603 20.0683 6.70083 19.7622 6.31361 19.3761C5.92639 18.99 5.61901 18.5314 5.40902 18.0265C5.19903 17.5216 5.09054 16.9803 5.08976 16.4335C5.09035 15.8865 5.19869 15.3451 5.40859 14.84C5.61849 14.3349 5.92584 13.8762 6.31308 13.4899C6.70032 13.1036 7.15986 12.7974 7.66546 12.5888C8.17106 12.3802 8.71281 12.2732 9.25976 12.274C10.3639 12.2732 11.4231 12.7109 12.2045 13.491C12.9859 14.271 13.4256 15.3294 13.4268 16.4335Z" stroke="black" stroke-width="1.5" stroke-linecap="round" stroke-linejoin="round"/>
</svg>
