<svg width="24" height="24" viewBox="0 0 24 24" fill="none" xmlns="http://www.w3.org/2000/svg">
<g id="twemoji:flag-kuwait" clip-path="url(#clip0_233_2128)">
<path id="Vector" d="M21.3333 3.33261H2.66667C1.95942 3.33261 1.28115 3.61356 0.781049 4.11366C0.280952 4.61376 0 5.29203 0 5.99928L0 8.99928H24V5.99928C24 5.29203 23.719 4.61376 23.219 4.11366C22.7189 3.61356 22.0406 3.33261 21.3333 3.33261Z" fill="#007A3D"/>
<path id="Vector_2" d="M0 17.9993C0 18.7065 0.280952 19.3848 0.781049 19.8849C1.28115 20.385 1.95942 20.6659 2.66667 20.6659H21.3333C22.0406 20.6659 22.7189 20.385 23.219 19.8849C23.719 19.3848 24 18.7065 24 17.9993V14.9993H0V17.9993Z" fill="#CE1126"/>
<path id="Vector_3" d="M0 8.99927H24V14.9993H0V8.99927Z" fill="#EEEEEE"/>
<path id="Vector_4" d="M0.803333 4.09128C0.549003 4.3397 0.346915 4.63647 0.208956 4.96414C0.0709972 5.29181 -4.76323e-05 5.64375 2.39596e-08 5.99928V17.9993C2.39596e-08 18.7473 0.308 19.4226 0.803333 19.9073L6 14.9993V8.99928L0.803333 4.09128Z" fill="#141414"/>
</g>
<defs>
<clipPath id="clip0_233_2128">
<rect width="24" height="24" fill="white" transform="translate(0 -0.000732422)"/>
</clipPath>
</defs>
</svg>
