<svg width="69" height="54" viewBox="0 0 69 54" fill="none" xmlns="http://www.w3.org/2000/svg">
<path d="M25.6141 30.4293C25.6141 30.4293 25.6141 30.381 25.602 30.3689C25.5899 30.3327 25.5659 30.2965 25.5296 30.2603C25.5296 30.2603 25.5175 30.2482 25.5055 30.2361C25.4934 30.2241 25.4813 30.212 25.4692 30.1999L21.7622 27.652C21.6777 27.5917 21.569 27.5796 21.4603 27.5917C21.4362 27.5917 21.3999 27.6037 21.3757 27.6279C21.3636 27.6279 21.3517 27.64 21.3396 27.652C21.3275 27.6641 21.3154 27.6641 21.3033 27.6762C21.2913 27.6762 21.2792 27.7004 21.2671 27.7124C21.255 27.7245 21.2429 27.7366 21.2429 27.7487L18.6951 31.4557C18.6347 31.5403 18.6227 31.6368 18.6348 31.7334C18.6469 31.83 18.7072 31.9146 18.7918 31.9749L22.4988 34.5228C22.5591 34.559 22.6317 34.5952 22.7041 34.5952C22.8249 34.5952 22.9335 34.5349 23.006 34.4262L25.5538 30.7191C25.5538 30.7191 25.578 30.6829 25.578 30.6708C25.578 30.6467 25.5899 30.6346 25.602 30.6225C25.602 30.6225 25.602 30.6104 25.602 30.5984C25.602 30.5984 25.602 30.5984 25.602 30.5863C25.602 30.5863 25.602 30.4897 25.602 30.4414L25.6141 30.4293ZM22.6074 33.6775L19.5163 31.5523L21.6415 28.4611L24.7326 30.5863L22.6074 33.6775ZM40.3217 28.0022L38.1602 31.1418L40.7805 30.7433L40.3217 27.9901V28.0022ZM39.7058 24.271L37.1459 24.7299L40.1284 26.7826L39.7058 24.271ZM33.1973 25.4302L33.2457 25.4664L34.912 26.6136L36.0712 24.9231L33.1973 25.4302ZM38.2085 10.614H38.0999C38.0999 10.614 38.1239 10.6503 38.136 10.6624C38.1602 10.6865 38.1723 10.7227 38.1844 10.7469C38.1844 10.7589 38.1964 10.7831 38.1964 10.8073L39.1262 16.3376L41.1066 15.4803L38.1964 10.614H38.2085ZM38.9693 17.2191C38.9693 17.2191 38.9935 17.2191 39.0055 17.2071C38.9935 17.2071 38.9813 17.2071 38.9693 17.2191ZM38.4741 16.9414V16.9656C38.4741 16.9535 38.4741 16.9414 38.4621 16.9173L38.4741 16.9414ZM38.4741 16.8206C38.4741 16.8206 38.4741 16.881 38.4741 16.9052C38.4741 16.9173 38.4741 16.9293 38.4741 16.9293C38.4741 16.9293 38.4741 16.8448 38.4741 16.8086V16.8206ZM29.8646 5.16815L30.9151 10.8435L34.6343 10.6744L29.8646 5.18024V5.16815ZM47.6996 4.84214C47.6996 4.84214 47.6272 4.78174 47.603 4.74552L48.1705 7.70394L51.153 7.23299L47.6996 4.84214ZM54.522 3.29652C54.5462 3.39312 54.522 3.51388 54.4616 3.5984L52.0587 7.08809L55.8382 6.48434L54.5099 3.29652H54.522ZM62.3346 27.5434C62.3346 27.5434 62.383 27.5434 62.4071 27.5192C62.383 27.5192 62.3588 27.5313 62.3346 27.5313V27.5434ZM25.107 19.5134L24.6482 16.8086V16.7361L23.8874 12.2442C23.8512 12.051 23.658 11.9061 23.4528 11.9423C23.2475 11.9785 23.1147 12.1717 23.1509 12.377L23.8754 16.6516L17.8136 20.093L16.8114 13.7053C16.8356 13.9106 16.6907 14.0917 16.4854 14.1158L16.1352 14.152L17.1615 20.733C17.1736 20.8538 17.2582 20.9503 17.3668 21.0107C17.4151 21.0349 17.4755 21.0469 17.5238 21.0469C17.5842 21.0469 17.6446 21.0349 17.705 20.9987L23.9961 17.4244L24.3705 19.6342C24.3946 19.8153 24.5636 19.9481 24.7326 19.9481C24.7568 19.9481 24.7689 19.9481 24.7931 19.9481C24.9984 19.9119 25.1312 19.7187 25.095 19.5134H25.107ZM15.5797 10.6503L13.4666 13.7053L16.0144 13.4155L15.5797 10.6382V10.6503ZM9.26448 11.7612L9.68708 14.14L12.2833 13.8381L9.26448 11.7612ZM11.3172 7.53487L7.27206 0L0.171875 1.2196V1.31618C0.232251 1.27996 0.292668 1.24376 0.365118 1.23169L6.82528 0.132846C6.82528 0.132846 6.90979 0.132846 6.95809 0.132846C6.98224 0.132846 6.99438 0.132832 7.01853 0.156983C7.0789 0.169058 7.12706 0.217354 7.17536 0.265654C7.18744 0.277729 7.19955 0.30189 7.21162 0.313965C7.23577 0.35019 7.24789 0.398498 7.25997 0.434724L9.09541 10.8193L11.3414 7.55904L11.3172 7.53487ZM54.2684 18.4146L53.0489 11.1574C53.0127 10.9521 52.8193 10.8193 52.6141 10.8555C52.4088 10.8918 52.276 11.085 52.3122 11.2903L53.5318 18.5474C53.5559 18.7285 53.7251 18.8613 53.8941 18.8613C53.9183 18.8613 53.9304 18.8613 53.9545 18.8613C54.1598 18.8251 54.2926 18.6319 54.2564 18.4267L54.2684 18.4146Z" fill="#EAE1C5"/>
<path d="M37.3749 31.2624L34.3682 31.7213L34.3803 31.6971L35.5515 30.0066L37.3749 31.2624Z" fill="#EAE1C5"/>
<path d="M59.1713 7.31738L61.3931 20.0204L62.6369 27.1085C62.6489 27.2051 62.6368 27.3017 62.5764 27.3862C62.5402 27.4466 62.48 27.4949 62.4075 27.5191C62.3834 27.5191 62.3591 27.5311 62.335 27.5432L48.5935 29.9341L49.6319 36.829C49.644 36.9377 49.6199 37.0463 49.5475 37.1188C49.5233 37.1429 49.487 37.1792 49.4508 37.2033C49.4145 37.2275 49.3663 37.2396 49.3301 37.2516L28.6454 40.9708C28.6454 40.9708 28.5971 40.9708 28.573 40.9708C28.4764 40.9708 28.3797 40.9345 28.3193 40.8621C28.2348 40.7776 28.1986 40.6568 28.2107 40.5361L29.394 32.7235C29.4182 32.5665 29.5389 32.4336 29.708 32.4095L30.9034 32.2284L31.9902 32.0714L33.3184 31.8661H33.2942L32.4974 31.3107L29.9375 29.5477C29.7684 29.4269 29.7321 29.1975 29.8408 29.0285L31.652 26.3961L32.1713 25.6474L32.2076 25.5991L30.8431 25.8406L29.7805 26.0338L4.79698 30.4533C4.79698 30.4533 4.76084 30.4533 4.73669 30.4533C4.68839 30.4533 4.6401 30.4533 4.5918 30.4292V30.4533L12.7304 53.9998L69.0005 42.7458L59.1592 7.32947L59.1713 7.31738ZM25.6145 30.562C25.6145 30.562 25.6145 30.5741 25.6145 30.5862C25.6145 30.5862 25.6145 30.5982 25.6145 30.6103C25.6145 30.6224 25.6024 30.6465 25.5903 30.6586C25.5903 30.6707 25.5784 30.6948 25.5663 30.7069L23.0185 34.414C22.946 34.5226 22.8252 34.583 22.7166 34.583C22.6441 34.583 22.5716 34.5589 22.5112 34.5106L18.8041 31.9627C18.7196 31.9023 18.6713 31.8178 18.6471 31.7212C18.635 31.6246 18.6472 31.528 18.7075 31.4435L21.2554 27.7364C21.2554 27.7364 21.2675 27.7123 21.2796 27.7002C21.2796 27.7002 21.3037 27.6761 21.3158 27.664C21.3158 27.6519 21.34 27.6519 21.3521 27.6398C21.3642 27.6398 21.3761 27.6277 21.3882 27.6157C21.4123 27.6036 21.4487 27.5915 21.4728 27.5794C21.5694 27.5553 21.6781 27.5795 21.7747 27.6398L25.4817 30.1877C25.4817 30.1877 25.5059 30.2118 25.5179 30.2239C25.5179 30.2239 25.53 30.2239 25.5421 30.2481C25.5663 30.2843 25.5903 30.3205 25.6145 30.3567C25.6145 30.3809 25.6266 30.405 25.6266 30.4171C25.6266 30.4654 25.6266 30.5137 25.6266 30.55L25.6145 30.562Z" fill="#EAE1C5"/>
<path d="M54.2685 18.4146L53.049 11.1575C53.0128 10.9522 52.8195 10.8194 52.6142 10.8556C52.4089 10.8918 52.2761 11.085 52.3123 11.2903L53.5319 18.5475C53.556 18.7286 53.7252 18.8614 53.8942 18.8614C53.9184 18.8614 53.9305 18.8614 53.9546 18.8614C54.1599 18.8252 54.2928 18.632 54.2565 18.4267L54.2685 18.4146ZM54.2685 18.4146L53.049 11.1575C53.0128 10.9522 52.8195 10.8194 52.6142 10.8556C52.4089 10.8918 52.2761 11.085 52.3123 11.2903L53.5319 18.5475C53.556 18.7286 53.7252 18.8614 53.8942 18.8614C53.9184 18.8614 53.9305 18.8614 53.9546 18.8614C54.1599 18.8252 54.2928 18.632 54.2565 18.4267L54.2685 18.4146ZM54.2685 18.4146L53.049 11.1575C53.0128 10.9522 52.8195 10.8194 52.6142 10.8556C52.4089 10.8918 52.2761 11.085 52.3123 11.2903L53.5319 18.5475C53.556 18.7286 53.7252 18.8614 53.8942 18.8614C53.9184 18.8614 53.9305 18.8614 53.9546 18.8614C54.1599 18.8252 54.2928 18.632 54.2565 18.4267L54.2685 18.4146ZM54.2685 18.4146L53.049 11.1575C53.0128 10.9522 52.8195 10.8194 52.6142 10.8556C52.4089 10.8918 52.2761 11.085 52.3123 11.2903L53.5319 18.5475C53.556 18.7286 53.7252 18.8614 53.8942 18.8614C53.9184 18.8614 53.9305 18.8614 53.9546 18.8614C54.1599 18.8252 54.2928 18.632 54.2565 18.4267L54.2685 18.4146ZM54.2685 18.4146L53.049 11.1575C53.0128 10.9522 52.8195 10.8194 52.6142 10.8556C52.4089 10.8918 52.2761 11.085 52.3123 11.2903L53.5319 18.5475C53.556 18.7286 53.7252 18.8614 53.8942 18.8614C53.9184 18.8614 53.9305 18.8614 53.9546 18.8614C54.1599 18.8252 54.2928 18.632 54.2565 18.4267L54.2685 18.4146ZM54.2685 18.4146L53.049 11.1575C53.0128 10.9522 52.8195 10.8194 52.6142 10.8556C52.4089 10.8918 52.2761 11.085 52.3123 11.2903L53.5319 18.5475C53.556 18.7286 53.7252 18.8614 53.8942 18.8614C53.9184 18.8614 53.9305 18.8614 53.9546 18.8614C54.1599 18.8252 54.2928 18.632 54.2565 18.4267L54.2685 18.4146ZM54.2685 18.4146L53.049 11.1575C53.0128 10.9522 52.8195 10.8194 52.6142 10.8556C52.4089 10.8918 52.2761 11.085 52.3123 11.2903L53.5319 18.5475C53.556 18.7286 53.7252 18.8614 53.8942 18.8614C53.9184 18.8614 53.9305 18.8614 53.9546 18.8614C54.1599 18.8252 54.2928 18.632 54.2565 18.4267L54.2685 18.4146ZM54.2685 18.4146L53.049 11.1575C53.0128 10.9522 52.8195 10.8194 52.6142 10.8556C52.4089 10.8918 52.2761 11.085 52.3123 11.2903L53.5319 18.5475C53.556 18.7286 53.7252 18.8614 53.8942 18.8614C53.9184 18.8614 53.9305 18.8614 53.9546 18.8614C54.1599 18.8252 54.2928 18.632 54.2565 18.4267L54.2685 18.4146ZM54.2685 18.4146L53.049 11.1575C53.0128 10.9522 52.8195 10.8194 52.6142 10.8556C52.4089 10.8918 52.2761 11.085 52.3123 11.2903L53.5319 18.5475C53.556 18.7286 53.7252 18.8614 53.8942 18.8614C53.9184 18.8614 53.9305 18.8614 53.9546 18.8614C54.1599 18.8252 54.2928 18.632 54.2565 18.4267L54.2685 18.4146ZM54.2685 18.4146L53.049 11.1575C53.0128 10.9522 52.8195 10.8194 52.6142 10.8556C52.4089 10.8918 52.2761 11.085 52.3123 11.2903L53.5319 18.5475C53.556 18.7286 53.7252 18.8614 53.8942 18.8614C53.9184 18.8614 53.9305 18.8614 53.9546 18.8614C54.1599 18.8252 54.2928 18.632 54.2565 18.4267L54.2685 18.4146ZM0.196156 1.31625C0.0995552 1.40078 0.0512723 1.52152 0.0633475 1.65435L4.36202 30.1396C4.37409 30.2362 4.43447 30.3207 4.519 30.3811C4.54315 30.3932 4.56737 30.4052 4.59152 30.4173L0.196156 1.3042V1.31625ZM9.26459 11.7612L9.68719 14.14L12.2834 13.8382L9.26459 11.7612ZM15.5799 10.6503L13.4667 13.7053L16.0145 13.4156L15.5799 10.6382V10.6503ZM25.1071 19.5135L24.6483 16.8087V16.7362L23.8876 12.2443C23.8513 12.0511 23.6581 11.9062 23.4529 11.9424C23.2476 11.9786 23.1148 12.1718 23.151 12.3771L23.8755 16.6517L17.8137 20.0931L16.8115 13.7053C16.8357 13.9106 16.6908 14.0917 16.4855 14.1159L16.1353 14.1521L17.1616 20.7331C17.1737 20.8538 17.2583 20.9504 17.367 21.0108C17.4153 21.0349 17.4756 21.047 17.5239 21.047C17.5843 21.047 17.6447 21.035 17.7051 20.9987L23.9962 17.4245L24.3706 19.6342C24.3947 19.8154 24.5637 19.9482 24.7327 19.9482C24.7569 19.9482 24.769 19.9482 24.7932 19.9482C24.9985 19.912 25.1313 19.7188 25.0951 19.5135H25.1071ZM38.4743 16.8207C38.4743 16.8207 38.4743 16.8811 38.4743 16.9052C38.4743 16.9173 38.4743 16.9294 38.4743 16.9294C38.4743 16.9294 38.4743 16.8449 38.4743 16.8087V16.8207ZM54.2685 18.4146L53.049 11.1575C53.0128 10.9522 52.8195 10.8194 52.6142 10.8556C52.4089 10.8918 52.2761 11.085 52.3123 11.2903L53.5319 18.5475C53.556 18.7286 53.7252 18.8614 53.8942 18.8614C53.9184 18.8614 53.9305 18.8614 53.9546 18.8614C54.1599 18.8252 54.2928 18.632 54.2565 18.4267L54.2685 18.4146ZM54.2685 18.4146L53.049 11.1575C53.0128 10.9522 52.8195 10.8194 52.6142 10.8556C52.4089 10.8918 52.2761 11.085 52.3123 11.2903L53.5319 18.5475C53.556 18.7286 53.7252 18.8614 53.8942 18.8614C53.9184 18.8614 53.9305 18.8614 53.9546 18.8614C54.1599 18.8252 54.2928 18.632 54.2565 18.4267L54.2685 18.4146ZM62.3347 27.5434C62.3347 27.5434 62.3831 27.5434 62.4072 27.5193C62.3831 27.5193 62.3589 27.5314 62.3347 27.5314V27.5434ZM54.2685 18.4146L53.049 11.1575C53.0128 10.9522 52.8195 10.8194 52.6142 10.8556C52.4089 10.8918 52.2761 11.085 52.3123 11.2903L53.5319 18.5475C53.556 18.7286 53.7252 18.8614 53.8942 18.8614C53.9184 18.8614 53.9305 18.8614 53.9546 18.8614C54.1599 18.8252 54.2928 18.632 54.2565 18.4267L54.2685 18.4146ZM54.2685 18.4146L53.049 11.1575C53.0128 10.9522 52.8195 10.8194 52.6142 10.8556C52.4089 10.8918 52.2761 11.085 52.3123 11.2903L53.5319 18.5475C53.556 18.7286 53.7252 18.8614 53.8942 18.8614C53.9184 18.8614 53.9305 18.8614 53.9546 18.8614C54.1599 18.8252 54.2928 18.632 54.2565 18.4267L54.2685 18.4146ZM54.2685 18.4146L53.049 11.1575C53.0128 10.9522 52.8195 10.8194 52.6142 10.8556C52.4089 10.8918 52.2761 11.085 52.3123 11.2903L53.5319 18.5475C53.556 18.7286 53.7252 18.8614 53.8942 18.8614C53.9184 18.8614 53.9305 18.8614 53.9546 18.8614C54.1599 18.8252 54.2928 18.632 54.2565 18.4267L54.2685 18.4146ZM54.2685 18.4146L53.049 11.1575C53.0128 10.9522 52.8195 10.8194 52.6142 10.8556C52.4089 10.8918 52.2761 11.085 52.3123 11.2903L53.5319 18.5475C53.556 18.7286 53.7252 18.8614 53.8942 18.8614C53.9184 18.8614 53.9305 18.8614 53.9546 18.8614C54.1599 18.8252 54.2928 18.632 54.2565 18.4267L54.2685 18.4146ZM54.2685 18.4146L53.049 11.1575C53.0128 10.9522 52.8195 10.8194 52.6142 10.8556C52.4089 10.8918 52.2761 11.085 52.3123 11.2903L53.5319 18.5475C53.556 18.7286 53.7252 18.8614 53.8942 18.8614C53.9184 18.8614 53.9305 18.8614 53.9546 18.8614C54.1599 18.8252 54.2928 18.632 54.2565 18.4267L54.2685 18.4146ZM54.2685 18.4146L53.049 11.1575C53.0128 10.9522 52.8195 10.8194 52.6142 10.8556C52.4089 10.8918 52.2761 11.085 52.3123 11.2903L53.5319 18.5475C53.556 18.7286 53.7252 18.8614 53.8942 18.8614C53.9184 18.8614 53.9305 18.8614 53.9546 18.8614C54.1599 18.8252 54.2928 18.632 54.2565 18.4267L54.2685 18.4146ZM54.2685 18.4146L53.049 11.1575C53.0128 10.9522 52.8195 10.8194 52.6142 10.8556C52.4089 10.8918 52.2761 11.085 52.3123 11.2903L53.5319 18.5475C53.556 18.7286 53.7252 18.8614 53.8942 18.8614C53.9184 18.8614 53.9305 18.8614 53.9546 18.8614C54.1599 18.8252 54.2928 18.632 54.2565 18.4267L54.2685 18.4146ZM54.2685 18.4146L53.049 11.1575C53.0128 10.9522 52.8195 10.8194 52.6142 10.8556C52.4089 10.8918 52.2761 11.085 52.3123 11.2903L53.5319 18.5475C53.556 18.7286 53.7252 18.8614 53.8942 18.8614C53.9184 18.8614 53.9305 18.8614 53.9546 18.8614C54.1599 18.8252 54.2928 18.632 54.2565 18.4267L54.2685 18.4146ZM54.2685 18.4146L53.049 11.1575C53.0128 10.9522 52.8195 10.8194 52.6142 10.8556C52.4089 10.8918 52.2761 11.085 52.3123 11.2903L53.5319 18.5475C53.556 18.7286 53.7252 18.8614 53.8942 18.8614C53.9184 18.8614 53.9305 18.8614 53.9546 18.8614C54.1599 18.8252 54.2928 18.632 54.2565 18.4267L54.2685 18.4146ZM54.2685 18.4146L53.049 11.1575C53.0128 10.9522 52.8195 10.8194 52.6142 10.8556C52.4089 10.8918 52.2761 11.085 52.3123 11.2903L53.5319 18.5475C53.556 18.7286 53.7252 18.8614 53.8942 18.8614C53.9184 18.8614 53.9305 18.8614 53.9546 18.8614C54.1599 18.8252 54.2928 18.632 54.2565 18.4267L54.2685 18.4146ZM54.2685 18.4146L53.049 11.1575C53.0128 10.9522 52.8195 10.8194 52.6142 10.8556C52.4089 10.8918 52.2761 11.085 52.3123 11.2903L53.5319 18.5475C53.556 18.7286 53.7252 18.8614 53.8942 18.8614C53.9184 18.8614 53.9305 18.8614 53.9546 18.8614C54.1599 18.8252 54.2928 18.632 54.2565 18.4267L54.2685 18.4146Z" fill="#EAE1C5"/>
<path d="M38.474 16.9414V16.9655C38.474 16.9535 38.474 16.9414 38.4619 16.9172L38.474 16.9414Z" fill="#EAE1C5"/>
<path d="M15.5912 10.6382L15.5791 10.6503V10.6382H15.5912Z" fill="#EAE1C5"/>
<path d="M38.4974 16.9897C38.4974 16.9776 38.4974 16.9656 38.4854 16.9414C38.4854 16.9535 38.4854 16.9776 38.4974 16.9897Z" fill="#EAE1C5"/>
<path d="M39.005 17.219C39.005 17.219 38.9808 17.219 38.9688 17.2311C38.9688 17.2311 38.9929 17.2311 39.005 17.219Z" fill="#EAE1C5"/>
<path d="M25.6134 30.4293C25.6134 30.4293 25.6134 30.381 25.6013 30.3689C25.5893 30.3327 25.5652 30.2964 25.529 30.2602C25.529 30.2602 25.5169 30.2481 25.5048 30.2361C25.4927 30.224 25.4806 30.2119 25.4685 30.1998L21.7615 27.652C21.677 27.5916 21.5683 27.5795 21.4596 27.5916C21.4355 27.5916 21.3992 27.6037 21.375 27.6278C21.363 27.6278 21.351 27.6399 21.3389 27.652C21.3268 27.664 21.3147 27.6641 21.3027 27.6761C21.2906 27.6761 21.2785 27.7003 21.2664 27.7124C21.2543 27.7244 21.2422 27.7365 21.2422 27.7486L18.6944 31.4557C18.634 31.5402 18.622 31.6368 18.6341 31.7334C18.6462 31.83 18.7066 31.9145 18.7911 31.9749L22.4981 34.5227C22.5585 34.5589 22.631 34.5952 22.7034 34.5952C22.8242 34.5952 22.9328 34.5348 23.0053 34.4261L25.5531 30.7191C25.5531 30.7191 25.5773 30.6828 25.5773 30.6708C25.5773 30.6466 25.5893 30.6346 25.6013 30.6225C25.6013 30.6225 25.6013 30.6104 25.6013 30.5983C25.6013 30.5983 25.6013 30.5862 25.6013 30.5742C25.6013 30.5259 25.6013 30.4896 25.6013 30.4413L25.6134 30.4293ZM22.6067 33.6775L19.5156 31.5523L21.6408 28.461L24.732 30.5863L22.6067 33.6775Z" fill="#EAE1C5"/>
<path d="M38.9691 17.219C38.9691 17.219 38.9933 17.219 39.0054 17.207C38.9933 17.207 38.9812 17.207 38.9691 17.219ZM38.474 16.9413V16.9655C38.474 16.9534 38.474 16.9413 38.4619 16.9172L38.474 16.9413ZM38.474 16.8205C38.474 16.8205 38.474 16.8809 38.474 16.9051C38.474 16.9172 38.474 16.9293 38.474 16.9293C38.474 16.9293 38.474 16.8447 38.474 16.8085V16.8205ZM39.7057 24.2709L40.1162 26.7825L39.6936 24.2709H39.7057ZM44.258 8.70605L45.055 13.7655H45.067L44.2459 8.70605H44.258Z" fill="#EAE1C5"/>
<path d="M15.5912 10.6382L15.5791 10.6503V10.6382H15.5912Z" fill="#EAE1C5"/>
<path d="M24.6474 16.8086C24.6474 16.9535 24.587 17.0863 24.4663 17.1588L24.0074 17.4244L17.7163 20.9987C17.7163 20.9987 17.5955 21.047 17.5352 21.047C17.4748 21.047 17.4265 21.0349 17.3782 21.0108C17.2695 20.9625 17.1849 20.8538 17.1728 20.7331L16.1465 14.1521L16.4967 14.1159C16.702 14.0917 16.8469 13.9106 16.8228 13.7053L17.8249 20.0931L23.8867 16.6517L24.116 16.5188C24.2972 16.4222 24.5146 16.4826 24.6232 16.6517C24.6353 16.6758 24.6474 16.712 24.6595 16.7362V16.8086H24.6474Z" fill="#EAE1C5"/>
<path d="M15.2281 6.04964C15.2281 6.04964 15.1436 6.0738 15.1074 6.09795C15.1436 6.0738 15.1919 6.06171 15.2281 6.04964Z" fill="#EAE1C5"/>
<path d="M30.4797 10.8674C30.4797 10.8674 30.3952 10.9037 30.3711 10.9399C30.4073 10.9157 30.4435 10.8916 30.4797 10.8674Z" fill="#EAE1C5"/>
<path d="M30.4797 10.8674C30.4797 10.8674 30.3952 10.9037 30.3711 10.9399C30.4073 10.9157 30.4435 10.8916 30.4797 10.8674Z" fill="#EAE1C5"/>
<path d="M38.4739 16.9414V16.9173C38.4739 16.9173 38.4739 16.8206 38.4739 16.7844C38.4618 16.8327 38.4498 16.8931 38.4739 16.9535V16.9414Z" fill="#EAE1C5"/>
<path d="M24.8048 19.9482C24.8048 19.9482 24.7685 19.9482 24.7443 19.9482C24.5632 19.9482 24.4062 19.8153 24.382 19.6342L24.0078 17.4244L23.875 16.6395L23.1505 12.377C23.1143 12.1718 23.2471 11.9786 23.4524 11.9423C23.6576 11.9061 23.8508 12.051 23.887 12.2442L24.6478 16.7362V16.8086L25.1187 19.5134C25.155 19.7187 25.0221 19.9119 24.8169 19.9482H24.8048Z" fill="#EAE1C5"/>
<path d="M53.9652 18.8492C53.9652 18.8492 53.929 18.8492 53.9049 18.8492C53.7237 18.8492 53.5667 18.7163 53.5426 18.5352L52.323 11.278C52.2867 11.0728 52.4316 10.8796 52.6248 10.8433C52.8301 10.8071 53.0233 10.9399 53.0595 11.1452L54.2791 18.4024C54.3153 18.6076 54.1825 18.8009 53.9772 18.8371L53.9652 18.8492Z" fill="#EAE1C5"/>
<path d="M4.59112 30.4294C4.59112 30.4294 4.54274 30.4053 4.51859 30.3932C4.43407 30.3328 4.38576 30.2483 4.36161 30.1517L0.0629435 1.66647C0.0387933 1.53364 0.0991512 1.40082 0.195752 1.32837L4.59112 30.4415V30.4294Z" fill="#EAE1C5"/>
<path d="M61.393 20.0326L59.1712 7.31746L59.0021 6.33938C58.9659 6.14618 58.7848 6.00128 58.5795 6.0375L55.8505 6.47223L52.071 7.07598L54.4739 3.58625C54.5343 3.50173 54.5585 3.39305 54.5344 3.28437C54.5102 3.18777 54.4619 3.11533 54.3895 3.06703L50.6823 0.51916C50.622 0.470859 50.5496 0.446712 50.4771 0.446712C50.453 0.446712 50.4288 0.446712 50.4046 0.446712C50.3805 0.446712 50.3564 0.446735 50.3323 0.470886C50.296 0.482961 50.2597 0.507096 50.2235 0.531246C50.2235 0.531246 50.2114 0.543308 50.1993 0.555383C50.1872 0.567459 50.1753 0.579532 50.1632 0.591607L47.6154 4.29868C47.555 4.38321 47.5428 4.47982 47.5549 4.57642C47.5549 4.62472 47.5791 4.67302 47.6033 4.72132C47.6274 4.75754 47.6636 4.79375 47.6998 4.8179L51.1533 7.20879L48.1708 7.67974L44.5724 8.25932C44.5724 8.25932 44.524 8.25933 44.4999 8.27141C44.4757 8.27141 44.4517 8.29556 44.4396 8.30763C44.4154 8.31971 44.4033 8.33179 44.3792 8.35594C44.3671 8.36802 44.3429 8.39214 44.3308 8.40422C44.3308 8.40422 44.3187 8.42836 44.3066 8.44044C44.3066 8.44044 44.2947 8.45254 44.2947 8.46461C44.2947 8.47669 44.2947 8.48876 44.2826 8.50084C44.2826 8.50084 44.2826 8.53705 44.2705 8.5612C44.2705 8.59742 44.2705 8.63365 44.2705 8.66987L45.0915 13.7294H45.0795L41.143 15.4561L39.1628 16.3134L38.233 10.783C38.233 10.783 38.2329 10.7347 38.2209 10.7227C38.2088 10.6864 38.1967 10.6623 38.1725 10.6381C38.1725 10.626 38.1483 10.6019 38.1363 10.5898C38.0638 10.5174 37.9672 10.4811 37.8586 10.4811L34.6828 10.6261L30.9637 10.7951L29.9132 5.11978L29.6716 3.85191C29.6354 3.6587 29.4422 3.5138 29.2369 3.55003L15.266 6.00128C15.266 6.00128 15.1815 6.02543 15.1453 6.0375C15.1212 6.04958 15.109 6.06165 15.0849 6.07373C14.9883 6.15825 14.94 6.279 14.9642 6.41183L15.4593 9.58759L12.0298 7.23293C11.8608 7.11218 11.6314 7.1605 11.5107 7.32955L11.39 7.51067L9.14387 10.771L7.30858 0.386351C7.30858 0.386351 7.28438 0.301818 7.26023 0.265592C7.24815 0.241442 7.23604 0.229356 7.22397 0.217281C7.18774 0.168981 7.12736 0.13276 7.06698 0.10861C7.04283 0.10861 7.03085 0.0965478 7.0067 0.0844727C6.97047 0.0844727 6.92204 0.0844727 6.87374 0.0844727L0.413578 1.18331C0.341127 1.19539 0.292798 1.21955 0.232422 1.26785L4.62779 30.381C4.62779 30.381 4.72438 30.4051 4.77268 30.4051C4.79683 30.4051 4.82104 30.4051 4.83312 30.4051L29.8165 25.9856L30.8791 25.7924L32.2436 25.5509L32.2075 25.5992L31.6882 26.3479L29.8769 28.9802C29.7562 29.1493 29.8044 29.3787 29.9735 29.4995L32.5334 31.2625L33.3304 31.8058H33.3546L32.0263 32.0232L30.9395 32.1801L29.7441 32.3613C29.5871 32.3855 29.4543 32.5183 29.4301 32.6752L28.2468 40.4878C28.2347 40.6086 28.2709 40.7294 28.3554 40.8139C28.4279 40.8863 28.5244 40.9226 28.609 40.9226C28.6331 40.9226 28.6573 40.9226 28.6815 40.9226L49.3662 37.2034C49.3662 37.2034 49.4507 37.1793 49.4869 37.1551C49.5231 37.131 49.5595 37.1068 49.5836 37.0706C49.644 36.9861 49.6801 36.8894 49.6681 36.7808L48.6296 29.8859L62.3711 27.495C62.3711 27.495 62.4193 27.495 62.4435 27.4829C62.5159 27.4588 62.5643 27.4105 62.6126 27.3501C62.6729 27.2656 62.6972 27.169 62.673 27.0724L61.4292 19.9963L61.393 20.0326ZM48.4243 4.44358L48.4606 4.3953L50.5616 1.35235L53.6046 3.45344L53.6529 3.47758L51.5277 6.56881L48.4364 4.44358H48.4243ZM45.0554 8.9597L45.2244 8.93552L58.3381 6.84655L60.6081 19.8031L54.4377 20.9141L47.1444 22.2061L45.8644 14.0675C45.8644 13.995 45.8643 13.9226 45.8402 13.8622C45.8402 13.8622 45.8402 13.8501 45.8402 13.838L45.2727 10.2638L45.0674 8.97175L45.0554 8.9597ZM38.9695 17.2191C38.9695 17.2191 38.9937 17.2191 39.0058 17.207C39.0058 17.207 38.9816 17.207 38.9695 17.2191ZM15.58 10.6381V10.6502L16.0147 13.4275L13.4669 13.7173L15.58 10.6623V10.6381ZM11.8729 8.10234L14.9642 10.2276L12.8389 13.3188L9.74763 11.1936L11.8729 8.10234ZM12.2956 13.8501L9.69943 14.152L9.27683 11.7732L12.2956 13.8501ZM5.05053 29.6564L0.860352 1.90783L6.59604 0.929746L9.02315 14.6229L10.4239 22.508C10.4601 22.6891 10.6172 22.8099 10.7862 22.8099C10.8104 22.8099 10.8344 22.8099 10.8586 22.8099C11.0639 22.7736 11.1967 22.5804 11.1605 22.3751L9.83224 14.8765L16.1475 14.152L16.4977 14.1158C16.703 14.0916 16.8479 13.9105 16.8238 13.7052L16.4373 11.254L15.7249 6.71371L28.9713 4.3953V4.49189L30.2513 11.2661C30.2513 11.2661 30.2513 11.2781 30.2513 11.2902L31.4709 18.5474C31.4951 18.7285 31.664 18.8613 31.8331 18.8613C31.8572 18.8613 31.8694 18.8613 31.8935 18.8613C32.0988 18.8251 32.2316 18.6319 32.1954 18.4266L31.0361 11.58L37.5085 11.2781L38.4623 16.9172C38.4623 16.9172 38.4623 16.8568 38.4623 16.8327C38.4623 16.8689 38.4623 16.9051 38.4623 16.9534C38.4623 16.9534 38.4623 16.9896 38.4744 17.0138L39.5612 23.5706L5.03845 29.6806L5.05053 29.6564ZM40.1166 26.7826L37.1341 24.7298L39.694 24.271L40.1166 26.7826ZM40.3219 28.0022L40.7808 30.7553L38.1604 31.1538L40.3219 28.0142V28.0022ZM36.0835 24.9109L34.9244 26.6014L33.258 25.4543L33.2097 25.4181L36.0835 24.9109ZM32.944 30.707L30.686 29.1493L32.2919 26.8188L32.8233 26.0581L34.5137 27.2173L35.1296 27.6399L35.5522 27.0241L36.7236 25.3336L39.8147 27.4588L37.6895 30.55L36.011 29.3908L35.3953 28.9682L34.9726 29.584L33.8013 31.2866L32.9682 30.707H32.944ZM37.3755 31.2625L34.3688 31.7213V31.6971L35.5522 30.0066L37.3755 31.2625ZM48.1103 29.258C47.9171 29.2942 47.7722 29.4874 47.8084 29.6806L48.8469 36.5876L29.0317 40.1497L30.0943 33.122L41.2638 31.4315C41.3604 31.4194 41.4449 31.359 41.5053 31.2866C41.5656 31.2021 41.5899 31.1055 41.5778 31.0089L39.2593 17.1104L41.5053 16.1323L45.1882 14.5384L46.4681 22.6891C46.4802 22.7857 46.5406 22.8702 46.6251 22.9306C46.7096 22.991 46.8062 23.0151 46.9028 22.991L54.5705 21.6386L60.741 20.5277L61.8518 26.8792L48.1224 29.258H48.1103Z" fill="#EAE1C5"/>
<path d="M25.6134 30.4293C25.6134 30.4293 25.6134 30.381 25.6013 30.3689C25.5893 30.3327 25.5652 30.2964 25.529 30.2602C25.529 30.2602 25.5169 30.2481 25.5048 30.2361C25.4927 30.224 25.4806 30.2119 25.4685 30.1998L21.7615 27.652C21.677 27.5916 21.5683 27.5795 21.4596 27.5916C21.4355 27.5916 21.3992 27.6037 21.375 27.6278C21.363 27.6278 21.351 27.6399 21.3389 27.652C21.3268 27.664 21.3147 27.6641 21.3027 27.6761C21.2906 27.6761 21.2785 27.7003 21.2664 27.7124C21.2543 27.7244 21.2422 27.7365 21.2422 27.7486L18.6944 31.4557C18.634 31.5402 18.622 31.6368 18.6341 31.7334C18.6462 31.83 18.7066 31.9145 18.7911 31.9749L22.4981 34.5227C22.5585 34.5589 22.631 34.5952 22.7034 34.5952C22.8242 34.5952 22.9328 34.5348 23.0053 34.4261L25.5531 30.7191C25.5531 30.7191 25.5773 30.6828 25.5773 30.6708C25.5773 30.6466 25.5893 30.6346 25.6013 30.6225C25.6013 30.6225 25.6013 30.6104 25.6013 30.5983C25.6013 30.5983 25.6013 30.5983 25.6013 30.5863C25.6013 30.5863 25.6013 30.4896 25.6013 30.4413L25.6134 30.4293ZM22.6067 33.6775L19.5156 31.5523L21.6408 28.461L24.732 30.5863L22.6067 33.6775Z" fill="#EAE1C5"/>
</svg>
