<svg width="201" height="157" viewBox="0 0 201 157" fill="none" xmlns="http://www.w3.org/2000/svg">
<g id="Frame 2346">
<g id="Group">
<path id="Vector" d="M74.5875 88.3868C74.5731 88.3293 74.5587 88.2573 74.5371 88.1998C74.5371 88.1998 74.5371 88.1926 74.5299 88.1854C74.4796 88.0703 74.4148 87.9696 74.3357 87.8761C74.3357 87.8617 74.3285 87.8546 74.3214 87.8546C74.2998 87.8258 74.2782 87.8114 74.2566 87.797C74.2206 87.7539 74.1775 87.7179 74.1343 87.6963L63.3959 80.2952C63.137 80.1154 62.8205 80.0723 62.5328 80.1298C62.4537 80.1514 62.3674 80.1802 62.2954 80.2233C62.2523 80.2521 62.2163 80.2737 62.1804 80.288C62.1444 80.324 62.1084 80.3384 62.0797 80.3743C62.0437 80.4031 62.0149 80.4391 61.9862 80.4678C61.9502 80.5038 61.9214 80.5326 61.8999 80.5685L54.4988 91.307C54.3405 91.5443 54.2758 91.832 54.3262 92.1197C54.3765 92.4002 54.5419 92.652 54.7793 92.8102L65.5177 100.211C65.7047 100.334 65.9133 100.406 66.1291 100.406C66.4671 100.406 66.8051 100.233 67.0137 99.9308L74.4149 89.1924C74.4436 89.1492 74.4724 89.0989 74.494 89.0557C74.5155 88.9982 74.5371 88.955 74.5515 88.9047C74.5587 88.8903 74.5659 88.8687 74.5659 88.8471C74.5659 88.8327 74.5803 88.8256 74.5803 88.8112V88.7824C74.609 88.6529 74.609 88.5235 74.5875 88.3868ZM65.8485 97.8162L56.8867 91.6522L63.065 82.6831L72.0269 88.8543L65.8485 97.8162ZM117.232 81.3525L110.946 90.4726L118.563 89.3218L117.232 81.3525ZM115.434 70.5566L108.004 71.8728L116.642 77.8282L115.427 70.5566H115.434ZM96.5822 73.8867L96.7332 73.9946L101.559 77.3175L104.933 72.4122L96.5822 73.8867ZM111.097 30.933L110.766 30.9474C110.809 30.9905 110.852 31.0337 110.874 31.084C110.946 31.1703 110.989 31.2495 111.025 31.343C111.046 31.3933 111.061 31.458 111.075 31.53L113.779 47.5549L119.541 45.0519L111.097 30.933ZM113.312 50.1011V50.1154C113.312 50.1154 113.377 50.0795 113.405 50.0651C113.369 50.0795 113.341 50.0939 113.312 50.1011ZM111.888 49.2883L111.902 49.3746C111.902 49.3746 111.909 49.389 111.909 49.4034C111.917 49.4034 111.924 49.4178 111.924 49.4249C111.924 49.389 111.902 49.3458 111.888 49.2883ZM111.881 48.9287C111.866 49.0078 111.866 49.0941 111.881 49.1804C111.881 49.2164 111.881 49.2379 111.881 49.2667V49.2883C111.881 49.2883 111.888 49.2811 111.888 49.2739C111.866 49.1516 111.866 49.0366 111.881 48.9287ZM86.901 15.1166L89.9651 31.5659L100.747 31.0625L86.901 15.1166ZM138.637 14.1888C138.515 14.1025 138.421 14.0018 138.342 13.8939L140.003 22.4818L148.67 21.108L138.637 14.1888ZM158.438 9.70068C158.503 9.99558 158.452 10.3193 158.272 10.571L151.317 20.6765L162.286 18.9359L158.438 9.70068ZM181.08 80.0219L141.226 86.9483L181.08 80.0291C181.152 80.0147 181.224 80.0003 181.288 79.9716C181.224 79.9931 181.152 80.0147 181.08 80.0219ZM73.1058 56.7469L71.7824 48.9071L71.7536 48.7129L69.5599 35.6872C69.4592 35.1118 68.8982 34.7091 68.3156 34.8026C67.7258 34.9033 67.3302 35.4643 67.4309 36.0469L69.5168 48.4324L51.9454 58.4012L49.0396 39.8805C49.1116 40.4775 48.6872 41.0097 48.0974 41.0816L47.0689 41.1967L50.061 60.2857C50.1113 60.6237 50.3343 60.9258 50.658 61.084C50.8018 61.1487 50.9601 61.1919 51.1255 61.1919C51.3053 61.1919 51.4923 61.1416 51.6577 61.0481L69.8979 50.6908L70.984 57.1066C71.0703 57.6316 71.5307 58.0056 72.0413 58.0056C72.1061 58.0056 72.1636 58.0056 72.2283 57.9912C72.8109 57.8905 73.2065 57.3367 73.1058 56.7469ZM45.4722 31.0337L39.3513 39.9092L46.7309 39.0749L45.4722 31.0337ZM45.465 30.9833V31.0337L45.4937 31.0049L45.465 30.9833ZM27.16 34.2703L28.3828 41.1679L35.9277 40.3048L27.16 34.2703ZM33.1154 21.9999L21.3916 0.141846L0.806641 3.68055L0.849794 3.95387C0.993644 3.8316 1.16628 3.74529 1.36048 3.70933L20.0898 0.530226C20.2192 0.508648 20.3487 0.508648 20.471 0.530226C20.5357 0.544611 20.5933 0.559008 20.6508 0.587778C20.8234 0.638126 20.9745 0.746001 21.0895 0.889851C21.1327 0.940199 21.1686 0.98337 21.2046 1.04091C21.2621 1.15599 21.3125 1.27107 21.3341 1.40054L26.6709 31.53L33.2018 22.0646L33.1154 21.9999ZM157.697 53.5606L154.144 32.5082C154.043 31.9184 153.489 31.53 152.9 31.6235C152.317 31.7242 151.921 32.278 152.015 32.8678L155.568 53.9203C155.654 54.4453 156.115 54.8193 156.632 54.8193C156.69 54.8193 156.748 54.8193 156.812 54.805C157.402 54.7115 157.798 54.1504 157.697 53.5606Z" fill="white"/>
<path id="Vector_2" d="M108.694 90.8978L99.9766 92.2212L100.013 92.1637L103.4 87.2512L108.694 90.8978Z" fill="white"/>
<path id="Vector_3" d="M171.914 21.4309L178.359 58.2782V58.2997L181.955 78.8344C181.998 79.1221 181.933 79.4098 181.768 79.6399C181.646 79.8197 181.48 79.9564 181.279 80.0283C181.214 80.0571 181.142 80.0715 181.07 80.0859L141.216 87.0051L144.244 107.015C144.295 107.331 144.194 107.64 144.007 107.871C143.928 107.957 143.835 108.043 143.727 108.108C143.619 108.173 143.496 108.216 143.367 108.237L83.3814 119.012C83.3167 119.026 83.2519 119.026 83.1872 119.026C82.9139 119.026 82.6406 118.918 82.4392 118.724C82.1874 118.48 82.0724 118.141 82.1227 117.789L85.5536 95.1398C85.6183 94.6795 85.9851 94.3055 86.4526 94.2336L89.9266 93.7085L93.0625 93.241L96.9321 92.6512L96.8746 92.608L94.5801 91.0257L87.1503 85.9118C86.6612 85.5738 86.5389 84.8977 86.877 84.4086L92.1347 76.7845L93.6307 74.598L93.7314 74.4541L89.7756 75.1518L86.6828 75.7056L14.2038 88.5299C14.1463 88.5371 14.0815 88.5443 14.0168 88.5443C13.8729 88.5443 13.7291 88.5155 13.5996 88.458V88.5155L37.2198 156.808L200.447 124.169L171.914 21.4309ZM74.5706 88.8392V88.8679C74.5706 88.8679 74.5634 88.8895 74.5562 88.9039C74.5562 88.9255 74.549 88.947 74.5418 88.9614C74.5274 89.0118 74.5058 89.0549 74.4843 89.1125C74.4627 89.1556 74.4339 89.206 74.4052 89.2491L67.004 99.9876C66.7954 100.29 66.4574 100.462 66.1194 100.462C65.9036 100.462 65.695 100.39 65.508 100.268L54.7696 92.867C54.5322 92.7087 54.3668 92.457 54.3165 92.1765C54.2661 91.8888 54.3308 91.6011 54.4891 91.3637L61.8902 80.6253C61.9117 80.5893 61.9405 80.5606 61.9765 80.5246C62.0052 80.4958 62.034 80.4599 62.07 80.4311C62.0987 80.3951 62.1347 80.3808 62.1707 80.3448C62.2066 80.3304 62.2426 80.3088 62.2857 80.2801C62.3577 80.2369 62.444 80.2081 62.5231 80.1866C62.8108 80.129 63.1273 80.1722 63.3862 80.352L74.1246 87.7531C74.1678 87.7747 74.2109 87.8106 74.2469 87.8538C74.2685 87.8682 74.2901 87.8826 74.3116 87.9113C74.3188 87.9113 74.326 87.9185 74.326 87.9329C74.4051 88.0264 74.4699 88.1271 74.5202 88.2422C74.5274 88.2494 74.5274 88.2566 74.5274 88.2566C74.549 88.3141 74.5634 88.386 74.5778 88.4436C74.5993 88.5802 74.5993 88.7097 74.5706 88.8392Z" fill="white"/>
<path id="Vector_4" d="M157.698 53.6549L154.145 32.6024C154.044 32.0126 153.491 31.6242 152.901 31.7177C152.318 31.8184 151.923 32.3722 152.016 32.962L155.569 54.0145C155.655 54.5395 156.116 54.9136 156.634 54.9136C156.691 54.9136 156.749 54.9136 156.813 54.8992C157.403 54.8057 157.799 54.2447 157.698 53.6549ZM157.698 53.6549L154.145 32.6024C154.044 32.0126 153.491 31.6242 152.901 31.7177C152.318 31.8184 151.923 32.3722 152.016 32.962L155.569 54.0145C155.655 54.5395 156.116 54.9136 156.634 54.9136C156.691 54.9136 156.749 54.9136 156.813 54.8992C157.403 54.8057 157.799 54.2447 157.698 53.6549ZM157.698 53.6549L154.145 32.6024C154.044 32.0126 153.491 31.6242 152.901 31.7177C152.318 31.8184 151.923 32.3722 152.016 32.962L155.569 54.0145C155.655 54.5395 156.116 54.9136 156.634 54.9136C156.691 54.9136 156.749 54.9136 156.813 54.8992C157.403 54.8057 157.799 54.2447 157.698 53.6549ZM157.698 53.6549L154.145 32.6024C154.044 32.0126 153.491 31.6242 152.901 31.7177C152.318 31.8184 151.923 32.3722 152.016 32.962L155.569 54.0145C155.655 54.5395 156.116 54.9136 156.634 54.9136C156.691 54.9136 156.749 54.9136 156.813 54.8992C157.403 54.8057 157.799 54.2447 157.698 53.6549ZM157.698 53.6549L154.145 32.6024C154.044 32.0126 153.491 31.6242 152.901 31.7177C152.318 31.8184 151.923 32.3722 152.016 32.962L155.569 54.0145C155.655 54.5395 156.116 54.9136 156.634 54.9136C156.691 54.9136 156.749 54.9136 156.813 54.8992C157.403 54.8057 157.799 54.2447 157.698 53.6549ZM157.698 53.6549L154.145 32.6024C154.044 32.0126 153.491 31.6242 152.901 31.7177C152.318 31.8184 151.923 32.3722 152.016 32.962L155.569 54.0145C155.655 54.5395 156.116 54.9136 156.634 54.9136C156.691 54.9136 156.749 54.9136 156.813 54.8992C157.403 54.8057 157.799 54.2447 157.698 53.6549ZM157.698 53.6549L154.145 32.6024C154.044 32.0126 153.491 31.6242 152.901 31.7177C152.318 31.8184 151.923 32.3722 152.016 32.962L155.569 54.0145C155.655 54.5395 156.116 54.9136 156.634 54.9136C156.691 54.9136 156.749 54.9136 156.813 54.8992C157.403 54.8057 157.799 54.2447 157.698 53.6549ZM157.698 53.6549L154.145 32.6024C154.044 32.0126 153.491 31.6242 152.901 31.7177C152.318 31.8184 151.923 32.3722 152.016 32.962L155.569 54.0145C155.655 54.5395 156.116 54.9136 156.634 54.9136C156.691 54.9136 156.749 54.9136 156.813 54.8992C157.403 54.8057 157.799 54.2447 157.698 53.6549ZM157.698 53.6549L154.145 32.6024C154.044 32.0126 153.491 31.6242 152.901 31.7177C152.318 31.8184 151.923 32.3722 152.016 32.962L155.569 54.0145C155.655 54.5395 156.116 54.9136 156.634 54.9136C156.691 54.9136 156.749 54.9136 156.813 54.8992C157.403 54.8057 157.799 54.2447 157.698 53.6549ZM157.698 53.6549L154.145 32.6024C154.044 32.0126 153.491 31.6242 152.901 31.7177C152.318 31.8184 151.923 32.3722 152.016 32.962L155.569 54.0145C155.655 54.5395 156.116 54.9136 156.634 54.9136C156.691 54.9136 156.749 54.9136 156.813 54.8992C157.403 54.8057 157.799 54.2447 157.698 53.6549ZM0.850968 4.0481C0.57046 4.27826 0.419425 4.64506 0.476965 5.02627L12.9632 87.6683C13.0063 87.9488 13.1646 88.2077 13.4019 88.3803C13.4666 88.4307 13.5386 88.4666 13.6105 88.4954L0.850968 4.0481ZM27.1612 34.3645L28.3839 41.2622L35.9289 40.3991L27.1612 34.3645ZM45.4734 31.1279L39.3525 40.0035L46.7321 39.1691L45.4734 31.1279ZM73.107 56.8411L71.7835 49.0013L71.7548 48.8071L69.5611 35.7815C69.4604 35.2061 68.8993 34.8033 68.3167 34.8968C67.727 34.9975 67.3314 35.5585 67.4321 36.1411L69.5179 48.5266L51.9466 58.4954L49.0408 39.9747C49.1127 40.5717 48.6884 41.1039 48.0986 41.1759L47.0701 41.2909L50.0621 60.3799C50.1125 60.7179 50.3355 61.02 50.6591 61.1782C50.803 61.243 50.9612 61.2861 51.1267 61.2861C51.3065 61.2861 51.4935 61.2358 51.6589 61.1423L69.8991 50.7851L70.9852 57.2008C71.0715 57.7258 71.5318 58.0998 72.0425 58.0998C72.1072 58.0998 72.1647 58.0998 72.2295 58.0855C72.8121 57.9848 73.2077 57.4309 73.107 56.8411ZM111.882 49.0229C111.867 49.102 111.867 49.1883 111.882 49.2746C111.882 49.3106 111.882 49.3322 111.882 49.3609V49.3825C111.882 49.3825 111.889 49.3753 111.889 49.3681C111.867 49.2459 111.867 49.1308 111.882 49.0229ZM157.698 53.6549L154.145 32.6024C154.044 32.0126 153.491 31.6242 152.901 31.7177C152.318 31.8184 151.923 32.3722 152.016 32.962L155.569 54.0145C155.655 54.5395 156.116 54.9136 156.634 54.9136C156.691 54.9136 156.749 54.9136 156.813 54.8992C157.403 54.8057 157.799 54.2447 157.698 53.6549ZM157.698 53.6549L154.145 32.6024C154.044 32.0126 153.491 31.6242 152.901 31.7177C152.318 31.8184 151.923 32.3722 152.016 32.962L155.569 54.0145C155.655 54.5395 156.116 54.9136 156.634 54.9136C156.691 54.9136 156.749 54.9136 156.813 54.8992C157.403 54.8057 157.799 54.2447 157.698 53.6549ZM181.081 80.1161L141.227 87.0425L181.081 80.1233C181.153 80.1089 181.225 80.0946 181.29 80.0658C181.225 80.0874 181.153 80.1089 181.081 80.1161ZM157.698 53.6549L154.145 32.6024C154.044 32.0126 153.491 31.6242 152.901 31.7177C152.318 31.8184 151.923 32.3722 152.016 32.962L155.569 54.0145C155.655 54.5395 156.116 54.9136 156.634 54.9136C156.691 54.9136 156.749 54.9136 156.813 54.8992C157.403 54.8057 157.799 54.2447 157.698 53.6549ZM120.657 47.009L131.323 42.3914V42.377L120.657 47.009ZM111.903 49.4688C111.903 49.4688 111.911 49.4832 111.911 49.4976C111.918 49.4976 111.925 49.512 111.925 49.5192C111.925 49.5048 111.911 49.4832 111.903 49.4688ZM157.698 53.6549L154.145 32.6024C154.044 32.0126 153.491 31.6242 152.901 31.7177C152.318 31.8184 151.923 32.3722 152.016 32.962L155.569 54.0145C155.655 54.5395 156.116 54.9136 156.634 54.9136C156.691 54.9136 156.749 54.9136 156.813 54.8992C157.403 54.8057 157.799 54.2447 157.698 53.6549ZM157.698 53.6549L154.145 32.6024C154.044 32.0126 153.491 31.6242 152.901 31.7177C152.318 31.8184 151.923 32.3722 152.016 32.962L155.569 54.0145C155.655 54.5395 156.116 54.9136 156.634 54.9136C156.691 54.9136 156.749 54.9136 156.813 54.8992C157.403 54.8057 157.799 54.2447 157.698 53.6549ZM157.698 53.6549L154.145 32.6024C154.044 32.0126 153.491 31.6242 152.901 31.7177C152.318 31.8184 151.923 32.3722 152.016 32.962L155.569 54.0145C155.655 54.5395 156.116 54.9136 156.634 54.9136C156.691 54.9136 156.749 54.9136 156.813 54.8992C157.403 54.8057 157.799 54.2447 157.698 53.6549ZM157.698 53.6549L154.145 32.6024C154.044 32.0126 153.491 31.6242 152.901 31.7177C152.318 31.8184 151.923 32.3722 152.016 32.962L155.569 54.0145C155.655 54.5395 156.116 54.9136 156.634 54.9136C156.691 54.9136 156.749 54.9136 156.813 54.8992C157.403 54.8057 157.799 54.2447 157.698 53.6549ZM157.698 53.6549L154.145 32.6024C154.044 32.0126 153.491 31.6242 152.901 31.7177C152.318 31.8184 151.923 32.3722 152.016 32.962L155.569 54.0145C155.655 54.5395 156.116 54.9136 156.634 54.9136C156.691 54.9136 156.749 54.9136 156.813 54.8992C157.403 54.8057 157.799 54.2447 157.698 53.6549ZM157.698 53.6549L154.145 32.6024C154.044 32.0126 153.491 31.6242 152.901 31.7177C152.318 31.8184 151.923 32.3722 152.016 32.962L155.569 54.0145C155.655 54.5395 156.116 54.9136 156.634 54.9136C156.691 54.9136 156.749 54.9136 156.813 54.8992C157.403 54.8057 157.799 54.2447 157.698 53.6549ZM157.698 53.6549L154.145 32.6024C154.044 32.0126 153.491 31.6242 152.901 31.7177C152.318 31.8184 151.923 32.3722 152.016 32.962L155.569 54.0145C155.655 54.5395 156.116 54.9136 156.634 54.9136C156.691 54.9136 156.749 54.9136 156.813 54.8992C157.403 54.8057 157.799 54.2447 157.698 53.6549ZM157.698 53.6549L154.145 32.6024C154.044 32.0126 153.491 31.6242 152.901 31.7177C152.318 31.8184 151.923 32.3722 152.016 32.962L155.569 54.0145C155.655 54.5395 156.116 54.9136 156.634 54.9136C156.691 54.9136 156.749 54.9136 156.813 54.8992C157.403 54.8057 157.799 54.2447 157.698 53.6549ZM157.698 53.6549L154.145 32.6024C154.044 32.0126 153.491 31.6242 152.901 31.7177C152.318 31.8184 151.923 32.3722 152.016 32.962L155.569 54.0145C155.655 54.5395 156.116 54.9136 156.634 54.9136C156.691 54.9136 156.749 54.9136 156.813 54.8992C157.403 54.8057 157.799 54.2447 157.698 53.6549ZM157.698 53.6549L154.145 32.6024C154.044 32.0126 153.491 31.6242 152.901 31.7177C152.318 31.8184 151.923 32.3722 152.016 32.962L155.569 54.0145C155.655 54.5395 156.116 54.9136 156.634 54.9136C156.691 54.9136 156.749 54.9136 156.813 54.8992C157.403 54.8057 157.799 54.2447 157.698 53.6549Z" fill="white"/>
<g id="Group_2">
<path id="Vector_5" d="M111.904 49.2899L111.919 49.3762C111.919 49.3762 111.926 49.3906 111.926 49.405C111.933 49.405 111.94 49.4194 111.94 49.4266C111.94 49.3906 111.919 49.3475 111.904 49.2899Z" fill="white"/>
<path id="Vector_6" d="M45.5268 30.9521L45.5052 30.9881L45.498 30.9305L45.5268 30.9521Z" fill="white"/>
<path id="Vector_7" d="M111.94 49.4338C111.94 49.4338 111.94 49.4338 111.94 49.4266C111.926 49.3834 111.911 49.3403 111.904 49.2899C111.919 49.3403 111.933 49.3906 111.947 49.4338H111.94Z" fill="white"/>
<path id="Vector_8" d="M113.414 50.0712C113.414 50.0712 113.356 50.0999 113.32 50.1143C113.32 50.1143 113.378 50.0856 113.414 50.0712Z" fill="white"/>
<path id="Vector_9" d="M74.614 88.4302C74.5996 88.3726 74.5852 88.3007 74.5636 88.2432C74.5636 88.2432 74.5636 88.236 74.5564 88.2288C74.5061 88.1137 74.4413 88.013 74.3622 87.9195C74.3622 87.9051 74.3551 87.8979 74.3479 87.8979C74.3263 87.8692 74.3047 87.8548 74.2831 87.8404C74.2472 87.7972 74.204 87.7613 74.1609 87.7397L63.4224 80.3386C63.1635 80.1588 62.847 80.1156 62.5593 80.1732C62.4802 80.1947 62.3939 80.2235 62.322 80.2667C62.2788 80.2954 62.2429 80.317 62.2069 80.3314C62.1709 80.3674 62.135 80.3818 62.1062 80.4177C62.0702 80.4465 62.0415 80.4824 62.0127 80.5112C61.9767 80.5472 61.948 80.5759 61.9264 80.6119L54.5253 91.3503C54.3671 91.5877 54.3023 91.8754 54.3527 92.1631C54.403 92.4436 54.5685 92.6953 54.8058 92.8536L65.5442 100.255C65.7312 100.377 65.9398 100.449 66.1556 100.449C66.4936 100.449 66.8317 100.276 67.0403 99.9742L74.4414 89.2357C74.4701 89.1926 74.4989 89.1422 74.5205 89.0991C74.5421 89.0415 74.5637 88.9984 74.578 88.948C74.5852 88.9336 74.5924 88.9121 74.5924 88.8905C74.5924 88.8617 74.6068 88.8473 74.6068 88.8258C74.6356 88.6963 74.6356 88.5668 74.614 88.4302ZM65.8751 97.8596L56.9132 91.6956L63.0916 82.7265L72.0535 88.8977L65.8751 97.8596Z" fill="white"/>
<path id="Vector_10" d="M45.498 30.9305V30.9809L45.5268 30.9521L45.498 30.9305Z" fill="white"/>
<path id="Vector_11" d="M113.346 49.9728V49.9871C113.346 49.9871 113.411 49.9512 113.44 49.9368C113.404 49.9512 113.375 49.9656 113.346 49.9728ZM111.922 49.16L111.937 49.2463C111.937 49.2463 111.944 49.2607 111.944 49.2751C111.951 49.2751 111.958 49.2895 111.958 49.2967C111.958 49.2607 111.937 49.2176 111.922 49.16ZM111.915 48.8004C111.901 48.8795 111.901 48.9658 111.915 49.0521C111.915 49.0881 111.915 49.1097 111.915 49.1384V49.16C111.915 49.16 111.922 49.1528 111.922 49.1456C111.901 49.0234 111.901 48.9083 111.915 48.8004ZM115.468 70.4283L116.677 77.6999L115.461 70.4283H115.468ZM128.688 25.2665L131.004 39.9536L131.054 39.932L128.688 25.2665Z" fill="white"/>
<path id="Vector_12" d="M45.5268 30.9521L45.5052 30.9881L45.498 30.9305L45.5268 30.9521Z" fill="white"/>
<path id="Vector_13" d="M71.774 48.9415C71.8028 49.3443 71.6086 49.7471 71.2346 49.9629L69.8896 50.7253L51.6494 61.0825C51.4839 61.176 51.2969 61.2191 51.1171 61.2191C50.9517 61.2191 50.7935 61.1832 50.6496 61.1113C50.3259 60.9602 50.103 60.6581 50.0527 60.3129L47.0605 41.2312L48.0891 41.1161C48.6789 41.0442 49.1032 40.5119 49.0313 39.9149L51.9371 58.4356L69.5084 48.4596L70.1701 48.0856C70.688 47.7907 71.3425 47.9705 71.6374 48.4884C71.6877 48.5747 71.7165 48.661 71.7453 48.7473L71.774 48.9415Z" fill="white"/>
<path id="Vector_14" d="M84.9643 10.4227L44.4417 17.5289C44.3122 17.5505 44.1899 17.6009 44.082 17.6584C44.1899 17.5937 44.3122 17.5433 44.4417 17.5217L84.9643 10.4227Z" fill="white"/>
<path id="Vector_15" d="M88.7 31.7118C88.5705 31.7549 88.4626 31.8197 88.3691 31.906C88.4698 31.8269 88.5777 31.7549 88.7 31.7118Z" fill="white"/>
<path id="Vector_16" d="M88.7 31.7118C88.5705 31.7549 88.4626 31.8197 88.3691 31.906C88.4698 31.8269 88.5777 31.7549 88.7 31.7118Z" fill="white"/>
<path id="Vector_17" d="M111.924 49.1931L111.91 49.1068C111.895 48.9701 111.91 48.8334 111.953 48.704C111.91 48.855 111.895 49.0277 111.924 49.1931Z" fill="white"/>
<path id="Vector_18" d="M72.235 58.0392C72.1702 58.0464 72.1127 58.0535 72.048 58.0535C71.5373 58.0535 71.0769 57.6795 70.9906 57.1545L69.9046 50.7387L69.5234 48.4731L67.4375 36.0948C67.3368 35.505 67.7325 34.9512 68.3222 34.8505C68.9048 34.757 69.4658 35.1526 69.5665 35.7352L71.7602 48.7608L71.789 48.955L73.1124 56.7948C73.2131 57.3846 72.8176 57.9385 72.235 58.0392Z" fill="white"/>
<path id="Vector_19" d="M156.803 54.7136C156.739 54.728 156.681 54.728 156.623 54.728C156.106 54.728 155.645 54.354 155.559 53.8289L152.006 32.7764C151.912 32.1866 152.308 31.6256 152.891 31.5321C153.48 31.4314 154.034 31.827 154.135 32.4168L157.688 53.4693C157.789 54.0591 157.393 54.6129 156.803 54.7136Z" fill="white"/>
<path id="Vector_20" d="M13.6242 88.4247C13.5523 88.396 13.4803 88.3528 13.4156 88.3096C13.1782 88.137 13.02 87.8781 12.9769 87.5976L0.490636 4.95559C0.433096 4.56719 0.584153 4.20038 0.864661 3.97742L13.6242 88.4247Z" fill="white"/>
<path id="Vector_21" d="M20.4679 0.484369C20.3457 0.462792 20.2162 0.462792 20.0867 0.484369L1.35742 3.66347L20.0867 0.47717C20.2162 0.455592 20.3457 0.455599 20.4679 0.484369Z" fill="white"/>
<path id="Vector_22" d="M178.388 58.1907V58.1763L171.943 21.3219L171.447 18.488C171.346 17.9126 170.799 17.5242 170.217 17.6177L162.305 18.8836L151.337 20.6242L158.292 10.5187C158.471 10.267 158.522 9.94332 158.457 9.64843L158.436 9.60528C158.364 9.37512 158.227 9.16653 158.018 9.01549L147.28 1.62878C147.093 1.49212 146.877 1.43459 146.669 1.43459C146.604 1.43459 146.539 1.43459 146.474 1.45617C146.402 1.46336 146.331 1.47774 146.266 1.5137C146.151 1.54966 146.043 1.62159 145.949 1.70071C145.921 1.72229 145.899 1.75106 145.877 1.77264C145.841 1.8158 145.806 1.85175 145.777 1.8949L138.383 12.6333C138.217 12.8707 138.16 13.1584 138.21 13.4389C138.232 13.5756 138.289 13.7122 138.361 13.8417C138.44 13.9496 138.534 14.0503 138.656 14.1366L148.69 21.0558L140.023 22.4295L129.572 24.1054C129.5 24.1198 129.428 24.127 129.363 24.1557C129.299 24.1773 129.234 24.2133 129.176 24.2492C129.112 24.2924 129.061 24.3284 129.004 24.3787C128.961 24.4219 128.91 24.4794 128.874 24.5297C128.846 24.5585 128.824 24.5945 128.802 24.6448C128.781 24.6664 128.766 24.6952 128.752 24.7311C128.738 24.7671 128.723 24.8102 128.709 24.839C128.694 24.8966 128.68 24.9541 128.673 25.0117C128.659 25.1123 128.659 25.2202 128.673 25.3425L131.039 40.008L130.989 40.0296L119.56 44.9997L113.799 47.5026L111.094 31.4777C111.08 31.4058 111.066 31.3411 111.044 31.2907C111.008 31.1972 110.965 31.1181 110.893 31.0318C110.871 30.9814 110.828 30.9383 110.785 30.8951C110.577 30.6865 110.289 30.5715 109.98 30.5859L100.766 31.0102L89.9844 31.5137L86.9204 15.0644L86.2371 11.3818C86.1292 10.8064 85.5754 10.418 84.9928 10.5115L44.4702 17.6249C44.3407 17.6465 44.2184 17.6969 44.1105 17.7472C44.053 17.7904 44.0027 17.8263 43.9523 17.8623C43.679 18.0996 43.528 18.4665 43.5855 18.8405L45.0312 28.0613L35.0839 21.214C34.5877 20.876 33.9188 20.991 33.5807 21.4801L33.2211 22.0124L26.6903 31.4777L21.3535 1.34829C21.3319 1.21882 21.2815 1.10374 21.2239 0.988659C21.188 0.931119 21.152 0.887948 21.1089 0.837601C20.9938 0.693751 20.8428 0.585875 20.6702 0.535528C20.6126 0.506758 20.5551 0.49236 20.4903 0.477975C20.3681 0.456398 20.2386 0.456398 20.1091 0.477975L1.37982 3.65708C1.18563 3.69304 1.01299 3.77935 0.869141 3.90162L13.6287 88.3489C13.7581 88.4065 13.902 88.4352 14.0458 88.4352C14.1106 88.4352 14.1753 88.4281 14.2328 88.4209L86.7118 75.5966L89.8046 75.0428L93.7605 74.3379L93.6598 74.489L92.1637 76.6755L86.906 84.2995C86.5679 84.7886 86.6902 85.4647 87.1793 85.8028L94.6092 90.9167L96.9036 92.499L96.9612 92.5422L93.0916 93.132L89.9556 93.5995L86.4817 94.1245C86.0141 94.1965 85.6473 94.5705 85.5826 95.0308L82.1517 117.68C82.1014 118.032 82.2165 118.37 82.4682 118.615C82.6696 118.809 82.9429 118.917 83.2162 118.917C83.281 118.917 83.3457 118.917 83.4104 118.903L143.396 108.128C143.525 108.107 143.648 108.064 143.756 107.999C143.864 107.934 143.957 107.848 144.036 107.762C144.223 107.531 144.324 107.222 144.273 106.906L141.245 86.8961L181.099 79.9697C181.171 79.9625 181.243 79.9409 181.308 79.9193C181.509 79.8474 181.675 79.7107 181.797 79.5309C181.962 79.3007 182.027 79.013 181.984 78.7253L178.388 58.1907ZM140.771 12.9714L140.864 12.8419L146.942 4.0095L155.774 10.0944L155.904 10.1807L149.733 19.1426L140.771 12.9714ZM130.975 26.069L131.464 25.9826L169.505 19.9122L176.079 57.493L158.191 60.7081L137.031 64.4482L133.305 40.8424C133.334 40.6482 133.312 40.4324 133.226 40.2382C133.219 40.2166 133.211 40.195 133.197 40.1735L131.564 29.8162L130.975 26.069ZM113.331 50.0488C113.331 50.0488 113.389 50.0272 113.425 50.0128C113.396 50.0272 113.367 50.0416 113.331 50.0632V50.0488ZM45.4843 30.9311L45.5131 30.9527L45.4915 30.9814L46.7502 39.0227L39.3707 39.857L45.4915 30.9814V30.9311H45.4843ZM34.7459 23.5947L43.7078 29.7659L37.5366 38.735L28.5747 32.5638L34.7459 23.5947ZM35.947 40.2526L28.4021 41.1157L27.1794 34.2181L35.947 40.2526ZM14.9521 86.1049L2.78235 5.60624L19.4187 2.77959L26.4529 42.4895L30.5095 65.3545C30.603 65.8867 31.0561 66.2463 31.5668 66.2463C31.6315 66.2463 31.6963 66.2463 31.761 66.2319C32.3436 66.1241 32.7392 65.563 32.6313 64.9876L28.7761 43.2447L47.0882 41.1445L48.1168 41.0294C48.7066 40.9575 49.1309 40.4252 49.059 39.8282L47.9514 32.722L45.8871 19.5597L84.3095 12.8203L84.3599 13.1152L88.0208 32.7508V32.7724C88.0208 32.7724 88.0208 32.8012 88.0208 32.8155L91.5739 53.868C91.6602 54.3931 92.1206 54.7671 92.6384 54.7671C92.696 54.7671 92.7535 54.7671 92.8183 54.7527C93.408 54.6592 93.8036 54.0982 93.7029 53.5084L90.3512 33.657L109.116 32.7796L111.886 49.1282C111.878 49.0418 111.878 48.9555 111.886 48.8764C111.871 48.9843 111.871 49.0994 111.893 49.2145V49.236C111.907 49.2936 111.922 49.3367 111.929 49.3727C111.929 49.3655 111.929 49.3511 111.914 49.3511L115.079 68.3753L14.9377 86.1049H14.9521ZM116.661 77.7759L108.023 71.8205L115.453 70.5043L116.669 77.7831L116.661 77.7759ZM117.251 81.3003L118.582 89.2696L110.965 90.4204L117.251 81.3003ZM104.952 72.36L101.579 77.2653L96.7525 73.9423L96.6015 73.8416L104.952 72.36ZM95.8391 89.1401L89.2939 84.6376L93.9403 77.891L95.4651 75.6757L100.356 79.0418L102.125 80.2717L103.355 78.488L106.743 73.5683L115.705 79.7395L109.534 88.7014L104.65 85.3353L102.873 84.1054L101.643 85.8891L98.2558 90.816L95.8391 89.1401ZM108.721 90.7584L100.004 92.089L100.04 92.0243L103.427 87.1118L108.721 90.7584ZM139.836 84.9469C139.26 85.0548 138.872 85.6014 138.958 86.1696L141.986 106.194L84.5109 116.522L87.5965 96.1384L119.984 91.2403C120.272 91.1972 120.524 91.0389 120.696 90.816C120.869 90.5714 120.934 90.2909 120.891 89.996L114.173 49.6892L120.675 46.8625L131.341 42.2305V42.2449L135.067 65.8723C135.11 66.1672 135.268 66.4118 135.506 66.5844C135.743 66.7498 136.038 66.8145 136.319 66.7642L158.565 62.8299L176.453 59.622L179.668 78.042L139.836 84.9469Z" fill="white"/>
<path id="Vector_23" d="M74.614 88.4302C74.5996 88.3726 74.5852 88.3007 74.5636 88.2432C74.5636 88.2432 74.5636 88.236 74.5564 88.2288C74.5061 88.1137 74.4413 88.013 74.3622 87.9195C74.3622 87.9051 74.3551 87.8979 74.3479 87.8979C74.3263 87.8692 74.3047 87.8548 74.2831 87.8404C74.2472 87.7972 74.204 87.7613 74.1609 87.7397L63.4224 80.3386C63.1635 80.1588 62.847 80.1156 62.5593 80.1732C62.4802 80.1947 62.3939 80.2235 62.322 80.2667C62.2788 80.2954 62.2429 80.317 62.2069 80.3314C62.1709 80.3674 62.135 80.3818 62.1062 80.4177C62.0702 80.4465 62.0415 80.4824 62.0127 80.5112C61.9767 80.5472 61.948 80.5759 61.9264 80.6119L54.5253 91.3503C54.3671 91.5877 54.3023 91.8754 54.3527 92.1631C54.403 92.4436 54.5685 92.6953 54.8058 92.8536L65.5442 100.255C65.7312 100.377 65.9398 100.449 66.1556 100.449C66.4936 100.449 66.8317 100.276 67.0403 99.9742L74.4414 89.2357C74.4701 89.1926 74.4989 89.1422 74.5205 89.0991C74.5421 89.0415 74.5637 88.9984 74.578 88.948C74.5852 88.9336 74.5924 88.9121 74.5924 88.8905C74.5924 88.8761 74.6068 88.8689 74.6068 88.8545V88.8258C74.6356 88.6963 74.6356 88.5668 74.614 88.4302ZM65.8751 97.8596L56.9132 91.6956L63.0916 82.7265L72.0535 88.8977L65.8751 97.8596Z" fill="white"/>
<path id="Vector_24" d="M45.498 30.9305V30.9809L45.5268 30.9521L45.498 30.9305Z" fill="white"/>
</g>
</g>
</g>
</svg>
