<svg width="69" height="54" viewBox="0 0 69 54" fill="none" xmlns="http://www.w3.org/2000/svg">
<path d="M25.5851 30.4294C25.5851 30.4294 25.585 30.3811 25.573 30.369C25.5609 30.3328 25.5368 30.2966 25.5006 30.2603C25.5006 30.2603 25.4885 30.2483 25.4764 30.2362C25.4643 30.2241 25.4522 30.2121 25.4402 30.2L21.7332 27.6521C21.6486 27.5917 21.54 27.5797 21.4313 27.5917C21.4071 27.5917 21.3708 27.6038 21.3467 27.628C21.3346 27.628 21.3226 27.64 21.3106 27.6521C21.2985 27.6642 21.2864 27.6642 21.2743 27.6763C21.2622 27.6763 21.2501 27.7004 21.238 27.7125C21.226 27.7246 21.2139 27.7367 21.2139 27.7487L18.666 31.4558C18.6056 31.5403 18.5937 31.6369 18.6057 31.7335C18.6178 31.8301 18.6782 31.9146 18.7627 31.975L22.4697 34.5229C22.5301 34.5591 22.6026 34.5953 22.6751 34.5953C22.7958 34.5953 22.9045 34.535 22.9769 34.4263L25.5248 30.7192C25.5248 30.7192 25.5489 30.683 25.5489 30.6709C25.5489 30.6467 25.5609 30.6347 25.573 30.6226C25.573 30.6226 25.573 30.6105 25.573 30.5984C25.573 30.5984 25.573 30.5985 25.573 30.5864C25.573 30.5864 25.573 30.4898 25.573 30.4415L25.5851 30.4294ZM22.5784 33.6776L19.4872 31.5524L21.6124 28.4612L24.7036 30.5864L22.5784 33.6776ZM40.2926 28.0023L38.1311 31.1418L40.7515 30.7433L40.2926 27.9902V28.0023ZM39.6768 24.2711L37.1169 24.7299L40.0994 26.7827L39.6768 24.2711ZM33.1683 25.4303L33.2166 25.4665L34.883 26.6137L36.0422 24.9232L33.1683 25.4303ZM38.1795 10.6141H38.0708C38.0708 10.6141 38.0949 10.6504 38.107 10.6624C38.1311 10.6866 38.1432 10.7228 38.1553 10.7469C38.1553 10.759 38.1674 10.7832 38.1674 10.8073L39.0972 16.3377L41.0775 15.4804L38.1674 10.6141H38.1795ZM38.9402 17.2192C38.9402 17.2192 38.9644 17.2192 38.9765 17.2071C38.9644 17.2071 38.9523 17.2071 38.9402 17.2192ZM38.4451 16.9415V16.9657C38.4451 16.9536 38.4451 16.9415 38.433 16.9173L38.4451 16.9415ZM38.4451 16.8207C38.4451 16.8207 38.4451 16.8811 38.4451 16.9053C38.4451 16.9173 38.4451 16.9294 38.4451 16.9294C38.4451 16.9294 38.4451 16.8449 38.4451 16.8087V16.8207ZM29.8355 5.16823L30.886 10.8436L34.6053 10.6745L29.8355 5.18032V5.16823ZM47.6705 4.84221C47.6705 4.84221 47.5981 4.78182 47.574 4.74559L48.1415 7.70401L51.124 7.23307L47.6705 4.84221ZM54.493 3.2966C54.5171 3.3932 54.4929 3.51395 54.4325 3.59848L52.0296 7.08817L55.8091 6.48441L54.4809 3.2966H54.493ZM62.3056 27.5434C62.3056 27.5434 62.3539 27.5434 62.3781 27.5193C62.3539 27.5193 62.3297 27.5314 62.3056 27.5314V27.5434ZM25.078 19.5135L24.6191 16.8087V16.7362L23.8584 12.2443C23.8222 12.0511 23.629 11.9062 23.4237 11.9424C23.2184 11.9786 23.0856 12.1718 23.1218 12.3771L23.8463 16.6517L17.7846 20.0931L16.7824 13.7054C16.8065 13.9106 16.6616 14.0918 16.4563 14.1159L16.1061 14.1521L17.1325 20.7331C17.1445 20.8538 17.2291 20.9504 17.3378 21.0108C17.3861 21.0349 17.4465 21.047 17.4948 21.047C17.5551 21.047 17.6156 21.035 17.6759 20.9987L23.967 17.4245L24.3414 19.6342C24.3656 19.8154 24.5345 19.9482 24.7036 19.9482C24.7277 19.9482 24.7399 19.9482 24.764 19.9482C24.9693 19.912 25.1021 19.7188 25.0659 19.5135H25.078ZM15.5507 10.6503L13.4375 13.7054L15.9854 13.4156L15.5507 10.6383V10.6503ZM9.23543 11.7612L9.65803 14.14L12.2542 13.8382L9.23543 11.7612ZM11.2881 7.53494L7.243 7.62939e-05L0.142822 1.21968V1.31626C0.203198 1.28004 0.263615 1.24384 0.336066 1.23176L6.79623 0.132922C6.79623 0.132922 6.88074 0.132922 6.92904 0.132922C6.95319 0.132922 6.96532 0.132909 6.98947 0.157059C7.04985 0.169134 7.09801 0.21743 7.14631 0.265731C7.15838 0.277806 7.17049 0.301966 7.18257 0.314041C7.20672 0.350267 7.21884 0.398575 7.23092 0.4348L9.06636 10.8194L11.3123 7.55912L11.2881 7.53494ZM54.2393 18.4146L53.0199 11.1575C52.9836 10.9522 52.7903 10.8194 52.585 10.8556C52.3797 10.8918 52.2469 11.085 52.2831 11.2903L53.5027 18.5475C53.5269 18.7286 53.696 18.8614 53.8651 18.8614C53.8892 18.8614 53.9013 18.8614 53.9255 18.8614C54.1308 18.8252 54.2636 18.632 54.2274 18.4267L54.2393 18.4146Z" fill="#4EA9B4"/>
<path d="M37.3456 31.2626L34.3389 31.7214L34.351 31.6973L35.5222 30.0067L37.3456 31.2626Z" fill="#4EA9B4"/>
<path d="M59.142 7.31752L61.3638 20.0206L62.6076 27.1087C62.6196 27.2053 62.6075 27.3018 62.5471 27.3864C62.5109 27.4468 62.4507 27.4951 62.3782 27.5192C62.3541 27.5192 62.3298 27.5313 62.3057 27.5434L48.5642 29.9342L49.6026 36.8291C49.6147 36.9378 49.5906 37.0465 49.5182 37.1189C49.494 37.1431 49.4577 37.1793 49.4215 37.2035C49.3853 37.2276 49.337 37.2397 49.3008 37.2518L28.6161 40.9709C28.6161 40.9709 28.5678 40.9709 28.5437 40.9709C28.4471 40.9709 28.3504 40.9347 28.29 40.8622C28.2055 40.7777 28.1693 40.657 28.1814 40.5362L29.3647 32.7236C29.3889 32.5666 29.5096 32.4338 29.6787 32.4096L30.8741 32.2285L31.9609 32.0715L33.2891 31.8663H33.265L32.4681 31.3108L29.9082 29.5478C29.7391 29.4271 29.7028 29.1977 29.8115 29.0286L31.6228 26.3962L32.142 25.6476L32.1783 25.5993L30.8138 25.8408L29.7512 26.034L4.76768 30.4535C4.76768 30.4535 4.73155 30.4535 4.7074 30.4535C4.6591 30.4535 4.6108 30.4535 4.5625 30.4293V30.4535L12.7011 54L68.9712 42.7459L59.1299 7.32961L59.142 7.31752ZM25.5852 30.5621C25.5852 30.5621 25.5852 30.5742 25.5852 30.5863C25.5852 30.5863 25.5852 30.5984 25.5852 30.6105C25.5852 30.6225 25.5731 30.6467 25.561 30.6588C25.561 30.6708 25.5491 30.695 25.537 30.707L22.9892 34.4141C22.9167 34.5228 22.796 34.5832 22.6873 34.5832C22.6148 34.5832 22.5423 34.559 22.4819 34.5107L18.7748 31.9629C18.6903 31.9025 18.642 31.818 18.6178 31.7214C18.6057 31.6248 18.6179 31.5282 18.6783 31.4436L21.2261 27.7366C21.2261 27.7366 21.2382 27.7124 21.2503 27.7003C21.2503 27.7003 21.2744 27.6762 21.2865 27.6641C21.2865 27.652 21.3107 27.6521 21.3228 27.64C21.3349 27.64 21.3468 27.6279 21.3589 27.6158C21.383 27.6037 21.4194 27.5917 21.4435 27.5796C21.5401 27.5554 21.6488 27.5796 21.7454 27.64L25.4524 30.1878C25.4524 30.1878 25.4766 30.212 25.4886 30.224C25.4886 30.224 25.5007 30.2241 25.5128 30.2482C25.537 30.2844 25.561 30.3207 25.5852 30.3569C25.5852 30.381 25.5973 30.4052 25.5973 30.4172C25.5973 30.4655 25.5973 30.5139 25.5973 30.5501L25.5852 30.5621Z" fill="#4EA9B4"/>
<path d="M54.2389 18.4146L53.0195 11.1574C52.9832 10.9521 52.7899 10.8193 52.5846 10.8555C52.3794 10.8918 52.2465 11.085 52.2828 11.2903L53.5024 18.5474C53.5265 18.7285 53.6956 18.8613 53.8647 18.8613C53.8888 18.8613 53.901 18.8613 53.9251 18.8613C54.1304 18.8251 54.2632 18.6319 54.227 18.4267L54.2389 18.4146ZM54.2389 18.4146L53.0195 11.1574C52.9832 10.9521 52.7899 10.8193 52.5846 10.8555C52.3794 10.8918 52.2465 11.085 52.2828 11.2903L53.5024 18.5474C53.5265 18.7285 53.6956 18.8613 53.8647 18.8613C53.8888 18.8613 53.901 18.8613 53.9251 18.8613C54.1304 18.8251 54.2632 18.6319 54.227 18.4267L54.2389 18.4146ZM54.2389 18.4146L53.0195 11.1574C52.9832 10.9521 52.7899 10.8193 52.5846 10.8555C52.3794 10.8918 52.2465 11.085 52.2828 11.2903L53.5024 18.5474C53.5265 18.7285 53.6956 18.8613 53.8647 18.8613C53.8888 18.8613 53.901 18.8613 53.9251 18.8613C54.1304 18.8251 54.2632 18.6319 54.227 18.4267L54.2389 18.4146ZM54.2389 18.4146L53.0195 11.1574C52.9832 10.9521 52.7899 10.8193 52.5846 10.8555C52.3794 10.8918 52.2465 11.085 52.2828 11.2903L53.5024 18.5474C53.5265 18.7285 53.6956 18.8613 53.8647 18.8613C53.8888 18.8613 53.901 18.8613 53.9251 18.8613C54.1304 18.8251 54.2632 18.6319 54.227 18.4267L54.2389 18.4146ZM54.2389 18.4146L53.0195 11.1574C52.9832 10.9521 52.7899 10.8193 52.5846 10.8555C52.3794 10.8918 52.2465 11.085 52.2828 11.2903L53.5024 18.5474C53.5265 18.7285 53.6956 18.8613 53.8647 18.8613C53.8888 18.8613 53.901 18.8613 53.9251 18.8613C54.1304 18.8251 54.2632 18.6319 54.227 18.4267L54.2389 18.4146ZM54.2389 18.4146L53.0195 11.1574C52.9832 10.9521 52.7899 10.8193 52.5846 10.8555C52.3794 10.8918 52.2465 11.085 52.2828 11.2903L53.5024 18.5474C53.5265 18.7285 53.6956 18.8613 53.8647 18.8613C53.8888 18.8613 53.901 18.8613 53.9251 18.8613C54.1304 18.8251 54.2632 18.6319 54.227 18.4267L54.2389 18.4146ZM54.2389 18.4146L53.0195 11.1574C52.9832 10.9521 52.7899 10.8193 52.5846 10.8555C52.3794 10.8918 52.2465 11.085 52.2828 11.2903L53.5024 18.5474C53.5265 18.7285 53.6956 18.8613 53.8647 18.8613C53.8888 18.8613 53.901 18.8613 53.9251 18.8613C54.1304 18.8251 54.2632 18.6319 54.227 18.4267L54.2389 18.4146ZM54.2389 18.4146L53.0195 11.1574C52.9832 10.9521 52.7899 10.8193 52.5846 10.8555C52.3794 10.8918 52.2465 11.085 52.2828 11.2903L53.5024 18.5474C53.5265 18.7285 53.6956 18.8613 53.8647 18.8613C53.8888 18.8613 53.901 18.8613 53.9251 18.8613C54.1304 18.8251 54.2632 18.6319 54.227 18.4267L54.2389 18.4146ZM54.2389 18.4146L53.0195 11.1574C52.9832 10.9521 52.7899 10.8193 52.5846 10.8555C52.3794 10.8918 52.2465 11.085 52.2828 11.2903L53.5024 18.5474C53.5265 18.7285 53.6956 18.8613 53.8647 18.8613C53.8888 18.8613 53.901 18.8613 53.9251 18.8613C54.1304 18.8251 54.2632 18.6319 54.227 18.4267L54.2389 18.4146ZM54.2389 18.4146L53.0195 11.1574C52.9832 10.9521 52.7899 10.8193 52.5846 10.8555C52.3794 10.8918 52.2465 11.085 52.2828 11.2903L53.5024 18.5474C53.5265 18.7285 53.6956 18.8613 53.8647 18.8613C53.8888 18.8613 53.901 18.8613 53.9251 18.8613C54.1304 18.8251 54.2632 18.6319 54.227 18.4267L54.2389 18.4146ZM0.166615 1.31619C0.0700141 1.40071 0.0217313 1.52146 0.0338065 1.65429L4.33248 30.1395C4.34455 30.2361 4.40493 30.3207 4.48946 30.381C4.51361 30.3931 4.53783 30.4052 4.56198 30.4173L0.166615 1.30414V1.31619ZM9.23505 11.7612L9.65765 14.14L12.2538 13.8381L9.23505 11.7612ZM15.5503 10.6503L13.4372 13.7053L15.985 13.4155L15.5503 10.6382V10.6503ZM25.0776 19.5134L24.6187 16.8086V16.7361L23.858 12.2442C23.8218 12.051 23.6286 11.9061 23.4233 11.9423C23.218 11.9785 23.0852 12.1717 23.1214 12.377L23.8459 16.6516L17.7842 20.093L16.782 13.7053C16.8062 13.9106 16.6612 14.0917 16.4559 14.1158L16.1057 14.1521L17.1321 20.733C17.1442 20.8538 17.2287 20.9503 17.3374 21.0107C17.3857 21.0349 17.4461 21.0469 17.4944 21.0469C17.5548 21.0469 17.6152 21.0349 17.6756 20.9987L23.9666 17.4244L24.341 19.6342C24.3652 19.8153 24.5342 19.9481 24.7032 19.9481C24.7274 19.9481 24.7395 19.9481 24.7636 19.9481C24.9689 19.9119 25.1017 19.7187 25.0655 19.5134H25.0776ZM38.4447 16.8206C38.4447 16.8206 38.4447 16.881 38.4447 16.9052C38.4447 16.9173 38.4447 16.9294 38.4447 16.9294C38.4447 16.9294 38.4447 16.8448 38.4447 16.8086V16.8206ZM54.2389 18.4146L53.0195 11.1574C52.9832 10.9521 52.7899 10.8193 52.5846 10.8555C52.3794 10.8918 52.2465 11.085 52.2828 11.2903L53.5024 18.5474C53.5265 18.7285 53.6956 18.8613 53.8647 18.8613C53.8888 18.8613 53.901 18.8613 53.9251 18.8613C54.1304 18.8251 54.2632 18.6319 54.227 18.4267L54.2389 18.4146ZM54.2389 18.4146L53.0195 11.1574C52.9832 10.9521 52.7899 10.8193 52.5846 10.8555C52.3794 10.8918 52.2465 11.085 52.2828 11.2903L53.5024 18.5474C53.5265 18.7285 53.6956 18.8613 53.8647 18.8613C53.8888 18.8613 53.901 18.8613 53.9251 18.8613C54.1304 18.8251 54.2632 18.6319 54.227 18.4267L54.2389 18.4146ZM62.3052 27.5434C62.3052 27.5434 62.3535 27.5434 62.3777 27.5192C62.3535 27.5192 62.3293 27.5313 62.3052 27.5313V27.5434ZM54.2389 18.4146L53.0195 11.1574C52.9832 10.9521 52.7899 10.8193 52.5846 10.8555C52.3794 10.8918 52.2465 11.085 52.2828 11.2903L53.5024 18.5474C53.5265 18.7285 53.6956 18.8613 53.8647 18.8613C53.8888 18.8613 53.901 18.8613 53.9251 18.8613C54.1304 18.8251 54.2632 18.6319 54.227 18.4267L54.2389 18.4146ZM54.2389 18.4146L53.0195 11.1574C52.9832 10.9521 52.7899 10.8193 52.5846 10.8555C52.3794 10.8918 52.2465 11.085 52.2828 11.2903L53.5024 18.5474C53.5265 18.7285 53.6956 18.8613 53.8647 18.8613C53.8888 18.8613 53.901 18.8613 53.9251 18.8613C54.1304 18.8251 54.2632 18.6319 54.227 18.4267L54.2389 18.4146ZM54.2389 18.4146L53.0195 11.1574C52.9832 10.9521 52.7899 10.8193 52.5846 10.8555C52.3794 10.8918 52.2465 11.085 52.2828 11.2903L53.5024 18.5474C53.5265 18.7285 53.6956 18.8613 53.8647 18.8613C53.8888 18.8613 53.901 18.8613 53.9251 18.8613C54.1304 18.8251 54.2632 18.6319 54.227 18.4267L54.2389 18.4146ZM54.2389 18.4146L53.0195 11.1574C52.9832 10.9521 52.7899 10.8193 52.5846 10.8555C52.3794 10.8918 52.2465 11.085 52.2828 11.2903L53.5024 18.5474C53.5265 18.7285 53.6956 18.8613 53.8647 18.8613C53.8888 18.8613 53.901 18.8613 53.9251 18.8613C54.1304 18.8251 54.2632 18.6319 54.227 18.4267L54.2389 18.4146ZM54.2389 18.4146L53.0195 11.1574C52.9832 10.9521 52.7899 10.8193 52.5846 10.8555C52.3794 10.8918 52.2465 11.085 52.2828 11.2903L53.5024 18.5474C53.5265 18.7285 53.6956 18.8613 53.8647 18.8613C53.8888 18.8613 53.901 18.8613 53.9251 18.8613C54.1304 18.8251 54.2632 18.6319 54.227 18.4267L54.2389 18.4146ZM54.2389 18.4146L53.0195 11.1574C52.9832 10.9521 52.7899 10.8193 52.5846 10.8555C52.3794 10.8918 52.2465 11.085 52.2828 11.2903L53.5024 18.5474C53.5265 18.7285 53.6956 18.8613 53.8647 18.8613C53.8888 18.8613 53.901 18.8613 53.9251 18.8613C54.1304 18.8251 54.2632 18.6319 54.227 18.4267L54.2389 18.4146ZM54.2389 18.4146L53.0195 11.1574C52.9832 10.9521 52.7899 10.8193 52.5846 10.8555C52.3794 10.8918 52.2465 11.085 52.2828 11.2903L53.5024 18.5474C53.5265 18.7285 53.6956 18.8613 53.8647 18.8613C53.8888 18.8613 53.901 18.8613 53.9251 18.8613C54.1304 18.8251 54.2632 18.6319 54.227 18.4267L54.2389 18.4146ZM54.2389 18.4146L53.0195 11.1574C52.9832 10.9521 52.7899 10.8193 52.5846 10.8555C52.3794 10.8918 52.2465 11.085 52.2828 11.2903L53.5024 18.5474C53.5265 18.7285 53.6956 18.8613 53.8647 18.8613C53.8888 18.8613 53.901 18.8613 53.9251 18.8613C54.1304 18.8251 54.2632 18.6319 54.227 18.4267L54.2389 18.4146ZM54.2389 18.4146L53.0195 11.1574C52.9832 10.9521 52.7899 10.8193 52.5846 10.8555C52.3794 10.8918 52.2465 11.085 52.2828 11.2903L53.5024 18.5474C53.5265 18.7285 53.6956 18.8613 53.8647 18.8613C53.8888 18.8613 53.901 18.8613 53.9251 18.8613C54.1304 18.8251 54.2632 18.6319 54.227 18.4267L54.2389 18.4146ZM54.2389 18.4146L53.0195 11.1574C52.9832 10.9521 52.7899 10.8193 52.5846 10.8555C52.3794 10.8918 52.2465 11.085 52.2828 11.2903L53.5024 18.5474C53.5265 18.7285 53.6956 18.8613 53.8647 18.8613C53.8888 18.8613 53.901 18.8613 53.9251 18.8613C54.1304 18.8251 54.2632 18.6319 54.227 18.4267L54.2389 18.4146ZM54.2389 18.4146L53.0195 11.1574C52.9832 10.9521 52.7899 10.8193 52.5846 10.8555C52.3794 10.8918 52.2465 11.085 52.2828 11.2903L53.5024 18.5474C53.5265 18.7285 53.6956 18.8613 53.8647 18.8613C53.8888 18.8613 53.901 18.8613 53.9251 18.8613C54.1304 18.8251 54.2632 18.6319 54.227 18.4267L54.2389 18.4146Z" fill="#4EA9B4"/>
<path d="M38.4452 16.9413V16.9655C38.4452 16.9534 38.4452 16.9414 38.4331 16.9172L38.4452 16.9413Z" fill="#4EA9B4"/>
<path d="M15.5626 10.6382L15.5505 10.6503V10.6382H15.5626Z" fill="#4EA9B4"/>
<path d="M38.4686 16.9897C38.4686 16.9776 38.4686 16.9655 38.4565 16.9414C38.4565 16.9535 38.4566 16.9776 38.4686 16.9897Z" fill="#4EA9B4"/>
<path d="M38.9764 17.2191C38.9764 17.2191 38.9523 17.2191 38.9402 17.2312C38.9402 17.2312 38.9644 17.2312 38.9764 17.2191Z" fill="#4EA9B4"/>
<path d="M25.5846 30.4293C25.5846 30.4293 25.5846 30.381 25.5725 30.3689C25.5604 30.3327 25.5364 30.2965 25.5001 30.2603C25.5001 30.2603 25.488 30.2482 25.476 30.2361C25.4639 30.224 25.4518 30.212 25.4397 30.1999L21.7327 27.652C21.6482 27.5916 21.5395 27.5796 21.4308 27.5917C21.4067 27.5917 21.3704 27.6037 21.3462 27.6279C21.3341 27.6279 21.3222 27.6399 21.3101 27.652C21.298 27.6641 21.2859 27.6641 21.2738 27.6762C21.2618 27.6762 21.2497 27.7003 21.2376 27.7124C21.2255 27.7245 21.2134 27.7366 21.2134 27.7486L18.6656 31.4557C18.6052 31.5402 18.5932 31.6368 18.6053 31.7334C18.6174 31.83 18.6778 31.9146 18.7623 31.9749L22.4693 34.5228C22.5297 34.559 22.6022 34.5952 22.6746 34.5952C22.7954 34.5952 22.904 34.5349 22.9765 34.4262L25.5243 30.7191C25.5243 30.7191 25.5485 30.6829 25.5485 30.6708C25.5485 30.6467 25.5604 30.6346 25.5725 30.6225C25.5725 30.6225 25.5725 30.6104 25.5725 30.5984C25.5725 30.5984 25.5725 30.5863 25.5725 30.5742C25.5725 30.5259 25.5725 30.4897 25.5725 30.4414L25.5846 30.4293ZM22.5779 33.6775L19.4868 31.5523L21.612 28.4611L24.7031 30.5863L22.5779 33.6775Z" fill="#4EA9B4"/>
<path d="M38.9403 17.2192C38.9403 17.2192 38.9645 17.2192 38.9766 17.2071C38.9645 17.2071 38.9524 17.2071 38.9403 17.2192ZM38.4452 16.9415V16.9656C38.4452 16.9536 38.4452 16.9415 38.4331 16.9173L38.4452 16.9415ZM38.4452 16.8207C38.4452 16.8207 38.4452 16.8811 38.4452 16.9052C38.4452 16.9173 38.4452 16.9294 38.4452 16.9294C38.4452 16.9294 38.4452 16.8449 38.4452 16.8086V16.8207ZM39.6769 24.2711L40.0874 26.7827L39.6648 24.2711H39.6769ZM44.2292 8.70621L45.0262 13.7657H45.0382L44.2171 8.70621H44.2292Z" fill="#4EA9B4"/>
<path d="M15.5626 10.6382L15.5505 10.6503V10.6382H15.5626Z" fill="#4EA9B4"/>
<path d="M24.6186 16.8087C24.6186 16.9536 24.5582 17.0864 24.4375 17.1588L23.9786 17.4245L17.6875 20.9987C17.6875 20.9987 17.5667 21.047 17.5063 21.047C17.446 21.047 17.3977 21.0349 17.3494 21.0108C17.2407 20.9625 17.1561 20.8538 17.144 20.7331L16.1177 14.1521L16.4679 14.1159C16.6732 14.0917 16.8181 13.9106 16.794 13.7053L17.7961 20.0931L23.8579 16.6517L24.0872 16.5188C24.2684 16.4222 24.4858 16.4826 24.5944 16.6517C24.6065 16.6758 24.6186 16.7121 24.6307 16.7362V16.8087H24.6186Z" fill="#4EA9B4"/>
<path d="M15.1996 6.0497C15.1996 6.0497 15.1151 6.07386 15.0789 6.09801C15.1151 6.07386 15.1634 6.06177 15.1996 6.0497Z" fill="#4EA9B4"/>
<path d="M30.4512 10.8676C30.4512 10.8676 30.3667 10.9038 30.3425 10.94C30.3788 10.9159 30.4149 10.8917 30.4512 10.8676Z" fill="#4EA9B4"/>
<path d="M30.4512 10.8676C30.4512 10.8676 30.3667 10.9038 30.3425 10.94C30.3788 10.9159 30.4149 10.8917 30.4512 10.8676Z" fill="#4EA9B4"/>
<path d="M38.4446 16.9414V16.9172C38.4446 16.9172 38.4446 16.8206 38.4446 16.7844C38.4325 16.8327 38.4205 16.8931 38.4446 16.9535V16.9414Z" fill="#4EA9B4"/>
<path d="M24.7752 19.9482C24.7752 19.9482 24.7389 19.9482 24.7148 19.9482C24.5337 19.9482 24.3766 19.8154 24.3525 19.6342L23.9782 17.4245L23.8454 16.6396L23.1209 12.3771C23.0847 12.1718 23.2175 11.9786 23.4228 11.9424C23.6281 11.9062 23.8213 12.0511 23.8575 12.2443L24.6182 16.7362V16.8087L25.0892 19.5135C25.1254 19.7188 24.9926 19.912 24.7873 19.9482H24.7752Z" fill="#4EA9B4"/>
<path d="M53.9366 18.8493C53.9366 18.8493 53.9005 18.8493 53.8763 18.8493C53.6952 18.8493 53.5381 18.7164 53.514 18.5353L52.2944 11.2781C52.2582 11.0729 52.4031 10.8797 52.5963 10.8434C52.8015 10.8072 52.9947 10.94 53.031 11.1453L54.2506 18.4024C54.2868 18.6077 54.154 18.8009 53.9487 18.8372L53.9366 18.8493Z" fill="#4EA9B4"/>
<path d="M4.56206 30.4294C4.56206 30.4294 4.51369 30.4052 4.48954 30.3932C4.40502 30.3328 4.35671 30.2482 4.33256 30.1516L0.0338908 1.66643C0.00974054 1.5336 0.0700985 1.40077 0.166699 1.32832L4.56206 30.4414V30.4294Z" fill="#4EA9B4"/>
<path d="M61.3637 20.0326L59.1419 7.31754L58.9728 6.33946C58.9366 6.14625 58.7555 6.00135 58.5502 6.03758L55.8212 6.4723L52.0417 7.07606L54.4446 3.58633C54.505 3.5018 54.5292 3.39313 54.5051 3.28445C54.4809 3.18785 54.4326 3.11541 54.3602 3.06711L50.653 0.519236C50.5927 0.470935 50.5203 0.446788 50.4479 0.446788C50.4237 0.446788 50.3995 0.446788 50.3753 0.446788C50.3512 0.446788 50.3271 0.446812 50.303 0.470962C50.2667 0.483037 50.2304 0.507173 50.1942 0.531323C50.1942 0.531323 50.1821 0.543385 50.17 0.55546C50.1579 0.567535 50.146 0.579609 50.1339 0.591684L47.5861 4.29876C47.5257 4.38328 47.5135 4.4799 47.5256 4.5765C47.5256 4.6248 47.5498 4.67309 47.574 4.72139C47.5981 4.75762 47.6343 4.79383 47.6705 4.81798L51.124 7.20887L48.1415 7.67981L44.5431 8.2594C44.5431 8.2594 44.4947 8.25941 44.4706 8.27148C44.4464 8.27148 44.4224 8.29563 44.4103 8.30771C44.3861 8.31978 44.374 8.33187 44.3499 8.35602C44.3378 8.36809 44.3136 8.39222 44.3015 8.40429C44.3015 8.40429 44.2894 8.42844 44.2773 8.44052C44.2773 8.44052 44.2654 8.45261 44.2654 8.46469C44.2654 8.47677 44.2654 8.48884 44.2533 8.50091C44.2533 8.50091 44.2533 8.53712 44.2412 8.56128C44.2412 8.5975 44.2412 8.63372 44.2412 8.66995L45.0622 13.7294H45.0502L41.1137 15.4562L39.1335 16.3135L38.2037 10.7831C38.2037 10.7831 38.2036 10.7348 38.1916 10.7227C38.1795 10.6865 38.1674 10.6623 38.1432 10.6382C38.1432 10.6261 38.119 10.602 38.107 10.5899C38.0345 10.5175 37.9379 10.4812 37.8293 10.4812L34.6535 10.6261L30.9344 10.7952L29.8839 5.11986L29.6423 3.85198C29.6061 3.65878 29.4129 3.51388 29.2076 3.5501L15.2367 6.00135C15.2367 6.00135 15.1522 6.0255 15.116 6.03758C15.0919 6.04965 15.0797 6.06173 15.0556 6.0738C14.959 6.15833 14.9107 6.27908 14.9349 6.4119L15.43 9.58767L12.0005 7.233C11.8315 7.11225 11.6021 7.16057 11.4814 7.32963L11.3607 7.51075L9.11457 10.771L7.27928 0.386427C7.27928 0.386427 7.25508 0.301894 7.23093 0.265668C7.21886 0.241518 7.20675 0.229433 7.19467 0.217358C7.15844 0.169057 7.09806 0.132836 7.03769 0.108686C7.01354 0.108686 7.00155 0.0966241 6.9774 0.084549C6.94117 0.084549 6.89275 0.084549 6.84444 0.084549L0.384281 1.18339C0.311831 1.19547 0.263501 1.21962 0.203125 1.26792L4.59849 30.381C4.59849 30.381 4.69508 30.4052 4.74338 30.4052C4.76753 30.4052 4.79174 30.4052 4.80382 30.4052L29.7872 25.9857L30.8498 25.7925L32.2143 25.551L32.1782 25.5993L31.6589 26.348L29.8476 28.9803C29.7269 29.1494 29.7751 29.3788 29.9442 29.4995L32.5041 31.2625L33.3011 31.8059H33.3253L31.997 32.0233L30.9102 32.1802L29.7148 32.3614C29.5578 32.3855 29.425 32.5183 29.4008 32.6753L28.2175 40.4879C28.2054 40.6087 28.2416 40.7294 28.3261 40.814C28.3986 40.8864 28.4951 40.9226 28.5797 40.9226C28.6038 40.9226 28.628 40.9226 28.6522 40.9226L49.3369 37.2035C49.3369 37.2035 49.4214 37.1794 49.4576 37.1552C49.4938 37.1311 49.5302 37.1069 49.5543 37.0707C49.6147 36.9861 49.6508 36.8895 49.6388 36.7808L48.6003 29.886L62.3418 27.4951C62.3418 27.4951 62.39 27.4951 62.4142 27.483C62.4866 27.4589 62.535 27.4105 62.5833 27.3502C62.6436 27.2656 62.6679 27.1691 62.6437 27.0725L61.3999 19.9964L61.3637 20.0326ZM48.395 4.44365L48.4313 4.39538L50.5323 1.35242L53.5753 3.45352L53.6236 3.47766L51.4984 6.56889L48.4071 4.44365H48.395ZM45.0261 8.95977L45.1951 8.9356L58.3088 6.84663L60.5788 19.8032L54.4084 20.9141L47.1151 22.2062L45.8351 14.0675C45.8351 13.9951 45.835 13.9226 45.8109 13.8623C45.8109 13.8623 45.8109 13.8502 45.8109 13.8381L45.2434 10.2639L45.0381 8.97182L45.0261 8.95977ZM38.9402 17.2192C38.9402 17.2192 38.9644 17.2191 38.9765 17.2071C38.9765 17.2071 38.9523 17.2071 38.9402 17.2192ZM15.5507 10.6382V10.6503L15.9854 13.4276L13.4376 13.7174L15.5507 10.6624V10.6382ZM11.8436 8.10241L14.9349 10.2276L12.8096 13.3189L9.71833 11.1937L11.8436 8.10241ZM12.2663 13.8502L9.67013 14.1521L9.24753 11.7733L12.2663 13.8502ZM5.02124 29.6565L0.831055 1.9079L6.56674 0.929823L8.99385 14.623L10.3946 22.5081C10.4308 22.6892 10.5879 22.8099 10.7569 22.8099C10.7811 22.8099 10.8051 22.8099 10.8293 22.8099C11.0346 22.7737 11.1674 22.5805 11.1312 22.3752L9.80294 14.8766L16.1182 14.1521L16.4684 14.1158C16.6737 14.0917 16.8186 13.9106 16.7945 13.7053L16.408 11.254L15.6956 6.71378L28.942 4.39538V4.49196L30.222 11.2661C30.222 11.2661 30.222 11.2782 30.222 11.2903L31.4416 18.5474C31.4658 18.7286 31.6347 18.8614 31.8038 18.8614C31.8279 18.8614 31.8401 18.8614 31.8642 18.8614C32.0695 18.8251 32.2023 18.6319 32.1661 18.4267L31.0068 11.5801L37.4792 11.2782L38.433 16.9173C38.433 16.9173 38.433 16.8569 38.433 16.8327C38.433 16.869 38.433 16.9052 38.433 16.9535C38.433 16.9535 38.433 16.9897 38.4451 17.0139L39.5319 23.5707L5.00915 29.6807L5.02124 29.6565ZM40.0873 26.7826L37.1048 24.7299L39.6647 24.271L40.0873 26.7826ZM40.2926 28.0022L40.7515 30.7554L38.1311 31.1539L40.2926 28.0143V28.0022ZM36.0543 24.911L34.8951 26.6015L33.2287 25.4544L33.1804 25.4182L36.0543 24.911ZM32.9147 30.7071L30.6567 29.1494L32.2626 26.8189L32.794 26.0582L34.4844 27.2174L35.1003 27.64L35.5229 27.0242L36.6943 25.3336L39.7854 27.4588L37.6602 30.5501L35.9817 29.3909L35.366 28.9682L34.9433 29.5841L33.772 31.2867L32.9389 30.7071H32.9147ZM37.3462 31.2625L34.3395 31.7214V31.6972L35.5229 30.0067L37.3462 31.2625ZM48.081 29.2581C47.8878 29.2943 47.7429 29.4875 47.7792 29.6807L48.8176 36.5877L29.0024 40.1498L30.065 33.1221L41.2345 31.4316C41.3311 31.4195 41.4156 31.3591 41.476 31.2867C41.5363 31.2021 41.5606 31.1055 41.5485 31.0089L39.23 17.1105L41.476 16.1324L45.1589 14.5385L46.4388 22.6892C46.4509 22.7858 46.5113 22.8703 46.5958 22.9307C46.6803 22.991 46.7769 23.0152 46.8735 22.9911L54.5412 21.6387L60.7117 20.5277L61.8225 26.8793L48.0931 29.2581H48.081Z" fill="#4EA9B4"/>
<path d="M25.5846 30.4293C25.5846 30.4293 25.5846 30.381 25.5725 30.3689C25.5604 30.3327 25.5364 30.2965 25.5001 30.2603C25.5001 30.2603 25.488 30.2482 25.476 30.2361C25.4639 30.224 25.4518 30.212 25.4397 30.1999L21.7327 27.652C21.6482 27.5916 21.5395 27.5796 21.4308 27.5917C21.4067 27.5917 21.3704 27.6037 21.3462 27.6279C21.3341 27.6279 21.3222 27.6399 21.3101 27.652C21.298 27.6641 21.2859 27.6641 21.2738 27.6762C21.2618 27.6762 21.2497 27.7003 21.2376 27.7124C21.2255 27.7245 21.2134 27.7366 21.2134 27.7486L18.6656 31.4557C18.6052 31.5402 18.5932 31.6368 18.6053 31.7334C18.6174 31.83 18.6778 31.9146 18.7623 31.9749L22.4693 34.5228C22.5297 34.559 22.6022 34.5952 22.6746 34.5952C22.7954 34.5952 22.904 34.5349 22.9765 34.4262L25.5243 30.7191C25.5243 30.7191 25.5485 30.6829 25.5485 30.6708C25.5485 30.6467 25.5604 30.6346 25.5725 30.6225C25.5725 30.6225 25.5725 30.6104 25.5725 30.5984C25.5725 30.5984 25.5725 30.5984 25.5725 30.5863C25.5725 30.5863 25.5725 30.4897 25.5725 30.4414L25.5846 30.4293ZM22.5779 33.6775L19.4868 31.5523L21.612 28.4611L24.7031 30.5863L22.5779 33.6775Z" fill="#4EA9B4"/>
</svg>
