<svg width="140" height="111" viewBox="0 0 140 111" fill="none" xmlns="http://www.w3.org/2000/svg">
<path d="M51.8992 62.4786C51.8992 62.4786 51.8991 62.3805 51.8746 62.3559C51.8501 62.2824 51.8012 62.2088 51.7276 62.1353C51.7276 62.1353 51.7031 62.1108 51.6786 62.0863C51.654 62.0617 51.6294 62.0372 51.6049 62.0127L44.0772 56.8388C43.9056 56.7162 43.6849 56.6917 43.4642 56.7162C43.4152 56.7162 43.3414 56.7408 43.2924 56.7898C43.2679 56.7898 43.2436 56.8143 43.2191 56.8388C43.1945 56.8633 43.17 56.8634 43.1454 56.8879C43.1209 56.8879 43.0963 56.9369 43.0718 56.9615C43.0473 56.986 43.0227 57.0105 43.0227 57.035L37.8489 64.5629C37.7263 64.7345 37.702 64.9306 37.7265 65.1268C37.751 65.323 37.8736 65.4946 38.0453 65.6172L45.5729 70.791C45.6956 70.8646 45.8428 70.9382 45.9899 70.9382C46.2351 70.9382 46.4558 70.8156 46.6029 70.5949L51.7767 63.0671C51.7767 63.0671 51.8258 62.9935 51.8258 62.969C51.8258 62.9199 51.8501 62.8955 51.8746 62.8709C51.8746 62.8709 51.8746 62.8464 51.8746 62.8218C51.8746 62.8218 51.8746 62.8219 51.8746 62.7974C51.8746 62.7974 51.8746 62.6011 51.8746 62.5031L51.8992 62.4786ZM45.7936 69.0746L39.5164 64.759L43.8321 58.4817L50.1092 62.7974L45.7936 69.0746ZM81.7654 57.5499L77.3761 63.9253L82.6972 63.1161L81.7654 57.5254V57.5499ZM80.5148 49.9731L75.3165 50.9049L81.373 55.0733L80.5148 49.9731ZM67.2982 52.327L67.3963 52.4006L70.7802 54.7301L73.1341 51.2972L67.2982 52.327ZM77.4743 22.2403H77.2537C77.2537 22.2403 77.3025 22.3139 77.327 22.3384C77.3761 22.3874 77.4007 22.4609 77.4252 22.51C77.4252 22.5345 77.4497 22.5836 77.4497 22.6326L79.3379 33.863L83.3593 32.1221L77.4497 22.2403H77.4743ZM79.0191 35.653C79.0191 35.653 79.0682 35.653 79.0927 35.6285C79.0682 35.6285 79.0436 35.6285 79.0191 35.653ZM78.0137 35.089V35.1381C78.0137 35.1136 78.0136 35.0891 77.9891 35.04L78.0137 35.089ZM78.0137 34.8438C78.0137 34.8438 78.0137 34.9664 78.0137 35.0155C78.0137 35.04 78.0137 35.0646 78.0137 35.0646C78.0137 35.0646 78.0137 34.8929 78.0137 34.8194V34.8438ZM60.5305 11.1815L62.6637 22.7062L70.2163 22.3628L60.5305 11.206V11.1815ZM96.7474 10.5194C96.7474 10.5194 96.6004 10.3968 96.5514 10.3232L97.7038 16.3308L103.76 15.3745L96.7474 10.5194ZM110.602 7.3808C110.651 7.57696 110.602 7.82217 110.479 7.99381L105.599 15.0802L113.274 13.8542L110.577 7.3808H110.602ZM126.466 56.6181C126.466 56.6181 126.565 56.6182 126.614 56.5691C126.565 56.5691 126.515 56.5937 126.466 56.5937V56.6181ZM50.8695 40.3119L49.9377 34.8194V34.6722L48.3929 25.5506C48.3193 25.1582 47.927 24.864 47.5102 24.9376C47.0933 25.0111 46.8236 25.4034 46.8972 25.8203L48.3683 34.5006L36.0589 41.489L34.0238 28.5175C34.0729 28.9344 33.7786 29.3022 33.3617 29.3512L32.6505 29.4248L34.7347 42.7886C34.7593 43.0338 34.931 43.2299 35.1517 43.3525C35.2498 43.4015 35.3724 43.426 35.4705 43.426C35.5931 43.426 35.7157 43.4016 35.8383 43.328L48.6135 36.0699L49.3738 40.5572C49.4228 40.925 49.7659 41.1947 50.1092 41.1947C50.1582 41.1947 50.1829 41.1947 50.2319 41.1947C50.6488 41.1212 50.9185 40.7288 50.8449 40.3119H50.8695ZM31.5227 22.3138L27.2316 28.5175L32.4054 27.9291L31.5227 22.2893V22.3138ZM18.6985 24.5697L19.5566 29.4002L24.8286 28.7872L18.6985 24.5697ZM22.8668 15.9875L14.6525 0.686646L0.234375 3.16325V3.35938C0.356978 3.28582 0.479665 3.21232 0.626788 3.18779L13.7453 0.956411C13.7453 0.956411 13.9169 0.956411 14.0149 0.956411C14.064 0.956411 14.0886 0.956384 14.1377 1.00543C14.2603 1.02995 14.3581 1.12802 14.4561 1.2261C14.4807 1.25062 14.5053 1.29968 14.5298 1.32421C14.5788 1.39777 14.6034 1.49586 14.628 1.56943L18.3551 22.6571L22.9159 16.0366L22.8668 15.9875ZM110.087 38.0806L107.61 23.3437C107.537 22.9268 107.144 22.6571 106.727 22.7306C106.31 22.8042 106.041 23.1966 106.114 23.6134L108.591 38.3503C108.64 38.7181 108.983 38.9878 109.327 38.9878C109.376 38.9878 109.4 38.9878 109.449 38.9878C109.866 38.9143 110.136 38.522 110.062 38.1051L110.087 38.0806Z" fill="#EDB22E"/>
<path d="M75.7794 64.1703L69.6738 65.1021L69.6984 65.053L72.0768 61.6201L75.7794 64.1703Z" fill="#EDB22E"/>
<path d="M120.038 15.5459L124.55 41.3416L127.075 55.7352C127.1 55.9314 127.075 56.1275 126.953 56.2991C126.879 56.4217 126.757 56.5199 126.61 56.5689C126.561 56.5689 126.511 56.5934 126.462 56.6179L98.558 61.473L100.667 75.4743C100.691 75.6949 100.642 75.9156 100.495 76.0627C100.446 76.1118 100.372 76.1853 100.299 76.2344C100.225 76.2834 100.127 76.308 100.054 76.3325L58.0499 83.8848C58.0499 83.8848 57.952 83.8848 57.903 83.8848C57.7068 83.8848 57.5104 83.8112 57.3878 83.6641C57.2162 83.4925 57.1427 83.2473 57.1672 83.0021L59.5702 67.1373C59.6192 66.8185 59.8645 66.5487 60.2077 66.4997L62.6353 66.1319L64.8422 65.8131L67.5394 65.3963H67.4903L65.8721 64.2683L60.6738 60.6883C60.3305 60.4431 60.2568 59.9773 60.4774 59.634L64.1555 54.2885L65.21 52.7682L65.2837 52.6701L62.5128 53.1605L60.355 53.5528L9.62174 62.5274C9.62174 62.5274 9.54835 62.5274 9.49931 62.5274C9.40123 62.5274 9.30316 62.5274 9.20508 62.4784V62.5274L25.7319 110.343L139.998 87.4893L120.014 15.5704L120.038 15.5459ZM51.8952 62.7481C51.8952 62.7481 51.8952 62.7726 51.8952 62.7971C51.8952 62.7971 51.8952 62.8216 51.8952 62.8462C51.8952 62.8707 51.8707 62.9197 51.8461 62.9443C51.8461 62.9688 51.8219 63.0178 51.7973 63.0423L46.6235 70.5701C46.4764 70.7908 46.2312 70.9135 46.0105 70.9135C45.8634 70.9135 45.7162 70.8644 45.5936 70.7663L38.0656 65.5925C37.8939 65.4699 37.7958 65.2983 37.7468 65.1021C37.7223 64.9059 37.7469 64.7097 37.8695 64.5381L43.0433 57.0102C43.0433 57.0102 43.0679 56.9612 43.0924 56.9367C43.0924 56.9367 43.1415 56.8876 43.166 56.8631C43.166 56.8386 43.2152 56.8386 43.2397 56.8141C43.2642 56.8141 43.2885 56.7895 43.313 56.765C43.3621 56.7405 43.4358 56.716 43.4848 56.6915C43.681 56.6424 43.9017 56.6915 44.0978 56.8141L51.6255 61.9879C51.6255 61.9879 51.6746 62.037 51.6992 62.0615C51.6992 62.0615 51.7237 62.0615 51.7483 62.1106C51.7973 62.1841 51.8462 62.2577 51.8952 62.3312C51.8952 62.3803 51.9198 62.4293 51.9198 62.4538C51.9198 62.5519 51.9198 62.65 51.9198 62.7236L51.8952 62.7481Z" fill="#EDB22E"/>
<path d="M110.084 38.0807L107.608 23.3438C107.534 22.927 107.142 22.6573 106.725 22.7308C106.308 22.8044 106.038 23.1967 106.112 23.6136L108.589 38.3505C108.638 38.7183 108.981 38.988 109.324 38.988C109.373 38.988 109.398 38.988 109.447 38.988C109.864 38.9144 110.134 38.5221 110.06 38.1053L110.084 38.0807ZM110.084 38.0807L107.608 23.3438C107.534 22.927 107.142 22.6573 106.725 22.7308C106.308 22.8044 106.038 23.1967 106.112 23.6136L108.589 38.3505C108.638 38.7183 108.981 38.988 109.324 38.988C109.373 38.988 109.398 38.988 109.447 38.988C109.864 38.9144 110.134 38.5221 110.06 38.1053L110.084 38.0807ZM110.084 38.0807L107.608 23.3438C107.534 22.927 107.142 22.6573 106.725 22.7308C106.308 22.8044 106.038 23.1967 106.112 23.6136L108.589 38.3505C108.638 38.7183 108.981 38.988 109.324 38.988C109.373 38.988 109.398 38.988 109.447 38.988C109.864 38.9144 110.134 38.5221 110.06 38.1053L110.084 38.0807ZM110.084 38.0807L107.608 23.3438C107.534 22.927 107.142 22.6573 106.725 22.7308C106.308 22.8044 106.038 23.1967 106.112 23.6136L108.589 38.3505C108.638 38.7183 108.981 38.988 109.324 38.988C109.373 38.988 109.398 38.988 109.447 38.988C109.864 38.9144 110.134 38.5221 110.06 38.1053L110.084 38.0807ZM110.084 38.0807L107.608 23.3438C107.534 22.927 107.142 22.6573 106.725 22.7308C106.308 22.8044 106.038 23.1967 106.112 23.6136L108.589 38.3505C108.638 38.7183 108.981 38.988 109.324 38.988C109.373 38.988 109.398 38.988 109.447 38.988C109.864 38.9144 110.134 38.5221 110.06 38.1053L110.084 38.0807ZM110.084 38.0807L107.608 23.3438C107.534 22.927 107.142 22.6573 106.725 22.7308C106.308 22.8044 106.038 23.1967 106.112 23.6136L108.589 38.3505C108.638 38.7183 108.981 38.988 109.324 38.988C109.373 38.988 109.398 38.988 109.447 38.988C109.864 38.9144 110.134 38.5221 110.06 38.1053L110.084 38.0807ZM110.084 38.0807L107.608 23.3438C107.534 22.927 107.142 22.6573 106.725 22.7308C106.308 22.8044 106.038 23.1967 106.112 23.6136L108.589 38.3505C108.638 38.7183 108.981 38.988 109.324 38.988C109.373 38.988 109.398 38.988 109.447 38.988C109.864 38.9144 110.134 38.5221 110.06 38.1053L110.084 38.0807ZM110.084 38.0807L107.608 23.3438C107.534 22.927 107.142 22.6573 106.725 22.7308C106.308 22.8044 106.038 23.1967 106.112 23.6136L108.589 38.3505C108.638 38.7183 108.981 38.988 109.324 38.988C109.373 38.988 109.398 38.988 109.447 38.988C109.864 38.9144 110.134 38.5221 110.06 38.1053L110.084 38.0807ZM110.084 38.0807L107.608 23.3438C107.534 22.927 107.142 22.6573 106.725 22.7308C106.308 22.8044 106.038 23.1967 106.112 23.6136L108.589 38.3505C108.638 38.7183 108.981 38.988 109.324 38.988C109.373 38.988 109.398 38.988 109.447 38.988C109.864 38.9144 110.134 38.5221 110.06 38.1053L110.084 38.0807ZM110.084 38.0807L107.608 23.3438C107.534 22.927 107.142 22.6573 106.725 22.7308C106.308 22.8044 106.038 23.1967 106.112 23.6136L108.589 38.3505C108.638 38.7183 108.981 38.988 109.324 38.988C109.373 38.988 109.398 38.988 109.447 38.988C109.864 38.9144 110.134 38.5221 110.06 38.1053L110.084 38.0807ZM0.281207 3.35955C0.0850424 3.5312 -0.0130041 3.7764 0.0115165 4.04613L8.7407 61.8902C8.76522 62.0864 8.88783 62.2581 9.05948 62.3807C9.10852 62.4052 9.1577 62.4297 9.20674 62.4542L0.281207 3.33508V3.35955ZM18.6962 24.5699L19.5544 29.4004L24.8264 28.7874L18.6962 24.5699ZM31.5204 22.314L27.2293 28.5177L32.4031 27.9292L31.5204 22.2895V22.314ZM50.8672 40.3121L49.9354 34.8195V34.6724L48.3906 25.5507C48.3171 25.1584 47.9248 24.8642 47.5079 24.9377C47.0911 25.0113 46.8213 25.4036 46.8949 25.8204L48.3661 34.5007L36.0567 41.4891L34.0216 28.5177C34.0706 28.9346 33.7763 29.3024 33.3595 29.3514L32.6483 29.425L34.7325 42.7887C34.757 43.0339 34.9287 43.23 35.1494 43.3526C35.2475 43.4017 35.3701 43.4262 35.4682 43.4262C35.5908 43.4262 35.7135 43.4017 35.8361 43.3282L48.6112 36.07L49.3715 40.5573C49.4205 40.9251 49.7637 41.1949 50.1069 41.1949C50.156 41.1949 50.1806 41.1949 50.2297 41.1949C50.6465 41.1213 50.9162 40.729 50.8427 40.3121H50.8672ZM78.0114 34.844C78.0114 34.844 78.0114 34.9666 78.0114 35.0157C78.0114 35.0402 78.0114 35.0647 78.0114 35.0647C78.0114 35.0647 78.0114 34.8931 78.0114 34.8195V34.844ZM110.084 38.0807L107.608 23.3438C107.534 22.927 107.142 22.6573 106.725 22.7308C106.308 22.8044 106.038 23.1967 106.112 23.6136L108.589 38.3505C108.638 38.7183 108.981 38.988 109.324 38.988C109.373 38.988 109.398 38.988 109.447 38.988C109.864 38.9144 110.134 38.5221 110.06 38.1053L110.084 38.0807ZM110.084 38.0807L107.608 23.3438C107.534 22.927 107.142 22.6573 106.725 22.7308C106.308 22.8044 106.038 23.1967 106.112 23.6136L108.589 38.3505C108.638 38.7183 108.981 38.988 109.324 38.988C109.373 38.988 109.398 38.988 109.447 38.988C109.864 38.9144 110.134 38.5221 110.06 38.1053L110.084 38.0807ZM126.464 56.6183C126.464 56.6183 126.562 56.6183 126.611 56.5693C126.562 56.5693 126.513 56.5938 126.464 56.5938V56.6183ZM110.084 38.0807L107.608 23.3438C107.534 22.927 107.142 22.6573 106.725 22.7308C106.308 22.8044 106.038 23.1967 106.112 23.6136L108.589 38.3505C108.638 38.7183 108.981 38.988 109.324 38.988C109.373 38.988 109.398 38.988 109.447 38.988C109.864 38.9144 110.134 38.5221 110.06 38.1053L110.084 38.0807ZM110.084 38.0807L107.608 23.3438C107.534 22.927 107.142 22.6573 106.725 22.7308C106.308 22.8044 106.038 23.1967 106.112 23.6136L108.589 38.3505C108.638 38.7183 108.981 38.988 109.324 38.988C109.373 38.988 109.398 38.988 109.447 38.988C109.864 38.9144 110.134 38.5221 110.06 38.1053L110.084 38.0807ZM110.084 38.0807L107.608 23.3438C107.534 22.927 107.142 22.6573 106.725 22.7308C106.308 22.8044 106.038 23.1967 106.112 23.6136L108.589 38.3505C108.638 38.7183 108.981 38.988 109.324 38.988C109.373 38.988 109.398 38.988 109.447 38.988C109.864 38.9144 110.134 38.5221 110.06 38.1053L110.084 38.0807ZM110.084 38.0807L107.608 23.3438C107.534 22.927 107.142 22.6573 106.725 22.7308C106.308 22.8044 106.038 23.1967 106.112 23.6136L108.589 38.3505C108.638 38.7183 108.981 38.988 109.324 38.988C109.373 38.988 109.398 38.988 109.447 38.988C109.864 38.9144 110.134 38.5221 110.06 38.1053L110.084 38.0807ZM110.084 38.0807L107.608 23.3438C107.534 22.927 107.142 22.6573 106.725 22.7308C106.308 22.8044 106.038 23.1967 106.112 23.6136L108.589 38.3505C108.638 38.7183 108.981 38.988 109.324 38.988C109.373 38.988 109.398 38.988 109.447 38.988C109.864 38.9144 110.134 38.5221 110.06 38.1053L110.084 38.0807ZM110.084 38.0807L107.608 23.3438C107.534 22.927 107.142 22.6573 106.725 22.7308C106.308 22.8044 106.038 23.1967 106.112 23.6136L108.589 38.3505C108.638 38.7183 108.981 38.988 109.324 38.988C109.373 38.988 109.398 38.988 109.447 38.988C109.864 38.9144 110.134 38.5221 110.06 38.1053L110.084 38.0807ZM110.084 38.0807L107.608 23.3438C107.534 22.927 107.142 22.6573 106.725 22.7308C106.308 22.8044 106.038 23.1967 106.112 23.6136L108.589 38.3505C108.638 38.7183 108.981 38.988 109.324 38.988C109.373 38.988 109.398 38.988 109.447 38.988C109.864 38.9144 110.134 38.5221 110.06 38.1053L110.084 38.0807ZM110.084 38.0807L107.608 23.3438C107.534 22.927 107.142 22.6573 106.725 22.7308C106.308 22.8044 106.038 23.1967 106.112 23.6136L108.589 38.3505C108.638 38.7183 108.981 38.988 109.324 38.988C109.373 38.988 109.398 38.988 109.447 38.988C109.864 38.9144 110.134 38.5221 110.06 38.1053L110.084 38.0807ZM110.084 38.0807L107.608 23.3438C107.534 22.927 107.142 22.6573 106.725 22.7308C106.308 22.8044 106.038 23.1967 106.112 23.6136L108.589 38.3505C108.638 38.7183 108.981 38.988 109.324 38.988C109.373 38.988 109.398 38.988 109.447 38.988C109.864 38.9144 110.134 38.5221 110.06 38.1053L110.084 38.0807ZM110.084 38.0807L107.608 23.3438C107.534 22.927 107.142 22.6573 106.725 22.7308C106.308 22.8044 106.038 23.1967 106.112 23.6136L108.589 38.3505C108.638 38.7183 108.981 38.988 109.324 38.988C109.373 38.988 109.398 38.988 109.447 38.988C109.864 38.9144 110.134 38.5221 110.06 38.1053L110.084 38.0807ZM110.084 38.0807L107.608 23.3438C107.534 22.927 107.142 22.6573 106.725 22.7308C106.308 22.8044 106.038 23.1967 106.112 23.6136L108.589 38.3505C108.638 38.7183 108.981 38.988 109.324 38.988C109.373 38.988 109.398 38.988 109.447 38.988C109.864 38.9144 110.134 38.5221 110.06 38.1053L110.084 38.0807Z" fill="#EDB22E"/>
<path d="M78.0109 35.0888V35.1379C78.0109 35.1134 78.0108 35.0888 77.9863 35.0398L78.0109 35.0888Z" fill="#EDB22E"/>
<path d="M31.5431 22.2892L31.5186 22.3137V22.2892H31.5431Z" fill="#EDB22E"/>
<path d="M78.0587 35.1871C78.0587 35.1626 78.0587 35.138 78.0342 35.089C78.0342 35.1135 78.0342 35.1626 78.0587 35.1871Z" fill="#EDB22E"/>
<path d="M79.0912 35.6526C79.0912 35.6526 79.0421 35.6526 79.0176 35.6771C79.0176 35.6771 79.0667 35.6771 79.0912 35.6526Z" fill="#EDB22E"/>
<path d="M51.8951 62.4783C51.8951 62.4783 51.8951 62.3802 51.8706 62.3557C51.8461 62.2821 51.7972 62.2085 51.7236 62.135C51.7236 62.135 51.699 62.1105 51.6745 62.086C51.65 62.0614 51.6254 62.0369 51.6009 62.0124L44.0732 56.8385C43.9015 56.7159 43.6809 56.6914 43.4602 56.7159C43.4111 56.7159 43.3374 56.7405 43.2884 56.7895C43.2638 56.7895 43.2395 56.814 43.215 56.8385C43.1905 56.863 43.1659 56.8631 43.1414 56.8876C43.1169 56.8876 43.0923 56.9366 43.0678 56.9612C43.0432 56.9857 43.0187 57.0102 43.0187 57.0347L37.8449 64.5626C37.7223 64.7342 37.6979 64.9303 37.7224 65.1265C37.747 65.3227 37.8696 65.4943 38.0412 65.6169L45.5689 70.7907C45.6915 70.8643 45.8387 70.9379 45.9859 70.9379C46.2311 70.9379 46.4518 70.8153 46.5989 70.5946L51.7727 63.0668C51.7727 63.0668 51.8218 62.9932 51.8218 62.9687C51.8218 62.9196 51.8461 62.8952 51.8706 62.8706C51.8706 62.8706 51.8706 62.8461 51.8706 62.8216C51.8706 62.8216 51.8706 62.7971 51.8706 62.7725C51.8706 62.6745 51.8706 62.6009 51.8706 62.5028L51.8951 62.4783ZM45.7895 69.0744L39.5124 64.7587L43.828 58.4814L50.1052 62.7971L45.7895 69.0744Z" fill="#EDB22E"/>
<path d="M79.0163 35.6527C79.0163 35.6527 79.0654 35.6526 79.0899 35.6281C79.0654 35.6281 79.0408 35.6282 79.0163 35.6527ZM78.0109 35.0887V35.1378C78.0109 35.1132 78.0108 35.0887 77.9863 35.0397L78.0109 35.0887ZM78.0109 34.8435C78.0109 34.8435 78.0109 34.9661 78.0109 35.0151C78.0109 35.0396 78.0109 35.0642 78.0109 35.0642C78.0109 35.0642 78.0109 34.8925 78.0109 34.819V34.8435ZM80.512 49.9727L81.3456 55.0729L80.4875 49.9727H80.512ZM89.7563 18.3656L91.3748 28.6397H91.399L89.7318 18.3656H89.7563Z" fill="#EDB22E"/>
<path d="M31.5431 22.2892L31.5186 22.3137V22.2892H31.5431Z" fill="#EDB22E"/>
<path d="M49.9355 34.8193C49.9355 35.1135 49.8128 35.3832 49.5676 35.5303L48.6358 36.0698L35.8606 43.3279C35.8606 43.3279 35.6154 43.426 35.4928 43.426C35.3702 43.426 35.2721 43.4014 35.174 43.3524C34.9533 43.2543 34.7816 43.0337 34.757 42.7885L32.6729 29.4247L33.384 29.3511C33.8009 29.3021 34.0952 28.9343 34.0461 28.5175L36.0813 41.4889L48.3906 34.5005L48.8564 34.2307C49.2242 34.0346 49.6657 34.1572 49.8864 34.5005C49.9109 34.5495 49.9355 34.6231 49.96 34.6722V34.8193H49.9355Z" fill="#EDB22E"/>
<path d="M30.8086 12.9713C30.8086 12.9713 30.637 13.0204 30.5635 13.0694C30.637 13.0204 30.7351 12.9959 30.8086 12.9713Z" fill="#EDB22E"/>
<path d="M61.7792 22.7546C61.7792 22.7546 61.6076 22.8282 61.5586 22.9018C61.6322 22.8527 61.7056 22.8037 61.7792 22.7546Z" fill="#EDB22E"/>
<path d="M61.7792 22.7546C61.7792 22.7546 61.6076 22.8282 61.5586 22.9018C61.6322 22.8527 61.7056 22.8037 61.7792 22.7546Z" fill="#EDB22E"/>
<path d="M78.0107 35.0889V35.0399C78.0107 35.0399 78.0107 34.8437 78.0107 34.7701C77.9862 34.8682 77.9617 34.9909 78.0107 35.1135V35.0889Z" fill="#EDB22E"/>
<path d="M50.2513 41.1946C50.2513 41.1946 50.1776 41.1946 50.1285 41.1946C49.7607 41.1946 49.4418 40.9249 49.3928 40.5571L48.6328 36.0698L48.3631 34.4759L46.892 25.8202C46.8184 25.4033 47.0881 25.011 47.505 24.9375C47.9218 24.8639 48.3141 25.1582 48.3877 25.5505L49.9325 34.6721V34.8193L50.8888 40.3119C50.9624 40.7287 50.6927 41.1211 50.2758 41.1946H50.2513Z" fill="#EDB22E"/>
<path d="M109.468 38.963C109.468 38.963 109.395 38.963 109.346 38.963C108.978 38.963 108.659 38.6932 108.61 38.3254L106.133 23.5885C106.06 23.1717 106.354 22.7794 106.746 22.7058C107.163 22.6322 107.556 22.902 107.629 23.3188L110.106 38.0556C110.179 38.4725 109.91 38.8649 109.493 38.9384L109.468 38.963Z" fill="#EDB22E"/>
<path d="M9.20604 62.4787C9.20604 62.4787 9.10781 62.4297 9.05877 62.4051C8.88713 62.2825 8.78903 62.1109 8.73999 61.9147L0.010816 4.07061C-0.0382252 3.80088 0.0843419 3.53116 0.280507 3.38403L9.20604 62.5032V62.4787Z" fill="#EDB22E"/>
<path d="M124.549 41.366L120.038 15.5458L119.694 13.5597C119.621 13.1674 119.253 12.8731 118.836 12.9467L113.295 13.8295L105.62 15.0555L110.499 7.96899C110.622 7.79735 110.671 7.57666 110.622 7.35598C110.573 7.15981 110.475 7.01271 110.328 6.91462L102.8 1.74074C102.677 1.64266 102.53 1.59362 102.383 1.59362C102.334 1.59362 102.285 1.59362 102.236 1.59362C102.187 1.59362 102.138 1.59367 102.089 1.64271C102.015 1.66723 101.941 1.71624 101.868 1.76528C101.868 1.76528 101.843 1.78978 101.819 1.8143C101.794 1.83882 101.77 1.86334 101.745 1.88786L96.5717 9.4157C96.4491 9.58734 96.4244 9.78353 96.4489 9.9797C96.4489 10.0778 96.4981 10.1759 96.5471 10.2739C96.5962 10.3475 96.6696 10.421 96.7432 10.4701L103.756 15.3252L97.6995 16.2815L90.3924 17.4585C90.3924 17.4585 90.2942 17.4585 90.2451 17.483C90.1961 17.483 90.1472 17.532 90.1227 17.5566C90.0737 17.5811 90.049 17.6056 90 17.6547C89.9755 17.6792 89.9263 17.7282 89.9018 17.7527C89.9018 17.7527 89.8773 17.8017 89.8527 17.8262C89.8527 17.8262 89.8285 17.8508 89.8285 17.8753C89.8285 17.8999 89.8285 17.9244 89.8039 17.9489C89.8039 17.9489 89.8039 18.0224 89.7794 18.0715C89.7794 18.145 89.7794 18.2186 89.7794 18.2921L91.4466 28.5663H91.4221L83.4284 32.0728L79.4072 33.8137L77.5191 22.5833C77.5191 22.5833 77.5191 22.4852 77.4946 22.4607C77.47 22.3871 77.4454 22.3381 77.3964 22.289C77.3964 22.2645 77.3473 22.2155 77.3227 22.191C77.1756 22.0439 76.9795 21.9702 76.7588 21.9702L70.3099 22.2645L62.7577 22.6078L60.6244 11.0831L60.1338 8.50845C60.0602 8.11612 59.6679 7.82187 59.2511 7.89543L30.8809 12.8731C30.8809 12.8731 30.7093 12.9222 30.6357 12.9467C30.5867 12.9712 30.562 12.9957 30.513 13.0202C30.3168 13.1919 30.2188 13.4371 30.2679 13.7068L31.2733 20.1557L24.3092 15.3742C23.9659 15.129 23.5002 15.2271 23.255 15.5704L23.0099 15.9382L18.4488 22.5588L14.7219 1.47105C14.7219 1.47105 14.6727 1.29939 14.6237 1.22583C14.5992 1.17679 14.5746 1.15224 14.5501 1.12772C14.4765 1.02964 14.3539 0.956088 14.2313 0.907046C14.1822 0.907046 14.1579 0.882553 14.1089 0.858032C14.0353 0.858032 13.937 0.858032 13.8389 0.858032L0.720408 3.08942C0.573284 3.11394 0.475142 3.163 0.352539 3.26108L9.27807 62.3802C9.27807 62.3802 9.47423 62.4292 9.57231 62.4292C9.62135 62.4292 9.67051 62.4292 9.69503 62.4292L60.428 53.4548L62.5858 53.0624L65.3567 52.572L65.2833 52.6701L64.2288 54.1903L60.5507 59.5358C60.3055 59.8791 60.4035 60.345 60.7468 60.5902L65.9452 64.1702L67.5636 65.2736H67.6127L64.9155 65.7151L62.7086 66.0338L60.281 66.4016C59.9623 66.4507 59.6925 66.7203 59.6435 67.0391L57.2405 82.9039C57.216 83.1492 57.2895 83.3944 57.4611 83.566C57.6082 83.7132 57.8043 83.7867 57.976 83.7867C58.025 83.7867 58.0742 83.7867 58.1232 83.7867L100.127 76.2343C100.127 76.2343 100.299 76.1853 100.372 76.1363C100.446 76.0873 100.519 76.0382 100.569 75.9646C100.691 75.793 100.765 75.5968 100.74 75.3761L98.6313 61.3749L126.536 56.5198C126.536 56.5198 126.634 56.5198 126.683 56.4953C126.83 56.4462 126.928 56.3481 127.026 56.2255C127.149 56.0539 127.198 55.8578 127.149 55.6616L124.623 41.2925L124.549 41.366ZM98.2143 9.70993L98.288 9.61191L102.555 3.43267L108.734 7.6993L108.832 7.74832L104.516 14.0256L98.2389 9.70993H98.2143ZM91.3733 18.8807L91.7163 18.8316L118.346 14.5896L122.956 40.9001L110.426 43.1561L95.6153 45.7798L93.016 29.2529C93.016 29.1057 93.0159 28.9587 92.9669 28.836C92.9669 28.836 92.9669 28.8115 92.9669 28.787L91.8145 21.5289L91.3975 18.9052L91.3733 18.8807ZM79.0148 35.6528C79.0148 35.6528 79.0639 35.6527 79.0885 35.6282C79.0885 35.6282 79.0393 35.6283 79.0148 35.6528ZM31.5184 22.289V22.3136L32.4011 27.9533L27.2273 28.5418L31.5184 22.3381V22.289ZM23.9904 17.1397L30.2679 21.4553L25.9522 27.7326L19.6748 23.417L23.9904 17.1397ZM24.8489 28.8115L19.5769 29.4245L18.7187 24.594L24.8489 28.8115ZM10.1365 60.909L1.62766 4.56067L13.2749 2.5745L18.2036 30.3809L21.0481 46.3928C21.1216 46.7606 21.4405 47.0058 21.7838 47.0058C21.8329 47.0058 21.8817 47.0058 21.9308 47.0058C22.3476 46.9323 22.6174 46.5399 22.5438 46.123L19.8466 30.8958L32.6708 29.4245L33.382 29.351C33.7989 29.3019 34.0932 28.9341 34.0441 28.5173L33.2593 23.5396L31.8127 14.3198L58.7117 9.61191V9.80804L61.311 23.5641C61.311 23.5641 61.311 23.5886 61.311 23.6131L63.7876 38.3501C63.8367 38.7179 64.1798 38.9875 64.5231 38.9875C64.5721 38.9875 64.5967 38.9875 64.6458 38.9875C65.0626 38.914 65.3324 38.5217 65.2588 38.1048L62.9046 24.2016L76.0479 23.5886L77.9848 35.0398C77.9848 35.0398 77.9848 34.9171 77.9848 34.8681C77.9848 34.9417 77.9848 35.0152 77.9848 35.1133C77.9848 35.1133 77.9849 35.1868 78.0094 35.2359L80.2163 48.5506L10.112 60.9581L10.1365 60.909ZM81.3442 55.073L75.2876 50.9046L80.486 49.9728L81.3442 55.073ZM81.7611 57.5497L82.6929 63.1403L77.3718 63.9496L81.7611 57.5742V57.5497ZM73.1544 51.2724L70.8005 54.7053L67.4166 52.3758L67.3185 52.3023L73.1544 51.2724ZM66.7791 63.0422L62.1937 59.8791L65.4549 55.1466L66.5339 53.6019L69.9666 55.9558L71.2171 56.8141L72.0753 55.5635L74.454 52.1306L80.7311 56.4462L76.4155 62.7235L73.0071 60.3695L71.7568 59.5113L70.8984 60.7618L68.5199 64.2193L66.8282 63.0422H66.7791ZM75.7779 64.1702L69.6723 65.102V65.0529L72.0753 61.6201L75.7779 64.1702ZM97.5768 60.0998C97.1845 60.1734 96.8902 60.5657 96.9638 60.9581L99.0725 74.9838L58.8344 82.2174L60.9922 67.9464L83.6738 64.5135C83.87 64.489 84.0415 64.3664 84.1641 64.2193C84.2867 64.0476 84.3359 63.8514 84.3114 63.6553L79.6033 35.4321L84.1641 33.4459L91.643 30.2092L94.242 46.7606C94.2665 46.9568 94.3892 47.1284 94.5608 47.251C94.7324 47.3736 94.9286 47.4227 95.1247 47.3736L110.695 44.6273L123.226 42.3714L125.481 55.2693L97.6013 60.0998H97.5768Z" fill="#EDB22E"/>
<path d="M51.8951 62.4783C51.8951 62.4783 51.8951 62.3802 51.8706 62.3557C51.8461 62.2821 51.7972 62.2085 51.7236 62.135C51.7236 62.135 51.699 62.1105 51.6745 62.086C51.65 62.0614 51.6254 62.0369 51.6009 62.0124L44.0732 56.8385C43.9015 56.7159 43.6809 56.6914 43.4602 56.7159C43.4111 56.7159 43.3374 56.7405 43.2884 56.7895C43.2638 56.7895 43.2395 56.814 43.215 56.8385C43.1905 56.863 43.1659 56.8631 43.1414 56.8876C43.1169 56.8876 43.0923 56.9366 43.0678 56.9612C43.0432 56.9857 43.0187 57.0102 43.0187 57.0347L37.8449 64.5626C37.7223 64.7342 37.6979 64.9303 37.7224 65.1265C37.747 65.3227 37.8696 65.4943 38.0412 65.6169L45.5689 70.7907C45.6915 70.8643 45.8387 70.9379 45.9859 70.9379C46.2311 70.9379 46.4518 70.8153 46.5989 70.5946L51.7727 63.0668C51.7727 63.0668 51.8218 62.9932 51.8218 62.9687C51.8218 62.9196 51.8461 62.8952 51.8706 62.8706C51.8706 62.8706 51.8706 62.8461 51.8706 62.8216C51.8706 62.8216 51.8706 62.8216 51.8706 62.7971C51.8706 62.7971 51.8706 62.6009 51.8706 62.5028L51.8951 62.4783ZM45.7895 69.0744L39.5124 64.7587L43.828 58.4814L50.1052 62.7971L45.7895 69.0744Z" fill="#EDB22E"/>
</svg>
