<svg width="26" height="30" viewBox="0 0 26 30" fill="none" xmlns="http://www.w3.org/2000/svg">
<path d="M10.4381 22.9493C10.6531 22.9493 10.8333 22.8766 10.9786 22.7313C11.124 22.5859 11.1962 22.4062 11.1952 22.1922V13.1072C11.1952 12.8922 11.1225 12.7125 10.9771 12.5682C10.8318 12.4238 10.6516 12.3512 10.4366 12.3502C10.2216 12.3491 10.0419 12.4218 9.89753 12.5682C9.75318 12.7146 9.681 12.8942 9.681 13.1072V22.1922C9.681 22.4072 9.75368 22.5869 9.89904 22.7313C10.0444 22.8766 10.2241 22.9493 10.4381 22.9493ZM15.5635 22.9493C15.7786 22.9493 15.9582 22.8766 16.1026 22.7313C16.2469 22.5859 16.3191 22.4062 16.3191 22.1922V13.1072C16.3191 12.8922 16.2464 12.7125 16.1011 12.5682C15.9557 12.4228 15.776 12.3502 15.562 12.3502C15.347 12.3502 15.1668 12.4228 15.0215 12.5682C14.8761 12.7136 14.8039 12.8932 14.8049 13.1072V22.1922C14.8049 22.4072 14.8776 22.5869 15.023 22.7313C15.1683 22.8756 15.3485 22.9483 15.5635 22.9493ZM9.79759 1.75098C9.58258 1.75098 9.4024 1.6783 9.25704 1.53294C9.11168 1.38758 9.0395 1.2074 9.04051 0.992386C9.04152 0.777374 9.11369 0.597693 9.25704 0.453342C9.40038 0.308992 9.58056 0.236816 9.79759 0.236816H16.2025C16.4175 0.236816 16.5977 0.309496 16.7431 0.454857C16.8884 0.600217 16.9611 0.780402 16.9611 0.995414C16.9611 1.21043 16.8884 1.39011 16.7431 1.53446C16.5977 1.67881 16.418 1.75098 16.204 1.75098H9.79759ZM13.0001 29.7631C11.3355 29.7631 9.7668 29.4471 8.29403 28.8152C6.82125 28.1833 5.5342 27.3172 4.4329 26.2169C3.3316 25.1166 2.46549 23.8296 1.83459 22.3558C1.20369 20.882 0.887731 19.3133 0.886721 17.6497C0.885712 15.9862 1.20167 14.4175 1.83459 12.9437C2.46751 11.4699 3.33361 10.1829 4.4329 9.08258C5.53219 7.98228 6.81923 7.11618 8.29403 6.48427C9.76882 5.85236 11.3375 5.5364 13.0001 5.5364C14.4678 5.5364 15.8871 5.79886 17.2579 6.32377C18.6287 6.84868 19.8865 7.59011 21.0312 8.54808L22.1487 7.42911C22.29 7.28779 22.4641 7.21208 22.671 7.20198C22.878 7.19189 23.0612 7.2676 23.2207 7.42911C23.3802 7.59062 23.4609 7.76929 23.4629 7.96512C23.465 8.16096 23.3842 8.33963 23.2207 8.50114L22.1032 9.61859C23.0622 10.7643 23.8036 12.0226 24.3275 13.3934C24.8514 14.7642 25.1134 16.183 25.1134 17.6497C25.1134 19.3143 24.7974 20.883 24.1655 22.3558C23.5336 23.8285 22.6675 25.1156 21.5672 26.2169C20.4669 27.3182 19.1799 28.1843 17.7061 28.8152C16.2323 29.4461 14.6636 29.7621 13.0001 29.7631ZM13.0001 28.2489C15.9274 28.2489 18.4258 27.2142 20.4952 25.1449C22.5645 23.0755 23.5992 20.5771 23.5992 17.6497C23.5992 14.7223 22.5645 12.224 20.4952 10.1546C18.4258 8.08525 15.9274 7.05057 13.0001 7.05057C10.0727 7.05057 7.57429 8.08525 5.50493 10.1546C3.43557 12.224 2.40089 14.7223 2.40089 17.6497C2.40089 20.5771 3.43557 23.0755 5.50493 25.1449C7.57429 27.2142 10.0727 28.2489 13.0001 28.2489Z" fill="black"/>
</svg>
