<svg width="25" height="24" viewBox="0 0 25 24" fill="none" xmlns="http://www.w3.org/2000/svg">
<path d="M13.4287 11.4V6.39999C13.4287 6.13478 13.3234 5.88042 13.1358 5.69289C12.9483 5.50535 12.6939 5.39999 12.4287 5.39999C12.1635 5.39999 11.9091 5.50535 11.7216 5.69289C11.5341 5.88042 11.4287 6.13478 11.4287 6.39999V11.4H6.42871C6.16349 11.4 5.90914 11.5054 5.7216 11.6929C5.53407 11.8804 5.42871 12.1348 5.42871 12.4C5.42871 12.6652 5.53407 12.9196 5.7216 13.1071C5.90914 13.2946 6.16349 13.4 6.42871 13.4H11.4287V18.4C11.4287 18.6652 11.5341 18.9196 11.7216 19.1071C11.9091 19.2946 12.1635 19.4 12.4287 19.4C12.6939 19.4 12.9483 19.2946 13.1358 19.1071C13.3234 18.9196 13.4287 18.6652 13.4287 18.4V13.4H18.4287C18.6939 13.4 18.9483 13.2946 19.1358 13.1071C19.3234 12.9196 19.4287 12.6652 19.4287 12.4C19.4287 12.1348 19.3234 11.8804 19.1358 11.6929C18.9483 11.5054 18.6939 11.4 18.4287 11.4H13.4287Z" fill="#EAE1C5"/>
</svg>
