<svg width="31" height="28" viewBox="0 0 31 28" fill="none" xmlns="http://www.w3.org/2000/svg">
<path fill-rule="evenodd" clip-rule="evenodd" d="M8.75787 5.59257C7.50203 6.83004 6.54204 8.33533 5.94964 9.99598C5.35724 11.6566 5.14773 13.4297 5.33679 15.1827C5.35438 15.4182 5.27962 15.6512 5.12833 15.8325C4.97704 16.0138 4.76113 16.1291 4.52633 16.1539C4.29153 16.1787 4.0563 16.1111 3.87047 15.9654C3.68465 15.8197 3.56285 15.6074 3.53086 15.3735C3.3128 13.3488 3.55494 11.301 4.2392 9.383C4.92345 7.46502 6.03214 5.72642 7.48246 4.29705C12.8185 -0.9668 21.4266 -0.881401 26.7081 4.47511C31.9896 9.83163 31.9551 18.4388 26.6173 23.7026C24.146 26.143 20.8294 27.5369 17.3569 27.5946C16.044 27.6187 14.7344 27.4529 13.4689 27.1022C13.2366 27.0381 13.0394 26.8844 12.9205 26.6748C12.8015 26.4653 12.7707 26.217 12.8348 25.9848C12.8989 25.7525 13.0526 25.5552 13.2622 25.4363C13.4717 25.3173 13.7199 25.2865 13.9522 25.3506C15.0497 25.6548 16.1855 25.7987 17.3242 25.7776C20.3311 25.7304 23.2035 24.5235 25.3419 22.4089C29.9584 17.8555 29.9966 10.3985 25.4145 5.75065C20.8325 1.10276 13.3744 1.03917 8.75787 5.59257Z" fill="black"/>
<path fill-rule="evenodd" clip-rule="evenodd" d="M5.10284 16.3053C5.02339 16.3943 4.92719 16.4667 4.81973 16.5186C4.71227 16.5704 4.59566 16.6005 4.47655 16.6073C4.35744 16.614 4.23817 16.5973 4.12554 16.5579C4.01292 16.5186 3.90915 16.4574 3.82016 16.3779L0.695215 13.5979C0.599152 13.5208 0.519777 13.4249 0.461915 13.3162C0.404054 13.2074 0.368915 13.088 0.358637 12.9653C0.348358 12.8425 0.363154 12.7189 0.402124 12.602C0.441095 12.4852 0.503426 12.3775 0.585327 12.2854C0.667229 12.1934 0.766989 12.119 0.878543 12.0667C0.990097 12.0145 1.11111 11.9855 1.23423 11.9814C1.35735 11.9774 1.48001 11.9985 1.59473 12.0434C1.70946 12.0882 1.81386 12.156 1.90159 12.2424L5.02653 15.0225C5.11578 15.1017 5.18856 15.1977 5.2407 15.305C5.29284 15.4124 5.32332 15.5289 5.33041 15.648C5.33749 15.7672 5.32104 15.8865 5.282 15.9993C5.24295 16.1121 5.18207 16.216 5.10284 16.3053Z" fill="black"/>
<path fill-rule="evenodd" clip-rule="evenodd" d="M3.69926 16.226C3.77084 16.3214 3.86051 16.4019 3.96316 16.4626C4.06581 16.5234 4.17943 16.5634 4.29753 16.5803C4.41562 16.5971 4.53588 16.5906 4.65145 16.561C4.76701 16.5314 4.87561 16.4793 4.97104 16.4077L8.6047 13.6822C8.79744 13.5376 8.92486 13.3224 8.95893 13.0839C8.993 12.8454 8.93093 12.6031 8.78638 12.4103C8.64182 12.2175 8.42662 12.0901 8.18812 12.056C7.94961 12.022 7.70734 12.084 7.5146 12.2286L3.88095 14.9541C3.68821 15.0987 3.56078 15.3139 3.52671 15.5524C3.49264 15.7909 3.55471 16.0332 3.69926 16.226ZM16.7441 7.50439C16.985 7.50439 17.2161 7.60011 17.3864 7.77049C17.5568 7.94087 17.6525 8.17195 17.6525 8.41289V14.7724C17.6525 15.0133 17.5568 15.2444 17.3864 15.4148C17.2161 15.5852 16.985 15.6809 16.7441 15.6809C16.5032 15.6809 16.2721 15.5852 16.1017 15.4148C15.9314 15.2444 15.8357 15.0133 15.8357 14.7724V8.41289C15.8357 8.17195 15.9314 7.94087 16.1017 7.77049C16.2721 7.60011 16.5032 7.50439 16.7441 7.50439Z" fill="black"/>
<path fill-rule="evenodd" clip-rule="evenodd" d="M23.1091 14.7332C23.1091 14.9742 23.0134 15.2052 22.843 15.3756C22.6727 15.546 22.4416 15.6417 22.2007 15.6417H16.7502C16.5093 15.6417 16.2782 15.546 16.1079 15.3756C15.9375 15.2052 15.8418 14.9742 15.8418 14.7332C15.8418 14.4923 15.9375 14.2612 16.1079 14.0908C16.2782 13.9204 16.5093 13.8247 16.7502 13.8247H22.2007C22.4416 13.8247 22.6727 13.9204 22.843 14.0908C23.0134 14.2612 23.1091 14.4923 23.1091 14.7332Z" fill="black"/>
</svg>
