<svg width="25" height="30" viewBox="0 0 25 30" fill="none" xmlns="http://www.w3.org/2000/svg">
<path d="M10.995 21.6593L16.2718 18.1464C16.4596 18.0152 16.5535 17.8496 16.5535 17.6497C16.5535 17.4499 16.4596 17.2838 16.2718 17.1516L10.995 13.6402C10.781 13.5029 10.571 13.4888 10.3651 13.5978C10.1581 13.7079 10.0547 13.885 10.0547 14.1293V21.1702C10.0547 21.4145 10.1581 21.5916 10.3651 21.7017C10.571 21.8117 10.781 21.7976 10.995 21.6593ZM9.29759 1.75099C9.08157 1.75099 8.90138 1.67882 8.75703 1.53447C8.61167 1.38911 8.53899 1.20892 8.53899 0.99391C8.53899 0.778899 8.61167 0.598713 8.75703 0.453353C8.90239 0.307993 9.08258 0.235817 9.29759 0.236827H15.7025C15.9185 0.236827 16.0987 0.309002 16.2431 0.453353C16.3884 0.598713 16.4611 0.778899 16.4611 0.99391C16.4611 1.20892 16.3884 1.38911 16.2431 1.53447C16.0987 1.67882 15.919 1.75099 15.704 1.75099H9.29759ZM12.5001 29.7631C10.8264 29.7631 9.25519 29.4471 7.78645 28.8152C6.31771 28.1833 5.03319 27.3172 3.9329 26.2169C2.8326 25.1166 1.9665 23.8316 1.33459 22.3618C0.702675 20.8921 0.386719 19.3214 0.386719 17.6497C0.386719 15.9781 0.702675 14.4069 1.33459 12.9361C1.9665 11.4654 2.8326 10.1809 3.9329 9.08259C5.03319 7.98431 6.31821 7.11821 7.78796 6.48428C9.25772 5.85035 10.8284 5.53439 12.5001 5.53641C13.9678 5.53641 15.3871 5.79887 16.7579 6.32378C18.1287 6.84869 19.3865 7.59012 20.5312 8.54809L21.6486 7.42912C21.79 7.2878 21.9641 7.21209 22.171 7.20199C22.378 7.1919 22.5612 7.26761 22.7207 7.42912C22.8802 7.59063 22.9609 7.7693 22.9629 7.96513C22.965 8.16097 22.8842 8.33964 22.7207 8.50115L21.6032 9.6186C22.5622 10.7643 23.3036 12.0226 23.8275 13.3934C24.3514 14.7642 24.6134 16.183 24.6134 17.6497C24.6134 19.3234 24.2974 20.8946 23.6655 22.3633C23.0336 23.8321 22.1675 25.1166 21.0672 26.2169C19.9669 27.3172 18.6819 28.1833 17.2121 28.8152C15.7424 29.4471 14.1717 29.7631 12.5001 29.7631ZM12.5001 28.2489C15.4274 28.2489 17.9258 27.2142 19.9952 25.1449C22.0645 23.0755 23.0992 20.5771 23.0992 17.6497C23.0992 14.7224 22.0645 12.224 19.9952 10.1546C17.9258 8.08526 15.4274 7.05058 12.5001 7.05058C9.57266 7.05058 7.07429 8.08526 5.00493 10.1546C2.93557 12.224 1.90089 14.7224 1.90089 17.6497C1.90089 20.5771 2.93557 23.0755 5.00493 25.1449C7.07429 27.2142 9.57266 28.2489 12.5001 28.2489Z" fill="black"/>
</svg>
