<svg width="36" height="36" viewBox="0 0 36 36" fill="none" xmlns="http://www.w3.org/2000/svg">
<g id="ic:sharp-tiktok">
<path id="Vector" d="M24.9002 8.73C23.8751 7.55929 23.3101 6.0561 23.3102 4.5H18.6752V23.1C18.6402 24.1068 18.2155 25.0606 17.4907 25.7602C16.7659 26.4599 15.7976 26.8506 14.7902 26.85C12.6602 26.85 10.8902 25.11 10.8902 22.95C10.8902 20.37 13.3802 18.435 15.9452 19.23V14.49C10.7702 13.8 6.24023 17.82 6.24023 22.95C6.24023 27.945 10.3802 31.5 14.7752 31.5C19.4852 31.5 23.3102 27.675 23.3102 22.95V13.515C25.1897 14.8648 27.4463 15.589 29.7602 15.585V10.95C29.7602 10.95 26.9402 11.085 24.9002 8.73Z" fill="#000000"/>
</g>
</svg>
