<svg width="25" height="24" viewBox="0 0 25 24" fill="none" xmlns="http://www.w3.org/2000/svg">
<path fill-rule="evenodd" clip-rule="evenodd" d="M12.0289 1.25C10.7691 1.25 9.5609 1.75044 8.67011 2.64124C7.77931 3.53204 7.27886 4.74022 7.27886 6C7.27886 7.25978 7.77931 8.46796 8.67011 9.35876C9.5609 10.2496 10.7691 10.75 12.0289 10.75C13.2886 10.75 14.4968 10.2496 15.3876 9.35876C16.2784 8.46796 16.7789 7.25978 16.7789 6C16.7789 4.74022 16.2784 3.53204 15.3876 2.64124C14.4968 1.75044 13.2886 1.25 12.0289 1.25ZM8.77886 6C8.77886 5.13805 9.12127 4.3114 9.73077 3.7019C10.3403 3.09241 11.1669 2.75 12.0289 2.75C12.8908 2.75 13.7175 3.09241 14.327 3.7019C14.9365 4.3114 15.2789 5.13805 15.2789 6C15.2789 6.86195 14.9365 7.6886 14.327 8.2981C13.7175 8.90759 12.8908 9.25 12.0289 9.25C11.1669 9.25 10.3403 8.90759 9.73077 8.2981C9.12127 7.6886 8.77886 6.86195 8.77886 6ZM12.0289 12.25C9.71587 12.25 7.58386 12.776 6.00486 13.664C4.44886 14.54 3.27886 15.866 3.27886 17.5V17.602C3.27786 18.764 3.27686 20.222 4.55586 21.264C5.18486 21.776 6.06586 22.141 7.25586 22.381C8.44786 22.623 10.0029 22.75 12.0289 22.75C14.0549 22.75 15.6089 22.623 16.8029 22.381C17.9929 22.141 18.8729 21.776 19.5029 21.264C20.7819 20.222 20.7799 18.764 20.7789 17.602V17.5C20.7789 15.866 19.6089 14.54 18.0539 13.664C16.4739 12.776 14.3429 12.25 12.0289 12.25ZM4.77886 17.5C4.77886 16.649 5.40086 15.725 6.73986 14.972C8.05586 14.232 9.92387 13.75 12.0299 13.75C14.1339 13.75 16.0019 14.232 17.3179 14.972C18.6579 15.725 19.2789 16.649 19.2789 17.5C19.2789 18.808 19.2389 19.544 18.5549 20.1C18.1849 20.402 17.5649 20.697 16.5049 20.911C15.4479 21.125 14.0029 21.25 12.0289 21.25C10.0549 21.25 8.60886 21.125 7.55286 20.911C6.49286 20.697 5.87286 20.402 5.50286 20.101C4.81886 19.544 4.77886 18.808 4.77886 17.5Z" fill="#1A2626"/>
</svg>
