<svg width="249" height="250" viewBox="0 0 249 250" fill="none" xmlns="http://www.w3.org/2000/svg" xmlns:xlink="http://www.w3.org/1999/xlink">
<path d="M4.67949 2.97101C9.60092 2.97101 15.165 2.21228 19.8755 2.94562C21.6046 3.2148 22.997 4.41355 24.6836 4.82617C25.2266 4.95901 26.0176 5.57515 26.5831 5.81726C27.8276 6.35006 29.4611 5.83642 30.8273 5.6902C33.07 5.45017 35.2612 4.71809 37.5053 4.36873C39.2954 4.09003 42.1439 5.25818 44.1832 5.25818C45.9838 5.25818 47.0476 4.23595 48.7539 3.91128C50.2165 3.63298 52.4444 5.17462 53.562 5.91893C56.6413 7.96962 63.5382 4.76311 66.9179 4.31791C67.487 4.24294 71.6011 2.13925 71.9634 3.22514C72.3133 4.27361 72.8927 5.64987 72.4977 6.8338C72.0393 8.20746 71.0132 7.77229 71.4886 9.60382C71.8861 11.1356 74.1357 11.0735 74.6346 9.57841C74.8423 8.95603 75.0046 5.95573 75.4953 5.71562C78.4723 4.25901 80.3151 4.34332 83.954 4.34332C85.0427 4.34332 86.2057 3.74894 87.2485 3.91128C88.8788 4.1651 90.6301 4.59744 92.294 4.59744C94.6898 4.59744 97.2534 4.80076 99.7733 4.80076C103.811 4.80076 107.399 6.5394 111.23 6.6305C114.924 6.71836 118.895 5.18321 122.211 3.98754C124.869 3.02936 128.992 3.07044 131.412 4.24169C135.469 6.205 143.124 6.18468 147.558 4.69907C150.319 3.77376 152.942 2.05614 155.868 2.05614C156.866 2.05614 158.463 3.43206 159.192 3.88589C159.479 4.06445 161.177 10.5497 161.507 8.0028C161.652 6.8844 163.099 6.1724 164.297 5.81725C166.967 5.02595 169.618 3.38124 172.429 3.42844C176.884 3.50324 181.314 5.17455 185.904 5.25817C189.144 5.3172 192.338 4.80076 195.579 4.80076C199.576 4.80076 202.841 6.52517 206.739 7.24041C210.471 7.92507 220.202 9.37823 224.013 6.6305C224.279 6.43854 230.478 0.306501 230.661 2.971C230.753 4.31184 231.729 5.70281 231.729 6.85919C231.729 8.90112 231.855 9.86857 233.599 7.54538C234.554 6.27323 235.804 4.62244 237.309 3.88588C238.127 3.4859 237.38 3.03619 238.674 2.971C239.425 2.93318 240.069 2.971 241.019 2.971C245.915 2.971 247.763 5.11814 246.718 9.14636C246.351 10.5607 245.619 11.7774 245.619 13.2633C245.619 14.1481 245.054 14.8285 245.085 15.7791C245.124 16.9592 245.619 18.0498 245.619 19.2353C245.619 21.5235 246.688 23.7403 246.688 26.046C246.688 28.3083 246.363 30.555 246.124 32.8058C245.869 35.2101 245.814 37.766 244.788 40.0231C243.196 43.5291 241.533 46.7862 243.72 50.2645C244.946 52.214 244.017 56.1044 244.017 58.2696C244.017 59.7089 243.743 62.8368 242.652 64.0383C239.652 67.3405 239.743 70.5491 239.743 74.5593C239.743 75.987 239.707 78.291 238.793 79.464C237.141 81.5857 239.756 85.8139 240.693 87.5962C242.713 91.4402 239.991 96.0214 241.583 99.8961C242.577 102.314 243.541 103.362 244.017 105.97C244.488 108.553 244.551 111.069 244.551 113.67C244.551 116.756 238.667 115.966 240.158 119.159C240.617 120.14 243.637 127.105 243.245 127.291C241.312 128.211 238.14 126.927 238.14 129.223C238.14 130.835 239.277 131.655 237.725 132.984C237.351 133.303 233.769 134.883 233.985 135.068C234.396 135.42 238.773 134.225 239.624 134.254C241.714 134.326 242.948 139.108 242.948 140.557C242.948 143.753 241.216 146.802 241.346 149.909C241.496 153.503 241.88 157.127 241.88 160.786C241.88 163.881 241.06 164.983 243.483 167.749C244.954 169.428 245.559 171.589 244.818 173.619C244.07 175.668 241.109 177.967 242.147 180.277C243.445 183.167 243.742 185.558 242.711 188.46C241.634 191.49 242.83 194.813 242.384 197.863C242.016 200.386 240.278 202.123 240.782 204.496C241.433 207.561 240.781 211.008 240.307 214.051C239.846 217.013 239.641 219.585 237.873 222.31C236.368 224.63 236.487 226.076 237.042 228.689C237.952 232.975 239.805 236.879 239.238 241.243C239.001 243.072 237.614 245.382 235.647 246.326C231.505 248.312 227.611 245.476 223.419 244.725C218.846 243.905 217.68 242.619 213.862 244.699C211.572 245.947 207.608 245.411 205.047 245.411C201.933 245.411 199.887 244.25 196.974 243.378C194.019 242.492 189.628 243.124 186.557 243.124C179.025 243.124 170.153 242.389 162.932 244.597C159.588 245.62 156.142 246.326 152.544 246.326C149.923 246.326 147.665 244.953 145.183 244.953C140.806 244.953 136.483 244.496 132.124 244.496C129.709 244.496 126.971 244.15 124.586 244.521C122.157 244.899 120.554 245.513 117.937 245.309C107.725 244.514 98.6693 244.621 88.9699 241.853C79.5145 239.154 69.6384 242.548 60.1212 242.666C53.026 242.754 46.3633 242.631 39.4048 243.683C36.0096 244.196 33.1943 245.877 29.9072 246.681C27.0166 247.389 22.8554 247.064 20.1723 245.97C18.0002 245.084 16.6006 245.316 14.2957 244.852C12.3018 244.45 10.4532 244.593 8.41913 244.496C6.65678 244.412 5.77947 242.236 4.67948 241.294C2.94991 239.813 4.14525 238.773 4.14525 236.897C4.14525 234.264 4.67948 231.768 4.67948 229.172C4.67948 227.606 4.93506 226.319 5.18404 224.826C5.43631 223.314 6.81642 221.905 6.81642 220.481C6.81642 218.876 5.6018 216.452 6.54931 214.991C6.95242 214.37 6.41938 212.107 7.35066 212.018C8.21664 211.936 9.90371 212.38 10.8232 212.501C12.8706 212.771 19.7718 214.184 14.8003 211.789C11.9481 210.416 9.408 209.644 7.41002 207.291C5.7349 205.319 7.35066 202.137 7.35066 199.871C7.35066 197.229 7.79343 194.241 7.32098 191.611C6.69395 188.122 5.74795 184.962 5.74795 181.395C5.74795 178.944 5.37053 176.828 5.18404 174.432C4.9491 171.415 3.07678 169.474 3.07678 166.478C3.07678 162.483 7.78854 159.551 6.48995 155.474C4.28424 148.549 3.58189 142.374 5.48084 135.22C6.45815 131.538 7.73848 127.52 5.56988 124.038C4.83055 122.851 4.22156 121.355 3.87813 120.049C3.42512 118.325 2.11538 116.327 2.00831 114.585C1.90116 112.842 2.86128 110.925 3.07678 109.172C3.43171 106.285 4.2569 103.535 4.97628 100.709C5.42334 98.9529 5.65454 97.1898 5.77763 95.398C5.87813 93.9351 6.77846 92.8383 6.81642 91.4081C6.85079 90.1133 7.72766 88.5554 7.08354 87.3421C6.53411 86.3071 5.45763 85.0025 5.86667 83.8351C7.31112 79.7124 7.90862 75.8693 10.4374 72.1451C11.7397 70.2271 10.0828 69.4871 10.2593 67.8249C10.5447 65.1368 14.1381 63.4462 14.0583 60.506C14.0172 58.9921 12.8251 57.3098 11.3574 56.5161C9.28546 55.3956 9.52445 54.5671 8.83465 52.7296C7.85737 50.1263 7.35066 48.1639 7.35066 45.309C7.35066 41.4374 8.73407 37.8318 8.95337 34.0765C9.0847 31.8275 9.91309 29.0001 8.30041 27.0117C6.19394 24.4144 5.64759 22.365 6.16347 19.4386C6.41127 18.033 5.66257 15.8432 6.57899 14.6101C7.36255 13.5558 7.35066 12.7772 7.35066 11.5606C7.35066 9.71224 6.3453 8.43528 5.62924 6.73216C4.94809 5.11209 5.74796 4.12903 5.74796 2.51358" stroke="black" stroke-width="3.92" stroke-linecap="round"/>
</svg>
