<svg width="210" height="36" viewBox="0 0 210 36" fill="none" xmlns="http://www.w3.org/2000/svg">
<path d="M205.374 0.406738L182.319 0.406738C182.319 0.406738 182.165 0.517135 182.231 0.605459L193.758 15.5764C193.758 15.5764 193.891 15.6426 193.957 15.5764L205.484 0.605459C205.484 0.605459 205.484 0.406738 205.396 0.406738H205.374Z" fill="#E04B20"/>
<path d="M209.833 8.51123L177.834 8.51123C177.702 8.51123 177.614 8.62163 177.702 8.70995L193.69 23.6809C193.69 23.6809 193.889 23.7471 193.955 23.6809L209.943 8.70995C209.943 8.70995 209.943 8.51123 209.811 8.51123H209.833Z" fill="#E04B20"/>
<path d="M182.317 35.5858H205.372C205.372 35.5858 205.526 35.4754 205.46 35.3871L193.933 20.4162C193.933 20.4162 193.8 20.3499 193.734 20.4162L182.207 35.3871C182.207 35.3871 182.206 35.5858 182.295 35.5858H182.317Z" fill="#E04B20"/>
<path d="M177.833 27.4813H209.832C209.964 27.4813 210.053 27.3709 209.964 27.2826L193.976 12.3117C193.976 12.3117 193.778 12.2454 193.711 12.3117L177.723 27.2826C177.723 27.2826 177.723 27.4813 177.855 27.4813H177.833Z" fill="#E04B20"/>
<path d="M166.392 0.406738L143.337 0.406738C143.337 0.406738 143.182 0.517135 143.248 0.605459L154.776 15.5764C154.776 15.5764 154.908 15.6426 154.975 15.5764L166.502 0.605459C166.502 0.605459 166.502 0.406738 166.414 0.406738H166.392Z" fill="#0E0B06"/>
<path d="M170.87 8.51123L138.871 8.51123C138.739 8.51123 138.651 8.62163 138.739 8.70995L154.727 23.6809C154.727 23.6809 154.926 23.7471 154.992 23.6809L170.98 8.70995C170.98 8.70995 170.98 8.51123 170.848 8.51123H170.87Z" fill="#0E0B06"/>
<path d="M143.358 35.5858H166.413C166.413 35.5858 166.567 35.4754 166.501 35.3871L154.974 20.4162C154.974 20.4162 154.841 20.3499 154.775 20.4162L143.248 35.3871C143.248 35.3871 143.248 35.5858 143.336 35.5858H143.358Z" fill="#0E0B06"/>
<path d="M138.874 27.4813H170.873C171.005 27.4813 171.094 27.3709 171.005 27.2826L155.017 12.3117C155.017 12.3117 154.818 12.2454 154.752 12.3117L138.764 27.2826C138.764 27.2826 138.764 27.4813 138.896 27.4813H138.874Z" fill="#0E0B06"/>
<path d="M127.431 0.406738L104.376 0.406738C104.376 0.406738 104.221 0.517135 104.287 0.605459L115.815 15.5764C115.815 15.5764 115.947 15.6426 116.014 15.5764L127.541 0.605459C127.541 0.605459 127.541 0.406738 127.453 0.406738H127.431Z" fill="#4EA9B4"/>
<path d="M131.909 8.51123L99.9105 8.51123C99.778 8.51123 99.6897 8.62163 99.778 8.70995L115.766 23.6809C115.766 23.6809 115.965 23.7471 116.031 23.6809L132.02 8.70995C132.02 8.70995 132.019 8.51123 131.887 8.51123H131.909Z" fill="#4EA9B4"/>
<path d="M104.397 35.5858H127.452C127.452 35.5858 127.606 35.4754 127.54 35.3871L116.013 20.4162C116.013 20.4162 115.88 20.3499 115.814 20.4162L104.286 35.3871C104.286 35.3871 104.287 35.5858 104.375 35.5858H104.397Z" fill="#4EA9B4"/>
<path d="M99.9135 27.4813H131.912C132.045 27.4813 132.133 27.3709 132.045 27.2826L116.056 12.3117C116.056 12.3117 115.858 12.2454 115.791 12.3117L99.8031 27.2826C99.8031 27.2826 99.8031 27.4813 99.9356 27.4813H99.9135Z" fill="#4EA9B4"/>
<path d="M88.4676 0.406738L65.4128 0.406738C65.4128 0.406738 65.2582 0.517135 65.3245 0.605459L76.8518 15.5764C76.8518 15.5764 76.9844 15.6426 77.0506 15.5764L88.5781 0.605459C88.5781 0.605459 88.578 0.406738 88.4897 0.406738H88.4676Z" fill="white"/>
<path d="M92.9228 8.51123L60.9243 8.51123C60.7918 8.51123 60.7035 8.62163 60.7918 8.70995L76.78 23.6809C76.78 23.6809 76.9788 23.7471 77.045 23.6809L93.0332 8.70995C93.0332 8.70995 93.0332 8.51123 92.9007 8.51123H92.9228Z" fill="white"/>
<path d="M65.4105 35.5858H88.4654C88.4654 35.5858 88.6201 35.4754 88.5538 35.3871L77.0263 20.4162C77.0263 20.4162 76.8939 20.3499 76.8277 20.4162L65.3002 35.3871C65.3002 35.3871 65.3002 35.5858 65.3886 35.5858H65.4105Z" fill="white"/>
<path d="M60.9506 27.4813H92.9491C93.0816 27.4813 93.17 27.3709 93.0816 27.2826L77.0934 12.3117C77.0934 12.3117 76.8947 12.2454 76.8284 12.3117L60.8401 27.2826C60.8401 27.2826 60.8402 27.4813 60.9727 27.4813H60.9506Z" fill="white"/>
<path d="M49.5068 0.406738L26.452 0.406738C26.452 0.406738 26.2974 0.517135 26.3637 0.605459L37.891 15.5764C37.891 15.5764 38.0236 15.6426 38.0898 15.5764L49.6172 0.605459C49.6172 0.605459 49.6172 0.406738 49.5289 0.406738H49.5068Z" fill="#E04B20"/>
<path d="M53.9658 8.51123L21.9673 8.51123C21.8348 8.51123 21.7464 8.62163 21.8348 8.70995L37.823 23.6809C37.823 23.6809 38.0217 23.7471 38.088 23.6809L54.0762 8.70995C54.0762 8.70995 54.0762 8.51123 53.9437 8.51123H53.9658Z" fill="#E04B20"/>
<path d="M26.4497 35.5858H49.5046C49.5046 35.5858 49.6591 35.4754 49.5929 35.3871L38.0655 20.4162C38.0655 20.4162 37.933 20.3499 37.8667 20.4162L26.3393 35.3871C26.3393 35.3871 26.3393 35.5858 26.4276 35.5858H26.4497Z" fill="#E04B20"/>
<path d="M21.9663 27.4813H53.9648C54.0973 27.4813 54.1856 27.3709 54.0973 27.2826L38.1091 12.3117C38.1091 12.3117 37.9103 12.2454 37.8441 12.3117L21.8557 27.2826C21.8557 27.2826 21.8557 27.4813 21.9882 27.4813H21.9663Z" fill="#E04B20"/>
<path d="M10.5244 0.406738L-12.5305 0.406738C-12.5305 0.406738 -12.685 0.517135 -12.6188 0.605459L-1.0914 15.5764C-1.0914 15.5764 -0.958839 15.6426 -0.89259 15.5764L10.6348 0.605459C10.6348 0.605459 10.6348 0.406738 10.5465 0.406738H10.5244Z" fill="#0E0B06"/>
<path d="M15.0068 8.51123L-16.9918 8.51123C-17.1243 8.51123 -17.2127 8.62163 -17.1243 8.70995L-1.136 23.6809C-1.136 23.6809 -0.937263 23.7471 -0.871014 23.6809L15.1172 8.70995C15.1172 8.70995 15.1172 8.51123 14.9847 8.51123H15.0068Z" fill="#0E0B06"/>
<path d="M-12.5092 35.5858H10.5456C10.5456 35.5858 10.7001 35.4754 10.6339 35.3871L-0.893474 20.4162C-0.893474 20.4162 -1.02603 20.3499 -1.09228 20.4162L-12.6196 35.3871C-12.6196 35.3871 -12.6197 35.5858 -12.5314 35.5858H-12.5092Z" fill="#0E0B06"/>
<path d="M-16.9929 27.4813H15.0058C15.1383 27.4813 15.2266 27.3709 15.1383 27.2826L-0.850065 12.3117C-0.850065 12.3117 -1.0488 12.2454 -1.11505 12.3117L-17.1033 27.2826C-17.1033 27.2826 -17.1033 27.4813 -16.9708 27.4813H-16.9929Z" fill="#0E0B06"/>
</svg>
