<svg width="210" height="36" viewBox="0 0 210 36" fill="none" xmlns="http://www.w3.org/2000/svg">
<path d="M4.62601 0.406738L27.6809 0.406738C27.6809 0.406738 27.8354 0.517135 27.7691 0.605459L16.2418 15.5764C16.2418 15.5764 16.1092 15.6426 16.043 15.5764L4.51563 0.605459C4.51563 0.605459 4.51558 0.406738 4.60391 0.406738H4.62601Z" fill="#E04B20"/>
<path d="M0.16703 8.51123L32.1655 8.51123C32.298 8.51123 32.3864 8.62163 32.298 8.70995L16.3098 23.6809C16.3098 23.6809 16.1111 23.7471 16.0448 23.6809L0.0566406 8.70995C0.0566406 8.70995 0.0566352 8.51123 0.189134 8.51123H0.16703Z" fill="#E04B20"/>
<path d="M27.6831 35.5858H4.62823C4.62823 35.5858 4.4737 35.4754 4.53995 35.3871L16.0673 20.4162C16.0673 20.4162 16.1999 20.3499 16.2661 20.4162L27.7935 35.3871C27.7935 35.3871 27.7935 35.5858 27.7052 35.5858H27.6831Z" fill="#E04B20"/>
<path d="M32.1666 27.4813H0.168051C0.0355523 27.4813 -0.0527751 27.3709 0.0355577 27.2826L16.0238 12.3117C16.0238 12.3117 16.2225 12.2454 16.2887 12.3117L32.2771 27.2826C32.2771 27.2826 32.2771 27.4813 32.1446 27.4813H32.1666Z" fill="#E04B20"/>
<path d="M43.6084 0.406738L66.6633 0.406738C66.6633 0.406738 66.8178 0.517135 66.7516 0.605459L55.2242 15.5764C55.2242 15.5764 55.0917 15.6426 55.0254 15.5764L43.498 0.605459C43.498 0.605459 43.498 0.406738 43.5863 0.406738H43.6084Z" fill="#0E0B06"/>
<path d="M39.1299 8.51123L71.1286 8.51123C71.2611 8.51123 71.3494 8.62163 71.2611 8.70995L55.2727 23.6809C55.2727 23.6809 55.074 23.7471 55.0077 23.6809L39.0195 8.70995C39.0195 8.70995 39.0195 8.51123 39.152 8.51123H39.1299Z" fill="#0E0B06"/>
<path d="M66.6421 35.5858H43.5872C43.5872 35.5858 43.4327 35.4754 43.4989 35.3871L55.0263 20.4162C55.0263 20.4162 55.1588 20.3499 55.2251 20.4162L66.7524 35.3871C66.7524 35.3871 66.7525 35.5858 66.6642 35.5858H66.6421Z" fill="#0E0B06"/>
<path d="M71.1257 27.4813H39.127C38.9945 27.4813 38.9062 27.3709 38.9945 27.2826L54.9829 12.3117C54.9829 12.3117 55.1816 12.2454 55.2479 12.3117L71.2361 27.2826C71.2361 27.2826 71.2361 27.4813 71.1036 27.4813H71.1257Z" fill="#0E0B06"/>
<path d="M82.5694 0.406738L105.624 0.406738C105.624 0.406738 105.779 0.517135 105.713 0.605459L94.1851 15.5764C94.1851 15.5764 94.0526 15.6426 93.9863 15.5764L82.459 0.605459C82.459 0.605459 82.4589 0.406738 82.5473 0.406738H82.5694Z" fill="#4EA9B4"/>
<path d="M78.091 8.51123L110.09 8.51123C110.222 8.51123 110.31 8.62163 110.222 8.70995L94.2338 23.6809C94.2338 23.6809 94.0351 23.7471 93.9688 23.6809L77.9805 8.70995C77.9805 8.70995 77.9806 8.51123 78.1131 8.51123H78.091Z" fill="#4EA9B4"/>
<path d="M105.603 35.5858H82.5482C82.5482 35.5858 82.3936 35.4754 82.4599 35.3871L93.9872 20.4162C93.9872 20.4162 94.1198 20.3499 94.186 20.4162L105.714 35.3871C105.714 35.3871 105.713 35.5858 105.625 35.5858H105.603Z" fill="#4EA9B4"/>
<path d="M110.086 27.4813H78.088C77.9555 27.4813 77.8671 27.3709 77.9555 27.2826L93.9437 12.3117C93.9437 12.3117 94.1424 12.2454 94.2087 12.3117L110.197 27.2826C110.197 27.2826 110.197 27.4813 110.064 27.4813H110.086Z" fill="#4EA9B4"/>
<path d="M121.532 0.406738L144.587 0.406738C144.587 0.406738 144.742 0.517135 144.676 0.605459L133.148 15.5764C133.148 15.5764 133.016 15.6426 132.949 15.5764L121.422 0.605459C121.422 0.605459 121.422 0.406738 121.51 0.406738H121.532Z" fill="white"/>
<path d="M117.077 8.51123L149.076 8.51123C149.208 8.51123 149.297 8.62163 149.208 8.70995L133.22 23.6809C133.22 23.6809 133.021 23.7471 132.955 23.6809L116.967 8.70995C116.967 8.70995 116.967 8.51123 117.099 8.51123H117.077Z" fill="white"/>
<path d="M144.589 35.5858H121.535C121.535 35.5858 121.38 35.4754 121.446 35.3871L132.974 20.4162C132.974 20.4162 133.106 20.3499 133.172 20.4162L144.7 35.3871C144.7 35.3871 144.7 35.5858 144.611 35.5858H144.589Z" fill="white"/>
<path d="M149.049 27.4813H117.051C116.918 27.4813 116.83 27.3709 116.918 27.2826L132.907 12.3117C132.907 12.3117 133.105 12.2454 133.172 12.3117L149.16 27.2826C149.16 27.2826 149.16 27.4813 149.027 27.4813H149.049Z" fill="white"/>
<path d="M160.493 0.406738L183.548 0.406738C183.548 0.406738 183.703 0.517135 183.636 0.605459L172.109 15.5764C172.109 15.5764 171.976 15.6426 171.91 15.5764L160.383 0.605459C160.383 0.605459 160.383 0.406738 160.471 0.406738H160.493Z" fill="#E04B20"/>
<path d="M156.034 8.51123L188.033 8.51123C188.165 8.51123 188.254 8.62163 188.165 8.70995L172.177 23.6809C172.177 23.6809 171.978 23.7471 171.912 23.6809L155.924 8.70995C155.924 8.70995 155.924 8.51123 156.056 8.51123H156.034Z" fill="#E04B20"/>
<path d="M183.55 35.5858H160.495C160.495 35.5858 160.341 35.4754 160.407 35.3871L171.934 20.4162C171.934 20.4162 172.067 20.3499 172.133 20.4162L183.661 35.3871C183.661 35.3871 183.661 35.5858 183.572 35.5858H183.55Z" fill="#E04B20"/>
<path d="M188.034 27.4813H156.035C155.903 27.4813 155.814 27.3709 155.903 27.2826L171.891 12.3117C171.891 12.3117 172.09 12.2454 172.156 12.3117L188.144 27.2826C188.144 27.2826 188.144 27.4813 188.012 27.4813H188.034Z" fill="#E04B20"/>
<path d="M199.476 0.406738L222.53 0.406738C222.53 0.406738 222.685 0.517135 222.619 0.605459L211.091 15.5764C211.091 15.5764 210.959 15.6426 210.893 15.5764L199.365 0.605459C199.365 0.605459 199.365 0.406738 199.454 0.406738H199.476Z" fill="#0E0B06"/>
<path d="M194.993 8.51123L226.992 8.51123C227.124 8.51123 227.213 8.62163 227.124 8.70995L211.136 23.6809C211.136 23.6809 210.937 23.7471 210.871 23.6809L194.883 8.70995C194.883 8.70995 194.883 8.51123 195.015 8.51123H194.993Z" fill="#0E0B06"/>
<path d="M222.509 35.5858H199.454C199.454 35.5858 199.3 35.4754 199.366 35.3871L210.893 20.4162C210.893 20.4162 211.026 20.3499 211.092 20.4162L222.62 35.3871C222.62 35.3871 222.62 35.5858 222.531 35.5858H222.509Z" fill="#0E0B06"/>
<path d="M226.993 27.4813H194.994C194.862 27.4813 194.773 27.3709 194.862 27.2826L210.85 12.3117C210.85 12.3117 211.049 12.2454 211.115 12.3117L227.103 27.2826C227.103 27.2826 227.103 27.4813 226.971 27.4813H226.993Z" fill="#0E0B06"/>
</svg>
