<svg width="168" height="54" viewBox="0 0 168 54" fill="none" xmlns="http://www.w3.org/2000/svg">
<g filter="url(#filter0_di_544_7130)">
<path d="M4.6495 2.4714C7.75714 2.45362 11.1749 2.33208 14.1 2.46843C15.255 2.52226 16.1852 2.76201 17.3118 2.84454C17.6746 2.8711 18.2029 2.99433 18.5807 3.04276C19.412 3.14932 20.5032 3.04659 21.4158 3.01734C22.9139 2.96934 24.3776 2.82292 25.8767 2.75305C27.0725 2.69731 28.9753 2.93094 30.3376 2.93094C31.5404 2.93094 32.2509 2.72649 33.3908 2.66156C34.3678 2.6059 35.856 2.91422 36.6026 3.06309C38.6596 3.47323 43.2667 2.83192 45.5243 2.74288C45.9045 2.72789 48.6527 2.30715 48.8947 2.52432C49.1285 2.73402 49.5155 3.00927 49.2516 3.24606C48.9454 3.52079 48.26 3.43376 48.5775 3.80007C48.8431 4.10642 50.3458 4.094 50.6791 3.79498C50.8178 3.6705 50.9262 3.07045 51.254 3.02242C53.2427 2.7311 54.4737 2.74797 56.9045 2.74797C57.6317 2.74797 58.4086 2.62909 59.1052 2.66156C60.1942 2.71232 61.3641 2.79879 62.4756 2.79879C64.076 2.79879 65.7885 2.83946 67.4718 2.83946C70.1691 2.83946 72.5658 3.18718 75.1246 3.2054C77.5921 3.22297 80.2448 2.91594 82.4603 2.67681C84.2356 2.48518 86.9897 2.49339 88.6063 2.72764C91.3162 3.1203 96.4298 3.11624 99.3917 2.81911C101.237 2.63405 102.989 2.29053 104.943 2.29053C105.61 2.29053 106.677 2.56571 107.164 2.65647C107.355 2.69219 108.489 3.98924 108.71 3.47986C108.807 3.25618 109.773 3.11378 110.574 3.04275C112.357 2.88449 114.128 2.55555 116.006 2.56499C118.982 2.57995 121.941 2.91421 125.007 2.93093C127.171 2.94274 129.305 2.83945 131.47 2.83945C134.14 2.83945 136.321 3.18433 138.925 3.32738C141.418 3.46431 147.918 3.75494 150.464 3.20539C150.641 3.167 154.782 1.9406 154.905 2.4735C154.966 2.74167 155.618 3.01986 155.618 3.25113C155.618 3.65952 155.702 3.85301 156.867 3.38837C157.505 3.13394 158.34 2.80378 159.346 2.65647C159.892 2.57648 159.393 2.48654 160.258 2.4735C160.759 2.46593 161.189 2.4735 161.824 2.4735C165.094 2.4735 166.329 2.90293 165.631 3.70857C165.385 3.99144 164.897 4.23477 164.897 4.53195C164.897 4.70892 164.52 4.845 164.54 5.03513C164.566 5.27114 164.897 5.48927 164.897 5.72636C164.897 6.184 165.611 6.62735 165.611 7.08849C165.611 7.54096 165.394 7.99029 165.234 8.44046C165.064 8.92132 165.027 9.43249 164.342 9.88391C163.278 10.5851 162.167 11.2365 163.628 11.9322C164.447 12.3221 163.826 13.1002 163.826 13.5332C163.826 13.8211 163.643 14.4467 162.914 14.687C160.911 15.3474 160.971 15.9891 160.971 16.7912C160.971 17.0767 160.947 17.5375 160.337 17.7721C159.234 18.1964 160.98 19.0421 161.606 19.3985C162.955 20.1673 161.137 21.0836 162.201 21.8585C162.864 22.3422 163.509 22.5518 163.826 23.0732C164.141 23.5899 164.183 24.093 164.183 24.6133C164.183 25.2304 160.252 25.0724 161.249 25.7111C161.555 25.9072 163.573 27.3003 163.311 27.3375C162.019 27.5215 159.901 27.2646 159.901 27.7238C159.901 28.0463 160.66 28.2102 159.623 28.476C159.477 28.5134 160.333 28.6921 161.098 28.8416C160.836 28.779 160.687 28.7281 160.892 28.7302C161.412 28.7355 161.852 28.8714 162.201 29.055C162.228 29.062 162.231 29.0643 162.215 29.0628C162.793 29.3718 163.113 29.8103 163.113 29.9907C163.113 30.63 161.955 31.2398 162.042 31.861C162.142 32.5798 162.399 33.3046 162.399 34.0364C162.399 34.6555 161.851 34.8759 163.47 35.429C164.452 35.7649 164.857 36.1971 164.362 36.6031C163.862 37.0128 161.884 37.4727 162.577 37.9347C163.445 38.5128 163.643 38.991 162.954 39.5713C162.235 40.1773 163.033 40.8419 162.736 41.4519C162.49 41.9564 161.329 42.3039 161.665 42.7785C162.1 43.3915 161.665 44.0808 161.348 44.6895C161.04 45.2819 160.904 45.7963 159.722 46.3414C158.717 46.8054 158.797 47.0945 159.167 47.6171C159.775 48.4743 161.013 49.2551 160.634 50.1279C160.476 50.4937 159.549 50.9558 158.235 51.1444C155.468 51.5416 152.868 50.9745 150.067 50.8242C147.012 50.6603 146.233 50.4031 143.683 50.8191C142.153 51.0687 139.506 50.9614 137.795 50.9614C135.715 50.9614 134.348 50.7294 132.402 50.5548C130.428 50.3777 127.494 50.504 125.443 50.504C120.412 50.504 114.485 50.3571 109.662 50.7988C107.428 51.0033 105.126 51.1444 102.722 51.1444C100.972 51.1444 99.4635 50.8699 97.8056 50.8699C94.8817 50.8699 91.9939 50.7785 89.0822 50.7785C87.4687 50.7785 85.6399 50.7093 84.0463 50.7835C82.424 50.8592 81.3531 50.9818 79.6053 50.9411C72.7832 50.7821 66.7343 50.8035 60.2551 50.2499C53.9388 49.7101 47.3416 50.3889 40.9841 50.4125C36.2446 50.4301 31.7939 50.4055 27.1456 50.6158C24.8776 50.7184 22.9969 51.0547 20.8012 51.2156C18.8702 51.357 16.0906 51.2921 14.2983 51.0733C12.8473 50.8961 11.9124 50.9425 10.3727 50.8496C9.04075 50.7693 7.80589 50.7978 6.44716 50.7785C5.26991 50.7617 4.68386 50.3264 3.94907 50.1381C2.79372 49.8419 3.5922 49.6339 3.5922 49.2588C3.59221 48.7321 3.94907 48.233 3.94907 47.7137C3.94907 47.4005 4.1198 47.143 4.28612 46.8445C4.45463 46.5421 5.37655 46.2603 5.37655 45.9754C4.70857 45.8791 4.72177 45.5839 4.9631 45.2208C4.9366 45.0938 4.98706 44.975 5.19812 44.8776C5.4674 44.7533 5.11133 44.3006 5.73342 44.2829C5.73909 44.2831 5.74477 44.2834 5.75046 44.2837C6.08203 43.8767 6.26441 43.5107 5.77307 43.3376C4.6541 42.9431 5.73342 42.3067 5.73342 41.8534C5.73342 41.3252 6.02919 40.7275 5.71359 40.2016C5.29474 39.5036 4.66281 38.8716 4.66281 38.1584C4.66281 37.6681 4.41069 37.2448 4.28612 36.7658C4.12918 36.1623 2.87847 35.774 2.87847 35.1749C2.87847 34.376 6.02593 33.7895 5.15847 32.9741C3.68506 31.5892 3.21588 30.3542 4.48438 28.9233C5.13723 28.1869 5.99249 27.3833 4.54386 26.687C4.04999 26.4496 3.64319 26.1504 3.41377 25.889C3.11116 25.5442 2.23625 25.1446 2.16473 24.7963C2.09315 24.4476 2.73452 24.0642 2.87847 23.7137C3.11556 23.1362 3.66679 22.5864 4.14734 22.0212C4.44597 21.6699 4.60041 21.3173 4.68264 20.9589C4.74977 20.6663 5.3512 20.447 5.37655 20.1609C5.39951 19.902 5.98526 19.5904 5.55499 19.3477C5.18797 19.1407 4.46888 18.8798 4.74212 18.6463C5.70701 17.8218 6.10614 17.0531 7.79533 16.3083C8.66532 15.9247 7.55849 15.7767 7.67638 15.4443C7.86702 14.9067 10.2675 14.5685 10.2141 13.9805C10.1866 13.6777 9.39035 13.3413 8.40994 13.1825C7.02587 12.9584 7.18551 12.7927 6.72473 12.4252C6.0719 11.9046 5.73342 11.5121 5.73342 10.9411C5.73342 10.1668 6.65754 9.44567 6.80403 8.6946C6.89176 8.24479 7.44513 7.67931 6.36786 7.28163C4.96073 6.76218 4.59577 6.35231 4.94038 5.76703C5.10591 5.4859 4.60578 5.04794 5.21795 4.80133C5.73362 4.59359 5.73354 4.43937 5.73343 4.20217L5.73342 4.19143C5.73342 3.82175 5.06185 3.56636 4.58351 3.22574C4.17199 2.93269 4.56973 2.74385 4.6495 2.4714Z" fill="#EDB22E"/>
<path d="M3.94908 2.4735C7.2366 2.4735 10.9534 2.32176 14.1 2.46843C15.2551 2.52226 16.1852 2.76201 17.3118 2.84453C17.6746 2.8711 18.2029 2.99433 18.5807 3.04276C19.412 3.14932 20.5032 3.04659 21.4158 3.01734C22.9139 2.96934 24.3776 2.82292 25.8767 2.75305C27.0725 2.69731 28.9753 2.93094 30.3376 2.93094C31.5404 2.93094 32.2509 2.72649 33.3908 2.66156C34.3678 2.6059 35.856 2.91423 36.6026 3.06309C38.6596 3.47323 43.2667 2.83192 45.5243 2.74288C45.9045 2.72789 48.6527 2.30715 48.8947 2.52433C49.1284 2.73402 49.5155 3.00927 49.2516 3.24606C48.9454 3.52079 48.26 3.43376 48.5775 3.80007C48.8431 4.10642 50.3458 4.094 50.6791 3.79498C50.8178 3.6705 50.9262 3.07045 51.254 3.02242C53.2427 2.7311 54.4737 2.74797 56.9045 2.74797C57.6317 2.74797 58.4086 2.62909 59.1052 2.66156C60.1942 2.71232 61.3641 2.79879 62.4756 2.79879C64.076 2.79879 65.7885 2.83945 67.4718 2.83945C70.1691 2.83945 72.5658 3.18718 75.1246 3.2054C77.5921 3.22297 80.2448 2.91594 82.4603 2.67681C84.2356 2.48517 86.9897 2.49339 88.6063 2.72764C91.3162 3.1203 96.4298 3.11624 99.3917 2.81912C101.237 2.63405 102.989 2.29053 104.943 2.29053C105.61 2.29053 106.677 2.56571 107.164 2.65648C107.355 2.69219 108.489 3.98924 108.71 3.47986C108.807 3.25618 109.773 3.11378 110.574 3.04275C112.357 2.88449 114.128 2.55555 116.006 2.56499C118.982 2.57995 121.941 2.91421 125.007 2.93093C127.171 2.94274 129.305 2.83945 131.47 2.83945C134.14 2.83945 136.321 3.18433 138.925 3.32738C141.418 3.46431 147.918 3.75494 150.464 3.20539C150.641 3.167 154.782 1.9406 154.905 2.4735C154.966 2.74167 155.618 3.01986 155.618 3.25113C155.618 3.65952 155.702 3.85301 156.867 3.38837C157.505 3.13394 158.34 2.80379 159.346 2.65647C159.892 2.57648 159.393 2.48654 160.258 2.4735C160.759 2.46593 161.189 2.4735 161.824 2.4735C165.094 2.4735 166.329 2.90293 165.631 3.70857C165.385 3.99144 164.897 4.23477 164.897 4.53195C164.897 4.70892 164.52 4.845 164.54 5.03513C164.566 5.27114 164.897 5.48927 164.897 5.72636C164.897 6.184 165.611 6.62735 165.611 7.08849C165.611 7.54096 165.394 7.99029 165.234 8.44046C165.064 8.92132 165.027 9.43249 164.342 9.88391C163.278 10.5851 162.167 11.2365 163.628 11.9322C164.447 12.3221 163.826 13.1002 163.826 13.5332C163.826 13.8211 163.643 14.4467 162.914 14.687C160.911 15.3474 160.971 15.9891 160.971 16.7912C160.971 17.0767 160.947 17.5375 160.337 17.7721C159.234 18.1964 160.98 19.0421 161.606 19.3985C162.955 20.1673 161.137 21.0836 162.201 21.8585C162.864 22.3422 163.509 22.5518 163.826 23.0732C164.141 23.5899 164.183 24.093 164.183 24.6133C164.183 25.2304 160.252 25.0724 161.249 25.7111C161.555 25.9072 163.573 27.3003 163.311 27.3375C162.019 27.5215 159.901 27.2646 159.901 27.7238C159.901 28.0463 160.66 28.2102 159.623 28.476C159.374 28.54 162.057 29.018 162.201 29.055C162.475 29.1254 160.323 28.7243 160.892 28.7302C162.288 28.7445 163.113 29.7009 163.113 29.9907C163.113 30.63 161.955 31.2398 162.042 31.861C162.142 32.5798 162.399 33.3046 162.399 34.0364C162.399 34.6555 161.851 34.8759 163.47 35.429C164.452 35.7649 164.857 36.1971 164.362 36.6031C163.862 37.0128 161.884 37.4727 162.577 37.9347C163.445 38.5128 163.643 38.991 162.954 39.5713C162.235 40.1773 163.033 40.8419 162.736 41.4519C162.49 41.9564 161.329 42.3039 161.665 42.7785C162.1 43.3915 161.665 44.0808 161.348 44.6895C161.04 45.2819 160.904 45.7963 159.722 46.3414C158.717 46.8054 158.797 47.0945 159.167 47.6171C159.775 48.4743 161.013 49.2551 160.634 50.1279C160.476 50.4937 159.549 50.9558 158.235 51.1444C155.468 51.5416 152.868 50.9745 150.067 50.8242C147.012 50.6603 146.233 50.4031 143.683 50.8191C142.153 51.0687 139.506 50.9614 137.795 50.9614C135.715 50.9614 134.348 50.7294 132.402 50.5548C130.428 50.3777 127.494 50.504 125.443 50.504C120.412 50.504 114.485 50.3571 109.662 50.7988C107.428 51.0033 105.126 51.1444 102.722 51.1444C100.972 51.1444 99.4635 50.8699 97.8056 50.8699C94.8817 50.8699 91.9939 50.7785 89.0822 50.7785C87.4687 50.7785 85.6399 50.7093 84.0463 50.7835C82.424 50.8592 81.3531 50.9818 79.6053 50.9411C72.7832 50.7821 66.7343 50.8035 60.2551 50.2499C53.9388 49.7101 47.3416 50.3889 40.9841 50.4125C36.2446 50.4301 31.7939 50.4055 27.1456 50.6158C24.8776 50.7184 22.9969 51.0547 20.8012 51.2156C18.8702 51.357 16.0906 51.2921 14.2983 51.0733C12.8473 50.8961 11.9124 50.9425 10.3727 50.8496C9.04075 50.7693 7.80589 50.7978 6.44716 50.7785C5.26991 50.7617 4.68386 50.3264 3.94907 50.1381C2.79372 49.8419 3.5922 49.6339 3.59221 49.2588C3.59221 48.7321 3.94907 48.233 3.94907 47.7137C3.94907 47.4005 4.1198 47.143 4.28612 46.8445C4.45463 46.5421 5.37655 46.2603 5.37655 45.9754M5.37655 45.9754C5.37655 45.6545 4.56518 45.1696 5.19812 44.8776C5.4674 44.7533 5.11133 44.3006 5.73342 44.2829M5.37655 45.9754C8.69753 46.4543 7.10111 44.3369 5.73342 44.2829M5.37655 45.9754C3.47129 45.7007 7.10772 43.808 5.77307 43.3376C4.6541 42.9431 5.73342 42.3067 5.73342 41.8534C5.73342 41.3252 6.02919 40.7275 5.71359 40.2016C5.29474 39.5036 4.66281 38.8716 4.66281 38.1584C4.66281 37.6681 4.41069 37.2448 4.28612 36.7658C4.12918 36.1623 2.87847 35.774 2.87847 35.1749C2.87847 34.376 6.02593 33.7895 5.15847 32.9741C3.68506 31.5892 3.21588 30.3542 4.48438 28.9233C5.13723 28.1869 5.99249 27.3833 4.54386 26.687C4.04999 26.4496 3.64319 26.1504 3.41377 25.889C3.11116 25.5442 2.23625 25.1446 2.16473 24.7963C2.09315 24.4476 2.73452 24.0642 2.87847 23.7137C3.11556 23.1362 3.66679 22.5864 4.14734 22.0212C4.44597 21.6699 4.60041 21.3173 4.68264 20.9589C4.74977 20.6663 5.3512 20.447 5.37655 20.1609C5.39951 19.902 5.98526 19.5904 5.55499 19.3477C5.18797 19.1407 4.46888 18.8798 4.74212 18.6463C5.70701 17.8218 6.10614 17.0532 7.79533 16.3083C8.66532 15.9247 7.55849 15.7767 7.67638 15.4443C7.86702 14.9067 10.2675 14.5685 10.2141 13.9805C10.1866 13.6777 9.39035 13.3413 8.40994 13.1825C7.02587 12.9584 7.18551 12.7927 6.72473 12.4252C6.0719 11.9046 5.73342 11.5121 5.73342 10.9411C5.73342 10.1668 6.65754 9.44567 6.80403 8.6946C6.89176 8.24479 7.44513 7.67931 6.36786 7.28163C4.96073 6.76218 4.59577 6.35231 4.94038 5.76703C5.10591 5.4859 4.60578 5.04794 5.21795 4.80133C5.74137 4.59047 5.73342 4.43474 5.73342 4.19143C5.73342 3.82175 5.06185 3.56636 4.58351 3.22574C4.12851 2.90172 4.66282 2.70511 4.66282 2.38202M5.73342 44.2829C6.31189 44.2664 3.45342 43.241 5.73342 44.2829Z" stroke="#EDB22E" stroke-width="2.94" stroke-linecap="round"/>
</g>
<defs>
<filter id="filter0_di_544_7130" x="0.396646" y="0.820312" width="167.189" height="52.5251" filterUnits="userSpaceOnUse" color-interpolation-filters="sRGB">
<feFlood flood-opacity="0" result="BackgroundImageFix"/>
<feColorMatrix in="SourceAlpha" type="matrix" values="0 0 0 0 0 0 0 0 0 0 0 0 0 0 0 0 0 0 127 0" result="hardAlpha"/>
<feOffset dy="0.292319"/>
<feGaussianBlur stdDeviation="0.14616"/>
<feComposite in2="hardAlpha" operator="out"/>
<feColorMatrix type="matrix" values="0 0 0 0 0 0 0 0 0 0 0 0 0 0 0 0 0 0 0.6 0"/>
<feBlend mode="normal" in2="BackgroundImageFix" result="effect1_dropShadow_544_7130"/>
<feBlend mode="normal" in="SourceGraphic" in2="effect1_dropShadow_544_7130" result="shape"/>
<feColorMatrix in="SourceAlpha" type="matrix" values="0 0 0 0 0 0 0 0 0 0 0 0 0 0 0 0 0 0 127 0" result="hardAlpha"/>
<feOffset/>
<feGaussianBlur stdDeviation="1.94879"/>
<feComposite in2="hardAlpha" operator="arithmetic" k2="-1" k3="1"/>
<feColorMatrix type="matrix" values="0 0 0 0 0 0 0 0 0 0 0 0 0 0 0 0 0 0 0.4 0"/>
<feBlend mode="normal" in2="shape" result="effect2_innerShadow_544_7130"/>
</filter>
</defs>
</svg>
