<svg width="168" height="53" viewBox="0 0 168 53" fill="none" xmlns="http://www.w3.org/2000/svg">
<g filter="url(#filter0_di_544_14490)">
<path d="M4.6495 1.94114C7.75714 1.92334 11.1749 1.80181 14.1 1.93815C15.2551 1.99199 16.1852 2.23174 17.3118 2.31426C17.6746 2.34083 18.2029 2.46406 18.5807 2.51248C19.412 2.61904 20.5032 2.51632 21.4158 2.48707C22.9139 2.43907 24.3776 2.29264 25.8767 2.22277C27.0725 2.16703 28.9753 2.40066 30.3376 2.40066C31.5404 2.40066 32.2509 2.19622 33.3908 2.13129C34.3678 2.07562 35.856 2.38395 36.6026 2.53281C38.6596 2.94295 43.2667 2.30165 45.5243 2.21261C45.9045 2.19761 48.6527 1.77688 48.8947 1.99405C49.1285 2.20375 49.5155 2.479 49.2516 2.71579C48.9454 2.99052 48.26 2.90349 48.5775 3.26979C48.8431 3.57615 50.3458 3.56373 50.6791 3.26471C50.8178 3.14023 50.9262 2.54017 51.254 2.49215C53.2427 2.20083 54.4737 2.21769 56.9045 2.21769C57.6317 2.21769 58.4086 2.09882 59.1052 2.13128C60.1942 2.18205 61.3641 2.26852 62.4756 2.26852C64.076 2.26852 65.7885 2.30918 67.4718 2.30918C70.1691 2.30918 72.5658 2.6569 75.1246 2.67512C77.5921 2.69269 80.2448 2.38567 82.4603 2.14654C84.2356 1.9549 86.9897 1.96312 88.6063 2.19736C91.3162 2.59003 96.4298 2.58596 99.3917 2.28884C101.237 2.10378 102.989 1.76026 104.943 1.76026C105.61 1.76026 106.677 2.03544 107.164 2.1262C107.355 2.16192 108.489 3.45896 108.71 2.94958C108.807 2.72591 109.773 2.58351 110.574 2.51248C112.357 2.35422 114.128 2.02527 116.006 2.03471C118.982 2.04967 121.941 2.38393 125.007 2.40066C127.171 2.41247 129.305 2.30918 131.47 2.30917C134.14 2.30917 136.321 2.65406 138.925 2.79711C141.418 2.93404 147.918 3.22467 150.464 2.67512C150.641 2.63673 154.782 1.41033 154.905 1.94323C154.966 2.2114 155.618 2.48959 155.618 2.72086C155.618 3.12925 155.702 3.32274 156.867 2.8581C157.505 2.60367 158.34 2.27351 159.346 2.1262C159.892 2.04621 159.393 1.95626 160.258 1.94323C160.759 1.93566 161.189 1.94323 161.824 1.94323C165.094 1.94323 166.329 2.37265 165.631 3.17829C165.385 3.46117 164.897 3.70449 164.897 4.00168C164.897 4.17864 164.52 4.31472 164.54 4.50485C164.566 4.74087 164.897 4.95899 164.897 5.19608C164.897 5.65372 165.611 6.09708 165.611 6.55821C165.611 7.01068 165.394 7.46001 165.234 7.91019C165.064 8.39104 165.027 8.90222 164.342 9.35364C163.278 10.0548 162.167 10.7063 163.628 11.4019C164.447 11.7918 163.826 12.5699 163.826 13.0029C163.826 13.2908 163.643 13.9164 162.914 14.1567C160.911 14.8171 160.971 15.4588 160.971 16.2609C160.971 16.5464 160.947 17.0072 160.337 17.2418C159.234 17.6662 160.98 18.5118 161.606 18.8683C162.955 19.6371 161.137 20.5533 162.201 21.3282C162.865 21.8119 163.509 22.0215 163.826 22.543C164.141 23.0596 164.183 23.5627 164.183 24.083C164.183 24.7002 160.252 24.5422 161.249 25.1808C161.555 25.377 163.573 26.77 163.311 26.8073C162.019 26.9912 159.901 26.7344 159.901 27.1935C159.901 27.5161 160.66 27.68 159.623 27.9458C159.477 27.9831 160.333 28.1618 161.098 28.3114C160.836 28.2487 160.687 28.1978 160.892 28.1999C161.412 28.2052 161.852 28.3412 162.201 28.5247C162.228 28.5317 162.231 28.534 162.215 28.5325C162.793 28.8415 163.113 29.2801 163.113 29.4604C163.113 30.0997 161.955 30.7095 162.042 31.3308C162.142 32.0495 162.399 32.7743 162.399 33.5061C162.399 34.1253 161.851 34.3457 163.47 34.8988C164.452 35.2346 164.857 35.6668 164.362 36.0728C163.862 36.4826 161.884 36.9424 162.577 37.4045C163.445 37.9825 163.643 38.4607 162.954 39.0411C162.235 39.647 163.033 40.3117 162.736 40.9216C162.49 41.4261 161.329 41.7737 161.665 42.2482C162.1 42.8612 161.665 43.5506 161.348 44.1592C161.04 44.7516 160.904 45.266 159.722 45.8111C158.717 46.2751 158.797 46.5642 159.167 47.0868C159.775 47.9441 161.013 48.7248 160.634 49.5976C160.476 49.9634 159.549 50.4255 158.235 50.6141C155.468 51.0114 152.868 50.4442 150.067 50.2939C147.012 50.13 146.233 49.8728 143.683 50.2888C142.153 50.5384 139.506 50.4312 137.795 50.4312C135.715 50.4312 134.348 50.1991 132.402 50.0246C130.428 49.8474 127.494 49.9737 125.443 49.9737C120.412 49.9737 114.485 49.8269 109.662 50.2685C107.428 50.473 105.126 50.6141 102.722 50.6141C100.972 50.6141 99.4635 50.3397 97.8056 50.3397C94.8817 50.3397 91.9939 50.2482 89.0822 50.2482C87.4687 50.2482 85.6399 50.179 84.0463 50.2533C82.424 50.3289 81.3531 50.4516 79.6053 50.4108C72.7832 50.2518 66.7343 50.2733 60.2551 49.7196C53.9388 49.1799 47.3416 49.8586 40.9841 49.8822C36.2446 49.8999 31.7939 49.8753 27.1456 50.0855C24.8776 50.1882 22.9969 50.5245 20.8012 50.6853C18.8702 50.8267 16.0906 50.7618 14.2983 50.543C12.8473 50.3659 11.9124 50.4122 10.3727 50.3193C9.04075 50.239 7.80589 50.2675 6.44716 50.2482C5.26991 50.2314 4.68386 49.7962 3.94907 49.6078C2.79372 49.3116 3.5922 49.1036 3.59221 48.7285C3.59221 48.2019 3.94907 47.7027 3.94907 47.1834C3.94907 46.8702 4.1198 46.6127 4.28612 46.3143C4.45463 46.0119 5.37655 45.73 5.37655 45.4451C4.70857 45.3488 4.72177 45.0536 4.9631 44.6906C4.9366 44.5635 4.98706 44.4447 5.19812 44.3473C5.4674 44.223 5.11133 43.7704 5.73342 43.7526C5.73909 43.7529 5.74477 43.7531 5.75046 43.7534C6.08203 43.3464 6.26441 42.9805 5.77307 42.8073C4.6541 42.4128 5.73342 41.7764 5.73342 41.3232C5.73342 40.7949 6.02919 40.1972 5.71359 39.6713C5.29474 38.9734 4.66281 38.3413 4.66281 37.6281C4.66281 37.1378 4.41069 36.7145 4.28612 36.2355C4.12918 35.632 2.87847 35.2437 2.87847 34.6446C2.87847 33.8457 6.02593 33.2593 5.15847 32.4439C3.68506 31.0589 3.21588 29.8239 4.48438 28.393C5.13723 27.6566 5.99249 26.853 4.54386 26.1567C4.04999 25.9193 3.64319 25.6201 3.41377 25.3587C3.11116 25.0139 2.23625 24.6144 2.16473 24.266C2.09315 23.9173 2.73452 23.534 2.87847 23.1834C3.11556 22.606 3.66679 22.0561 4.14734 21.4909C4.44597 21.1396 4.60041 20.787 4.68264 20.4286C4.74977 20.1361 5.3512 19.9167 5.37655 19.6307C5.39951 19.3717 5.98526 19.0601 5.55499 18.8174C5.18797 18.6104 4.46888 18.3495 4.74212 18.116C5.70701 17.2915 6.10614 16.5229 7.79533 15.778C8.66532 15.3944 7.55849 15.2465 7.67638 14.914C7.86702 14.3764 10.2675 14.0383 10.2141 13.4502C10.1866 13.1474 9.39035 12.811 8.40994 12.6523C7.02587 12.4282 7.18551 12.2625 6.72473 11.8949C6.0719 11.3743 5.73342 10.9818 5.73342 10.4108C5.73342 9.6365 6.65754 8.91539 6.80403 8.16433C6.89176 7.71452 7.44513 7.14904 6.36786 6.75136C4.96073 6.23191 4.59577 5.82204 4.94038 5.23676C5.10591 4.95563 4.60578 4.51767 5.21795 4.27106C5.73362 4.06332 5.73354 3.90909 5.73343 3.6719L5.73342 3.66115C5.73342 3.29148 5.06185 3.03609 4.58351 2.69546C4.17199 2.40242 4.56972 2.21358 4.6495 1.94114Z" fill="#828375"/>
<path d="M3.94908 1.94323C7.2366 1.94323 10.9534 1.79149 14.1 1.93815C15.2551 1.99199 16.1852 2.23174 17.3118 2.31426C17.6746 2.34083 18.2029 2.46406 18.5807 2.51248C19.412 2.61904 20.5032 2.51632 21.4158 2.48707C22.9139 2.43907 24.3776 2.29264 25.8767 2.22277C27.0725 2.16703 28.9753 2.40066 30.3376 2.40066C31.5404 2.40066 32.2509 2.19622 33.3908 2.13128C34.3678 2.07562 35.856 2.38395 36.6026 2.53281C38.6596 2.94295 43.2667 2.30165 45.5243 2.21261C45.9045 2.19761 48.6527 1.77688 48.8947 1.99405C49.1285 2.20375 49.5155 2.479 49.2516 2.71579C48.9454 2.99052 48.26 2.90349 48.5775 3.26979C48.8431 3.57615 50.3458 3.56373 50.6791 3.26471C50.8178 3.14023 50.9262 2.54017 51.254 2.49215C53.2427 2.20083 54.4737 2.21769 56.9045 2.21769C57.6317 2.21769 58.4086 2.09882 59.1052 2.13128C60.1942 2.18205 61.3641 2.26852 62.4756 2.26852C64.076 2.26852 65.7885 2.30918 67.4718 2.30918C70.1691 2.30918 72.5658 2.6569 75.1246 2.67512C77.5921 2.69269 80.2448 2.38567 82.4603 2.14654C84.2356 1.9549 86.9897 1.96311 88.6063 2.19737C91.3162 2.59003 96.4298 2.58596 99.3917 2.28884C101.237 2.10378 102.989 1.76026 104.943 1.76026C105.61 1.76026 106.677 2.03544 107.164 2.1262C107.355 2.16192 108.489 3.45896 108.71 2.94958C108.807 2.7259 109.773 2.58351 110.574 2.51248C112.357 2.35422 114.128 2.02527 116.006 2.03471C118.982 2.04967 121.941 2.38393 125.007 2.40066C127.171 2.41246 129.305 2.30918 131.47 2.30918C134.14 2.30918 136.321 2.65406 138.925 2.79711C141.418 2.93404 147.918 3.22467 150.464 2.67512C150.641 2.63673 154.782 1.41033 154.905 1.94323C154.966 2.2114 155.618 2.48959 155.618 2.72086C155.618 3.12925 155.702 3.32274 156.867 2.8581C157.505 2.60367 158.34 2.27351 159.346 2.1262C159.892 2.04621 159.393 1.95626 160.258 1.94323C160.759 1.93566 161.189 1.94323 161.824 1.94323C165.094 1.94323 166.329 2.37265 165.631 3.1783C165.385 3.46116 164.897 3.7045 164.897 4.00168C164.897 4.17864 164.52 4.31472 164.54 4.50485C164.566 4.74087 164.897 4.95899 164.897 5.19608C164.897 5.65372 165.611 6.09708 165.611 6.55821C165.611 7.01068 165.394 7.46002 165.234 7.91019C165.064 8.39104 165.027 8.90222 164.342 9.35364C163.278 10.0548 162.167 10.7063 163.628 11.4019C164.447 11.7918 163.826 12.5699 163.826 13.0029C163.826 13.2908 163.643 13.9164 162.914 14.1567C160.911 14.8171 160.971 15.4588 160.971 16.2609C160.971 16.5464 160.947 17.0072 160.337 17.2418C159.234 17.6662 160.98 18.5118 161.606 18.8683C162.955 19.6371 161.137 20.5533 162.201 21.3282C162.864 21.8119 163.509 22.0215 163.826 22.543C164.141 23.0596 164.183 23.5627 164.183 24.083C164.183 24.7002 160.252 24.5422 161.249 25.1808C161.555 25.377 163.573 26.77 163.311 26.8073C162.019 26.9912 159.901 26.7344 159.901 27.1935C159.901 27.5161 160.66 27.68 159.623 27.9458C159.374 28.0097 162.057 28.4877 162.201 28.5247C162.475 28.5951 160.323 28.1941 160.892 28.1999C162.288 28.2142 163.113 29.1707 163.113 29.4604C163.113 30.0997 161.955 30.7095 162.042 31.3308C162.142 32.0495 162.399 32.7743 162.399 33.5061C162.399 34.1253 161.851 34.3457 163.47 34.8988C164.452 35.2346 164.857 35.6668 164.362 36.0728C163.862 36.4826 161.884 36.9424 162.577 37.4045C163.445 37.9825 163.643 38.4607 162.954 39.0411C162.235 39.647 163.033 40.3117 162.736 40.9216C162.49 41.4261 161.329 41.7737 161.665 42.2482C162.1 42.8612 161.665 43.5506 161.348 44.1592C161.04 44.7516 160.904 45.266 159.722 45.8111C158.717 46.2751 158.797 46.5642 159.167 47.0868C159.775 47.9441 161.013 48.7248 160.634 49.5976C160.476 49.9634 159.549 50.4255 158.235 50.6141C155.468 51.0114 152.868 50.4442 150.067 50.2939C147.012 50.13 146.233 49.8728 143.683 50.2888C142.153 50.5384 139.506 50.4312 137.795 50.4312C135.715 50.4312 134.348 50.1991 132.402 50.0246C130.428 49.8474 127.494 49.9737 125.443 49.9737C120.412 49.9737 114.485 49.8269 109.662 50.2685C107.428 50.473 105.126 50.6141 102.722 50.6141C100.972 50.6141 99.4635 50.3397 97.8056 50.3397C94.8817 50.3397 91.9939 50.2482 89.0822 50.2482C87.4687 50.2482 85.6399 50.179 84.0463 50.2533C82.424 50.3289 81.3531 50.4516 79.6053 50.4108C72.7832 50.2518 66.7343 50.2733 60.2551 49.7196C53.9388 49.1799 47.3416 49.8586 40.9841 49.8822C36.2446 49.8999 31.7939 49.8753 27.1456 50.0855C24.8776 50.1882 22.9969 50.5245 20.8012 50.6853C18.8702 50.8267 16.0906 50.7618 14.2983 50.543C12.8473 50.3659 11.9124 50.4122 10.3727 50.3193C9.04075 50.239 7.80589 50.2675 6.44716 50.2482C5.26991 50.2314 4.68386 49.7962 3.94907 49.6078C2.79372 49.3116 3.59221 49.1036 3.59221 48.7285C3.59221 48.2019 3.94907 47.7027 3.94907 47.1834C3.94907 46.8702 4.1198 46.6127 4.28612 46.3143C4.45463 46.0119 5.37655 45.73 5.37655 45.4451M5.37655 45.4451C5.37655 45.1242 4.56518 44.6394 5.19812 44.3473C5.4674 44.223 5.11133 43.7704 5.73342 43.7526M5.37655 45.4451C8.69753 45.924 7.10111 43.8066 5.73342 43.7526M5.37655 45.4451C3.47129 45.1704 7.10772 43.2777 5.77307 42.8073C4.6541 42.4128 5.73342 41.7764 5.73342 41.3232C5.73342 40.7949 6.02919 40.1972 5.71359 39.6713C5.29474 38.9734 4.66281 38.3413 4.66281 37.6281C4.66281 37.1378 4.41069 36.7145 4.28612 36.2355C4.12918 35.632 2.87847 35.2437 2.87847 34.6446C2.87847 33.8457 6.02593 33.2593 5.15847 32.4439C3.68506 31.0589 3.21588 29.8239 4.48438 28.393C5.13723 27.6566 5.99249 26.853 4.54386 26.1567C4.04999 25.9193 3.64319 25.6201 3.41377 25.3587C3.11116 25.0139 2.23625 24.6144 2.16473 24.266C2.09315 23.9173 2.73452 23.534 2.87847 23.1834C3.11556 22.606 3.66679 22.0561 4.14734 21.4909C4.44597 21.1396 4.60041 20.787 4.68264 20.4286C4.74977 20.1361 5.3512 19.9167 5.37655 19.6307C5.39951 19.3717 5.98526 19.0601 5.55499 18.8174C5.18797 18.6104 4.46888 18.3495 4.74212 18.116C5.70701 17.2915 6.10614 16.5229 7.79533 15.7781C8.66532 15.3944 7.55849 15.2465 7.67638 14.914C7.86702 14.3764 10.2675 14.0383 10.2141 13.4502C10.1866 13.1474 9.39035 12.811 8.40994 12.6523C7.02587 12.4282 7.18551 12.2625 6.72473 11.8949C6.0719 11.3743 5.73342 10.9818 5.73342 10.4108C5.73342 9.6365 6.65754 8.91539 6.80403 8.16432C6.89176 7.71452 7.44513 7.14904 6.36786 6.75136C4.96073 6.23191 4.59577 5.82204 4.94038 5.23675C5.10591 4.95563 4.60578 4.51767 5.21795 4.27106C5.74137 4.0602 5.73342 3.90446 5.73342 3.66115C5.73342 3.29148 5.06185 3.03609 4.58351 2.69546C4.12851 2.37145 4.66282 2.17483 4.66282 1.85174M5.73342 43.7526C6.31189 43.7362 3.45342 42.7107 5.73342 43.7526Z" stroke="#EDB22E" stroke-width="2.94" stroke-linecap="round"/>
</g>
<defs>
<filter id="filter0_di_544_14490" x="0.396646" y="0.290039" width="167.189" height="52.5251" filterUnits="userSpaceOnUse" color-interpolation-filters="sRGB">
<feFlood flood-opacity="0" result="BackgroundImageFix"/>
<feColorMatrix in="SourceAlpha" type="matrix" values="0 0 0 0 0 0 0 0 0 0 0 0 0 0 0 0 0 0 127 0" result="hardAlpha"/>
<feOffset dy="0.292319"/>
<feGaussianBlur stdDeviation="0.14616"/>
<feComposite in2="hardAlpha" operator="out"/>
<feColorMatrix type="matrix" values="0 0 0 0 0 0 0 0 0 0 0 0 0 0 0 0 0 0 0.6 0"/>
<feBlend mode="normal" in2="BackgroundImageFix" result="effect1_dropShadow_544_14490"/>
<feBlend mode="normal" in="SourceGraphic" in2="effect1_dropShadow_544_14490" result="shape"/>
<feColorMatrix in="SourceAlpha" type="matrix" values="0 0 0 0 0 0 0 0 0 0 0 0 0 0 0 0 0 0 127 0" result="hardAlpha"/>
<feOffset/>
<feGaussianBlur stdDeviation="1.94879"/>
<feComposite in2="hardAlpha" operator="arithmetic" k2="-1" k3="1"/>
<feColorMatrix type="matrix" values="0 0 0 0 0 0 0 0 0 0 0 0 0 0 0 0 0 0 0.4 0"/>
<feBlend mode="normal" in2="shape" result="effect2_innerShadow_544_14490"/>
</filter>
</defs>
</svg>
