<svg width="208" height="52" viewBox="0 0 208 52" fill="none" xmlns="http://www.w3.org/2000/svg">
<g filter="url(#filter0_d_72_20567)">
<rect x="4" width="200" height="44" rx="22" fill="#4EA9B4" shape-rendering="crispEdges"/>
<rect x="5.5" y="1.5" width="197" height="41" rx="20.5" stroke="#4EA9B4" stroke-width="3" shape-rendering="crispEdges"/>
<path fill-rule="evenodd" clip-rule="evenodd" d="M21.205 22.795C20.9943 22.5841 20.876 22.2981 20.876 22C20.876 21.7019 20.9943 21.416 21.205 21.205L30.205 12.205C30.308 12.0945 30.4322 12.0058 30.5702 11.9443C30.7082 11.8829 30.8571 11.8498 31.0082 11.8471C31.1593 11.8445 31.3093 11.8722 31.4494 11.9288C31.5895 11.9854 31.7167 12.0696 31.8235 12.1765C31.9304 12.2833 32.0146 12.4105 32.0712 12.5506C32.1278 12.6907 32.1555 12.8407 32.1529 12.9918C32.1502 13.1429 32.1171 13.2918 32.0557 13.4298C31.9942 13.5678 31.9055 13.692 31.795 13.795L24.715 20.875H46C46.2984 20.875 46.5845 20.9935 46.7955 21.2045C47.0065 21.4155 47.125 21.7016 47.125 22C47.125 22.2984 47.0065 22.5845 46.7955 22.7955C46.5845 23.0065 46.2984 23.125 46 23.125H24.715L31.795 30.205C31.9055 30.308 31.9942 30.4322 32.0557 30.5702C32.1171 30.7082 32.1502 30.8572 32.1529 31.0082C32.1555 31.1593 32.1278 31.3093 32.0712 31.4494C32.0146 31.5895 31.9304 31.7167 31.8235 31.8236C31.7167 31.9304 31.5895 32.0146 31.4494 32.0712C31.3093 32.1278 31.1593 32.1556 31.0082 32.1529C30.8571 32.1502 30.7082 32.1172 30.5702 32.0557C30.4322 31.9942 30.308 31.9055 30.205 31.795L21.205 22.795Z" fill="black"/>
<path fill-rule="evenodd" clip-rule="evenodd" d="M186.795 21.205C187.006 21.4159 187.124 21.7019 187.124 22C187.124 22.2981 187.006 22.584 186.795 22.795L177.795 31.795C177.692 31.9055 177.568 31.9942 177.43 32.0557C177.292 32.1171 177.143 32.1502 176.992 32.1529C176.841 32.1555 176.691 32.1278 176.551 32.0712C176.411 32.0146 176.283 31.9304 176.176 31.8235C176.07 31.7167 175.985 31.5895 175.929 31.4494C175.872 31.3093 175.844 31.1593 175.847 31.0082C175.85 30.8571 175.883 30.7082 175.944 30.5702C176.006 30.4322 176.094 30.308 176.205 30.205L183.285 23.125H162C161.702 23.125 161.415 23.0065 161.205 22.7955C160.994 22.5845 160.875 22.2984 160.875 22C160.875 21.7016 160.994 21.4155 161.205 21.2045C161.415 20.9935 161.702 20.875 162 20.875H183.285L176.205 13.795C176.094 13.692 176.006 13.5678 175.944 13.4298C175.883 13.2918 175.85 13.1428 175.847 12.9918C175.844 12.8407 175.872 12.6907 175.929 12.5506C175.985 12.4105 176.07 12.2833 176.176 12.1764C176.283 12.0696 176.411 11.9854 176.551 11.9288C176.691 11.8722 176.841 11.8444 176.992 11.8471C177.143 11.8498 177.292 11.8828 177.43 11.9443C177.568 12.0058 177.692 12.0945 177.795 12.205L186.795 21.205Z" fill="black"/>
</g>
<defs>
<filter id="filter0_d_72_20567" x="0" y="0" width="208" height="52" filterUnits="userSpaceOnUse" color-interpolation-filters="sRGB">
<feFlood flood-opacity="0" result="BackgroundImageFix"/>
<feColorMatrix in="SourceAlpha" type="matrix" values="0 0 0 0 0 0 0 0 0 0 0 0 0 0 0 0 0 0 127 0" result="hardAlpha"/>
<feOffset dy="4"/>
<feGaussianBlur stdDeviation="2"/>
<feComposite in2="hardAlpha" operator="out"/>
<feColorMatrix type="matrix" values="0 0 0 0 0 0 0 0 0 0 0 0 0 0 0 0 0 0 0.25 0"/>
<feBlend mode="normal" in2="BackgroundImageFix" result="effect1_dropShadow_72_20567"/>
<feBlend mode="normal" in="SourceGraphic" in2="effect1_dropShadow_72_20567" result="shape"/>
</filter>
</defs>
</svg>
