<svg width="1440" height="52" viewBox="0 0 1440 52" fill="none" xmlns="http://www.w3.org/2000/svg">
<path d="M490.976 48.1906C495.502 48.1906 499.171 44.5217 499.171 39.9959C499.171 35.4701 495.502 31.8013 490.976 31.8013C486.45 31.8013 482.781 35.4701 482.781 39.9959C482.781 44.5217 486.45 48.1906 490.976 48.1906Z" fill="white"/>
<path d="M368.288 48.1906C372.814 48.1906 376.482 44.5217 376.482 39.9959C376.482 35.4701 372.814 31.8013 368.288 31.8013C363.762 31.8013 360.093 35.4701 360.093 39.9959C360.093 44.5217 363.762 48.1906 368.288 48.1906Z" fill="#FFB81B"/>
<path d="M246.345 48.1906C250.871 48.1906 254.54 44.5217 254.54 39.9959C254.54 35.4701 250.871 31.8013 246.345 31.8013C241.819 31.8013 238.15 35.4701 238.15 39.9959C238.15 44.5217 241.819 48.1906 246.345 48.1906Z" fill="white"/>
<path d="M124.343 48.1906C128.869 48.1906 132.538 44.5217 132.538 39.9959C132.538 35.4701 128.869 31.8013 124.343 31.8013C119.817 31.8013 116.148 35.4701 116.148 39.9959C116.148 44.5217 119.817 48.1906 124.343 48.1906Z" fill="#FFB81B"/>
<path d="M0.343794 48.1906C4.86969 48.1906 8.53866 44.5217 8.53866 39.9959C8.53866 35.4701 4.86969 31.8013 0.343794 31.8013C-4.18211 31.8013 -7.85107 35.4701 -7.85107 39.9959C-7.85107 44.5217 -4.18211 48.1906 0.343794 48.1906Z" fill="white"/>
<path d="M93.2295 19.1985C97.7554 19.1985 101.424 15.5296 101.424 11.0038C101.424 6.47802 97.7554 2.80914 93.2295 2.80914C88.7036 2.80914 85.0347 6.47802 85.0347 11.0038C85.0347 15.5296 88.7036 19.1985 93.2295 19.1985Z" fill="#FFB81B"/>
<path d="M213.598 17.999C218.124 17.999 221.793 14.3301 221.793 9.80431C221.793 5.27852 218.124 1.60965 213.598 1.60965C209.072 1.60965 205.403 5.27852 205.403 9.80431C205.403 14.3301 209.072 17.999 213.598 17.999Z" fill="white"/>
<path d="M339.792 17.999C344.318 17.999 347.987 14.3301 347.987 9.80431C347.987 5.27852 344.318 1.60965 339.792 1.60965C335.266 1.60965 331.597 5.27852 331.597 9.80431C331.597 14.3301 335.266 17.999 339.792 17.999Z" fill="#FFB81B"/>
<path d="M460.581 17.999C465.107 17.999 468.775 14.3301 468.775 9.80431C468.775 5.27852 465.107 1.60965 460.581 1.60965C456.055 1.60965 452.386 5.27852 452.386 9.80431C452.386 14.3301 456.055 17.999 460.581 17.999Z" fill="white"/>
<path d="M1345.56 48.1906C1350.09 48.1906 1353.76 44.5217 1353.76 39.9959C1353.76 35.4701 1350.09 31.8013 1345.56 31.8013C1341.04 31.8013 1337.37 35.4701 1337.37 39.9959C1337.37 44.5217 1341.04 48.1906 1345.56 48.1906Z" fill="#FFB81B"/>
<path d="M1222.39 48.1906C1226.92 48.1906 1230.59 44.5217 1230.59 39.9959C1230.59 35.4701 1226.92 31.8013 1222.39 31.8013C1217.87 31.8013 1214.2 35.4701 1214.2 39.9959C1214.2 44.5217 1217.87 48.1906 1222.39 48.1906Z" fill="white"/>
<path d="M1099.69 48.1906C1104.21 48.1906 1107.88 44.5217 1107.88 39.9959C1107.88 35.4701 1104.21 31.8013 1099.69 31.8013C1095.16 31.8013 1091.49 35.4701 1091.49 39.9959C1091.49 44.5217 1095.16 48.1906 1099.69 48.1906Z" fill="#FFB81B"/>
<path d="M1071.21 17.999C1075.73 17.999 1079.4 14.3301 1079.4 9.80431C1079.4 5.27852 1075.73 1.60965 1071.21 1.60965C1066.68 1.60965 1063.01 5.27852 1063.01 9.80431C1063.01 14.3301 1066.68 17.999 1071.21 17.999Z" fill="#FFB81B"/>
<path d="M614.148 48.1904C618.674 48.1904 622.343 44.5215 622.343 39.9957C622.343 35.4699 618.674 31.8011 614.148 31.8011C609.623 31.8011 605.954 35.4699 605.954 39.9957C605.954 44.5215 609.623 48.1904 614.148 48.1904Z" fill="#FFB81B"/>
<path d="M977.761 48.1906C982.287 48.1906 985.956 44.5217 985.956 39.9959C985.956 35.4701 982.287 31.8013 977.761 31.8013C973.235 31.8013 969.566 35.4701 969.566 39.9959C969.566 44.5217 973.235 48.1906 977.761 48.1906Z" fill="white"/>
<path d="M855.757 48.1906C860.283 48.1906 863.952 44.5217 863.952 39.9959C863.952 35.4701 860.283 31.8013 855.757 31.8013C851.231 31.8013 847.562 35.4701 847.562 39.9959C847.562 44.5217 851.231 48.1906 855.757 48.1906Z" fill="#FFB81B"/>
<path d="M739.627 48.1906C744.153 48.1906 747.822 44.5217 747.822 39.9959C747.822 35.4701 744.153 31.8013 739.627 31.8013C735.102 31.8013 731.433 35.4701 731.433 39.9959C731.433 44.5217 735.102 48.1906 739.627 48.1906Z" fill="white"/>
<path d="M708.998 17.999C713.523 17.999 717.192 14.3301 717.192 9.80431C717.192 5.27852 713.523 1.60965 708.998 1.60965C704.472 1.60965 700.803 5.27852 700.803 9.80431C700.803 14.3301 704.472 17.999 708.998 17.999Z" fill="white"/>
<path d="M586.247 17.999C590.773 17.999 594.441 14.3301 594.441 9.80431C594.441 5.27852 590.773 1.60965 586.247 1.60965C581.721 1.60965 578.052 5.27852 578.052 9.80431C578.052 14.3301 581.721 17.999 586.247 17.999Z" fill="#FFB81B"/>
<path d="M824.644 19.1985C829.17 19.1985 832.839 15.5296 832.839 11.0038C832.839 6.47802 829.17 2.80914 824.644 2.80914C820.118 2.80914 816.449 6.47802 816.449 11.0038C816.449 15.5296 820.118 19.1985 824.644 19.1985Z" fill="#FFB81B"/>
<path d="M945.013 17.999C949.539 17.999 953.208 14.3301 953.208 9.80431C953.208 5.27852 949.539 1.60965 945.013 1.60965C940.487 1.60965 936.818 5.27852 936.818 9.80431C936.818 14.3301 940.487 17.999 945.013 17.999Z" fill="white"/>
<path d="M1192 17.999C1196.52 17.999 1200.19 14.3301 1200.19 9.80431C1200.19 5.27852 1196.52 1.60965 1192 1.60965C1187.47 1.60965 1183.8 5.27852 1183.8 9.80431C1183.8 14.3301 1187.47 17.999 1192 17.999Z" fill="white"/>
<path d="M1435.32 17.999C1439.84 17.999 1443.51 14.3301 1443.51 9.80431C1443.51 5.27852 1439.84 1.60965 1435.32 1.60965C1430.79 1.60965 1427.12 5.27852 1427.12 9.80431C1427.12 14.3301 1430.79 17.999 1435.32 17.999Z" fill="white"/>
<path d="M1315.4 16.612C1319.93 16.612 1323.6 12.9431 1323.6 8.41731C1323.6 3.89153 1319.93 0.222656 1315.4 0.222656C1310.88 0.222656 1307.21 3.89153 1307.21 8.41731C1307.21 12.9431 1310.88 16.612 1315.4 16.612Z" fill="#FFB81B"/>
<path d="M47.2379 49.9658H81.1236C81.2638 49.9658 81.3573 49.7944 81.2638 49.6854L64.3288 27.672C64.2664 27.5785 64.1262 27.5785 64.0483 27.672L47.1133 49.6854C47.0198 49.7944 47.1133 49.9658 47.2535 49.9658H47.2379Z" fill="#E04B20"/>
<path d="M293.1 49.9658H326.985C327.126 49.9658 327.219 49.7944 327.126 49.6854L310.191 27.672C310.128 27.5785 309.988 27.5785 309.91 27.672L292.975 49.6854C292.882 49.7944 292.975 49.9658 293.115 49.9658H293.1Z" fill="#E04B20"/>
<path d="M170.162 51.1821H204.048C204.188 51.1821 204.282 51.0107 204.188 50.9017L187.253 28.8883C187.191 28.7948 187.051 28.7948 186.973 28.8883L170.038 50.9017C169.944 51.0107 170.038 51.1821 170.178 51.1821H170.162Z" fill="#E04B20"/>
<path d="M536.173 49.9682H570.059C570.199 49.9682 570.292 49.7968 570.199 49.6877L553.264 27.6744C553.201 27.5809 553.061 27.5809 552.983 27.6744L536.048 49.6877C535.955 49.7968 536.048 49.9682 536.189 49.9682H536.173Z" fill="#E04B20"/>
<path d="M414.808 51.1821H448.693C448.834 51.1821 448.927 51.0107 448.834 50.9017L431.899 28.8883C431.836 28.7948 431.696 28.7948 431.618 28.8883L414.683 50.9017C414.59 51.0107 414.683 51.1821 414.823 51.1821H414.808Z" fill="#E04B20"/>
<path d="M540.068 2.80914H506.183C506.043 2.80914 505.949 2.98051 506.043 3.08957L522.978 25.103C523.04 25.1964 523.18 25.1964 523.258 25.103L540.193 3.08957C540.286 2.98051 540.193 2.80914 540.053 2.80914H540.068Z" fill="#E04B20"/>
<path d="M661.776 1.59521H627.891C627.751 1.59521 627.657 1.76659 627.751 1.87564L644.686 23.889C644.748 23.9825 644.888 23.9825 644.966 23.889L661.901 1.87564C661.994 1.76659 661.901 1.59521 661.761 1.59521H661.776Z" fill="#E04B20"/>
<path d="M294.207 2.80914H260.321C260.181 2.80914 260.087 2.98051 260.181 3.08957L277.116 25.103C277.178 25.1964 277.318 25.1964 277.396 25.103L294.331 3.08957C294.425 2.98051 294.331 2.80914 294.191 2.80914H294.207Z" fill="#E04B20"/>
<path d="M417.145 1.59521H383.259C383.119 1.59521 383.026 1.76659 383.119 1.87564L400.054 23.889C400.117 23.9825 400.257 23.9825 400.335 23.889L417.27 1.87564C417.363 1.76659 417.27 1.59521 417.129 1.59521H417.145Z" fill="#E04B20"/>
<path d="M51.1333 2.80914H17.2477C17.1074 2.80914 17.014 2.98051 17.1075 3.08957L34.0425 25.103C34.1048 25.1964 34.245 25.1964 34.3229 25.103L51.2579 3.08957C51.3514 2.98051 51.2579 2.80914 51.1177 2.80914H51.1333Z" fill="#E04B20"/>
<path d="M172.499 1.59512H138.613C138.473 1.59512 138.38 1.76649 138.473 1.87555L155.408 23.8889C155.471 23.9824 155.611 23.9824 155.689 23.8889L172.624 1.87555C172.717 1.76649 172.624 1.59512 172.483 1.59512H172.499Z" fill="#E04B20"/>
<path d="M778.653 49.9658H812.539C812.679 49.9658 812.772 49.7944 812.679 49.6854L795.744 27.672C795.681 27.5785 795.541 27.5785 795.463 27.672L778.528 49.6854C778.435 49.7944 778.528 49.9658 778.669 49.9658H778.653Z" fill="#E04B20"/>
<path d="M657.57 51.1821H691.455C691.595 51.1821 691.689 51.0107 691.595 50.9017L674.66 28.8883C674.598 28.7948 674.458 28.7948 674.38 28.8883L657.445 50.9017C657.351 51.0107 657.445 51.1821 657.585 51.1821H657.57Z" fill="#E04B20"/>
<path d="M1024.52 49.9658H1058.4C1058.54 49.9658 1058.63 49.7944 1058.54 49.6854L1041.61 27.672C1041.54 27.5785 1041.4 27.5785 1041.33 27.672L1024.39 49.6854C1024.3 49.7944 1024.39 49.9658 1024.53 49.9658H1024.52Z" fill="#E04B20"/>
<path d="M901.577 51.1821H935.462C935.603 51.1821 935.696 51.0107 935.603 50.9017L918.668 28.8883C918.605 28.7948 918.465 28.7948 918.387 28.8883L901.452 50.9017C901.359 51.0107 901.452 51.1821 901.592 51.1821H901.577Z" fill="#E04B20"/>
<path d="M1267.59 49.9658H1301.47C1301.61 49.9658 1301.71 49.7944 1301.61 49.6854L1284.68 27.672C1284.62 27.5785 1284.48 27.5785 1284.4 27.672L1267.46 49.6854C1267.37 49.7944 1267.46 49.9658 1267.6 49.9658H1267.59Z" fill="#E04B20"/>
<path d="M1389.65 49.9658H1423.54C1423.68 49.9658 1423.77 49.7944 1423.68 49.6854L1406.74 27.672C1406.68 27.5785 1406.54 27.5785 1406.46 27.672L1389.53 49.6854C1389.44 49.7944 1389.53 49.9658 1389.67 49.9658H1389.65Z" fill="#E04B20"/>
<path d="M1146.22 51.1821H1180.11C1180.25 51.1821 1180.34 51.0107 1180.25 50.9017L1163.31 28.8883C1163.25 28.7948 1163.11 28.7948 1163.03 28.8883L1146.1 50.9017C1146.01 51.0107 1146.1 51.1821 1146.24 51.1821H1146.22Z" fill="#E04B20"/>
<path d="M1271.48 2.80914H1237.6C1237.46 2.80914 1237.36 2.98051 1237.46 3.08957L1254.39 25.103C1254.45 25.1964 1254.59 25.1964 1254.67 25.103L1271.61 3.08957C1271.7 2.98051 1271.61 2.80914 1271.47 2.80914H1271.48Z" fill="#E04B20"/>
<path d="M1393.19 1.59521H1359.31C1359.17 1.59521 1359.07 1.76659 1359.17 1.87564L1376.1 23.889C1376.16 23.9825 1376.3 23.9825 1376.38 23.889L1393.32 1.87564C1393.41 1.76659 1393.32 1.59521 1393.18 1.59521H1393.19Z" fill="#E04B20"/>
<path d="M1025.62 2.80914H991.736C991.596 2.80914 991.503 2.98051 991.596 3.08957L1008.53 25.103C1008.59 25.1964 1008.73 25.1964 1008.81 25.103L1025.75 3.08957C1025.84 2.98051 1025.75 2.80914 1025.61 2.80914H1025.62Z" fill="#E04B20"/>
<path d="M1148.54 1.59521H1114.66C1114.52 1.59521 1114.43 1.76659 1114.52 1.87564L1131.45 23.889C1131.52 23.9825 1131.66 23.9825 1131.73 23.889L1148.67 1.87564C1148.76 1.76659 1148.67 1.59521 1148.53 1.59521H1148.54Z" fill="#E04B20"/>
<path d="M782.548 2.80914H748.663C748.523 2.80914 748.429 2.98051 748.522 3.08957L765.457 25.103C765.52 25.1964 765.66 25.1964 765.738 25.103L782.673 3.08957C782.766 2.98051 782.673 2.80914 782.533 2.80914H782.548Z" fill="#E04B20"/>
<path d="M903.914 1.59521H870.028C869.888 1.59521 869.794 1.76659 869.888 1.87564L886.823 23.889C886.885 23.9825 887.025 23.9825 887.103 23.889L904.038 1.87564C904.132 1.76659 904.038 1.59521 903.898 1.59521H903.914Z" fill="#E04B20"/>
<path d="M675.408 0.409973L643.984 44.0317L612.513 0.347656L584.454 43.9382L552.127 0.441131L522.65 43.9071L492.768 0.456711L460.628 44.0161L430.465 0.441131L398.605 44.0317L367.649 0.409973L337.673 43.8915L308.649 0.347656L278.424 44.0161L246.315 0.487869L215.249 43.985L185.025 0.378815L155.003 44.0161L122.644 0.409973L94.0708 43.985L61.3381 0.487869L30.9423 43.9694L0.343979 0.409973L-29.9428 43.9694L-60.8371 0.456711L-80 27.0192V33.2976L-60.8527 6.76628L-29.9272 50.3569L0.359566 6.81302L30.9579 50.3569L61.4472 6.73513L94.2734 50.3569L122.831 6.81302L155.112 50.3257L185.04 6.84418L215.218 50.3569L246.361 6.73513L278.518 50.3257L308.602 6.87534L337.627 50.4348L367.695 6.81302L398.559 50.3101L430.388 6.78186L460.534 50.3257L492.659 6.76628L522.666 50.4192L552.267 6.78186L584.672 50.388L612.684 6.87534L643.984 50.3101L675.314 6.81302L703.342 48.1914L706.38 46.1349L675.408 0.409973Z" fill="#0E0B06"/>
<path d="M1132.73 50.4348L1103.71 6.87534L1073.62 50.3257L1041.47 6.73513L1010.32 50.3569L980.144 6.84418L950.216 50.3257L917.935 6.81302L889.377 50.3569L856.551 6.73513L826.062 50.3569L795.464 6.81302L765.177 50.3569L734.251 6.76628L704.323 48.2381L701.347 46.0882L734.267 0.456711L765.161 43.9694L795.448 0.409973L826.046 43.9694L856.442 0.487869L889.175 43.985L917.748 0.409973L950.107 44.0161L980.129 0.378815L1010.35 43.985L1041.42 0.487869L1073.53 44.0161L1103.75 0.347656L1132.78 43.8915L1162.75 0.409973L1193.71 44.0317L1225.57 0.441131L1255.73 44.0161L1287.87 0.456711L1317.75 43.9071L1347.23 0.441131L1379.56 43.9382L1407.62 0.347656L1439.09 44.0317L1470.51 0.409973L1501.48 46.1349L1498.45 48.1914L1470.42 6.81302L1439.09 50.3101L1407.79 6.87534L1379.78 50.388L1347.37 6.78186L1317.77 50.4192L1287.76 6.76628L1255.64 50.3257L1225.49 6.78186L1193.66 50.3101L1162.8 6.81302L1132.73 50.4348Z" fill="#0E0B06"/>
</svg>
