<svg width="88" height="79" viewBox="0 0 88 79" fill="none" xmlns="http://www.w3.org/2000/svg">
<path d="M68.6518 34.5316L25.0476 15.815C24.1411 15.4264 23.1838 15.1961 22.2303 15.1373C21.2768 15.0786 20.3459 15.1925 19.4905 15.4725C18.6352 15.7525 17.8723 16.1932 17.2454 16.7694C16.6185 17.3456 16.1399 18.0461 15.8368 18.8307L6.29262 43.5054C5.67983 45.0882 5.81863 46.918 6.67848 48.5924C7.53833 50.2668 9.04879 51.6486 10.8776 52.4338L54.4819 71.1503C56.3111 71.9343 58.3082 72.0582 60.035 71.4948C61.7618 70.9315 63.0773 69.727 63.693 68.1454L73.2368 43.46C73.541 42.6764 73.6636 41.8237 73.5977 40.9507C73.5318 40.0777 73.2788 39.2015 72.8529 38.3723C72.4271 37.543 71.8368 36.777 71.116 36.118C70.3951 35.459 69.5578 34.9199 68.6518 34.5316Z" fill="#E04B20"/>
<g filter="url(#filter0_d_544_12089)">
<path d="M21.8425 45.2579C21.2595 45.0211 20.75 44.7163 20.3143 44.3436C19.8884 43.9749 19.5479 43.566 19.2928 43.117C19.0336 42.6779 18.8797 42.2066 18.8308 41.7032C18.7879 41.2138 18.8668 40.722 19.0675 40.2278C19.1478 40.0302 19.267 39.7793 19.4251 39.4751C19.597 39.165 19.79 38.8174 20.004 38.4323C20.2279 38.0512 20.4607 37.6622 20.7025 37.2654L21.8755 37.949C21.5117 38.5611 21.1869 39.12 20.9009 39.6255C20.6249 40.1351 20.4407 40.5035 20.3483 40.7308C20.1717 41.1657 20.1338 41.5993 20.2345 42.0316C20.345 42.468 20.5747 42.8663 20.9234 43.2267C21.2819 43.5911 21.7429 43.8877 22.3062 44.1165L26.5013 45.8205C27.2425 46.1216 27.8831 46.1458 28.4233 45.8931C28.9692 45.6544 29.4068 45.1298 29.736 44.3194C29.8965 43.9241 29.9587 43.5867 29.9226 43.3073C29.8963 43.0318 29.7601 42.7577 29.514 42.485C29.2718 42.2025 28.9032 41.8628 28.4082 41.466C27.9446 41.105 27.5334 40.771 27.1745 40.4641C26.8296 40.1513 26.5519 39.8428 26.3416 39.5386C26.1353 39.2245 26.0162 38.8941 25.9844 38.5473C25.9566 38.1906 26.039 37.7751 26.2317 37.3007C26.4806 36.688 26.8158 36.2312 27.2373 35.9304C27.6588 35.6296 28.1469 35.4767 28.7015 35.4717C29.2661 35.4708 29.8893 35.6088 30.5712 35.8858C30.9072 36.0222 31.2826 36.2035 31.6973 36.4295C32.122 36.6596 32.7006 36.9925 33.4331 37.4282L32.8513 38.4353C32.1917 38.0752 31.6376 37.7811 31.1892 37.5529C30.7448 37.3148 30.3694 37.1336 30.0631 37.0091C29.6184 36.8285 29.2306 36.7343 28.8999 36.7266C28.5691 36.7189 28.2884 36.8006 28.0577 36.9717C27.8311 37.1329 27.6455 37.3914 27.501 37.7472C27.3846 38.0338 27.3376 38.2911 27.3602 38.519C27.3868 38.737 27.4797 38.9474 27.6391 39.1503C27.7984 39.3532 28.0063 39.5643 28.2626 39.7835C28.5329 39.9969 28.8436 40.2382 29.1947 40.5075C29.6129 40.8386 29.9776 41.1594 30.2889 41.4701C30.6002 41.7807 30.8382 42.1019 31.0028 42.4335C31.1773 42.7692 31.2635 43.1381 31.2614 43.5402C31.2632 43.9324 31.1618 44.3805 30.9571 44.8845C30.6801 45.5664 30.2969 46.113 29.8074 46.5244C29.3238 46.9497 28.7599 47.2042 28.1157 47.2879C27.4814 47.3757 26.7887 47.267 26.0377 46.9619L21.8425 45.2579ZM20.8203 48.0721L21.3803 46.6935L22.6403 47.2053L22.0804 48.5839L20.8203 48.0721ZM22.9401 48.9332L23.5001 47.5545L24.7601 48.0663L24.2002 49.445L22.9401 48.9332ZM47.1476 51.2536L47.6112 50.1122L49.2122 50.7625L48.7485 51.9039L47.1476 51.2536ZM48.7485 51.9039L49.2122 50.7625C49.2616 50.7825 49.3 50.8154 49.3275 50.8611C49.359 50.8969 49.3746 50.9436 49.3743 51.001C49.374 51.0585 49.3647 51.1238 49.3465 51.197C49.3382 51.2742 49.316 51.3573 49.2798 51.4462C49.2437 51.5351 49.1997 51.6151 49.1478 51.6862C49.1098 51.7513 49.0709 51.8046 49.0311 51.846C48.9913 51.8874 48.9456 51.9149 48.894 51.9284C48.8464 51.9322 48.7979 51.924 48.7485 51.9039ZM30.8356 48.5136C30.7071 48.4614 30.5777 48.3973 30.4474 48.3213C30.3031 48.2513 30.1639 48.1832 30.0295 48.1171L30.6117 47.0238C30.7461 47.0899 30.8755 47.154 30.9999 47.216C31.1105 47.284 31.2103 47.336 31.2992 47.3721C31.7538 47.5568 32.1897 47.5324 32.6069 47.2989C33.0241 47.0654 33.3572 46.6423 33.606 46.0296L36.713 38.3805L37.9878 38.8983L34.8809 46.5474C34.632 47.1601 34.2946 47.6505 33.8688 48.0187C33.4389 48.3967 32.9593 48.6279 32.43 48.7122C31.9106 48.8006 31.3791 48.7343 30.8356 48.5136ZM39.4392 48.1226L39.9028 46.9811L47.5519 50.0881L45.9802 50.6413L47.3711 47.217C47.62 46.6043 47.7407 46.0661 47.7332 45.6026C47.7298 45.1292 47.6002 44.7254 47.3445 44.3913C47.1027 44.0513 46.7298 43.7789 46.2258 43.5742C45.8008 43.4016 45.3705 43.3131 44.9347 43.3088C44.499 43.3045 44.0699 43.3547 43.6474 43.4594C43.2348 43.5682 42.832 43.7096 42.4388 43.8838C42.0596 44.0522 41.6982 44.2335 41.3544 44.4277C41.0206 44.626 40.7117 44.8056 40.4275 44.9665L40.4937 43.6982C40.893 43.4804 41.2854 43.2656 41.6708 43.0538C42.066 42.8459 42.4582 42.6598 42.8473 42.4955C43.2364 42.3312 43.6362 42.2115 44.0466 42.1364C44.457 42.0614 44.884 42.0448 45.3275 42.0868C45.7709 42.1288 46.2397 42.2501 46.7339 42.4508C47.4256 42.7318 47.9507 43.0832 48.3089 43.505C48.6712 43.917 48.9005 44.3728 48.9969 44.8725C49.0973 45.3623 49.1046 45.8545 49.0187 46.3493C48.9468 46.8381 48.8225 47.3 48.6459 47.7348L47.2069 51.2777L39.4392 48.1226ZM36.9281 41.5073L37.3977 40.351L40.5849 41.6456L40.1152 42.8018L36.9281 41.5073ZM38.1643 47.6048L41.1749 40.1929L42.4498 40.7107L39.4392 48.1226L38.1643 47.6048ZM48.7468 51.9032L49.2104 50.7618L55.7181 53.4051L55.1942 53.5895L56.6332 50.0466C56.8942 49.4042 56.8862 48.8426 56.6095 48.3618C56.3427 47.885 55.8041 47.482 54.9937 47.1528C54.7367 47.0485 54.3611 46.9247 53.8666 46.7814C53.3861 46.6323 52.8699 46.4859 52.318 46.3423L52.5852 45.2593C53.0306 45.325 53.5045 45.4197 54.0069 45.5432C54.5233 45.6608 55.0087 45.8119 55.4633 45.9966C56.2144 46.3017 56.8185 46.6852 57.2756 47.1472C57.7327 47.6091 58.0171 48.1276 58.1289 48.7027C58.2408 49.2777 58.1622 49.8962 57.8933 50.5584L56.129 54.9018L48.7468 51.9032ZM48.7468 51.9032C48.6875 51.8791 48.6421 51.8492 48.6106 51.8133C48.5831 51.7676 48.5695 51.7161 48.5698 51.6586C48.5701 51.6012 48.5794 51.5359 48.5976 51.4627C48.6198 51.3796 48.649 51.2936 48.6851 51.2046C48.7333 51.086 48.7833 50.9912 48.8352 50.9202C48.8772 50.8452 48.9329 50.793 49.0024 50.7636C49.062 50.7303 49.1314 50.7296 49.2104 50.7618L48.7468 51.9032Z" fill="white"/>
</g>
<path d="M50.059 7.83447L31.9644 20.3286L32.5541 21.1828L50.6488 8.68863L50.059 7.83447Z" fill="#E04B20"/>
<path d="M51.8147 8.61735L50.8335 8.95605L59.039 32.7264L60.0202 32.3877L51.8147 8.61735Z" fill="#E04B20"/>
<path d="M53.0652 9.22347C52.8398 9.63596 52.4972 9.97236 52.0807 10.1901C51.6642 10.4079 51.1925 10.4973 50.7251 10.447C50.2578 10.3967 49.8159 10.2089 49.4553 9.90748C49.0947 9.60602 48.8316 9.20437 48.6992 8.75337C48.5669 8.30237 48.5713 7.82226 48.7118 7.37373C48.8523 6.92521 49.1227 6.52844 49.4887 6.23357C49.8547 5.93871 50.3 5.759 50.7681 5.71718C51.2363 5.67536 51.7063 5.7733 52.1188 5.99862C52.3927 6.14823 52.6344 6.35031 52.8302 6.59334C53.026 6.83637 53.172 7.11559 53.2599 7.41505C53.3477 7.7145 53.3758 8.02834 53.3424 8.33863C53.309 8.64892 53.2148 8.94959 53.0652 9.22347Z" fill="#1F1F38"/>
<path d="M52.141 8.71081C52.0151 8.94123 51.8237 9.12917 51.5911 9.25084C51.3584 9.3725 51.0949 9.42243 50.8338 9.39432C50.5727 9.36621 50.3259 9.26132 50.1244 9.09291C49.923 8.92451 49.776 8.70015 49.7021 8.44821C49.6282 8.19627 49.6306 7.92807 49.7091 7.67751C49.7876 7.42696 49.9386 7.20531 50.1431 7.0406C50.3476 6.87588 50.5963 6.77549 50.8578 6.75212C51.1193 6.72876 51.3819 6.78348 51.6123 6.90935C51.9192 7.08022 52.1466 7.36485 52.2455 7.70186C52.3444 8.03886 52.3068 8.40122 52.141 8.71081Z" fill="#E04B20"/>
<defs>
<filter id="filter0_d_544_12089" x="12.6606" y="32.4897" width="50.3991" height="36.7004" filterUnits="userSpaceOnUse" color-interpolation-filters="sRGB">
<feFlood flood-opacity="0" result="BackgroundImageFix"/>
<feColorMatrix in="SourceAlpha" type="matrix" values="0 0 0 0 0 0 0 0 0 0 0 0 0 0 0 0 0 0 127 0" result="hardAlpha"/>
<feOffset dy="3.92"/>
<feGaussianBlur stdDeviation="1.96"/>
<feComposite in2="hardAlpha" operator="out"/>
<feColorMatrix type="matrix" values="0 0 0 0 0 0 0 0 0 0 0 0 0 0 0 0 0 0 0.25 0"/>
<feBlend mode="normal" in2="BackgroundImageFix" result="effect1_dropShadow_544_12089"/>
<feBlend mode="normal" in="SourceGraphic" in2="effect1_dropShadow_544_12089" result="shape"/>
</filter>
</defs>
</svg>
