<svg width="88" height="82" viewBox="0 0 88 82" fill="none" xmlns="http://www.w3.org/2000/svg">
<path d="M68.6518 37.5858L25.0476 18.8692C24.1411 18.4806 23.1838 18.2503 22.2303 18.1915C21.2768 18.1328 20.3459 18.2467 19.4905 18.5267C18.6352 18.8067 17.8723 19.2474 17.2454 19.8236C16.6185 20.3998 16.1399 21.1003 15.8368 21.8849L6.29262 46.5596C5.67983 48.1424 5.81863 49.9722 6.67848 51.6466C7.53833 53.321 9.04879 54.7028 10.8776 55.488L54.4819 74.2045C56.3111 74.9885 58.3082 75.1124 60.035 74.549C61.7618 73.9857 63.0773 72.7812 63.693 71.1996L73.2368 46.5142C73.541 45.7306 73.6636 44.8779 73.5977 44.0049C73.5318 43.1319 73.2788 42.2557 72.8529 41.4265C72.4271 40.5972 71.8368 39.8312 71.116 39.1722C70.3951 38.5132 69.5578 37.9741 68.6518 37.5858Z" fill="#85867A"/>
<g filter="url(#filter0_d_544_20016)">
<path d="M21.8425 48.3121C21.2595 48.0753 20.75 47.7705 20.3143 47.3978C19.8884 47.0291 19.5479 46.6202 19.2928 46.1712C19.0336 45.7321 18.8797 45.2608 18.8308 44.7574C18.7879 44.268 18.8668 43.7762 19.0675 43.282C19.1478 43.0844 19.267 42.8335 19.4251 42.5293C19.597 42.2192 19.79 41.8716 20.004 41.4865C20.2279 41.1054 20.4607 40.7164 20.7025 40.3196L21.8755 41.0032C21.5117 41.6153 21.1869 42.1742 20.9009 42.6797C20.6249 43.1893 20.4407 43.5577 20.3483 43.785C20.1717 44.2199 20.1338 44.6535 20.2345 45.0858C20.345 45.5222 20.5747 45.9205 20.9234 46.2809C21.2819 46.6453 21.7429 46.9419 22.3062 47.1707L26.5013 48.8747C27.2425 49.1758 27.8831 49.2 28.4233 48.9473C28.9692 48.7086 29.4068 48.184 29.736 47.3736C29.8965 46.9783 29.9587 46.6409 29.9226 46.3615C29.8963 46.086 29.7601 45.8119 29.514 45.5392C29.2718 45.2567 28.9032 44.917 28.4082 44.5202C27.9446 44.1592 27.5334 43.8252 27.1745 43.5183C26.8296 43.2055 26.5519 42.897 26.3416 42.5928C26.1353 42.2787 26.0162 41.9483 25.9844 41.6015C25.9566 41.2448 26.039 40.8293 26.2317 40.3549C26.4806 39.7422 26.8158 39.2854 27.2373 38.9846C27.6588 38.6838 28.1469 38.5309 28.7015 38.5259C29.2661 38.525 29.8893 38.663 30.5712 38.94C30.9072 39.0764 31.2826 39.2577 31.6973 39.4837C32.122 39.7138 32.7006 40.0467 33.4331 40.4824L32.8513 41.4895C32.1917 41.1294 31.6376 40.8353 31.1892 40.6071C30.7448 40.369 30.3694 40.1878 30.0631 40.0633C29.6184 39.8827 29.2306 39.7885 28.8999 39.7808C28.5691 39.7731 28.2884 39.8548 28.0577 40.0259C27.8311 40.1871 27.6455 40.4456 27.501 40.8014C27.3846 41.088 27.3376 41.3453 27.3602 41.5732C27.3868 41.7912 27.4797 42.0016 27.6391 42.2045C27.7984 42.4074 28.0063 42.6185 28.2626 42.8377C28.5329 43.0511 28.8436 43.2924 29.1947 43.5617C29.6129 43.8928 29.9776 44.2136 30.2889 44.5243C30.6002 44.8349 30.8382 45.1561 31.0028 45.4877C31.1773 45.8234 31.2635 46.1923 31.2614 46.5944C31.2632 46.9866 31.1618 47.4347 30.9571 47.9387C30.6801 48.6206 30.2969 49.1672 29.8074 49.5786C29.3238 50.0039 28.7599 50.2584 28.1157 50.3421C27.4814 50.4299 26.7887 50.3212 26.0377 50.0161L21.8425 48.3121ZM20.8203 51.1263L21.3803 49.7477L22.6403 50.2595L22.0804 51.6381L20.8203 51.1263ZM22.9401 51.9874L23.5001 50.6087L24.7601 51.1205L24.2002 52.4992L22.9401 51.9874ZM47.1476 54.3078L47.6112 53.1664L49.2122 53.8167L48.7485 54.9581L47.1476 54.3078ZM48.7485 54.9581L49.2122 53.8167C49.2616 53.8367 49.3 53.8696 49.3275 53.9153C49.359 53.9511 49.3746 53.9978 49.3743 54.0552C49.374 54.1127 49.3647 54.178 49.3465 54.2512C49.3382 54.3284 49.316 54.4115 49.2798 54.5004C49.2437 54.5893 49.1997 54.6693 49.1478 54.7404C49.1098 54.8055 49.0709 54.8588 49.0311 54.9002C48.9913 54.9416 48.9456 54.969 48.894 54.9826C48.8464 54.9863 48.7979 54.9782 48.7485 54.9581ZM30.8356 51.5678C30.7071 51.5156 30.5777 51.4515 30.4474 51.3755C30.3031 51.3055 30.1639 51.2374 30.0295 51.1713L30.6117 50.078C30.7461 50.1441 30.8755 50.2082 30.9999 50.2702C31.1105 50.3382 31.2103 50.3902 31.2992 50.4263C31.7538 50.611 32.1897 50.5866 32.6069 50.3531C33.0241 50.1196 33.3572 49.6965 33.606 49.0838L36.713 41.4347L37.9878 41.9525L34.8809 49.6016C34.632 50.2143 34.2946 50.7047 33.8688 51.0729C33.4389 51.4509 32.9593 51.6821 32.43 51.7664C31.9106 51.8548 31.3791 51.7885 30.8356 51.5678ZM39.4392 51.1768L39.9028 50.0353L47.5519 53.1423L45.9802 53.6955L47.3711 50.2712C47.62 49.6585 47.7407 49.1203 47.7332 48.6568C47.7298 48.1834 47.6002 47.7796 47.3445 47.4455C47.1027 47.1055 46.7298 46.8331 46.2258 46.6284C45.8008 46.4558 45.3705 46.3673 44.9347 46.363C44.499 46.3587 44.0699 46.4089 43.6474 46.5136C43.2348 46.6224 42.832 46.7638 42.4388 46.938C42.0596 47.1064 41.6982 47.2877 41.3544 47.4819C41.0206 47.6802 40.7117 47.8598 40.4275 48.0207L40.4937 46.7524C40.893 46.5346 41.2854 46.3198 41.6708 46.108C42.066 45.9001 42.4582 45.714 42.8473 45.5497C43.2364 45.3854 43.6362 45.2657 44.0466 45.1906C44.457 45.1156 44.884 45.099 45.3275 45.141C45.7709 45.183 46.2397 45.3043 46.7339 45.505C47.4256 45.786 47.9507 46.1374 48.3089 46.5592C48.6712 46.9712 48.9005 47.427 48.9969 47.9267C49.0973 48.4165 49.1046 48.9087 49.0187 49.4035C48.9468 49.8923 48.8225 50.3542 48.6459 50.789L47.2069 54.3319L39.4392 51.1768ZM36.9281 44.5615L37.3977 43.4052L40.5849 44.6998L40.1152 45.856L36.9281 44.5615ZM38.1643 50.659L41.1749 43.2471L42.4498 43.7649L39.4392 51.1768L38.1643 50.659ZM48.7468 54.9574L49.2104 53.816L55.7181 56.4593L55.1942 56.6437L56.6332 53.1008C56.8942 52.4584 56.8862 51.8968 56.6095 51.416C56.3427 50.9392 55.8041 50.5362 54.9937 50.207C54.7367 50.1027 54.3611 49.9789 53.8666 49.8356C53.3861 49.6865 52.8699 49.5401 52.318 49.3965L52.5852 48.3135C53.0306 48.3792 53.5045 48.4739 54.0069 48.5974C54.5233 48.715 55.0087 48.8661 55.4633 49.0508C56.2144 49.3559 56.8185 49.7394 57.2756 50.2014C57.7327 50.6633 58.0171 51.1818 58.1289 51.7569C58.2408 52.3319 58.1622 52.9504 57.8933 53.6126L56.129 57.956L48.7468 54.9574ZM48.7468 54.9574C48.6875 54.9333 48.6421 54.9034 48.6106 54.8675C48.5831 54.8218 48.5695 54.7703 48.5698 54.7128C48.5701 54.6554 48.5794 54.5901 48.5976 54.5169C48.6198 54.4338 48.649 54.3478 48.6851 54.2588C48.7333 54.1402 48.7833 54.0454 48.8352 53.9744C48.8772 53.8994 48.9329 53.8472 49.0024 53.8178C49.062 53.7845 49.1314 53.7838 49.2104 53.816L48.7468 54.9574Z" fill="#1A2626"/>
</g>
<path d="M50.059 10.8887L31.9644 23.3828L32.5541 24.237L50.6488 11.7428L50.059 10.8887Z" fill="#85867A"/>
<path d="M51.8147 11.6715L50.8335 12.0103L59.039 35.7806L60.0202 35.4419L51.8147 11.6715Z" fill="#85867A"/>
<path d="M53.0652 12.2777C52.8398 12.6902 52.4972 13.0266 52.0807 13.2443C51.6642 13.4621 51.1925 13.5515 50.7251 13.5012C50.2578 13.4509 49.8159 13.2631 49.4553 12.9617C49.0947 12.6602 48.8316 12.2586 48.6992 11.8076C48.5669 11.3566 48.5713 10.8765 48.7118 10.4279C48.8523 9.97941 49.1227 9.58264 49.4887 9.28777C49.8547 8.99291 50.3 8.8132 50.7681 8.77138C51.2363 8.72956 51.7063 8.8275 52.1188 9.05282C52.3927 9.20243 52.6344 9.40451 52.8302 9.64754C53.026 9.89057 53.172 10.1698 53.2599 10.4692C53.3477 10.7687 53.3758 11.0825 53.3424 11.3928C53.309 11.7031 53.2148 12.0038 53.0652 12.2777Z" fill="#1F1F38"/>
<path d="M52.141 11.765C52.0151 11.9954 51.8237 12.1834 51.5911 12.305C51.3584 12.4267 51.0949 12.4766 50.8338 12.4485C50.5727 12.4204 50.3259 12.3155 50.1244 12.1471C49.923 11.9787 49.776 11.7544 49.7021 11.5024C49.6282 11.2505 49.6306 10.9823 49.7091 10.7317C49.7876 10.4812 49.9386 10.2595 50.1431 10.0948C50.3476 9.93008 50.5963 9.82968 50.8578 9.80632C51.1193 9.78296 51.3819 9.83768 51.6123 9.96355C51.9192 10.1344 52.1466 10.4191 52.2455 10.7561C52.3444 11.0931 52.3068 11.4554 52.141 11.765Z" fill="#85867A"/>
<defs>
<filter id="filter0_d_544_20016" x="12.6606" y="35.5439" width="50.3991" height="36.7004" filterUnits="userSpaceOnUse" color-interpolation-filters="sRGB">
<feFlood flood-opacity="0" result="BackgroundImageFix"/>
<feColorMatrix in="SourceAlpha" type="matrix" values="0 0 0 0 0 0 0 0 0 0 0 0 0 0 0 0 0 0 127 0" result="hardAlpha"/>
<feOffset dy="3.92"/>
<feGaussianBlur stdDeviation="1.96"/>
<feComposite in2="hardAlpha" operator="out"/>
<feColorMatrix type="matrix" values="0 0 0 0 0 0 0 0 0 0 0 0 0 0 0 0 0 0 0.25 0"/>
<feBlend mode="normal" in2="BackgroundImageFix" result="effect1_dropShadow_544_20016"/>
<feBlend mode="normal" in="SourceGraphic" in2="effect1_dropShadow_544_20016" result="shape"/>
</filter>
</defs>
</svg>
