<svg width="204" height="218" viewBox="0 0 204 218" fill="none" xmlns="http://www.w3.org/2000/svg">
<g filter="url(#filter0_i_6_3259)">
<g clip-path="url(#clip0_6_3259)">
<rect width="204" height="217.522" rx="29.3948" transform="matrix(-1 0 0 1 204 0.00183105)" fill="#FFB81B"/>
</g>
<rect x="-0.293948" y="0.293948" width="203.412" height="216.934" rx="29.1009" transform="matrix(-1 0 0 1 203.412 0.00183105)" stroke="#FFB81B" stroke-width="0.587896"/>
</g>
<rect x="1.17579" y="1.17762" width="201.648" height="215.17" rx="28.219" fill="#FFB81B"/>
<rect x="1.17579" y="1.17762" width="201.648" height="215.17" rx="28.219" stroke="#FFB81B" stroke-width="2.35158"/>
<path d="M182.294 28.7627H22.2939V188.763H182.294V28.7627Z" fill="#FFB81B"/>
<path d="M161.646 77.3489V131.317H148.381V124.374L139.463 130.814H134.703L141.214 137.325C141.421 137.532 141.421 137.864 141.214 138.062L134.667 144.609C134.568 144.708 134.433 144.762 134.299 144.762C134.164 144.762 134.029 144.708 133.93 144.609L129.907 140.585L125.883 144.609C125.784 144.708 125.65 144.762 125.515 144.762C125.38 144.762 125.245 144.708 125.147 144.609L118.599 138.062C118.393 137.864 118.393 137.532 118.599 137.325L125.111 130.814H67.4784C67.191 130.814 66.9575 130.58 66.9575 130.293V123.557L60.4102 130.814H42.9238V99.5773L55.2999 105.451V101.984H59.1978L55.4257 98.2122L51.4021 102.236C51.2943 102.344 51.1686 102.388 51.0339 102.388C50.8992 102.388 50.7645 102.344 50.6657 102.236L44.1183 95.6884C43.9118 95.4819 43.9118 95.1496 44.1183 94.952L50.6657 88.4047C50.8633 88.2071 51.2135 88.2071 51.4111 88.4047L55.4347 92.4283L59.4582 88.4047C59.6558 88.2071 59.9971 88.2071 60.1947 88.4047L66.742 94.952C66.8408 95.0508 66.8946 95.1855 66.8946 95.3202C66.8946 95.4549 66.8408 95.5896 66.742 95.6884L60.4461 101.984H66.8138C66.8677 101.984 66.9216 101.984 66.9755 102.011V72.9211H80.2497V92.8953H102.676V97.7631H124.931V95.2124H136.176V75.6873H148.399V72.7056L161.664 77.3219L161.646 77.3489Z" fill="#E04B20" stroke="#EAE1C5" stroke-width="0.261053" stroke-miterlimit="10"/>
<path d="M148.379 72.736V131.329H161.645V77.3613L148.379 72.7449V72.736ZM160.603 130.278H149.421V74.2089L160.603 78.0977V130.278Z" fill="#EAE1C5"/>
<path d="M80.2311 72.9514V119.33C80.2311 119.618 79.9975 119.851 79.7101 119.851C79.4227 119.851 79.1892 119.618 79.1892 119.33V74.0022H68.0077V130.314C68.0077 130.602 67.7741 130.835 67.4867 130.835C67.1993 130.835 66.9658 130.602 66.9658 130.314V72.9604H80.2401L80.2311 72.9514Z" fill="#EAE1C5"/>
<path d="M149.431 75.718V123.633L148.389 124.387L139.471 130.827H67.4955C67.2081 130.827 66.9746 130.593 66.9746 130.306C66.9746 130.018 67.2081 129.785 67.4955 129.785H139.13L148.389 123.094V76.7598H137.208V119.322C137.208 119.609 136.974 119.843 136.687 119.843C136.399 119.843 136.166 119.609 136.166 119.322V75.718H149.44H149.431Z" fill="#EAE1C5"/>
<path d="M136.938 95.7646C136.938 96.052 136.704 96.2855 136.417 96.2855H125.963V119.322C125.963 119.61 125.729 119.843 125.442 119.843C125.154 119.843 124.921 119.61 124.921 119.322V95.2347H136.426C136.713 95.2347 136.947 95.4682 136.947 95.7556L136.938 95.7646Z" fill="#EAE1C5"/>
<path d="M67.3249 102.534C67.3249 102.768 67.1722 102.966 66.9657 103.028C66.9118 103.046 66.8579 103.055 66.804 103.055H56.3499V119.329C56.3499 119.617 56.1164 119.85 55.829 119.85C55.5416 119.85 55.3081 119.617 55.3081 119.329V102.014H66.813C66.8669 102.014 66.9208 102.014 66.9747 102.04C67.1902 102.103 67.3339 102.301 67.3339 102.534H67.3249Z" fill="#EAE1C5"/>
<path d="M67.7739 122.672L66.9565 123.571L60.4093 130.827H42.9229V99.5907L55.299 105.464L56.0444 105.815C56.233 105.905 56.3408 106.093 56.3408 106.282C56.3408 106.354 56.3228 106.434 56.2869 106.506C56.1611 106.767 55.8558 106.883 55.5864 106.758L55.29 106.614L43.9647 101.234V129.768H59.9422L66.9565 121.999L66.9925 121.954C67.1811 121.738 67.5134 121.72 67.729 121.918C67.9445 122.116 67.9535 122.439 67.7649 122.654L67.7739 122.672Z" fill="#EAE1C5"/>
<path d="M141.214 137.337L134.703 130.826L134.667 130.799C134.469 130.601 134.128 130.601 133.93 130.799L133.903 130.826L129.916 134.813L129.179 135.55L129.916 136.286L130.652 135.55L134.307 131.894L140.118 137.696L134.307 143.507L130.652 139.852L129.916 140.588L133.939 144.612C134.047 144.71 134.173 144.764 134.307 144.764C134.442 144.764 134.577 144.71 134.676 144.612L141.223 138.064C141.43 137.867 141.43 137.534 141.223 137.328L141.214 137.337Z" fill="#EAE1C5"/>
<path d="M129.169 135.558L129.906 136.295L130.642 135.558L129.906 134.822L125.909 130.834L125.882 130.807C125.685 130.609 125.335 130.609 125.146 130.807L125.119 130.834L118.608 137.345C118.401 137.552 118.401 137.884 118.608 138.082L125.155 144.629C125.254 144.728 125.388 144.782 125.523 144.782C125.658 144.782 125.793 144.728 125.891 144.629L129.915 140.605L129.178 139.869L125.523 143.524L119.721 137.714L125.523 131.912L129.178 135.567L129.169 135.558Z" fill="#EAE1C5"/>
<path d="M66.722 94.9721L60.1747 88.4248C59.9771 88.2272 59.6268 88.2272 59.4382 88.4248L55.4147 92.4484L54.6782 93.1848L55.4147 93.9213L56.1512 93.1848L59.8065 89.5295L65.6083 95.3403L59.8065 101.142L56.1512 97.4868L55.4147 96.7504L54.6782 97.4868L55.4147 98.2233L59.1868 101.995L59.4382 102.247C59.537 102.355 59.6718 102.4 59.8065 102.4C59.9412 102.4 60.0759 102.355 60.1747 102.247L60.4262 101.995L66.722 95.6996C66.8208 95.6008 66.8747 95.4661 66.8747 95.3313C66.8747 95.1966 66.8208 95.0619 66.722 94.9631V94.9721Z" fill="#EAE1C5"/>
<path d="M54.6786 97.495L51.0232 101.15L45.2124 95.3485L51.0232 89.5377L55.4151 93.9295L56.1515 93.193L55.4151 92.4566L51.3915 88.433C51.1939 88.2354 50.8436 88.2354 50.646 88.433L44.0988 94.9803C43.8922 95.1868 43.8922 95.5101 44.0988 95.7167L50.646 102.264C50.7448 102.372 50.8795 102.417 51.0142 102.417C51.149 102.417 51.2837 102.372 51.3825 102.264L56.1425 97.504L55.4061 96.7675L54.6696 97.504L54.6786 97.495Z" fill="#EAE1C5"/>
<path d="M102.666 92.9268V119.852H90.64V110.009C90.64 109.722 90.8735 109.488 91.1609 109.488C91.4483 109.488 91.6818 109.722 91.6818 110.009V118.802H101.615V93.9686H79.7099C79.4225 93.9686 79.189 93.7351 79.189 93.4477C79.189 93.1603 79.4225 92.9268 79.7099 92.9268H102.657H102.666Z" fill="#EAE1C5"/>
<path d="M91.781 114.921C91.5924 114.921 91.4127 114.822 91.3229 114.643C91.1882 114.391 91.278 114.068 91.5384 113.933L101.894 108.365C102.145 108.23 102.469 108.32 102.603 108.58C102.738 108.832 102.648 109.155 102.388 109.29L92.0325 114.858C91.9516 114.903 91.8708 114.921 91.781 114.921Z" fill="#EAE1C5"/>
<path d="M113.766 119.85C113.479 119.85 113.245 119.616 113.245 119.329V110.015C113.245 109.728 113.479 109.495 113.766 109.495C114.053 109.495 114.287 109.728 114.287 110.015V119.329C114.287 119.616 114.053 119.85 113.766 119.85Z" fill="#EAE1C5"/>
<path d="M125.964 98.324C125.964 98.6114 125.73 98.8449 125.443 98.8449H102.146C101.858 98.8449 101.625 98.6114 101.625 98.324C101.625 98.0366 101.858 97.8031 102.146 97.8031H125.443C125.73 97.8031 125.964 98.0366 125.964 98.324Z" fill="#EAE1C5"/>
<defs>
<filter id="filter0_i_6_3259" x="0" y="-1.76186" width="205.764" height="219.285" filterUnits="userSpaceOnUse" color-interpolation-filters="sRGB">
<feFlood flood-opacity="0" result="BackgroundImageFix"/>
<feBlend mode="normal" in="SourceGraphic" in2="BackgroundImageFix" result="shape"/>
<feColorMatrix in="SourceAlpha" type="matrix" values="0 0 0 0 0 0 0 0 0 0 0 0 0 0 0 0 0 0 127 0" result="hardAlpha"/>
<feMorphology radius="1.76369" operator="erode" in="SourceAlpha" result="effect1_innerShadow_6_3259"/>
<feOffset dx="1.76369" dy="-1.76369"/>
<feGaussianBlur stdDeviation="3.82133"/>
<feComposite in2="hardAlpha" operator="arithmetic" k2="-1" k3="1"/>
<feColorMatrix type="matrix" values="0 0 0 0 1 0 0 0 0 0.721569 0 0 0 0 0.105882 0 0 0 1 0"/>
<feBlend mode="normal" in2="shape" result="effect1_innerShadow_6_3259"/>
</filter>
<clipPath id="clip0_6_3259">
<rect width="204" height="217.522" rx="29.3948" transform="matrix(-1 0 0 1 204 0.00183105)" fill="white"/>
</clipPath>
</defs>
</svg>
