<svg width="161" height="161" viewBox="0 0 161 161" fill="none" xmlns="http://www.w3.org/2000/svg">
<path d="M160.294 0.762695H0.293945V160.763H160.294V0.762695Z" fill="#FFB81B"/>
<path d="M139.646 49.3489V103.317H126.381V96.3744L117.463 102.814H112.703L119.214 109.325C119.421 109.532 119.421 109.864 119.214 110.062L112.667 116.609C112.568 116.708 112.433 116.762 112.299 116.762C112.164 116.762 112.029 116.708 111.93 116.609L107.907 112.586L103.883 116.609C103.784 116.708 103.65 116.762 103.515 116.762C103.38 116.762 103.245 116.708 103.147 116.609L96.5994 110.062C96.3928 109.864 96.3928 109.532 96.5994 109.325L103.111 102.814H45.4784C45.191 102.814 44.9575 102.58 44.9575 102.293V95.5572L38.4102 102.814H20.9238V71.5774L33.2999 77.4511V73.9843H37.1978L33.4257 70.2122L29.4021 74.2358C29.2943 74.3436 29.1686 74.3885 29.0339 74.3885C28.8992 74.3885 28.7645 74.3436 28.6657 74.2358L22.1183 67.6885C21.9118 67.4819 21.9118 67.1497 22.1183 66.9521L28.6657 60.4048C28.8633 60.2072 29.2135 60.2072 29.4111 60.4048L33.4347 64.4283L37.4582 60.4048C37.6558 60.2072 37.9971 60.2072 38.1947 60.4048L44.742 66.9521C44.8408 67.0509 44.8946 67.1856 44.8946 67.3203C44.8946 67.455 44.8408 67.5897 44.742 67.6885L38.4461 73.9843H44.8138C44.8677 73.9843 44.9216 73.9843 44.9755 74.0113V44.9212H58.2497V64.8954H80.6757V69.7632H102.931V67.2125H114.176V47.6874H126.399V44.7056L139.664 49.322L139.646 49.3489Z" fill="#E04B20" stroke="#EAE1C5" stroke-width="0.261053" stroke-miterlimit="10"/>
<path d="M126.379 44.736V103.329H139.645V49.3613L126.379 44.745V44.736ZM138.603 102.279H127.421V46.2089L138.603 50.0978V102.279Z" fill="#EAE1C5"/>
<path d="M58.2313 44.9514V91.3303C58.2313 91.6177 57.9978 91.8512 57.7104 91.8512C57.423 91.8512 57.1895 91.6177 57.1895 91.3303V46.0022H46.0079V102.314C46.0079 102.602 45.7744 102.835 45.487 102.835C45.1996 102.835 44.9661 102.602 44.9661 102.314V44.9604H58.2403L58.2313 44.9514Z" fill="#EAE1C5"/>
<path d="M127.431 47.7181V95.6328L126.389 96.3872L117.471 102.827H45.4955C45.2081 102.827 44.9746 102.593 44.9746 102.306C44.9746 102.018 45.2081 101.785 45.4955 101.785H117.13L126.389 95.0939V48.7599H115.208V91.3218C115.208 91.6092 114.974 91.8427 114.687 91.8427C114.399 91.8427 114.166 91.6092 114.166 91.3218V47.7181H127.44H127.431Z" fill="#EAE1C5"/>
<path d="M114.938 67.7648C114.938 68.0521 114.704 68.2856 114.417 68.2856H103.963V91.3224C103.963 91.6098 103.729 91.8433 103.442 91.8433C103.154 91.8433 102.921 91.6098 102.921 91.3224V67.2349H114.426C114.713 67.2349 114.947 67.4684 114.947 67.7558L114.938 67.7648Z" fill="#EAE1C5"/>
<path d="M45.3249 74.5345C45.3249 74.768 45.1722 74.9656 44.9657 75.0285C44.9118 75.0465 44.8579 75.0554 44.804 75.0554H34.3499V91.3294C34.3499 91.6168 34.1164 91.8503 33.829 91.8503C33.5416 91.8503 33.3081 91.6168 33.3081 91.3294V74.0136H44.813C44.8669 74.0136 44.9208 74.0136 44.9747 74.0406C45.1902 74.1034 45.3339 74.301 45.3339 74.5345H45.3249Z" fill="#EAE1C5"/>
<path d="M45.7739 94.6725L44.9565 95.5706L38.4093 102.827H20.9229V71.5908L33.299 77.4645L34.0444 77.8148C34.233 77.9046 34.3408 78.0932 34.3408 78.2818C34.3408 78.3537 34.3228 78.4345 34.2869 78.5064C34.1611 78.7668 33.8558 78.8836 33.5864 78.7578L33.29 78.6141L21.9647 73.2344V101.768H37.9422L44.9565 93.9989L44.9925 93.954C45.1811 93.7385 45.5134 93.7205 45.729 93.9181C45.9445 94.1157 45.9535 94.439 45.7649 94.6546L45.7739 94.6725Z" fill="#EAE1C5"/>
<path d="M119.214 109.337L112.702 102.826L112.666 102.799C112.469 102.601 112.128 102.601 111.93 102.799L111.903 102.826L107.915 106.813L107.179 107.55L107.915 108.286L108.652 107.55L112.307 103.894L118.118 109.696L112.307 115.507L108.652 111.852L107.915 112.588L111.939 116.612C112.047 116.711 112.172 116.764 112.307 116.764C112.442 116.764 112.577 116.711 112.675 116.612L119.223 110.065C119.429 109.867 119.429 109.535 119.223 109.328L119.214 109.337Z" fill="#EAE1C5"/>
<path d="M107.17 107.558L107.906 108.295L108.643 107.558L107.906 106.822L103.91 102.834L103.883 102.807C103.685 102.609 103.335 102.609 103.146 102.807L103.119 102.834L96.6078 109.345C96.4012 109.552 96.4012 109.884 96.6078 110.082L103.155 116.629C103.254 116.728 103.389 116.782 103.523 116.782C103.658 116.782 103.793 116.728 103.892 116.629L107.915 112.606L107.179 111.869L103.523 115.524L97.7215 109.714L103.523 103.912L107.179 107.567L107.17 107.558Z" fill="#EAE1C5"/>
<path d="M44.722 66.9722L38.1747 60.4249C37.9771 60.2273 37.6268 60.2273 37.4382 60.4249L33.4147 64.4484L32.6782 65.1849L33.4147 65.9214L34.1512 65.1849L37.8065 61.5296L43.6083 67.3404L37.8065 73.1422L34.1512 69.4869L33.4147 68.7504L32.6782 69.4869L33.4147 70.2233L37.1868 73.9955L37.4382 74.2469C37.537 74.3547 37.6718 74.3996 37.8065 74.3996C37.9412 74.3996 38.0759 74.3547 38.1747 74.2469L38.4262 73.9955L44.722 67.6996C44.8208 67.6008 44.8747 67.4661 44.8747 67.3314C44.8747 67.1967 44.8208 67.062 44.722 66.9632V66.9722Z" fill="#EAE1C5"/>
<path d="M32.6786 69.4951L29.0232 73.1505L23.2124 67.3486L29.0232 61.5378L33.4151 65.9296L34.1515 65.1931L33.4151 64.4567L29.3915 60.4331C29.1939 60.2355 28.8436 60.2355 28.646 60.4331L22.0988 66.9804C21.8922 67.187 21.8922 67.5103 22.0988 67.7168L28.646 74.2641C28.7448 74.3719 28.8795 74.4168 29.0142 74.4168C29.149 74.4168 29.2837 74.3719 29.3825 74.2641L34.1425 69.5041L33.4061 68.7677L32.6696 69.5041L32.6786 69.4951Z" fill="#EAE1C5"/>
<path d="M80.6658 64.9268V91.8524H68.64V82.009C68.64 81.7216 68.8735 81.4881 69.1609 81.4881C69.4483 81.4881 69.6818 81.7216 69.6818 82.009V90.8016H79.615V65.9686H57.7099C57.4225 65.9686 57.189 65.7351 57.189 65.4477C57.189 65.1603 57.4225 64.9268 57.7099 64.9268H80.6568H80.6658Z" fill="#EAE1C5"/>
<path d="M69.7812 86.9212C69.5926 86.9212 69.413 86.8224 69.3232 86.6427C69.1884 86.3913 69.2782 86.0679 69.5387 85.9332L79.894 80.3649C80.1455 80.2302 80.4688 80.32 80.6035 80.5804C80.7382 80.8319 80.6484 81.1552 80.388 81.29L70.0327 86.8583C69.9519 86.9032 69.871 86.9212 69.7812 86.9212Z" fill="#EAE1C5"/>
<path d="M91.7657 91.8499C91.4783 91.8499 91.2449 91.6164 91.2449 91.329V82.0155C91.2449 81.7281 91.4783 81.4946 91.7657 81.4946C92.0531 81.4946 92.2867 81.7281 92.2867 82.0155V91.329C92.2867 91.6164 92.0531 91.8499 91.7657 91.8499Z" fill="#EAE1C5"/>
<path d="M103.964 70.324C103.964 70.6114 103.73 70.8449 103.443 70.8449H80.1456C79.8582 70.8449 79.6248 70.6114 79.6248 70.324C79.6248 70.0366 79.8582 69.8031 80.1456 69.8031H103.443C103.73 69.8031 103.964 70.0366 103.964 70.324Z" fill="#EAE1C5"/>
</svg>
