<svg width="161" height="161" viewBox="0 0 161 161" fill="none" xmlns="http://www.w3.org/2000/svg">
<path d="M160.294 0.762817H0.293945V160.763H160.294V0.762817Z" fill="#E04B20"/>
<path d="M26.5012 56.0079H18.6606V47.835H26.5012V39.9944H34.6741V47.835H42.5057V56.0079H34.6741V63.8485H26.5012V56.0079Z" fill="#4EA9B4" stroke="#EAE1C5" stroke-width="0.261053" stroke-miterlimit="10"/>
<path d="M141.936 54.0491V108.053H128.653V101.111L119.726 107.559H114.966L121.486 114.079C121.692 114.286 121.692 114.618 121.486 114.825L114.93 121.372C114.831 121.471 114.705 121.525 114.561 121.525C114.418 121.525 114.292 121.471 114.193 121.372L110.17 117.349L106.146 121.372C106.047 121.471 105.912 121.525 105.778 121.525C105.643 121.525 105.508 121.471 105.41 121.372L98.8623 114.825C98.6557 114.618 98.6557 114.286 98.8623 114.079L105.374 107.559H47.7054C47.418 107.559 47.1845 107.326 47.1845 107.038V100.302L40.6282 107.559H23.1328V76.3045L35.5179 82.1782V78.7115H39.4157L35.6347 74.9394L31.6111 78.9629C31.5123 79.0617 31.3775 79.1156 31.2428 79.1156C31.0991 79.1156 30.9734 79.0617 30.8656 78.9629L24.3183 72.4067C24.1118 72.2091 24.1118 71.8768 24.3183 71.6702L30.8656 65.1229C31.0722 64.9163 31.4045 64.9163 31.6111 65.1229L35.6347 69.1465L39.6672 65.1229C39.8648 64.9163 40.1971 64.9163 40.4037 65.1229L46.9509 71.6702C47.0497 71.769 47.1036 71.9037 47.1036 72.0384C47.1036 72.1731 47.0497 72.3079 46.9509 72.4067L40.6551 78.7115H47.0318C47.0857 78.7115 47.1396 78.7115 47.1934 78.7384V49.6304H60.4766V69.6225H82.9206V74.4903H105.194V71.9307H116.438V52.3876H128.671V49.4058L141.954 54.0311L141.936 54.0491Z" fill="#4EA9B4" stroke="#4EA9B4" stroke-width="0.261053" stroke-miterlimit="10"/>
<path d="M128.654 49.4235V108.062H141.937V54.0578L128.654 49.4325V49.4235ZM140.886 107.011H129.696V50.8964L140.886 54.7942V107.011Z" fill="white"/>
<path d="M60.45 49.6389V96.0537C60.45 96.3411 60.2165 96.5746 59.9291 96.5746C59.6417 96.5746 59.4082 96.3411 59.4082 96.0537V50.6897H48.2176V107.038C48.2176 107.325 47.9841 107.559 47.6967 107.559C47.4093 107.559 47.1758 107.325 47.1758 107.038V49.6389H60.459H60.45Z" fill="white"/>
<path d="M129.703 52.4058V100.356L128.661 101.111L119.734 107.559H47.705C47.4176 107.559 47.1841 107.326 47.1841 107.038C47.1841 106.751 47.4176 106.518 47.705 106.518H119.393L128.661 99.8265V53.4566H117.471V96.0544C117.471 96.3418 117.237 96.5753 116.95 96.5753C116.663 96.5753 116.429 96.3418 116.429 96.0544V52.4058H129.712H129.703Z" fill="white"/>
<path d="M117.202 72.469C117.202 72.7564 116.968 72.9899 116.681 72.9899H106.218V96.0446C106.218 96.332 105.984 96.5655 105.697 96.5655C105.409 96.5655 105.176 96.332 105.176 96.0446V71.9391H116.69C116.977 71.9391 117.211 72.1726 117.211 72.46L117.202 72.469Z" fill="white"/>
<path d="M47.5351 79.2395C47.5351 79.4731 47.3824 79.6706 47.1758 79.7335C47.122 79.7515 47.0771 79.7604 47.0142 79.7604H36.5511V96.0434C36.5511 96.3308 36.3176 96.5643 36.0302 96.5643C35.7428 96.5643 35.5093 96.3308 35.5093 96.0434V78.7097H47.0232C47.0771 78.7097 47.1309 78.7097 47.1848 78.7366C47.3914 78.7995 47.5441 78.997 47.5441 79.2306L47.5351 79.2395Z" fill="white"/>
<path d="M47.9934 99.4025L47.1762 100.31L40.6199 107.566H23.1245V76.3118L35.5096 82.1855L36.264 82.5448C36.4526 82.6346 36.5604 82.8232 36.5604 83.0208C36.5604 83.0926 36.5424 83.1735 36.5065 83.2453C36.3808 83.5058 36.0664 83.6225 35.806 83.4968L35.5006 83.3531L24.1663 77.9734V106.525H40.1529L47.1762 98.7558L47.2121 98.7109C47.4097 98.4954 47.742 98.4864 47.9486 98.675C48.1641 98.8636 48.1821 99.1959 47.9845 99.4115L47.9934 99.4025Z" fill="white"/>
<path d="M121.477 114.08L114.956 107.56L114.92 107.524C114.723 107.317 114.39 107.317 114.184 107.524L114.148 107.56L110.16 111.556L109.424 112.293L110.16 113.029L110.897 112.293L114.552 108.637L120.363 114.448L114.552 120.259L110.897 116.604L110.16 115.867L109.424 116.604L110.16 117.34L114.184 121.364C114.283 121.462 114.417 121.516 114.552 121.516C114.687 121.516 114.822 121.462 114.92 121.364L121.477 114.816C121.683 114.61 121.683 114.278 121.477 114.071V114.08Z" fill="white"/>
<path d="M109.425 116.6L105.77 120.256L99.9588 114.445L105.77 108.634L109.425 112.289L110.161 113.026L110.898 112.289L110.161 111.553L106.138 107.529C105.931 107.323 105.599 107.323 105.401 107.529L105.366 107.565L98.8541 114.086C98.6476 114.292 98.6476 114.624 98.8541 114.831L105.401 121.378C105.5 121.477 105.626 121.531 105.77 121.531C105.913 121.531 106.039 121.477 106.138 121.378L110.161 117.355L110.898 116.618L110.161 115.882L109.425 116.618V116.6Z" fill="white"/>
<path d="M46.9331 71.6776L40.3858 65.1303C40.1793 64.9237 39.847 64.9237 39.6494 65.1303L35.6168 69.1538L34.8804 69.8903L35.6168 70.6268L36.3533 69.8903L40.0087 66.235L45.8195 72.0458L40.0087 77.8566L36.3533 74.2013L35.6168 73.4648L34.8804 74.2013L35.6168 74.9377L39.3979 78.7098L39.6494 78.9613C39.7482 79.0601 39.8739 79.114 40.0176 79.114C40.1613 79.114 40.2871 79.0601 40.3858 78.9613L40.6373 78.7098L46.9331 72.405C47.0319 72.3062 47.0858 72.1805 47.0858 72.0368C47.0858 71.8931 47.0319 71.7674 46.9331 71.6686V71.6776Z" fill="white"/>
<path d="M34.8808 74.2013L31.2254 77.8566L25.4146 72.0458L31.2254 66.235L34.8808 69.8903L35.6172 70.6268L36.3537 69.8903L31.5937 65.1303C31.3871 64.9237 31.0548 64.9237 30.8482 65.1303L24.3009 71.6776C24.0944 71.8841 24.0944 72.2164 24.3009 72.414L30.8482 78.9703C30.947 79.0691 31.0817 79.123 31.2254 79.123C31.3602 79.123 31.4949 79.0691 31.5937 78.9703L35.6172 74.9467L36.3537 74.2103L35.6172 73.4738L34.8808 74.2103V74.2013Z" fill="white"/>
<path d="M82.8947 69.6307V96.5743H70.8599V86.722C70.8599 86.4346 71.0934 86.2011 71.3808 86.2011C71.6682 86.2011 71.9017 86.4346 71.9017 86.722V95.5235H81.8439V70.6726H59.9208C59.6334 70.6726 59.3999 70.4391 59.3999 70.1517C59.3999 69.8643 59.6334 69.6307 59.9208 69.6307H82.8857H82.8947Z" fill="white"/>
<path d="M72.009 91.645C71.8204 91.645 71.6407 91.5462 71.5509 91.3666C71.4162 91.1151 71.506 90.7918 71.7665 90.657L82.1308 85.0887C82.3823 84.954 82.7056 85.0438 82.8403 85.3043C82.975 85.5557 82.8852 85.8791 82.6247 86.0138L72.2605 91.5821C72.1796 91.627 72.0988 91.645 72.009 91.645Z" fill="white"/>
<path d="M94.0136 96.5742C93.7262 96.5742 93.4927 96.3407 93.4927 96.0533V86.7309C93.4927 86.4435 93.7262 86.21 94.0136 86.21C94.301 86.21 94.5345 86.4435 94.5345 86.7309V96.0533C94.5345 96.3407 94.301 96.5742 94.0136 96.5742Z" fill="white"/>
<path d="M106.218 75.0284C106.218 75.3158 105.985 75.5493 105.697 75.5493H82.3822C82.0948 75.5493 81.8613 75.3158 81.8613 75.0284C81.8613 74.741 82.0948 74.5075 82.3822 74.5075H105.697C105.985 74.5075 106.218 74.741 106.218 75.0284Z" fill="white"/>
<path d="M34.6741 47.8331V39.9926H26.5012V47.8331H18.6606V56.006H26.5012V63.8466H34.6741V56.006H42.5147V47.8331H34.6741ZM41.4639 54.9552H33.6233V62.7958H27.5431V54.9552H19.7025V48.875H27.5431V41.0344H33.6233V48.875H41.4639V54.9552Z" fill="white"/>
</svg>
