<svg width="161" height="161" viewBox="0 0 161 161" fill="none" xmlns="http://www.w3.org/2000/svg">
<g id="Group">
<path id="Vector" d="M160.294 0.76355H0.293945V160.764H160.294V0.76355Z" fill="#1A2626"/>
<g id="Group_2">
<path id="Vector_2" d="M132.632 36.4012V109.553L117.373 104.236V108.727H102.105V123.438H72.7186V108.691H45.0476L52.6995 116.343C52.96 116.594 52.96 117.007 52.6995 117.268L44.5267 125.441C44.3919 125.575 44.2303 125.629 44.0596 125.629C43.889 125.629 43.7273 125.566 43.6016 125.441L35.4287 117.268C35.3119 117.142 35.2401 116.98 35.2401 116.801C35.2401 116.621 35.3119 116.46 35.4287 116.343L43.0807 108.691H27.9653V63.8387L43.413 70.5117V65.2488H57.2351V60.2462H87.8878V64.6111H100.812V35.8623L103.156 37.3173L116.08 45.3105V36.3832H132.65L132.632 36.4012Z" fill="#EDB22E"/>
<g id="Group_3">
<path id="Vector_3" d="M116.062 36.3986V103.784L117.373 104.234L132.632 109.55V36.3986H116.062ZM131.321 107.718L117.364 102.859V37.7098H131.321V107.718Z" fill="white"/>
<path id="Vector_4" d="M117.373 46.135V108.734H102.105V123.445H72.7188V107.396H86.5767V64.8428C86.5767 64.4836 86.8641 64.1872 87.2323 64.1872C87.5197 64.1872 87.7532 64.3668 87.8431 64.6273C87.87 64.6902 87.879 64.771 87.879 64.8428V108.698H74.021V122.134H100.794V107.423H116.053V46.8625L102.096 38.2226V94.849C102.096 95.2083 101.809 95.5047 101.441 95.5047C101.072 95.5047 100.785 95.2172 100.785 94.849V35.8785L103.129 37.3334L116.053 45.3267L117.364 46.135H117.373Z" fill="white"/>
<path id="Vector_5" d="M101.774 65.2752C101.774 65.6345 101.486 65.9308 101.118 65.9308H87.4129C87.0627 65.9308 86.7663 65.6434 86.7573 65.2932V65.2752C86.7573 64.916 87.0537 64.6196 87.4129 64.6196H101.118C101.477 64.6196 101.774 64.907 101.774 65.2752Z" fill="white"/>
<path id="Vector_6" d="M58.5293 65.9113C58.5293 66.2705 58.2419 66.5669 57.8737 66.5669H44.7073V94.1122C44.7073 94.4715 44.4198 94.7679 44.0516 94.7679C43.6834 94.7679 43.396 94.4805 43.396 94.1122V65.2646H57.8647C58.2239 65.2646 58.5204 65.5521 58.5204 65.9203L58.5293 65.9113Z" fill="white"/>
<path id="Vector_7" d="M87.8789 60.2624V64.8428C87.8789 65.2021 87.5825 65.4984 87.2232 65.4984C87.0346 65.4984 86.873 65.4176 86.7562 65.3009C86.6485 65.1841 86.5766 65.0224 86.5766 64.8428V61.5736H58.5373V94.1215C58.5373 94.4808 58.2499 94.7771 57.8817 94.7771C57.5135 94.7771 57.2261 94.4897 57.2261 94.1215V60.2714H87.8789V60.2624Z" fill="white"/>
<path id="Vector_8" d="M75.2782 108.044C75.2782 108.403 74.9818 108.699 74.6226 108.699H27.9473V63.8472L43.3949 70.5203L44.1224 70.8346C44.4547 70.9783 44.6074 71.3645 44.4637 71.6878C44.32 72.0201 43.9338 72.1728 43.6015 72.0291L43.3949 71.9393L29.2495 65.8321V107.388H74.6136C74.9728 107.388 75.2692 107.675 75.2692 108.044H75.2782Z" fill="white"/>
<path id="Vector_9" d="M81.3668 108.699C81.286 108.699 81.1961 108.681 81.1153 108.654C80.783 108.519 80.6213 108.133 80.7561 107.8L85.8035 95.5142H73.4364C73.0771 95.5142 72.7808 95.2178 72.7808 94.8586V79.4828C72.7808 79.1235 73.0771 78.8271 73.4364 78.8271C73.7956 78.8271 74.092 79.1235 74.092 79.4828V94.203H86.7734C86.989 94.203 87.1956 94.3107 87.3123 94.4904C87.4291 94.67 87.456 94.9035 87.3752 95.1011L81.9595 108.294C81.8517 108.546 81.6093 108.699 81.3578 108.699H81.3668Z" fill="white"/>
<path id="Vector_10" d="M73.8851 91.04C73.6695 91.04 73.4629 90.9322 73.3372 90.7436C73.1396 90.4382 73.2204 90.034 73.5258 89.8364L86.8629 81.1067C87.1682 80.9091 87.5724 80.99 87.77 81.2954C87.9676 81.6007 87.8867 82.0048 87.5814 82.2024L74.2443 90.9322C74.1365 91.004 74.0108 91.04 73.8851 91.04Z" fill="white"/>
<path id="Vector_11" d="M52.6904 116.352L45.0384 108.7L44.5175 108.179C44.3917 108.062 44.2211 107.99 44.0504 107.99C43.8798 107.99 43.7092 108.062 43.5924 108.179L35.4195 116.352C35.3028 116.477 35.231 116.639 35.231 116.81C35.231 116.98 35.3028 117.151 35.4195 117.277L43.5924 125.45C43.7182 125.584 43.8888 125.638 44.0504 125.638C44.2121 125.638 44.3828 125.575 44.5175 125.45L52.6904 117.277C52.9509 117.016 52.9509 116.603 52.6904 116.352ZM44.0594 124.057L36.8116 116.81L44.0594 109.562L51.3073 116.81L44.0594 124.057Z" fill="white"/>
</g>
</g>
</g>
</svg>
