<svg width="210" height="223" viewBox="0 0 210 223" fill="none" xmlns="http://www.w3.org/2000/svg">
<g filter="url(#filter0_d_6_3388)">
<g clip-path="url(#clip0_6_3388)">
<rect x="3" width="204" height="217.522" rx="17.6369" fill="#E04B20"/>
<path d="M185.294 28.7628H25.2939V188.763H185.294V28.7628Z" fill="#E04B20"/>
<path d="M51.5012 84.008H43.6606V75.8351H51.5012V67.9945H59.6741V75.8351H67.5057V84.008H59.6741V91.8486H51.5012V84.008Z" fill="#4EA9B4" stroke="#EAE1C5" stroke-width="0.261053" stroke-miterlimit="10"/>
<path d="M166.936 82.049V136.053H153.653V129.111L144.726 135.559H139.966L146.486 142.079C146.692 142.286 146.692 142.618 146.486 142.825L139.93 149.372C139.831 149.471 139.705 149.525 139.561 149.525C139.418 149.525 139.292 149.471 139.193 149.372L135.17 145.349L131.146 149.372C131.047 149.471 130.912 149.525 130.778 149.525C130.643 149.525 130.508 149.471 130.41 149.372L123.862 142.825C123.656 142.618 123.656 142.286 123.862 142.079L130.374 135.559H72.7054C72.418 135.559 72.1845 135.325 72.1845 135.038V128.302L65.6282 135.559H48.1328V104.304L60.5179 110.178V106.711H64.4157L60.6347 102.939L56.6111 106.963C56.5123 107.062 56.3775 107.116 56.2428 107.116C56.0991 107.116 55.9734 107.062 55.8656 106.963L49.3183 100.407C49.1118 100.209 49.1118 99.8767 49.3183 99.6702L55.8656 93.1229C56.0722 92.9163 56.4045 92.9163 56.6111 93.1229L60.6347 97.1464L64.6672 93.1229C64.8648 92.9163 65.1971 92.9163 65.4037 93.1229L71.9509 99.6702C72.0497 99.7689 72.1036 99.9036 72.1036 100.038C72.1036 100.173 72.0497 100.308 71.9509 100.407L65.6551 106.711H72.0318C72.0857 106.711 72.1396 106.711 72.1934 106.738V77.6303H85.4766V97.6224H107.921V102.49H130.194V99.9306H141.438V80.3875H153.671V77.4058L166.954 82.0311L166.936 82.049Z" fill="#4EA9B4" stroke="#4EA9B4" stroke-width="0.261053" stroke-miterlimit="10"/>
<path d="M153.654 77.4235V136.062H166.937V82.0578L153.654 77.4325V77.4235ZM165.886 135.011H154.696V78.8964L165.886 82.7942V135.011Z" fill="white"/>
<path d="M85.45 77.6389V124.054C85.45 124.341 85.2165 124.575 84.9291 124.575C84.6417 124.575 84.4082 124.341 84.4082 124.054V78.6897H73.2176V135.038C73.2176 135.325 72.9841 135.559 72.6967 135.559C72.4093 135.559 72.1758 135.325 72.1758 135.038V77.6389H85.459H85.45Z" fill="white"/>
<path d="M154.703 80.4058V128.356L153.661 129.111L144.734 135.559H72.705C72.4176 135.559 72.1841 135.326 72.1841 135.038C72.1841 134.751 72.4176 134.517 72.705 134.517H144.393L153.661 127.826V81.4566H142.471V124.054C142.471 124.342 142.237 124.575 141.95 124.575C141.663 124.575 141.429 124.342 141.429 124.054V80.4058H154.712H154.703Z" fill="white"/>
<path d="M142.202 100.469C142.202 100.756 141.968 100.99 141.681 100.99H131.218V124.045C131.218 124.332 130.984 124.566 130.697 124.566C130.409 124.566 130.176 124.332 130.176 124.045V99.9391H141.69C141.977 99.9391 142.211 100.173 142.211 100.46L142.202 100.469Z" fill="white"/>
<path d="M72.5351 107.24C72.5351 107.473 72.3824 107.671 72.1758 107.734C72.122 107.752 72.0771 107.761 72.0142 107.761H61.5511V124.043C61.5511 124.331 61.3176 124.564 61.0302 124.564C60.7428 124.564 60.5093 124.331 60.5093 124.043V106.71H72.0232C72.0771 106.71 72.1309 106.71 72.1848 106.737C72.3914 106.8 72.5441 106.997 72.5441 107.231L72.5351 107.24Z" fill="white"/>
<path d="M72.9934 127.403L72.1762 128.31L65.6199 135.566H48.1245V104.312L60.5096 110.186L61.264 110.545C61.4526 110.635 61.5604 110.823 61.5604 111.021C61.5604 111.093 61.5424 111.174 61.5065 111.245C61.3808 111.506 61.0664 111.623 60.806 111.497L60.5006 111.353L49.1663 105.973V134.525H65.1529L72.1762 126.756L72.2121 126.711C72.4097 126.495 72.742 126.486 72.9486 126.675C73.1641 126.864 73.1821 127.196 72.9845 127.412L72.9934 127.403Z" fill="white"/>
<path d="M146.477 142.08L139.956 135.56L139.92 135.524C139.723 135.317 139.39 135.317 139.184 135.524L139.148 135.56L135.16 139.556L134.424 140.293L135.16 141.029L135.897 140.293L139.552 136.637L145.363 142.448L139.552 148.259L135.897 144.604L135.16 143.867L134.424 144.604L135.16 145.34L139.184 149.364C139.283 149.463 139.417 149.516 139.552 149.516C139.687 149.516 139.822 149.463 139.92 149.364L146.477 142.816C146.683 142.61 146.683 142.278 146.477 142.071V142.08Z" fill="white"/>
<path d="M134.425 144.6L130.77 148.256L124.959 142.445L130.77 136.634L134.425 140.289L135.161 141.026L135.898 140.289L135.161 139.553L131.138 135.529C130.931 135.323 130.599 135.323 130.401 135.529L130.366 135.565L123.854 142.085C123.648 142.292 123.648 142.624 123.854 142.831L130.401 149.378C130.5 149.477 130.626 149.531 130.77 149.531C130.913 149.531 131.039 149.477 131.138 149.378L135.161 145.355L135.898 144.618L135.161 143.882L134.425 144.618V144.6Z" fill="white"/>
<path d="M71.9331 99.6776L65.3858 93.1303C65.1793 92.9237 64.847 92.9237 64.6494 93.1303L60.6168 97.1538L59.8804 97.8903L60.6168 98.6268L61.3533 97.8903L65.0087 94.235L70.8195 100.046L65.0087 105.857L61.3533 102.201L60.6168 101.465L59.8804 102.201L60.6168 102.938L64.3979 106.71L64.6494 106.961C64.7482 107.06 64.8739 107.114 65.0176 107.114C65.1613 107.114 65.2871 107.06 65.3858 106.961L65.6373 106.71L71.9331 100.405C72.0319 100.306 72.0858 100.18 72.0858 100.037C72.0858 99.8931 72.0319 99.7674 71.9331 99.6686V99.6776Z" fill="white"/>
<path d="M59.8808 102.201L56.2254 105.857L50.4146 100.046L56.2254 94.235L59.8808 97.8903L60.6172 98.6268L61.3537 97.8903L56.5937 93.1303C56.3871 92.9237 56.0548 92.9237 55.8482 93.1303L49.3009 99.6776C49.0944 99.8841 49.0944 100.216 49.3009 100.414L55.8482 106.97C55.947 107.069 56.0817 107.123 56.2254 107.123C56.3602 107.123 56.4949 107.069 56.5937 106.97L60.6172 102.947L61.3537 102.21L60.6172 101.474L59.8808 102.21V102.201Z" fill="white"/>
<path d="M107.895 97.6307V124.574H95.8599V114.722C95.8599 114.435 96.0934 114.201 96.3808 114.201C96.6682 114.201 96.9017 114.435 96.9017 114.722V123.524H106.844V98.6726H84.9208C84.6334 98.6726 84.3999 98.4391 84.3999 98.1517C84.3999 97.8643 84.6334 97.6307 84.9208 97.6307H107.886H107.895Z" fill="white"/>
<path d="M97.009 119.645C96.8204 119.645 96.6407 119.546 96.5509 119.367C96.4162 119.115 96.506 118.792 96.7665 118.657L107.131 113.089C107.382 112.954 107.706 113.044 107.84 113.304C107.975 113.556 107.885 113.879 107.625 114.014L97.2605 119.582C97.1796 119.627 97.0988 119.645 97.009 119.645Z" fill="white"/>
<path d="M119.014 124.574C118.726 124.574 118.493 124.341 118.493 124.053V114.731C118.493 114.443 118.726 114.21 119.014 114.21C119.301 114.21 119.534 114.443 119.534 114.731V124.053C119.534 124.341 119.301 124.574 119.014 124.574Z" fill="white"/>
<path d="M131.218 103.028C131.218 103.316 130.985 103.549 130.697 103.549H107.382C107.095 103.549 106.861 103.316 106.861 103.028C106.861 102.741 107.095 102.507 107.382 102.507H130.697C130.985 102.507 131.218 102.741 131.218 103.028Z" fill="white"/>
<path d="M59.6741 75.8331V67.9926H51.5012V75.8331H43.6606V84.006H51.5012V91.8466H59.6741V84.006H67.5147V75.8331H59.6741ZM66.4639 82.9552H58.6233V90.7958H52.5431V82.9552H44.7025V76.875H52.5431V69.0344H58.6233V76.875H66.4639V82.9552Z" fill="white"/>
<g filter="url(#filter1_di_6_3388)">
<rect x="176.429" y="19.8008" width="14.6974" height="14.6974" rx="2.93948" transform="rotate(-45 176.429 19.8008)" fill="#4EA9B4"/>
</g>
<g filter="url(#filter2_b_6_3388)">
<rect x="3" y="0.00183105" width="204" height="217.522" rx="11.7579" fill="#D9D9D9" fill-opacity="0.09"/>
<path d="M32.3451 174.049C31.0651 174.049 30.0011 173.889 29.1531 173.569C28.3211 173.249 27.6571 172.753 27.1611 172.081C26.6811 171.393 26.3371 170.521 26.1291 169.465C25.9371 168.393 25.8411 167.105 25.8411 165.601C25.8411 164.097 25.9371 162.809 26.1291 161.737C26.3371 160.665 26.6811 159.793 27.1611 159.121C27.6571 158.449 28.3291 157.953 29.1771 157.633C30.0411 157.313 31.1371 157.153 32.4651 157.153C32.9771 157.153 33.5211 157.185 34.0971 157.249C34.6731 157.297 35.2331 157.369 35.7771 157.465C36.3371 157.561 36.8171 157.657 37.2171 157.753L37.1211 160.729C36.8011 160.681 36.4091 160.633 35.9451 160.585C35.4811 160.537 35.0011 160.497 34.5051 160.465C34.0251 160.417 33.5691 160.393 33.1371 160.393C32.4171 160.393 31.8331 160.481 31.3851 160.657C30.9371 160.833 30.5851 161.129 30.3291 161.545C30.0891 161.945 29.9211 162.473 29.8251 163.129C29.7451 163.785 29.7051 164.609 29.7051 165.601C29.7051 166.577 29.7451 167.401 29.8251 168.073C29.9211 168.729 30.0891 169.257 30.3291 169.657C30.5851 170.057 30.9371 170.345 31.3851 170.521C31.8331 170.697 32.4251 170.785 33.1611 170.785C33.8011 170.785 34.4971 170.753 35.2491 170.689C36.0171 170.625 36.6491 170.569 37.1451 170.521L37.2171 173.473C36.8491 173.553 36.3931 173.641 35.8491 173.737C35.3211 173.833 34.7451 173.905 34.1211 173.953C33.5131 174.017 32.9211 174.049 32.3451 174.049ZM44.2083 174.049C42.8483 174.049 41.7363 173.833 40.8723 173.401C40.0243 172.953 39.4003 172.257 39.0003 171.313C38.6163 170.369 38.4243 169.153 38.4243 167.665C38.4243 166.193 38.6243 165.001 39.0243 164.089C39.4403 163.177 40.0803 162.505 40.9443 162.073C41.8083 161.641 42.8963 161.425 44.2083 161.425C45.5523 161.425 46.6483 161.641 47.4963 162.073C48.3603 162.505 48.9923 163.177 49.3923 164.089C49.8083 165.001 50.0163 166.193 50.0163 167.665C50.0163 169.153 49.8163 170.369 49.4163 171.313C49.0323 172.257 48.4083 172.953 47.5443 173.401C46.6963 173.833 45.5843 174.049 44.2083 174.049ZM44.2083 171.025C44.8003 171.025 45.2403 170.913 45.5283 170.689C45.8323 170.465 46.0323 170.105 46.1283 169.609C46.2403 169.113 46.2963 168.465 46.2963 167.665C46.2963 166.849 46.2323 166.209 46.1043 165.745C45.9763 165.281 45.7603 164.945 45.4563 164.737C45.1683 164.529 44.7523 164.425 44.2083 164.425C43.6803 164.425 43.2643 164.529 42.9603 164.737C42.6563 164.945 42.4403 165.289 42.3123 165.769C42.1843 166.233 42.1203 166.865 42.1203 167.665C42.1203 168.465 42.1763 169.113 42.2883 169.609C42.4003 170.105 42.6003 170.465 42.8883 170.689C43.1923 170.913 43.6323 171.025 44.2083 171.025ZM51.9573 173.761V161.689H55.6053V162.433C55.8453 162.273 56.1413 162.121 56.4933 161.977C56.8613 161.817 57.2453 161.689 57.6453 161.593C58.0613 161.481 58.4533 161.425 58.8213 161.425C59.5413 161.425 60.1253 161.529 60.5733 161.737C61.0373 161.929 61.4133 162.209 61.7013 162.577C61.9893 162.401 62.3413 162.225 62.7573 162.049C63.1893 161.873 63.6533 161.729 64.1493 161.617C64.6453 161.489 65.1333 161.425 65.6133 161.425C66.5093 161.425 67.2453 161.545 67.8213 161.785C68.4133 162.009 68.8693 162.377 69.1893 162.889C69.5253 163.385 69.7573 164.017 69.8853 164.785C70.0133 165.553 70.0773 166.465 70.0773 167.521V173.761H66.4293V167.881C66.4293 167.129 66.3893 166.513 66.3093 166.033C66.2293 165.553 66.0693 165.201 65.8293 164.977C65.5893 164.737 65.2453 164.617 64.7973 164.617C64.5413 164.617 64.2773 164.641 64.0052 164.689C63.7333 164.737 63.4773 164.801 63.2373 164.881C63.0133 164.961 62.8213 165.041 62.6613 165.121C62.7573 165.409 62.8213 165.809 62.8533 166.321C62.8853 166.817 62.9012 167.329 62.9012 167.857V173.761H59.2293V167.929C59.2293 167.145 59.1893 166.513 59.1093 166.033C59.0293 165.553 58.8693 165.201 58.6293 164.977C58.4053 164.737 58.0693 164.617 57.6213 164.617C57.3653 164.617 57.1093 164.641 56.8533 164.689C56.5973 164.737 56.3653 164.801 56.1573 164.881C55.9493 164.961 55.7733 165.033 55.6293 165.097V173.761H51.9573ZM72.3244 173.761V161.689H75.9964V173.761H72.3244ZM72.3244 160.009V157.081H75.9964V160.009H72.3244ZM78.3479 173.761V161.689H81.9959V162.433C82.2519 162.273 82.5559 162.121 82.9079 161.977C83.2599 161.817 83.6279 161.689 84.0119 161.593C84.4119 161.481 84.7879 161.425 85.1399 161.425C85.9879 161.425 86.6919 161.537 87.2519 161.761C87.8119 161.969 88.2599 162.313 88.5959 162.793C88.9319 163.273 89.1719 163.905 89.3159 164.689C89.4599 165.473 89.5319 166.425 89.5319 167.545V173.761H85.8599V167.761C85.8599 167.009 85.8119 166.401 85.7159 165.937C85.6199 165.473 85.4519 165.137 85.2119 164.929C84.9719 164.721 84.6279 164.617 84.1799 164.617C83.9239 164.617 83.6599 164.641 83.3879 164.689C83.1159 164.737 82.8599 164.801 82.6199 164.881C82.3799 164.961 82.1799 165.041 82.0199 165.121V173.761H78.3479ZM97.2741 179.209C95.9941 179.209 94.9061 179.113 94.0101 178.921C93.1141 178.745 92.4341 178.409 91.9701 177.913C91.5221 177.417 91.2981 176.697 91.2981 175.753C91.2981 175.337 91.3541 174.969 91.4661 174.649C91.5781 174.329 91.7621 174.025 92.0181 173.737C92.2741 173.433 92.6021 173.129 93.0021 172.825C92.7781 172.649 92.5941 172.409 92.4501 172.105C92.3061 171.785 92.2341 171.441 92.2341 171.073C92.2341 170.945 92.2901 170.777 92.4021 170.569C92.5301 170.345 92.6821 170.121 92.8581 169.897C93.0341 169.657 93.2021 169.449 93.3621 169.273C93.0421 169.113 92.7381 168.897 92.4501 168.625C92.1621 168.337 91.9221 167.953 91.7301 167.473C91.5381 166.993 91.4421 166.385 91.4421 165.649C91.4421 164.609 91.6341 163.785 92.0181 163.177C92.4181 162.553 93.0021 162.105 93.7701 161.833C94.5541 161.561 95.5221 161.425 96.6741 161.425C97.0741 161.425 97.5141 161.457 97.9941 161.521C98.4901 161.569 98.8821 161.633 99.1701 161.713L103.178 161.617V164.017L101.498 163.993C101.642 164.169 101.762 164.393 101.858 164.665C101.954 164.937 102.002 165.265 102.002 165.649C102.002 166.769 101.81 167.633 101.426 168.241C101.042 168.849 100.466 169.273 99.6981 169.513C98.9301 169.737 97.9461 169.849 96.7461 169.849C96.6181 169.849 96.4501 169.841 96.2421 169.825C96.0341 169.793 95.8581 169.769 95.7141 169.753C95.6661 169.881 95.6101 170.033 95.5461 170.209C95.4821 170.369 95.4501 170.489 95.4501 170.569C95.4501 170.713 95.4901 170.825 95.5701 170.905C95.6501 170.985 95.7941 171.049 96.0021 171.097C96.2101 171.145 96.5061 171.177 96.8901 171.193C97.2901 171.209 97.8181 171.217 98.4741 171.217C99.6101 171.217 100.514 171.329 101.186 171.553C101.858 171.761 102.338 172.137 102.626 172.681C102.914 173.209 103.058 173.953 103.058 174.913C103.058 176.353 102.546 177.425 101.522 178.129C100.498 178.849 99.0821 179.209 97.2741 179.209ZM97.0581 176.545C97.9861 176.545 98.6501 176.449 99.0501 176.257C99.4501 176.065 99.6501 175.745 99.6501 175.297C99.6501 174.961 99.5781 174.705 99.4341 174.529C99.2901 174.369 99.0501 174.265 98.7141 174.217C98.3941 174.169 97.9541 174.145 97.3941 174.145C97.2341 174.145 97.0421 174.137 96.8181 174.121C96.5941 174.121 96.3781 174.113 96.1701 174.097C95.9621 174.097 95.7701 174.089 95.5941 174.073C95.4181 174.073 95.2901 174.065 95.2101 174.049C95.0181 174.177 94.8661 174.305 94.7541 174.433C94.6421 174.561 94.5621 174.689 94.5141 174.817C94.4661 174.961 94.4421 175.129 94.4421 175.321C94.4421 175.625 94.5221 175.865 94.6821 176.041C94.8581 176.217 95.1381 176.345 95.5221 176.425C95.9061 176.505 96.4181 176.545 97.0581 176.545ZM96.6981 167.329C97.3381 167.329 97.7941 167.201 98.0661 166.945C98.3541 166.673 98.4981 166.233 98.4981 165.625C98.4981 165.017 98.3541 164.585 98.0661 164.329C97.7941 164.057 97.3381 163.921 96.6981 163.921C96.0741 163.921 95.6261 164.057 95.3541 164.329C95.0821 164.585 94.9461 165.017 94.9461 165.625C94.9461 166.233 95.0821 166.673 95.3541 166.945C95.6261 167.201 96.0741 167.329 96.6981 167.329ZM115.631 174.049C114.975 174.049 114.271 174.009 113.519 173.929C112.767 173.849 112.047 173.753 111.359 173.641C110.671 173.529 110.087 173.425 109.607 173.329L109.823 170.377C110.319 170.441 110.903 170.513 111.575 170.593C112.247 170.657 112.919 170.721 113.591 170.785C114.263 170.833 114.847 170.857 115.343 170.857C115.887 170.857 116.327 170.793 116.663 170.665C117.015 170.521 117.271 170.313 117.431 170.041C117.591 169.769 117.671 169.417 117.671 168.985C117.671 168.633 117.591 168.353 117.431 168.145C117.287 167.937 117.015 167.769 116.615 167.641C116.231 167.497 115.671 167.361 114.935 167.233C113.943 167.057 113.095 166.849 112.391 166.609C111.703 166.369 111.143 166.065 110.711 165.697C110.279 165.313 109.967 164.841 109.775 164.281C109.583 163.705 109.487 163.017 109.487 162.217C109.487 160.905 109.719 159.881 110.183 159.145C110.663 158.409 111.343 157.889 112.223 157.585C113.103 157.281 114.143 157.129 115.343 157.129C115.903 157.129 116.535 157.161 117.239 157.225C117.943 157.289 118.631 157.361 119.303 157.441C119.975 157.521 120.559 157.609 121.055 157.705L120.887 160.705C120.407 160.641 119.847 160.585 119.207 160.537C118.567 160.473 117.927 160.425 117.287 160.393C116.663 160.345 116.119 160.321 115.655 160.321C115.127 160.321 114.687 160.377 114.335 160.489C113.983 160.585 113.719 160.745 113.543 160.969C113.383 161.193 113.303 161.481 113.303 161.833C113.303 162.233 113.383 162.545 113.543 162.769C113.719 162.977 114.007 163.153 114.407 163.297C114.823 163.441 115.399 163.593 116.135 163.753C117.127 163.977 117.959 164.209 118.631 164.449C119.319 164.689 119.871 164.985 120.287 165.337C120.719 165.673 121.023 166.113 121.199 166.657C121.391 167.201 121.487 167.889 121.487 168.721C121.487 170.001 121.255 171.033 120.791 171.817C120.343 172.601 119.679 173.169 118.799 173.521C117.935 173.873 116.879 174.049 115.631 174.049ZM128.7 174.049C127.34 174.049 126.228 173.833 125.364 173.401C124.516 172.953 123.892 172.257 123.492 171.313C123.108 170.369 122.916 169.153 122.916 167.665C122.916 166.193 123.116 165.001 123.516 164.089C123.932 163.177 124.572 162.505 125.436 162.073C126.3 161.641 127.388 161.425 128.7 161.425C130.044 161.425 131.14 161.641 131.988 162.073C132.852 162.505 133.484 163.177 133.884 164.089C134.3 165.001 134.508 166.193 134.508 167.665C134.508 169.153 134.308 170.369 133.908 171.313C133.524 172.257 132.9 172.953 132.036 173.401C131.188 173.833 130.076 174.049 128.7 174.049ZM128.7 171.025C129.292 171.025 129.732 170.913 130.02 170.689C130.324 170.465 130.524 170.105 130.62 169.609C130.732 169.113 130.788 168.465 130.788 167.665C130.788 166.849 130.724 166.209 130.596 165.745C130.468 165.281 130.252 164.945 129.948 164.737C129.66 164.529 129.244 164.425 128.7 164.425C128.172 164.425 127.756 164.529 127.452 164.737C127.148 164.945 126.932 165.289 126.804 165.769C126.676 166.233 126.612 166.865 126.612 167.665C126.612 168.465 126.668 169.113 126.78 169.609C126.892 170.105 127.092 170.465 127.38 170.689C127.684 170.913 128.124 171.025 128.7 171.025ZM141.825 174.049C140.465 174.049 139.353 173.833 138.489 173.401C137.641 172.953 137.017 172.257 136.617 171.313C136.233 170.369 136.041 169.153 136.041 167.665C136.041 166.193 136.241 165.001 136.641 164.089C137.057 163.177 137.697 162.505 138.561 162.073C139.425 161.641 140.513 161.425 141.825 161.425C143.169 161.425 144.265 161.641 145.113 162.073C145.977 162.505 146.609 163.177 147.009 164.089C147.425 165.001 147.633 166.193 147.633 167.665C147.633 169.153 147.433 170.369 147.033 171.313C146.649 172.257 146.025 172.953 145.161 173.401C144.313 173.833 143.201 174.049 141.825 174.049ZM141.825 171.025C142.417 171.025 142.857 170.913 143.145 170.689C143.449 170.465 143.649 170.105 143.745 169.609C143.857 169.113 143.913 168.465 143.913 167.665C143.913 166.849 143.849 166.209 143.721 165.745C143.593 165.281 143.377 164.945 143.073 164.737C142.785 164.529 142.369 164.425 141.825 164.425C141.297 164.425 140.881 164.529 140.577 164.737C140.273 164.945 140.057 165.289 139.929 165.769C139.801 166.233 139.737 166.865 139.737 167.665C139.737 168.465 139.793 169.113 139.905 169.609C140.017 170.105 140.217 170.465 140.505 170.689C140.809 170.913 141.249 171.025 141.825 171.025ZM149.574 173.761V161.689H153.222V162.433C153.478 162.273 153.782 162.121 154.134 161.977C154.486 161.817 154.854 161.689 155.238 161.593C155.638 161.481 156.014 161.425 156.366 161.425C157.214 161.425 157.918 161.537 158.478 161.761C159.038 161.969 159.486 162.313 159.822 162.793C160.158 163.273 160.398 163.905 160.542 164.689C160.686 165.473 160.758 166.425 160.758 167.545V173.761H157.086V167.761C157.086 167.009 157.038 166.401 156.942 165.937C156.846 165.473 156.678 165.137 156.438 164.929C156.198 164.721 155.854 164.617 155.406 164.617C155.15 164.617 154.886 164.641 154.614 164.689C154.342 164.737 154.086 164.801 153.846 164.881C153.606 164.961 153.406 165.041 153.246 165.121V173.761H149.574ZM168.112 173.761V169.945H171.928V173.761H168.112ZM174.135 173.761V169.945H177.951V173.761H174.135ZM180.159 173.761V169.945H183.975V173.761H180.159Z" fill="white"/>
</g>
</g>
</g>
<defs>
<filter id="filter0_d_6_3388" x="0.648415" y="0" width="208.703" height="222.225" filterUnits="userSpaceOnUse" color-interpolation-filters="sRGB">
<feFlood flood-opacity="0" result="BackgroundImageFix"/>
<feColorMatrix in="SourceAlpha" type="matrix" values="0 0 0 0 0 0 0 0 0 0 0 0 0 0 0 0 0 0 127 0" result="hardAlpha"/>
<feOffset dy="2.35158"/>
<feGaussianBlur stdDeviation="1.17579"/>
<feComposite in2="hardAlpha" operator="out"/>
<feColorMatrix type="matrix" values="0 0 0 0 0 0 0 0 0 0 0 0 0 0 0 0 0 0 0.25 0"/>
<feBlend mode="normal" in2="BackgroundImageFix" result="effect1_dropShadow_6_3388"/>
<feBlend mode="normal" in="SourceGraphic" in2="effect1_dropShadow_6_3388" result="shape"/>
</filter>
<filter id="filter1_di_6_3388" x="172.944" y="8.27415" width="27.7564" height="27.7564" filterUnits="userSpaceOnUse" color-interpolation-filters="sRGB">
<feFlood flood-opacity="0" result="BackgroundImageFix"/>
<feColorMatrix in="SourceAlpha" type="matrix" values="0 0 0 0 0 0 0 0 0 0 0 0 0 0 0 0 0 0 127 0" result="hardAlpha"/>
<feMorphology radius="1.17579" operator="dilate" in="SourceAlpha" result="effect1_dropShadow_6_3388"/>
<feOffset dy="2.35158"/>
<feGaussianBlur stdDeviation="1.76369"/>
<feComposite in2="hardAlpha" operator="out"/>
<feColorMatrix type="matrix" values="0 0 0 0 0 0 0 0 0 0 0 0 0 0 0 0 0 0 0.25 0"/>
<feBlend mode="normal" in2="BackgroundImageFix" result="effect1_dropShadow_6_3388"/>
<feBlend mode="normal" in="SourceGraphic" in2="effect1_dropShadow_6_3388" result="shape"/>
<feColorMatrix in="SourceAlpha" type="matrix" values="0 0 0 0 0 0 0 0 0 0 0 0 0 0 0 0 0 0 127 0" result="hardAlpha"/>
<feMorphology radius="1.17579" operator="erode" in="SourceAlpha" result="effect2_innerShadow_6_3388"/>
<feOffset dx="2.35158" dy="2.35158"/>
<feGaussianBlur stdDeviation="1.76369"/>
<feComposite in2="hardAlpha" operator="arithmetic" k2="-1" k3="1"/>
<feColorMatrix type="matrix" values="0 0 0 0 0.216667 0 0 0 0 0.0036111 0 0 0 0 0.0036111 0 0 0 0.25 0"/>
<feBlend mode="normal" in2="shape" result="effect2_innerShadow_6_3388"/>
</filter>
<filter id="filter2_b_6_3388" x="1.23631" y="-1.76186" width="207.527" height="221.049" filterUnits="userSpaceOnUse" color-interpolation-filters="sRGB">
<feFlood flood-opacity="0" result="BackgroundImageFix"/>
<feGaussianBlur in="BackgroundImageFix" stdDeviation="0.881844"/>
<feComposite in2="SourceAlpha" operator="in" result="effect1_backgroundBlur_6_3388"/>
<feBlend mode="normal" in="SourceGraphic" in2="effect1_backgroundBlur_6_3388" result="shape"/>
</filter>
<clipPath id="clip0_6_3388">
<rect x="3" width="204" height="217.522" rx="17.6369" fill="white"/>
</clipPath>
</defs>
</svg>
