<svg width="161" height="161" viewBox="0 0 161 161" fill="none" xmlns="http://www.w3.org/2000/svg">
<path d="M160.294 0.762817H0.293945V160.763H160.294V0.762817Z" fill="#EAE1C5"/>
<path d="M135.237 37.236V112.121L117.553 118.273V106.212H103.362V121.39H70.8056L60.7017 104.81H65.2282L56.1573 97.4818V106.212H49.2237L57.3966 114.384C57.5313 114.519 57.6032 114.69 57.6032 114.878C57.6032 115.067 57.5313 115.238 57.3966 115.372L48.6759 124.093C48.5412 124.228 48.3706 124.3 48.1819 124.3C47.9933 124.3 47.8227 124.228 47.6879 124.093L42.3352 118.74L36.9734 124.093C36.8476 124.228 36.668 124.3 36.4794 124.3C36.2908 124.3 36.1202 124.228 35.9855 124.093L27.2647 115.372C26.9953 115.103 26.9953 114.654 27.2647 114.384L35.4286 106.212H25.3428V74.1217L41.1138 64.3322V58.9166H70.4912V50.5371L88.1752 44.385V64.898L94.5698 58.4944C94.8392 58.225 95.2883 58.225 95.5578 58.4944L104.278 67.2242C104.404 67.3499 104.485 67.5295 104.485 67.7181C104.485 67.9067 104.413 68.0774 104.278 68.2121L102.653 69.8287H108.724L100.291 61.3954C100.156 61.2696 100.093 61.09 100.093 60.9014C100.093 60.7128 100.165 60.5422 100.291 60.4074L109.012 51.6867C109.146 51.552 109.317 51.4801 109.506 51.4801C109.694 51.4801 109.865 51.552 109.999 51.6867L117.535 59.2219V43.406L135.219 37.2449L135.237 37.236Z" fill="#E04B20" stroke="#EAE1C5" stroke-width="0.261053" stroke-miterlimit="10"/>
<path d="M117.551 43.3855V118.262L135.235 112.11V37.2244L117.551 43.3855ZM133.843 111.122L118.952 116.304V44.3734L133.843 39.1912V111.122Z" fill="#EAE1C5"/>
<path d="M87.4827 79.742C87.1863 79.742 86.9079 79.5444 86.8181 79.2481C86.7103 78.8798 86.9169 78.4936 87.2851 78.3769L102.472 73.8324C102.841 73.7246 103.227 73.9312 103.344 74.2994C103.451 74.6676 103.245 75.0538 102.876 75.1706L87.6893 79.7151C87.6264 79.733 87.5545 79.742 87.4917 79.742H87.4827Z" fill="#EAE1C5"/>
<path d="M118.71 70.5093C118.71 70.8955 118.404 71.2098 118.018 71.2098H103.963V90.3578C103.963 90.7439 103.648 91.0583 103.262 91.0583C102.876 91.0583 102.562 90.7439 102.562 90.3578V69.8088H118.009C118.395 69.8088 118.701 70.1231 118.701 70.5093H118.71Z" fill="#EAE1C5"/>
<path d="M57.3957 114.374L48.675 105.653C48.4056 105.384 47.9655 105.384 47.6871 105.653L47.1302 106.21L42.3253 111.024L41.3374 112.012L42.3253 113L43.3132 112.012L48.1721 107.144L55.9139 114.886L48.1721 122.619L43.3132 117.76L42.3253 116.772L41.3374 117.76L42.3253 118.748L47.6781 124.1C47.8128 124.235 47.9925 124.307 48.1721 124.307C48.3517 124.307 48.5313 124.235 48.666 124.1L57.3868 115.38C57.5215 115.254 57.5933 115.074 57.5933 114.886C57.5933 114.697 57.5215 114.527 57.3868 114.392L57.3957 114.374Z" fill="#EAE1C5"/>
<path d="M118.745 60.3946L117.551 59.2091L110.016 51.6738C109.89 51.5391 109.71 51.4673 109.522 51.4673C109.333 51.4673 109.162 51.5391 109.028 51.6738L100.307 60.3946C100.172 60.5293 100.109 60.6999 100.109 60.8886C100.109 61.0772 100.181 61.2478 100.307 61.3825L108.74 69.8159L109.028 70.1033C109.162 70.247 109.342 70.3098 109.522 70.3098C109.701 70.3098 109.881 70.247 110.016 70.1033L110.303 69.8159L117.551 62.577L118.745 61.3825C118.88 61.2388 118.952 61.0682 118.952 60.8886C118.952 60.7089 118.88 60.5293 118.745 60.3946ZM109.522 68.6214L101.789 60.8886L109.522 53.1468L117.263 60.8886L109.522 68.6214Z" fill="#EAE1C5"/>
<path d="M104.296 67.203L95.5751 58.4733C95.3057 58.2038 94.8566 58.2038 94.5872 58.4733L88.1926 64.8769L86.8005 66.2689L85.8754 67.194C85.606 67.4634 85.606 67.9035 85.8754 68.1819L86.8005 69.107L88.1926 70.4991L94.0304 76.3458L94.5872 76.9027C94.7219 77.0374 94.9015 77.1093 95.0811 77.1093C95.2608 77.1093 95.4404 77.0374 95.5751 76.9027L97.03 75.4477L102.562 69.9063L102.67 69.7985L104.296 68.1819C104.422 68.0472 104.502 67.8766 104.502 67.688C104.502 67.4994 104.431 67.3287 104.296 67.194V67.203ZM95.0811 75.4387L88.1836 68.5412L87.3394 67.6969L88.1836 66.8527L95.0811 59.9641L102.814 67.6969L95.0811 75.4387Z" fill="#EAE1C5"/>
<path d="M41.3456 117.731L36.4778 122.59L28.745 114.857L36.4778 107.115L41.3456 111.983L42.3336 112.971L43.3215 111.983L42.3336 110.995L37.5286 106.19L36.9718 105.634C36.7023 105.364 36.2623 105.364 35.9839 105.634L35.427 106.19L27.2631 114.363C26.9937 114.633 26.9937 115.073 27.2631 115.351L35.9839 124.072C36.1186 124.207 36.2892 124.279 36.4778 124.279C36.6664 124.279 36.8371 124.207 36.9718 124.072L42.3336 118.719L43.3215 117.731L42.3336 116.743L41.3456 117.731Z" fill="#EAE1C5"/>
<path d="M118.945 105.51C118.945 105.896 118.63 106.211 118.244 106.211H103.362V121.389H70.8055L60.7017 104.81H86.792V46.3331L71.8922 51.5152V90.3589C71.8922 90.7451 71.5779 91.0595 71.1917 91.0595C70.8055 91.0595 70.5001 90.7451 70.5001 90.3589V50.5273L88.1841 44.3752V106.211H63.1894L71.5959 119.997H101.979V104.819H118.253C118.639 104.819 118.954 105.133 118.954 105.519L118.945 105.51Z" fill="#EAE1C5"/>
<path d="M71.8908 59.5984C71.8908 59.9846 71.5765 60.29 71.1903 60.29H42.5134V90.359C42.5134 90.7452 42.199 91.0596 41.8128 91.0596C41.4266 91.0596 41.1123 90.7452 41.1123 90.359V58.8979H71.1903C71.5765 58.8979 71.8908 59.2122 71.8908 59.5984Z" fill="#EAE1C5"/>
<path d="M56.1563 74.4968V106.2H25.3418V74.1106L41.1128 64.3211L41.4451 64.1145C41.7684 63.908 42.1995 64.0157 42.4061 64.3391C42.4779 64.4558 42.5049 64.5816 42.5049 64.7073C42.5049 64.9408 42.3881 65.1653 42.1726 65.3001L41.1038 65.9647L26.7249 74.892V104.817H54.7462V74.5058C54.7462 74.1196 55.0605 73.8052 55.4467 73.8052C55.8329 73.8052 56.1473 74.1196 56.1473 74.5058L56.1563 74.4968Z" fill="#EAE1C5"/>
<path d="M67.7415 105.939C67.6068 106.11 67.4002 106.2 67.2027 106.2C67.05 106.2 66.8973 106.146 66.7626 106.047L65.2268 104.808L56.1558 97.479L55.0242 96.563C54.8535 96.4193 54.7637 96.2217 54.7637 96.0151C54.7637 95.8624 54.8176 95.7097 54.9164 95.584C55.1589 95.2786 55.5989 95.2337 55.8953 95.4762L56.1558 95.6828L67.4451 104.808L67.6337 104.96C67.9301 105.203 67.984 105.643 67.7325 105.939H67.7415Z" fill="#EAE1C5"/>
</svg>
