<svg width="161" height="161" viewBox="0 0 161 161" fill="none" xmlns="http://www.w3.org/2000/svg">
<path d="M160.294 0.762817H0.293945V160.763H160.294V0.762817Z" fill="#4EA9B4"/>
<path d="M139.52 41.69V103.175H125.94V106.543H47.7232L47.6155 103.22L39.5773 104.253L46.3671 111.034C46.4748 111.142 46.5377 111.294 46.5377 111.447C46.5377 111.6 46.4748 111.752 46.3671 111.86L39.0923 119.135C38.9846 119.243 38.8409 119.306 38.6792 119.306C38.5175 119.306 38.3738 119.243 38.266 119.135L34.6916 115.56L29.3298 120.922C29.222 121.03 29.0693 121.093 28.9167 121.093C28.764 121.093 28.6113 121.03 28.5035 120.922L21.2287 113.647C21.0042 113.423 21.0042 113.055 21.2287 112.83L28.3688 105.69L21.0581 106.624V74.3726L33.542 67.2505V54.1469H61.1501V79.1147H72.6191V59.0597H100.227V59.4638L103.954 55.7366L96.9133 48.6864C96.8055 48.5786 96.7426 48.4259 96.7426 48.2732C96.7426 48.1206 96.8055 47.9679 96.9133 47.8601L104.188 40.5853C104.413 40.3608 104.781 40.3608 105.014 40.5853L111.202 46.7734V41.4386L124.782 46.1716V41.681H139.529L139.52 41.69Z" fill="#EDB22E"/>
<path d="M124.773 41.6908V103.176H139.521V41.6908H124.773ZM138.362 102.017H125.941V42.8494H138.362V102.017Z" fill="white"/>
<path d="M105.976 68.2678L100.228 62.5109V64.1545L105.267 69.2019L107.108 68.7708L111.185 64.6933V63.0498L105.967 68.2678H105.976ZM105.976 55.3619L111.194 60.571L112.362 61.7385V60.0949L111.194 58.9274L106.623 54.356L106.398 54.1314C106.183 53.9159 105.797 53.9159 105.581 54.1314L103.965 55.7481L100.237 59.4752L99.0698 60.6338V62.9959L100.237 64.1634L105.276 69.2109L105.572 69.5073C105.68 69.615 105.833 69.6779 105.985 69.6779C106.138 69.6779 106.291 69.615 106.398 69.5073L107.117 68.7888L111.194 64.7113L112.362 63.5437V61.9002L111.194 63.0588L105.976 68.2768L100.228 62.5199L99.5278 61.8194L100.228 61.1188L105.976 55.3709V55.3619Z" fill="white"/>
<path d="M112.361 47.9682C112.361 47.9682 112.316 47.9054 112.28 47.8694L111.194 46.7827L105.006 40.5947C104.781 40.3701 104.413 40.3701 104.179 40.5947L96.9045 47.8694C96.7968 47.9772 96.7339 48.1209 96.7339 48.2826C96.7339 48.4442 96.7968 48.5879 96.9045 48.6957L103.946 55.7459L104.17 55.9705C104.278 56.0782 104.431 56.1411 104.583 56.1411C104.736 56.1411 104.889 56.0782 104.997 55.9705L106.604 54.3539L111.176 49.7735L112.262 48.6867C112.262 48.6867 112.325 48.6239 112.343 48.5879C112.469 48.3993 112.469 48.1568 112.343 47.9593L112.361 47.9682ZM104.592 54.7311L98.1439 48.2826L104.592 41.8341L111.041 48.2826L104.592 54.7311Z" fill="white"/>
<path d="M46.3595 111.032L39.5697 104.251L39.0847 103.766C38.8602 103.542 38.4919 103.542 38.2674 103.766L37.513 104.521L32.9056 109.128L32.0884 109.945L32.9056 110.763L33.7319 109.945L38.6806 104.988L45.129 111.436L38.6806 117.885L34.7019 113.906L33.8846 114.723L34.7019 115.55L38.2764 119.124C38.3842 119.232 38.5369 119.295 38.6895 119.295C38.8422 119.295 38.9949 119.232 39.1027 119.124L46.3774 111.849C46.4852 111.742 46.5481 111.589 46.5481 111.436C46.5481 111.284 46.4852 111.131 46.3774 111.023L46.3595 111.032Z" fill="white"/>
<path d="M34.6934 113.907L28.9185 119.682L22.47 113.233L28.9185 106.785L32.0799 109.946L32.8972 110.764L33.7234 109.946L32.8972 109.129L29.3406 105.564L29.3226 105.546C29.0981 105.321 28.7299 105.321 28.4964 105.546L28.3617 105.68L21.2216 112.82C20.9971 113.045 20.9971 113.413 21.2216 113.638L28.4964 120.912C28.6042 121.02 28.7568 121.083 28.9095 121.083C29.0622 121.083 29.2149 121.02 29.3226 120.912L34.6844 115.551L35.5017 114.724L34.6844 113.907H34.6934Z" fill="white"/>
<path d="M99.6538 71.697C99.3934 71.697 99.1509 71.5173 99.088 71.2479C99.0161 70.9336 99.2048 70.6192 99.5191 70.5474L111.024 67.853C111.329 67.7812 111.653 67.9697 111.725 68.2841C111.796 68.5984 111.608 68.9128 111.293 68.9846L99.7886 71.679C99.7886 71.679 99.6987 71.697 99.6538 71.697Z" fill="white"/>
<path d="M100.238 59.0615V93.4685C100.238 93.7918 99.9771 94.0523 99.6538 94.0523C99.3305 94.0523 99.07 93.7918 99.07 93.4685V60.2291H73.7879V92.8937H86.8287C87.152 92.8937 87.4124 93.1541 87.4124 93.4775C87.4124 93.8008 87.152 94.0612 86.8287 94.0612H72.6294V59.0705H100.238V59.0615Z" fill="white"/>
<path d="M61.1601 54.1466V79.5634C61.1601 79.8867 60.8997 80.1472 60.5763 80.1472C60.253 80.1472 59.9926 79.8867 59.9926 79.5634V55.3052H34.7105V93.4573C34.7105 93.7806 34.4501 94.0411 34.1267 94.0411C33.8034 94.0411 33.543 93.7806 33.543 93.4573V54.1376H61.1511L61.1601 54.1466Z" fill="white"/>
<path d="M86.8196 94.0506C86.4963 94.0506 86.2358 93.7902 86.2358 93.4668V73.2951C86.2358 72.9718 86.4963 72.7113 86.8196 72.7113C87.143 72.7113 87.4034 72.9718 87.4034 73.2951V93.4668C87.4034 93.7902 87.143 94.0506 86.8196 94.0506Z" fill="white"/>
<path d="M73.203 90.3856C72.9965 90.3856 72.7899 90.2689 72.6911 90.0713C72.5384 89.7839 72.6552 89.4336 72.9336 89.2899L86.5491 82.1679C86.8365 82.0152 87.1868 82.1319 87.3305 82.4103C87.4832 82.6977 87.3664 83.048 87.088 83.1917L73.4725 90.3138C73.3827 90.3587 73.2929 90.3767 73.203 90.3767V90.3856Z" fill="white"/>
<path d="M73.7879 79.1147V80.2822H46.8354C46.5569 80.2822 46.3234 80.0847 46.2695 79.8152C46.2695 79.7973 46.2695 79.7793 46.2695 79.7613C46.2695 79.7433 46.2695 79.7164 46.2695 79.6985V66.8913C46.2695 66.5679 46.53 66.3075 46.8533 66.3075C47.1767 66.3075 47.4371 66.5679 47.4371 66.8913V79.1147H73.8059H73.7879Z" fill="white"/>
<path d="M53.7871 93.359C53.5805 93.359 53.3739 93.2512 53.2751 93.0536L46.3237 79.986C46.171 79.6986 46.2788 79.3483 46.5662 79.1957C46.8446 79.043 47.2039 79.1507 47.3566 79.4381L54.308 92.5058C54.4607 92.7932 54.3529 93.1434 54.0655 93.2961C53.9757 93.341 53.8859 93.368 53.7961 93.368L53.7871 93.359Z" fill="white"/>
<path d="M125.942 46.5869V106.545H47.7251L47.6174 103.222L47.5815 102.055L47.2671 92.1934H61.0892C61.4125 92.1934 61.673 92.4539 61.673 92.7772C61.673 93.1005 61.4125 93.361 61.0892 93.361H48.4616L48.8478 105.387H124.784V47.4132L112.363 43.0932V93.4777C112.363 93.801 112.102 94.0615 111.779 94.0615C111.456 94.0615 111.195 93.801 111.195 93.4777V41.4586L124.775 46.1917L125.942 46.5959V46.5869Z" fill="white"/>
<path d="M47.9313 103.177L47.6169 103.222L39.5788 104.255L37.5131 104.524L29.3402 105.575L28.3702 105.7L21.0596 106.635V74.383L33.5434 67.261L33.8398 67.0903C34.1182 66.9287 34.4775 67.0274 34.6301 67.3059C34.684 67.3957 34.702 67.4945 34.702 67.5933C34.702 67.7998 34.5942 67.9974 34.4056 68.1052L33.5344 68.5992L22.2092 75.0566V105.314L47.5631 102.063L47.7696 102.036C48.0839 102 48.3804 102.216 48.4163 102.539C48.4612 102.853 48.2367 103.15 47.9133 103.186L47.9313 103.177Z" fill="white"/>
</svg>
