<svg width="103" height="125" viewBox="0 0 103 125" fill="none" xmlns="http://www.w3.org/2000/svg">
<g id="Frame 2539">
<path id="Vector" d="M7.864 88.9293C3.77143 88.5108 2.08357 86.6467 2.08357 82.7222C2.08357 81.3861 2.07053 80.0533 2.08357 78.7172C2.11941 75.5235 4.27322 73.3762 7.48276 73.3247C8.00085 73.315 8.5222 73.3247 9.16736 73.3247V36.8806C7.27422 36.8806 5.37782 36.8806 3.47817 36.8806C0.825816 36.8741 0.0959308 35.9598 0.695479 33.439C3.09367 23.3557 5.48861 13.2724 7.88355 3.18913C8.43748 0.858259 8.85129 0.523438 11.2462 0.523438C38.0728 0.523438 64.9026 0.523438 91.7291 0.523438C94.1306 0.523438 94.5476 0.851821 95.0983 3.17948C97.5063 13.3046 99.9143 23.4298 102.325 33.5549C102.886 35.9051 102.114 36.8742 99.6471 36.8838C97.7344 36.8902 95.8249 36.8838 93.8047 36.8838V73.3279C94.4792 73.3279 95.1179 73.3118 95.7565 73.3279C98.65 73.418 100.823 75.5751 100.895 78.4532C100.931 79.9149 100.905 81.3797 100.905 82.8446C100.902 86.6403 99.1257 88.5655 95.1179 88.9261C95.1179 89.3993 95.1179 89.8951 95.1179 90.3909C95.1179 100.767 95.1179 111.14 95.1179 121.516C95.1179 123.896 94.4955 124.523 92.1299 124.523C65.0394 124.523 37.9522 124.523 10.8617 124.523C8.4831 124.523 7.864 123.905 7.864 121.533C7.864 111.201 7.864 100.87 7.864 90.539C7.864 90.0303 7.864 89.5185 7.864 88.9357V88.9293ZM23.4392 36.9418V73.241H79.5296V36.9868H53.6676V50.6823C55.7888 50.6823 57.8285 50.6695 59.8683 50.6856C61.9016 50.7017 62.6836 51.4808 62.4848 53.4639C61.957 58.7277 61.39 63.9883 60.797 69.2456C60.5949 71.0453 59.9139 71.5668 58.0175 71.5668C53.6643 71.5701 49.3111 71.5733 44.9546 71.5668C43.0744 71.5668 42.4228 71.0582 42.211 69.2134C41.6179 64.043 41.051 58.8694 40.5264 53.6893C40.295 51.3971 41.0314 50.6856 43.4231 50.6823C45.3716 50.6791 47.3169 50.6823 49.3078 50.6823V36.9385H23.4327L23.4392 36.9418ZM5.17906 32.6631H97.7572C97.6985 32.3219 97.6725 32.0707 97.6171 31.8293C96.4506 26.9357 95.2515 22.0518 94.1436 17.1422C93.922 16.1667 93.5082 15.951 92.5763 15.9542C82.7359 15.9832 72.8955 15.9735 63.0583 15.9735C45.5117 15.9735 27.9652 15.98 10.4219 15.9542C9.49646 15.9542 9.02725 16.1409 8.8513 17.139C8.5613 18.7873 8.08883 20.4035 7.70108 22.0357C6.86692 25.5385 6.03928 29.0445 5.18232 32.6631H5.17906ZM51.4909 77.4584C47.3984 77.4584 43.3025 77.4584 39.21 77.4584C28.9329 77.4584 18.6526 77.4584 8.37557 77.4584C6.3358 77.4584 6.26737 77.5293 6.26737 79.5929C6.26737 80.5394 6.26737 81.486 6.26737 82.4357C6.26737 84.6732 6.32602 84.7311 8.6395 84.7311C37.2093 84.7311 65.7823 84.7311 94.3521 84.7311C94.5705 84.7311 94.7888 84.7183 95.0038 84.7311C96.2029 84.8148 96.7927 84.3287 96.734 83.0796C96.6786 81.9206 96.7243 80.7551 96.721 79.5929C96.721 77.5357 96.6461 77.4584 94.6096 77.4584C80.2367 77.4584 65.8638 77.4584 51.4909 77.4584ZM91.1589 4.74091H11.823C11.2625 7.11041 10.7216 9.40265 10.1612 11.7818H92.8305C92.2602 9.3769 91.7063 7.05246 91.1589 4.74091ZM19.0762 73.2571V36.9675H13.5793V73.2571H19.0762ZM89.4222 36.9675H83.9252V73.2538H89.4222V36.9675ZM31.0965 101.173H12.1456V109.08H31.0965V101.173ZM56.763 67.388C57.2127 63.2285 57.6591 59.1076 58.112 54.9159H44.8633C45.3228 59.143 45.7724 63.2607 46.2221 67.388H56.763ZM73.583 101.134V109.102H90.8624V101.134H73.583ZM35.3846 109.106H50.1485V101.154H35.3846V109.106ZM54.4561 109.102H69.2232V101.157H54.4561V109.102ZM26.4142 96.8556H40.9402V88.9518H26.4142V96.8556ZM59.7869 88.9422H45.2739V96.8395H59.7869V88.9422ZM78.6042 96.862V88.9357H64.0945V96.862H78.6042ZM24.8729 120.296H40.1614V113.436H24.8729V120.296ZM59.7347 120.364V113.407H44.5342V120.364H59.7347ZM64.101 120.29H79.3439V113.391H64.101V120.29ZM22.0805 96.8749V88.9551H12.1423V96.8749H22.0805ZM90.8689 88.9518H82.9412V96.8524H90.8689V88.9518ZM12.139 113.397V120.316H20.5816V113.397H12.139ZM83.7232 113.371V120.322H90.8298V113.371H83.7232Z" fill="#EDB22E"/>
</g>
</svg>
