<svg width="125" height="125" viewBox="0 0 125 125" fill="none" xmlns="http://www.w3.org/2000/svg">
<g id="Frame 2540">
<g id="Group">
<path id="Vector" d="M62.499 124.527C45.9378 124.527 30.37 118.079 18.6582 106.368C6.94966 94.6592 0.499023 79.0881 0.499023 62.5269C0.499023 45.9656 6.9464 30.3978 18.6582 18.686C30.3667 6.97748 45.9378 0.526855 62.499 0.526855C79.0603 0.526855 94.6281 6.97421 106.34 18.686C118.048 30.3945 124.499 45.9656 124.499 62.5269C124.499 79.0881 118.052 94.6559 106.34 106.368C94.6313 118.076 79.0603 124.527 62.499 124.527ZM62.499 7.6082C32.2163 7.6082 7.58035 32.2441 7.58035 62.5269C7.58035 92.8096 32.2163 117.446 62.499 117.446C92.7818 117.446 117.418 92.8096 117.418 62.5269C117.418 32.2441 92.7818 7.6082 62.499 7.6082Z" fill="#E04B20"/>
<path id="Vector_2" d="M40.3331 58.3781C32.5001 58.3781 26.1279 52.0026 26.1279 44.1664C26.1279 41.013 27.1409 38.0262 29.0591 35.5231C31.2126 32.716 34.3072 30.824 37.7809 30.1933C38.6077 30.0365 39.4671 29.958 40.3363 29.958C48.1725 29.958 54.548 36.3303 54.548 44.1632C54.548 51.9961 48.1725 58.3748 40.3363 58.3748L40.3331 58.3781ZM40.3331 35.7126C39.8168 35.7126 39.3135 35.7584 38.8364 35.8499H38.8103C36.745 36.2257 34.902 37.3531 33.621 39.0229C32.4805 40.5098 31.876 42.2907 31.876 44.1664C31.876 48.8296 35.6699 52.6267 40.3298 52.6267C44.9897 52.6267 48.7901 48.8329 48.7901 44.1664C48.7901 39.5 44.9962 35.7126 40.3298 35.7126H40.3331Z" fill="#E04B20"/>
<path id="Vector_3" d="M36.8679 47.0411C32.159 47.0411 28.3291 43.2112 28.3291 38.5023C28.3291 37.8651 28.3977 37.2377 28.5382 36.6332L28.6788 36.0221L29.0611 35.5254C31.2146 32.7151 34.3157 30.823 37.7927 30.1956L38.4103 30.0845L39.0181 30.2413C42.7826 31.2119 45.4099 34.6071 45.4099 38.5056C45.4099 43.2145 41.58 47.0444 36.8711 47.0444L36.8679 47.0411ZM34.0772 38.4729C34.0772 38.4729 34.0772 38.4893 34.0772 38.4991C34.0772 40.0382 35.3287 41.2898 36.8679 41.2898C38.407 41.2898 39.6586 40.0382 39.6586 38.4991C39.6586 37.424 39.0475 36.4665 38.1227 36.0057C36.5672 36.424 35.1686 37.2769 34.0804 38.4729H34.0772Z" fill="#E04B20"/>
<path id="Vector_4" d="M83.0709 58.3781C75.2379 58.3781 68.8657 52.0026 68.8657 44.1664C68.8657 41.013 69.8787 38.0262 71.7969 35.5231C73.9504 32.716 77.045 30.824 80.5187 30.1933C81.3455 30.0365 82.2049 29.958 83.0741 29.958C90.9103 29.958 97.2858 36.3303 97.2858 44.1632C97.2858 51.9961 90.9103 58.3748 83.0741 58.3748L83.0709 58.3781ZM83.0709 35.7126C82.5545 35.7126 82.0513 35.7584 81.5742 35.8499H81.5481C79.4828 36.2257 77.6398 37.3531 76.3588 39.0229C75.2183 40.5098 74.6138 42.2907 74.6138 44.1664C74.6138 48.8296 78.4077 52.6267 83.0676 52.6267C87.7275 52.6267 91.5279 48.8329 91.5279 44.1664C91.5279 39.5 87.734 35.7126 83.0676 35.7126H83.0709Z" fill="#E04B20"/>
<path id="Vector_5" d="M79.6057 47.0411C74.8968 47.0411 71.0669 43.2112 71.0669 38.5023C71.0669 37.8651 71.1355 37.2377 71.276 36.6332L71.4166 36.0221L71.7989 35.5254C73.9524 32.7151 77.0535 30.823 80.5305 30.1956L81.1481 30.0845L81.7559 30.2413C85.5204 31.2119 88.1477 34.6071 88.1477 38.5056C88.1477 43.2145 84.3178 47.0444 79.6089 47.0444L79.6057 47.0411ZM76.8182 38.4729C76.8182 38.4729 76.8182 38.4893 76.8182 38.4991C76.8182 40.0382 78.0698 41.2898 79.6089 41.2898C81.1481 41.2898 82.3996 40.0382 82.3996 38.4991C82.3996 37.424 81.7886 36.4665 80.8638 36.0057C79.3083 36.424 77.9097 37.2769 76.8215 38.4729H76.8182Z" fill="#E04B20"/>
<path id="Vector_6" d="M97.8548 99.7728C96.4072 99.7728 94.9563 99.2533 93.7962 98.2043L87.5711 92.5804C86.3652 91.4889 85.6594 89.9923 85.5842 88.3682C85.5091 86.7441 86.0744 85.1887 87.1757 83.9926L87.7149 83.4044L84.813 80.3392H32.0119C30.4237 80.3392 29.1362 79.0517 29.1362 77.4635C29.1362 75.8754 30.4237 74.5879 32.0119 74.5879H87.2868L91.7342 79.287L91.8846 79.1432C94.2308 76.8688 97.9202 76.859 100.28 79.1203L106.338 84.924C107.511 86.0481 108.175 87.561 108.204 89.1884C108.233 90.8125 107.626 92.3516 106.492 93.515L102.191 97.9363C101.002 99.1585 99.4299 99.7761 97.8548 99.7761V99.7728ZM93.708 85.3815L91.4075 87.8813C91.3519 87.9434 91.3258 88.0153 91.329 88.1002C91.3323 88.1819 91.365 88.2538 91.4271 88.3094L97.6522 93.9333C97.7731 94.0444 97.9561 94.0379 98.0705 93.9202L102.371 89.4989C102.43 89.4401 102.459 89.3681 102.456 89.2832C102.456 89.2015 102.423 89.1296 102.364 89.0708L96.3059 83.2672C96.1883 83.156 96.0053 83.156 95.8876 83.2672L93.708 85.3782V85.3815Z" fill="#E04B20"/>
<path id="Vector_7" d="M85.8586 80.3359C84.2704 80.3359 82.9829 79.0484 82.9829 77.4602V69.9933C82.9829 68.4052 84.2704 67.1177 85.8586 67.1177C87.4467 67.1177 88.7342 68.4052 88.7342 69.9933V77.4602C88.7342 79.0484 87.4467 80.3359 85.8586 80.3359Z" fill="#E04B20"/>
<path id="Vector_8" d="M80.9929 87.8982C79.4047 87.8982 78.1172 86.6107 78.1172 85.0225V77.4608C78.1172 75.8727 79.4047 74.5852 80.9929 74.5852C82.581 74.5852 83.8685 75.8727 83.8685 77.4608V85.0225C83.8685 86.6107 82.581 87.8982 80.9929 87.8982Z" fill="#E04B20"/>
<path id="Vector_9" d="M76.2248 80.3359C74.6366 80.3359 73.3491 79.0484 73.3491 77.4602V69.9933C73.3491 68.4052 74.6366 67.1177 76.2248 67.1177C77.8129 67.1177 79.1005 68.4052 79.1005 69.9933V77.4602C79.1005 79.0484 77.8129 80.3359 76.2248 80.3359Z" fill="#E04B20"/>
<path id="Vector_10" d="M71.3595 87.8982C69.7714 87.8982 68.4839 86.6107 68.4839 85.0225V77.4608C68.4839 75.8727 69.7714 74.5852 71.3595 74.5852C72.9477 74.5852 74.2352 75.8727 74.2352 77.4608V85.0225C74.2352 86.6107 72.9477 87.8982 71.3595 87.8982Z" fill="#E04B20"/>
<path id="Vector_11" d="M66.8815 80.3359C65.2934 80.3359 64.0059 79.0484 64.0059 77.4602V69.9933C64.0059 68.4052 65.2934 67.1177 66.8815 67.1177C68.4697 67.1177 69.7572 68.4052 69.7572 69.9933V77.4602C69.7572 79.0484 68.4697 80.3359 66.8815 80.3359Z" fill="#E04B20"/>
<path id="Vector_12" d="M62.0163 87.8982C60.4281 87.8982 59.1406 86.6107 59.1406 85.0225V77.4608C59.1406 75.8727 60.4281 74.5852 62.0163 74.5852C63.6044 74.5852 64.892 75.8727 64.892 77.4608V85.0225C64.892 86.6107 63.6044 87.8982 62.0163 87.8982Z" fill="#E04B20"/>
<path id="Vector_13" d="M57.1081 80.3359C55.5199 80.3359 54.2324 79.0484 54.2324 77.4602V69.9933C54.2324 68.4052 55.5199 67.1177 57.1081 67.1177C58.6962 67.1177 59.9838 68.4052 59.9838 69.9933V77.4602C59.9838 79.0484 58.6962 80.3359 57.1081 80.3359Z" fill="#E04B20"/>
<path id="Vector_14" d="M52.2429 87.8982C50.6547 87.8982 49.3672 86.6107 49.3672 85.0225V77.4608C49.3672 75.8727 50.6547 74.5852 52.2429 74.5852C53.831 74.5852 55.1185 75.8727 55.1185 77.4608V85.0225C55.1185 86.6107 53.831 87.8982 52.2429 87.8982Z" fill="#E04B20"/>
<path id="Vector_15" d="M47.6681 80.3359C46.08 80.3359 44.7925 79.0484 44.7925 77.4602V69.9933C44.7925 68.4052 46.08 67.1177 47.6681 67.1177C49.2563 67.1177 50.5438 68.4052 50.5438 69.9933V77.4602C50.5438 79.0484 49.2563 80.3359 47.6681 80.3359Z" fill="#E04B20"/>
<path id="Vector_16" d="M38.1745 80.3359C36.5863 80.3359 35.2988 79.0484 35.2988 77.4602V69.9933C35.2988 68.4052 36.5863 67.1177 38.1745 67.1177C39.7626 67.1177 41.0502 68.4052 41.0502 69.9933V77.4602C41.0502 79.0484 39.7626 80.3359 38.1745 80.3359Z" fill="#E04B20"/>
<path id="Vector_17" d="M42.7975 87.8982C41.2094 87.8982 39.9219 86.6107 39.9219 85.0225V77.4608C39.9219 75.8727 41.2094 74.5852 42.7975 74.5852C44.3857 74.5852 45.6732 75.8727 45.6732 77.4608V85.0225C45.6732 86.6107 44.3857 87.8982 42.7975 87.8982Z" fill="#E04B20"/>
</g>
</g>
</svg>
