<svg width="363" height="481" viewBox="0 0 363 481" fill="none" xmlns="http://www.w3.org/2000/svg">
<path d="M156.985 224.827C156.985 224.827 177.354 207.091 181.692 198.183L180.843 180.664L186.807 192.827C186.807 192.827 204.445 177.123 218.256 176.61L220.855 166.183L223.32 177.477C223.32 177.477 242.319 177.398 242.257 177.615C242.186 177.832 213.458 190.862 204.312 206.931C204.312 206.931 188.557 229.087 184.659 253.31C184.659 253.31 181.354 284.145 184.168 295.988C184.168 295.988 193.897 287.845 205.478 268.407C205.478 268.407 199.831 253.641 200.414 248.319C200.414 248.319 208.588 262.868 210.634 262.868C210.634 262.868 227.362 211.613 239.137 196.732C239.137 196.732 247.015 187.288 251.301 185.004C251.301 185.004 240.989 211.282 242.636 226.711C244.283 242.129 251.301 281.552 262.964 295.668C262.964 295.668 265.88 299.562 268.929 303.594H275.456L275.62 270.794C275.62 270.794 275.425 212.595 267.65 200.318L269.297 200.535L270.269 204.658L273.093 205.092L272.121 207.159L276.203 208.678L275.814 212.264L279.896 214L279.016 217.689L283.978 218.991L284.275 223.662L288.459 225.501L288.94 229.087L293.513 230.925L291.477 234.409L297.114 238.417L294.782 239.936L300.03 245.144L297.892 246.24L303.048 250.477L301.974 253.961L306.741 258.197L304.307 260.801C304.307 260.801 308.143 265.598 308.47 265.598C308.286 265.975 307.028 268.956 307.028 268.956L311.99 274.163L309.555 276.767L314.517 283.505L311.499 285.355L316.164 292.196C316.164 292.196 313.637 295.451 313.934 295.451C314.23 295.451 319.673 301.961 319.673 301.961L317.259 303.594H325.699V417.902L327 441.5C333.072 435.249 335.163 436.23 342 427C339.688 429.384 339.234 413.539 339.449 406.264L338.017 405.762L341.321 390.766H338.856L341.904 375.132L339.633 374.766L342.354 361.302L339.95 361.884L341.966 347.471H339.766L340.932 334.726L337.955 334.361L338.405 321.547L335.817 322.415L336.011 310.538H333.351V299.243L330.947 300.111L330.824 289.615H328.103L327.98 280.056H325.382L325.126 270.577L322.599 270.943L321.494 260.813L319.417 261.612L318.057 253.652L316.43 254.589L315.335 245.544L313.003 246.48L311.959 239.239L309.565 238.806L308.46 233.084C308.46 233.084 326.17 246.549 358.14 247.417C358.14 247.417 343.101 206.874 320.655 194.277C320.655 194.277 288.613 174.657 270.975 175.456C270.975 175.456 296.071 153.517 324.42 163.659L323.315 148.892L332.85 162.574C332.85 162.574 357.813 161.557 363 164.093C363 164.093 352.299 141.217 326.098 134.194C326.098 134.194 302.107 129.706 285.625 141.366C285.625 141.366 270.259 152.295 265.266 163.807C265.266 163.807 273.236 127.25 285.114 114.939C285.114 114.939 294.321 106.693 303.273 105.094L293.871 90.9788L308.91 97.9338C308.91 97.9338 328.697 82.2878 342.508 85.554C342.508 85.554 317.985 59.995 292.306 68.903C292.306 68.903 267.466 78.9644 260.724 98.5848C253.982 118.205 253.266 134.776 253.266 134.776C253.266 134.776 253.399 154.282 256.499 162.768C255.936 161.546 238.083 122.317 233.224 103.496L222.072 106.031L230.953 97.0545C230.953 97.0545 216.691 67.8866 216.947 61C216.947 61 205.141 88.7289 211.299 112.118C217.458 135.484 234.298 154.305 241.899 160.404C241.02 160.038 204.486 144.609 188.076 154.328C188.076 154.328 162.458 164.755 157.466 192.415C157.466 192.415 154.55 206.314 156.944 224.85L156.985 224.827Z" fill="#E04B20"/>
<path d="M227.285 401.383C227.285 401.383 233.19 396.036 234.447 393.351L234.201 388.071L235.93 391.737C235.93 391.737 241.042 387.003 245.045 386.848L245.799 383.705L246.513 387.11C246.513 387.11 252.02 387.086 252.002 387.151C251.981 387.217 243.655 391.145 241.003 395.988C241.003 395.988 236.437 402.667 235.307 409.968C235.307 409.968 234.349 419.263 235.165 422.833C235.165 422.833 237.985 420.378 241.341 414.519C241.341 414.519 239.705 410.068 239.874 408.464C239.874 408.464 242.243 412.85 242.836 412.85C242.836 412.85 247.685 397.4 251.098 392.914C251.098 392.914 253.381 390.067 254.624 389.379C254.624 389.379 251.634 397.3 252.112 401.951C252.589 406.598 254.624 418.482 258.004 422.736C258.004 422.736 258.849 423.91 259.733 425.126H261.625L261.672 415.239C261.672 415.239 261.616 397.696 259.362 393.995L259.84 394.06L260.121 395.303L260.94 395.434L260.658 396.057L261.841 396.515L261.729 397.596L262.912 398.119L262.657 399.231L264.095 399.624L264.181 401.032L265.394 401.586L265.533 402.667L266.859 403.221L266.269 404.271L267.903 405.479L267.227 405.937L268.748 407.507L268.128 407.837L269.623 409.115L269.311 410.164L270.693 411.442L269.987 412.227C269.987 412.227 271.099 413.672 271.194 413.672C271.141 413.786 270.776 414.684 270.776 414.684L272.214 416.254L271.509 417.039L272.947 419.07L272.072 419.628L273.424 421.69C273.424 421.69 272.692 422.671 272.778 422.671C272.864 422.671 274.441 424.633 274.441 424.633L273.742 425.126H276.188V459.582L276.096 466.5C276.096 466.5 279.502 466 280.002 465.5C281.003 464.498 280.111 458.267 280.174 456.074L279.758 455.922L280.716 451.402H280.002L280.885 446.689L280.227 446.579L281.016 442.521L280.319 442.696L280.903 438.352H280.266L280.604 434.51L279.741 434.4L279.871 430.537L279.121 430.799L279.177 427.219H278.406V423.814L277.709 424.076L277.674 420.912H276.885L276.849 418.031H276.096L276.022 415.173L275.29 415.283L274.969 412.23L274.367 412.471L273.973 410.072L273.501 410.354L273.184 407.627L272.508 407.91L272.206 405.727L271.512 405.596L271.191 403.872C271.191 403.872 276.325 407.93 285.591 408.192C285.591 408.192 281.232 395.971 274.726 392.174C274.726 392.174 265.438 386.26 260.326 386.501C260.326 386.501 267.6 379.888 275.817 382.945L275.497 378.493L278.261 382.618C278.261 382.618 285.497 382.311 287 383.075C287 383.075 283.898 376.18 276.304 374.063C276.304 374.063 269.35 372.71 264.573 376.225C264.573 376.225 260.118 379.519 258.671 382.989C258.671 382.989 260.981 371.97 264.424 368.259C264.424 368.259 267.093 365.773 269.688 365.291L266.963 361.037L271.322 363.133C271.322 363.133 277.057 358.417 281.06 359.401C281.06 359.401 273.952 351.697 266.509 354.382C266.509 354.382 259.309 357.415 257.355 363.329C255.401 369.243 255.193 374.239 255.193 374.239C255.193 374.239 255.231 380.118 256.13 382.676C255.967 382.308 250.792 370.483 249.384 364.81L246.151 365.574L248.725 362.868C248.725 362.868 244.592 354.076 244.666 352C244.666 352 241.244 360.358 243.029 367.409C244.814 374.452 249.695 380.125 251.898 381.964C251.643 381.853 241.054 377.203 236.297 380.132C236.297 380.132 228.872 383.275 227.425 391.613C227.425 391.613 226.58 395.802 227.274 401.39L227.285 401.383Z" fill="#E04B20" fill-opacity="0.3"/>
<path d="M53.49 411.4C53.49 411.4 63.6254 401.721 65.7838 396.86L65.3613 387.3L68.3291 393.937C68.3291 393.937 77.1054 385.368 83.9777 385.088L85.2708 379.398L86.4976 385.561C86.4976 385.561 95.9509 385.518 95.9204 385.636C95.8847 385.755 81.5902 392.865 77.0392 401.634C77.0392 401.634 69.1996 413.724 67.2601 426.943C67.2601 426.943 65.6158 443.769 67.0158 450.232C67.0158 450.232 71.8569 445.788 77.6195 435.181C77.6195 435.181 74.8095 427.123 75.0997 424.219C75.0997 424.219 79.1671 432.159 80.1852 432.159C80.1852 432.159 88.5084 404.189 94.3677 396.069C94.3677 396.069 98.2875 390.915 100.42 389.668C100.42 389.668 95.2891 404.008 96.1087 412.428C96.9283 420.841 100.42 442.355 106.224 450.057C106.224 450.057 107.675 452.183 109.192 454.383H112.439L112.521 436.484C112.521 436.484 112.424 404.725 108.555 398.026L109.375 398.144L109.859 400.394L111.264 400.631L110.78 401.759L112.811 402.587L112.618 404.544L114.649 405.492L114.211 407.505L116.68 408.215L116.828 410.764L118.91 411.767L119.149 413.724L121.424 414.728L120.411 416.628L123.216 418.816L122.056 419.645L124.667 422.487L123.603 423.085L126.169 425.397L125.634 427.298L128.007 429.61L126.795 431.031C126.795 431.031 128.704 433.648 128.867 433.648C128.775 433.854 128.149 435.481 128.149 435.481L130.618 438.322L129.407 439.743L131.875 443.42L130.374 444.43L132.695 448.163C132.695 448.163 131.438 449.939 131.585 449.939C131.733 449.939 134.441 453.491 134.441 453.491L133.24 454.383H137.44V436.5L134.441 481L145.02 480C145.02 480 144.174 468.379 144.281 464.409L143.569 464.135L145.213 455.952H142.571L142.474 450.057L138.575 449.939L138.636 452.008L145.02 480L145.534 478.326H144.439L145.02 471.371L143.538 471.172L143.762 464.179L142.474 464.653L142.571 458.172H141.247V452.008L140.051 452.482L139.99 446.754H138.636L138.575 441.538H137.282L137.154 436.366L135.897 436.565L135.347 431.037L134.314 431.473L133.637 427.13L132.827 427.641L132.283 422.705L131.122 423.216L130.603 419.265L129.412 419.028L128.862 415.905C128.862 415.905 137.674 423.253 153.582 423.727C153.582 423.727 146.099 401.603 134.93 394.729C134.93 394.729 118.986 384.022 110.21 384.458C110.21 384.458 122.697 372.486 136.803 378.02L136.253 369.962L140.998 377.428C140.998 377.428 153.419 376.874 156 378.257C156 378.257 150.675 365.774 137.638 361.942C137.638 361.942 125.701 359.492 117.5 365.855C117.5 365.855 109.853 371.82 107.369 378.101C107.369 378.101 111.335 358.152 117.245 351.434C117.245 351.434 121.827 346.935 126.281 346.062L121.603 338.359L129.086 342.155C129.086 342.155 138.931 333.617 145.803 335.399C145.803 335.399 133.601 321.452 120.824 326.313C120.824 326.313 108.464 331.803 105.109 342.51C101.754 353.217 101.398 362.259 101.398 362.259C101.398 362.259 101.464 372.904 103.007 377.534C102.727 376.868 93.8434 355.46 91.4253 345.19L85.8765 346.573L90.2952 341.675C90.2952 341.675 83.1989 325.758 83.3261 322C83.3261 322 77.4516 337.132 80.5161 349.895C83.5807 362.646 91.9599 372.916 95.7422 376.244C95.3044 376.045 77.1258 367.625 68.9604 372.929C68.9604 372.929 56.2134 378.619 53.7292 393.713C53.7292 393.713 52.2784 401.297 53.4696 411.412L53.49 411.4Z" fill="#E04B20"/>
<path d="M122.609 353.825C122.609 353.825 135.204 344.101 137.887 339.217L137.362 329.611L141.05 336.28C141.05 336.28 151.956 327.67 160.497 327.388L162.103 321.671L163.628 327.864C163.628 327.864 175.376 327.82 175.338 327.939C175.294 328.058 157.53 335.203 151.874 344.013C151.874 344.013 142.132 356.161 139.721 369.442C139.721 369.442 137.678 386.349 139.418 392.843C139.418 392.843 145.434 388.378 152.595 377.72C152.595 377.72 149.103 369.624 149.464 366.706C149.464 366.706 154.518 374.683 155.784 374.683C155.784 374.683 166.127 346.58 173.408 338.421C173.408 338.421 178.28 333.243 180.93 331.99C180.93 331.99 174.553 346.399 175.572 354.859C176.591 363.312 180.93 384.928 188.142 392.667C188.142 392.667 189.945 394.802 191.83 397.013H195.867L195.968 379.029C195.968 379.029 195.848 347.119 191.04 340.388L192.058 340.507L192.659 342.767L194.405 343.005L193.804 344.138L196.328 344.971L196.088 346.937L198.612 347.889L198.068 349.912L201.136 350.626L201.32 353.187L203.907 354.195L204.204 356.161L207.032 357.169L205.773 359.079L209.259 361.277L207.817 362.11L211.062 364.965L209.74 365.566L212.928 367.889L212.264 369.799L215.212 372.122L213.706 373.55C213.706 373.55 216.079 376.18 216.281 376.18C216.167 376.387 215.389 378.021 215.389 378.021L218.457 380.876L216.952 382.304L220.02 385.998L218.154 387.013L221.039 390.764C221.039 390.764 219.476 392.548 219.659 392.548C219.843 392.548 223.208 396.117 223.208 396.117L221.715 397.013H226.935V459.687L225 472.5L234.551 471.5C234.551 471.5 235.304 457.295 235.437 453.306L234.551 453.031L236.595 444.809H235.07L236.955 436.237L235.551 436.036L237.234 428.654L235.747 428.973L236.993 421.071H235.633L236.354 414.083L234.513 413.882L234.792 406.856L233.191 407.332L233.311 400.82H231.667V394.627L230.18 395.103L230.104 389.348H228.421L228.345 384.107H226.738L226.58 378.91L225.018 379.11L224.335 373.556L223.05 373.995L222.209 369.63L221.203 370.144L220.526 365.184L219.084 365.698L218.438 361.728L216.958 361.49L216.275 358.353C216.275 358.353 227.226 365.735 246.995 366.211C246.995 366.211 237.695 343.982 223.816 337.075C223.816 337.075 204.002 326.317 193.096 326.756C193.096 326.756 208.614 314.727 226.144 320.287L225.461 312.191L231.357 319.692C231.357 319.692 246.793 319.135 250 320.525C250 320.525 243.383 307.983 227.181 304.132C227.181 304.132 212.346 301.671 202.155 308.064C202.155 308.064 192.653 314.057 189.566 320.369C189.566 320.369 194.494 300.325 201.838 293.574C201.838 293.574 207.532 289.053 213.068 288.177L207.254 280.437L216.553 284.251C216.553 284.251 228.788 275.672 237.329 277.463C237.329 277.463 222.165 263.449 206.286 268.333C206.286 268.333 190.926 273.85 186.757 284.608C182.588 295.365 182.145 304.451 182.145 304.451C182.145 304.451 182.227 315.146 184.144 319.799C183.796 319.129 172.757 297.62 169.752 287.3L162.856 288.69L168.347 283.768C168.347 283.768 159.529 267.776 159.687 264C159.687 264 152.386 279.204 156.195 292.028C160.003 304.839 170.416 315.159 175.117 318.503C174.572 318.302 151.982 309.843 141.834 315.171C141.834 315.171 125.993 320.888 122.906 336.054C122.906 336.054 121.103 343.675 122.584 353.838L122.609 353.825Z" fill="#EDB22E" fill-opacity="0.8"/>
<path d="M0.941864 154.211C0.941864 154.211 20.4255 143.795 24.5747 138.564L23.7625 128.275L29.4677 135.418C29.4677 135.418 46.3385 126.196 59.5494 125.894L62.0351 119.771L64.3934 126.404C64.3934 126.404 82.5658 126.357 82.5071 126.485C82.4386 126.612 54.9599 134.265 46.2113 143.701C46.2113 143.701 31.1411 156.713 27.4126 170.938C27.4126 170.938 24.2518 189.047 26.9429 196.002C26.9429 196.002 36.2493 191.22 47.3269 179.805C47.3269 179.805 41.9251 171.133 42.4829 168.007C42.4829 168.007 50.3018 176.552 52.259 176.552C52.259 176.552 68.2589 146.451 79.5224 137.712C79.5224 137.712 87.0575 132.165 91.1578 130.824C91.1578 130.824 81.2937 146.257 82.8692 155.318C84.4447 164.372 91.1578 187.524 102.314 195.814C102.314 195.814 105.103 198.101 108.019 200.469H114.262L114.419 181.207C114.419 181.207 114.233 147.028 106.796 139.818L108.371 139.945L109.301 142.367L112.002 142.621L111.072 143.835L114.977 144.727L114.605 146.833L118.509 147.853L117.668 150.019L122.414 150.784L122.698 153.527L126.7 154.607L127.16 156.713L131.534 157.793L129.587 159.838L134.979 162.192L132.748 163.084L137.768 166.143L135.723 166.787L140.655 169.275L139.627 171.32L144.187 173.809L141.858 175.338C141.858 175.338 145.528 178.155 145.841 178.155C145.665 178.376 144.461 180.127 144.461 180.127L149.208 183.185L146.879 184.714L151.625 188.671L148.738 189.758L153.2 193.775C153.2 193.775 150.783 195.687 151.067 195.687C151.351 195.687 156.557 199.51 156.557 199.51L154.247 200.469H162.321V267.599L171.5 477.5L186 476.5C183.788 477.9 175.267 265.037 175.473 260.764L174.103 260.469L177.264 251.663H174.905L177.822 242.481L175.649 242.266L178.252 234.359L175.952 234.701L177.88 226.237H175.776L176.892 218.752L174.044 218.537L174.475 211.012L171.999 211.522L172.185 204.547H169.641V197.913L167.341 198.423L167.223 192.26H164.62L164.503 186.646H162.017L161.773 181.079L159.356 181.294L158.299 175.345L156.312 175.814L155.011 171.139L153.455 171.689L152.408 166.377L150.176 166.927L149.178 162.675L146.888 162.42L145.832 159.06C145.832 159.06 162.771 166.968 193.352 167.477C193.352 167.477 178.966 143.668 157.496 136.27C157.496 136.27 126.847 124.747 109.976 125.217C109.976 125.217 133.981 112.333 161.097 118.289L160.041 109.617L169.161 117.652C169.161 117.652 193.039 117.055 198 118.544C198 118.544 187.764 105.11 162.702 100.985C162.702 100.985 139.754 98.3489 123.989 105.197C123.989 105.197 109.291 111.615 104.516 118.376C104.516 118.376 112.139 96.907 123.5 89.6769C123.5 89.6769 132.307 84.8345 140.87 83.8955L131.877 75.6057L146.262 79.6902C146.262 79.6902 165.188 70.5017 178.399 72.4199C178.399 72.4199 154.942 57.4098 130.38 62.6412C130.38 62.6412 106.619 68.55 100.171 80.0725C93.7217 91.5951 93.0367 101.327 93.0367 101.327C93.0367 101.327 93.1639 112.782 96.129 117.766C95.5908 117.048 78.5145 94.0096 73.8662 82.9565L63.1996 84.4455L71.6937 79.1738C71.6937 79.1738 58.0522 62.0443 58.2968 58C58.2968 58 47.004 74.2845 52.8951 88.0203C58.7862 101.743 74.8937 112.796 82.1646 116.377C81.323 116.163 46.3777 107.102 30.6811 112.809C30.6811 112.809 6.17731 118.933 1.40179 135.177C1.40179 135.177 -1.38719 143.339 0.90271 154.224L0.941864 154.211Z" fill="#EDB22E" fill-opacity="0.13"/>
<path d="M198.452 65.9855C198.452 65.9855 207.8 58.8418 209.791 55.2539L209.401 48.1977L212.139 53.0966C212.139 53.0966 220.233 46.7717 226.572 46.5647L227.764 42.365L228.896 46.9143C228.896 46.9143 237.615 46.8821 237.587 46.9695C237.554 47.0569 224.37 52.3054 220.172 58.7774C220.172 58.7774 212.941 67.7012 211.153 77.4576C211.153 77.4576 209.636 89.8773 210.927 94.6474C210.927 94.6474 215.392 91.3677 220.707 83.5386C220.707 83.5386 218.116 77.591 218.383 75.4474C218.383 75.4474 222.135 81.3077 223.074 81.3077C223.074 81.3077 230.75 60.6634 236.155 54.6697C236.155 54.6697 239.77 50.8656 241.737 49.9456C241.737 49.9456 237.005 60.53 237.76 66.7444C238.516 72.9543 241.737 88.8331 247.09 94.5186C247.09 94.5186 248.428 96.0871 249.827 97.7109H252.823L252.898 84.5C252.898 84.5 252.809 61.059 249.24 56.1141L249.996 56.2015L250.442 57.8621L251.738 58.0369L251.292 58.8694L253.166 59.4812L252.987 60.9256L254.861 61.6248L254.457 63.1105L256.734 63.6349L256.87 65.5163L258.79 66.2569L259.011 67.7012L261.11 68.4418L260.176 69.8448L262.763 71.4593L261.692 72.0711L264.101 74.1687L263.119 74.6103L265.486 76.3168L264.993 77.7198L267.181 79.4263L266.063 80.4751C266.063 80.4751 267.824 82.4071 267.974 82.4071C267.89 82.5589 267.312 83.7595 267.312 83.7595L269.59 85.857L268.472 86.9058L270.749 89.6197L269.364 90.3649L271.505 93.1202C271.505 93.1202 270.345 94.4312 270.482 94.4312C270.618 94.4312 273.116 97.0531 273.116 97.0531L272.008 97.7109H275.881V143.751L273.208 155C273.208 155 277.167 153.86 281.534 151.011C280.473 151.971 282.093 141.994 282.192 139.064L281.534 138.862L283.051 132.822H281.919L283.318 126.525L282.276 126.377L283.525 120.954L282.422 121.189L283.347 115.384H282.337L282.872 110.25L281.506 110.103L281.713 104.942L280.525 105.292L280.614 100.508H279.393V95.9584L278.29 96.3079L278.233 92.0807H276.985L276.928 88.2305H275.736L275.618 84.4126L274.458 84.5598L273.951 80.4797L272.998 80.8017L272.374 77.5956L271.627 77.9728L271.125 74.3297L270.054 74.7068L269.575 71.7905L268.477 71.6157L267.97 69.3112C267.97 69.3112 276.097 74.7344 290.77 75.084C290.77 75.084 283.868 58.7544 273.566 53.6808C273.566 53.6808 258.861 45.7781 250.766 46.1001C250.766 46.1001 262.284 37.2637 275.294 41.3484L274.787 35.4008L279.163 40.9114C279.163 40.9114 290.62 40.502 293 41.5232C293 41.5232 288.089 32.3096 276.064 29.4807C276.064 29.4807 265.054 27.673 257.49 32.3694C257.49 32.3694 250.438 36.7715 248.146 41.4082C248.146 41.4082 251.804 26.684 257.255 21.7253C257.255 21.7253 261.481 18.4042 265.589 17.7602L261.274 12.0747L268.176 14.8761C268.176 14.8761 277.257 8.5742 283.595 9.88977C283.595 9.88977 272.341 -0.404784 260.556 3.18313C260.556 3.18313 249.156 7.23563 246.062 15.1382C242.967 23.0409 242.639 29.7153 242.639 29.7153C242.639 29.7153 242.7 37.5719 244.123 40.9896C243.864 40.4974 235.671 24.6968 233.441 17.1162L228.323 18.1374L232.398 14.5219C232.398 14.5219 225.853 2.77374 225.971 0C225.971 0 220.552 11.1685 223.379 20.5891C226.205 30.0005 233.934 37.5811 237.422 40.0375C237.019 39.8903 220.252 33.6758 212.721 37.5903C212.721 37.5903 200.964 41.79 198.673 52.931C198.673 52.931 197.334 58.529 198.433 65.9947L198.452 65.9855Z" fill="#E04B20" fill-opacity="0.09"/>
</svg>
