<svg width="426" height="704" viewBox="0 0 426 704" fill="none" xmlns="http://www.w3.org/2000/svg">
<path d="M118.253 207.51C83.7127 202.24 66.2027 186.71 66.2027 186.71L66.6827 192.42L69.2327 193.17L69.4627 200.33L72.1027 199.75L72.1827 208.69L74.0527 208L74.5427 215.92L76.8927 215.44L76.8327 225.43H79.6127L78.7227 234.68L81.5327 235.04L80.4827 244.33L83.4327 244.71L82.2727 254.91L84.9727 254.4L83.5727 265.37L86.4527 265.74L83.4327 343L52.8327 350L67.2627 263.29L70.7827 262.56L65.4827 257.07L69.7927 255.16C69.7927 255.16 64.7027 248.08 64.3827 248.04C64.0627 247.99 67.2127 245.18 67.2127 245.18L63.0027 237.9L66.5027 236.52L61.9627 229.29L64.9227 227.1L60.1927 221.35C60.1927 221.35 61.9227 218.65 62.1627 218.3C61.8327 218.3 58.2427 213.06 58.2427 213.06L61.2027 210.87L56.5627 206.1L58.1527 202.87L53.0927 198.04L55.5527 197.29L50.5027 191.5L53.2227 190.34L47.6127 185.66L50.2527 182.57L45.5227 180.15L45.4327 176.61L41.1227 174.24L41.3827 169.66L36.1727 167.71L37.5827 164.24L33.3727 161.99L34.2427 158.57L30.0028 156.53L31.3128 154.66L28.3028 153.85L27.7628 149.71L26.0027 149.27C32.9227 162.26 25.9127 218.8 25.9127 218.8L20.5828 258.84C18.6828 256.13 9.12276 241.19 9.12276 241.19C-1.77724 225.87 -4.47725 186.63 -4.35725 171.43C-4.23724 156.24 10.2028 132.15 10.2028 132.15C5.27276 133.77 -4.42725 141.86 -4.42725 141.86C-19.0272 154.68 -43.5272 202.12 -43.5272 202.12C-45.7372 201.83 -52.7872 186.58 -52.7872 186.58C-54.0872 191.66 -49.7972 206.79 -49.7972 206.79C-64.7572 224.06 -76.3173 230.62 -76.3173 230.62C-77.9073 218.74 -70.4973 189.25 -70.4973 189.25C-63.2673 166.28 -43.4473 146.95 -43.4473 146.95C-31.5373 132.62 1.20275 123.95 1.31275 123.74C1.31275 123.53 -19.1973 120.97 -19.1973 120.97L-20.4672 109.66L-24.5672 119.42C-39.6072 118.01 -60.6772 130.81 -60.6772 130.81L-65.6272 118.17L-66.8973 135.3C-72.7073 143.34 -98.9905 191.5 -98.9905 191.5C-99.2905 173.18 -92.3873 126.32 -92.3873 126.32C-83.5473 100.16 -54.4873 93.59 -54.4873 93.59C-35.2673 86.33 3.10275 106.95 3.10275 106.95C-4.36725 100 -20.3073 79.39 -24.0772 55.84C-27.8572 32.28 -7.49051 -11 -7.49051 -11C-8.62051 -4.36 -0.917252 43.95 -0.917252 43.95L-11.6572 51.43L0.742752 50.51C3.66275 69.44 18.1528 110.01 18.6128 111.27C16.3128 102.6 18.5828 83.65 18.5828 83.65C18.5828 83.65 21.4228 67.66 31.1528 49.54C40.9028 31.43 69.0727 25.1 69.0727 25.1C98.0027 20.01 121.403 48.21 121.403 48.21C106.843 43.14 83.4627 55.58 83.4627 55.58L68.0127 46.75L76.4527 61.76C66.5627 62.07 55.5527 68.8 55.5527 68.8C41.1627 79.1 27.9828 113.5 27.9828 113.5C34.8228 103.02 52.8327 94.53 52.8327 94.53C72.1327 85.49 97.5827 93.18 97.5827 93.18C125.113 103.62 133.863 127.31 133.863 127.31C128.553 124.13 101.373 121.66 101.373 121.66L92.7427 107.06L92.1027 121.55C62.6427 107.79 32.7227 125.61 32.7227 125.61C51.9427 127.28 84.2227 150.77 84.2227 150.77C106.973 166.11 118.253 207.55 118.253 207.55V207.51Z" fill="white" fill-opacity="0.3"/>
<path d="M-17.3683 301.51C-24.5718 389.302 -63.8005 490.568 -25.3682 578C-25.458 580.053 -5.49991 504.1 -3 502.6C16.4815 564.173 81 608 108 606.5C135 605 131.232 605.5 131.232 605.5V536.2C131.232 523.08 136.552 511.21 145.152 502.6C153.752 494.01 165.622 488.68 178.742 488.68C204.982 488.68 226.252 509.96 226.252 536.19V301.5H-17.3683V301.51ZM51.9318 409.7H4.06174V359.33C4.06174 352.72 6.74174 346.74 11.0717 342.4C15.4017 338.07 21.3817 335.39 28.0017 335.39C41.2117 335.39 51.9417 346.11 51.9417 359.33V409.7H51.9318ZM131.232 409.7H83.3618V359.03C83.3618 352.5 86.0117 346.6 90.2817 342.32C94.5517 338.04 100.472 335.4 106.992 335.4C120.382 335.4 131.232 346.26 131.232 359.64V409.7Z" fill="#EAE1C5"/>
<path d="M386.54 536.029V582L319.5 588.5L315.406 574.074C317.858 572.859 320.555 572.115 323.008 570.989C325.416 569.883 328.193 568.476 330.277 567.05C331.967 565.896 333.193 564.722 333.421 563.67C333.421 563.67 332.125 563.657 330.277 563.807C327.457 564.046 323.34 564.681 320.485 566.381C320.485 566.381 318.261 566.06 321.738 563.67C321.738 563.67 326.817 559.684 330.277 555.71C332.064 553.662 333.421 551.614 333.421 550.126C333.421 550.126 332.134 550.904 330.277 552.092C326.415 554.557 320.082 558.748 317.718 561.165C318.042 560.66 328.228 544.487 329.673 539.606C329.673 539.606 327.579 539.77 314.819 552.222C313.032 553.963 311.657 555.922 310.737 558.032L310.072 559.547C310.072 559.547 309.284 552.181 308.346 544.808C307.357 537.087 306.218 529.359 305.64 530.117C303.354 533.128 301.41 548.87 302.452 559.841C302.452 559.841 288.062 545.45 283.377 539.279C283.377 539.279 281.187 536.76 282.124 539.197C282.124 539.197 285.452 547.723 293.107 558.113C293.852 559.124 294.377 560.243 294.64 561.383L277.85 550.331C277.85 550.331 285.47 562.196 292.976 566.264C292.976 566.264 285.785 563.827 278.586 563.827C278.586 563.827 289.324 588.771 302.452 590L227.5 597L227 458H279.558V496.53H299.395C299.641 496.926 299.79 497.144 299.79 497.144H308.688L308.898 496.53H333.99V536.036H386.549L386.54 536.029Z" fill="#EAE1C5"/>
<path d="M346.465 347.485C346.465 347.485 334.164 335.96 331.539 330.168L332.047 318.78L328.44 326.688C328.44 326.688 317.787 316.48 309.444 316.148L307.875 309.372L306.384 316.717C306.384 316.717 294.907 316.664 294.947 316.812C294.991 316.954 312.34 325.42 317.861 335.871C317.861 335.871 327.379 350.271 329.728 366.017C329.728 366.017 331.726 386.061 330.024 393.756C330.024 393.756 324.147 388.462 317.156 375.823C317.156 375.823 320.565 366.225 320.21 362.768C320.21 362.768 315.276 372.224 314.042 372.224C314.042 372.224 303.937 338.907 296.827 329.238C296.827 329.238 292.07 323.096 289.48 321.614C289.48 321.614 295.712 338.699 294.71 348.724C293.713 358.743 289.48 384.371 282.434 393.548C282.434 393.548 280.672 396.08 278.832 398.706H274.89L274.796 377.382C274.796 377.382 274.914 339.547 279.612 331.567L278.615 331.71L278.028 334.389L276.32 334.674L276.908 336.014L274.44 336.998L274.672 339.328L272.205 340.454L272.733 342.855L269.733 343.703L269.556 346.738L267.029 347.936L266.738 350.266L263.975 351.463L265.204 353.728L261.799 356.336L263.205 357.326L260.033 360.711L261.325 361.423L258.212 364.173L258.858 366.438L255.977 369.189L257.447 370.884C257.447 370.884 255.128 373.997 254.931 373.997C255.044 374.24 255.799 376.178 255.799 376.178L252.799 379.563L254.27 381.259L251.275 385.634L253.095 386.838L250.278 391.284C250.278 391.284 251.802 393.4 251.63 393.4C251.457 393.4 248.161 397.633 248.161 397.633L249.617 398.694H244.515L243.853 445.19V459H235.824L235.076 455.352H236.566L234.725 445.19L236.097 444.953L234.454 436.197L235.905 436.576L234.691 427.21H236.023L235.322 418.928L237.118 418.691L236.847 410.361L238.411 410.93L238.298 403.212H239.906V395.872L241.357 396.436L241.436 389.612H243.079L243.158 383.399H244.727L244.885 377.234L246.409 377.471L247.076 370.884L248.329 371.4L249.148 366.225L250.13 366.835L250.791 360.954L252.202 361.565L252.829 356.864L254.274 356.585L254.941 352.868C254.941 352.868 244.248 361.624 224.941 362.182C224.941 362.182 234.025 335.83 247.579 327.643C247.579 327.643 266.926 314.885 277.579 315.407C277.579 315.407 262.421 301.149 245.304 307.735L245.97 298.132L240.212 307.024C240.212 307.024 225.133 306.366 222 308.014C222 308.014 228.459 293.14 244.288 288.575C244.288 288.575 258.779 285.658 268.727 293.235C268.727 293.235 278.008 300.337 281.023 307.818C281.023 307.818 276.207 284.058 269.038 276.054C269.038 276.054 263.477 270.689 258.069 269.658L263.748 260.481L254.664 264.998C254.664 264.998 242.714 254.831 234.37 256.947C234.37 256.947 249.177 240.336 264.691 246.128C264.691 246.128 279.69 252.667 283.761 265.425C287.832 278.177 288.266 288.954 288.266 288.954C288.266 288.954 288.187 301.635 286.312 307.149C286.648 306.354 297.434 280.856 300.365 268.626L307.1 270.274L301.736 264.435C301.736 264.435 310.351 245.47 310.194 241C310.194 241 317.323 259.022 313.603 274.228C309.883 289.417 299.708 301.653 295.12 305.613C295.648 305.376 317.718 295.345 327.626 301.665C327.626 301.665 343.095 308.441 346.114 326.422C346.114 326.422 347.876 335.456 346.43 347.503L346.465 347.485Z" fill="white" fill-opacity="0.8"/>
<path d="M346.088 200.985C346.088 200.985 325.127 184.753 320.654 176.595L321.52 160.554L315.374 171.693C315.374 171.693 297.222 157.314 283.004 156.847L280.33 147.302L277.791 157.648C277.791 157.648 258.234 157.573 258.302 157.782C258.377 157.982 287.939 169.906 297.348 184.627C297.348 184.627 313.566 204.91 317.569 227.088C317.569 227.088 320.974 255.32 318.073 266.158C318.073 266.158 308.059 258.702 296.145 240.899C296.145 240.899 301.955 227.38 301.35 222.512C301.35 222.512 292.942 235.831 290.84 235.831C290.84 235.831 273.621 188.903 261.505 175.284C261.505 175.284 253.4 166.633 248.986 164.545C248.986 164.545 259.605 188.61 257.898 202.731C256.2 216.842 248.986 252.94 236.979 265.866C236.979 265.866 233.978 269.432 230.842 273.131H224.124L223.964 243.095C223.964 243.095 224.166 189.805 232.17 178.565L230.472 178.766L229.471 182.54L226.562 182.941L227.563 184.828L223.359 186.214L223.754 189.496L219.55 191.082L220.449 194.464L215.338 195.658L215.035 199.933L210.73 201.62L210.234 204.902L205.526 206.588L207.619 209.778L201.818 213.452L204.214 214.847L198.808 219.615L201.011 220.617L195.705 224.491L196.807 227.681L191.896 231.555L194.402 233.943C194.402 233.943 190.45 238.327 190.114 238.327C190.307 238.67 191.594 241.4 191.594 241.4L186.482 246.168L188.987 248.556L183.884 254.719L186.986 256.414L182.185 262.676C182.185 262.676 184.783 265.657 184.489 265.657C184.195 265.657 178.578 271.619 178.578 271.619L181.059 273.114H172.365L172.996 301.279H159.762C158.761 299.2 163.52 229.86 165.033 295.35L166.505 294.891L163.1 281.164H165.639L162.503 266.851L164.84 266.517L165.639 265.657L172.996 301.279L156.701 301.613L159.762 301.279L159.299 289.547L161.964 290.349L161.771 279.477H164.512V269.139L162.503 266.851L167.118 260.322H169.918L170.053 251.571H172.727L172.996 242.886L175.594 243.22L176.729 233.943L178.864 234.67L180.26 227.38L181.933 228.24L183.06 219.957L185.464 220.817L186.532 214.195L188.996 213.803L190.131 208.567C190.131 208.567 171.911 220.901 139.011 221.685C139.011 221.685 154.49 184.569 177.586 173.037C177.586 173.037 210.553 155.068 228.706 155.803C228.706 155.803 202.877 135.721 173.71 144.998L174.845 131.47L165.033 143.996C165.033 143.996 139.339 143.069 134 145.39C134 145.39 145.006 124.44 171.978 118.01C171.978 118.01 196.672 113.902 213.622 124.573C213.622 124.573 229.437 134.577 234.575 145.115C234.575 145.115 226.369 111.647 214.152 100.374C214.152 100.374 204.676 92.8176 195.461 91.3646L205.139 78.4386L189.66 84.8014C189.66 84.8014 169.296 70.4809 155.078 73.4619C155.078 73.4619 180.31 50.0648 206.745 58.2229C206.745 58.2229 232.305 67.4331 239.241 85.4026C246.177 103.364 246.917 118.544 246.917 118.544C246.917 118.544 246.783 136.405 243.588 144.171C244.16 143.052 262.539 107.138 267.533 89.9117L279.01 92.233L269.871 84.0081C269.871 84.0081 284.551 57.296 284.282 51C284.282 51 296.431 76.3844 290.092 97.8026C283.752 119.196 266.415 136.43 258.596 142.008C259.496 141.674 297.104 127.546 313.987 136.447C313.987 136.447 340.345 145.991 345.491 171.317C345.491 171.317 348.493 184.043 346.029 201.01L346.088 200.985Z" fill="white" fill-opacity="0.6"/>
</svg>
