<svg width="148" height="35" viewBox="0 0 148 35" fill="none" xmlns="http://www.w3.org/2000/svg">
<g filter="url(#filter0_di_567_5878)">
<path d="M4.01146 2.11382C6.7482 2.10268 9.75808 2.02652 12.334 2.11196C13.3512 2.1457 14.1703 2.29595 15.1625 2.34766C15.482 2.36431 15.9473 2.44154 16.28 2.47189C17.0121 2.53867 17.973 2.47429 18.7767 2.45596C20.096 2.42588 21.385 2.33412 22.7052 2.29033C23.7583 2.2554 25.434 2.40181 26.6336 2.40181C27.6929 2.40181 28.3186 2.27369 29.3224 2.23299C30.1828 2.19811 31.4934 2.39134 32.1509 2.48463C33.9624 2.74166 38.0196 2.33976 40.0078 2.28396C40.3426 2.27456 42.7628 2.01089 42.976 2.14699C43.1818 2.2784 43.5227 2.45091 43.2903 2.5993C43.0206 2.77147 42.417 2.71693 42.6966 2.94649C42.9305 3.13848 44.2539 3.1307 44.5474 2.9433C44.6695 2.86529 44.765 2.48924 45.0537 2.45915C46.805 2.27658 47.889 2.28714 50.0297 2.28714C50.6702 2.28714 51.3543 2.21264 51.9678 2.23299C52.9269 2.2648 53.9571 2.319 54.9359 2.319C56.3453 2.319 57.8534 2.34448 59.3358 2.34448C61.7112 2.34448 63.8219 2.56239 66.0753 2.57381C68.2483 2.58483 70.5844 2.39242 72.5354 2.24255C74.0989 2.12246 76.5242 2.1276 77.9479 2.2744C80.3344 2.52048 84.8377 2.51794 87.4461 2.33173C89.0707 2.21575 90.6137 2.00047 92.3348 2.00047C92.9219 2.00047 93.8616 2.17293 94.2903 2.22981C94.459 2.25219 95.4578 3.06504 95.6522 2.74582C95.7376 2.60564 96.5885 2.5164 97.2934 2.47189C98.864 2.3727 100.424 2.16656 102.077 2.17247C104.698 2.18185 107.304 2.39133 110.004 2.40181C111.91 2.40921 113.789 2.34448 115.696 2.34448C118.047 2.34448 119.968 2.56061 122.261 2.65026C124.456 2.73608 130.181 2.91821 132.422 2.57381C132.579 2.54975 136.226 1.78117 136.333 2.11514C136.388 2.2832 136.962 2.45754 136.962 2.60248C136.962 2.85841 137.036 2.97967 138.062 2.68848C138.624 2.52903 139.359 2.32213 140.244 2.22981C140.725 2.17967 140.286 2.12331 141.048 2.11514C141.489 2.1104 141.868 2.11514 142.427 2.11514C145.307 2.11514 146.394 2.38426 145.779 2.88915C145.563 3.06642 145.133 3.21891 145.133 3.40516C145.133 3.51606 144.801 3.60134 144.819 3.72049C144.841 3.86841 145.133 4.0051 145.133 4.15369C145.133 4.44049 145.762 4.71833 145.762 5.00732C145.762 5.29088 145.571 5.57248 145.43 5.8546C145.28 6.15595 145.247 6.4763 144.644 6.7592C143.708 7.19865 142.729 7.60689 144.016 8.04286C144.737 8.2872 144.19 8.77482 144.19 9.0462C144.19 9.2266 144.029 9.61865 143.387 9.76925C141.623 10.1831 141.676 10.5853 141.676 11.0879C141.676 11.2669 141.655 11.5557 141.117 11.7027C140.146 11.9686 141.684 12.4986 142.235 12.722C143.423 13.2038 141.822 13.778 142.759 14.2636C143.343 14.5667 143.91 14.6981 144.19 15.0249C144.468 15.3487 144.505 15.664 144.505 15.99C144.505 16.3768 141.043 16.2778 141.921 16.678C142.19 16.8009 143.967 17.6739 143.736 17.6973C142.599 17.8126 140.733 17.6516 140.733 17.9394C140.733 18.1415 141.402 18.2442 140.489 18.4108C140.361 18.4342 141.114 18.5462 141.787 18.6399C141.557 18.6007 141.425 18.5687 141.606 18.57C142.064 18.5734 142.452 18.6586 142.759 18.7736C142.783 18.778 142.786 18.7795 142.772 18.7785C143.281 18.9721 143.562 19.247 143.562 19.36C143.562 19.7606 142.543 20.1428 142.619 20.5322C142.707 20.9826 142.933 21.4368 142.933 21.8954C142.933 22.2834 142.451 22.4216 143.876 22.7682C144.741 22.9787 145.098 23.2495 144.662 23.504C144.222 23.7607 142.48 24.0489 143.09 24.3385C143.854 24.7007 144.029 25.0004 143.422 25.3641C142.789 25.7439 143.492 26.1604 143.23 26.5427C143.013 26.8588 141.991 27.0766 142.287 27.374C142.67 27.7582 142.287 28.1902 142.008 28.5717C141.737 28.9429 141.616 29.2653 140.576 29.6069C139.691 29.8977 139.761 30.0789 140.087 30.4064C140.623 30.9436 141.713 31.4329 141.379 31.9799C141.24 32.2091 140.424 32.4987 139.267 32.6169C136.83 32.8659 134.54 32.5104 132.073 32.4163C129.383 32.3135 128.697 32.1524 126.451 32.4131C125.104 32.5695 122.772 32.5023 121.266 32.5023C119.434 32.5023 118.23 32.3568 116.517 32.2474C114.778 32.1364 112.195 32.2156 110.388 32.2156C105.957 32.2156 100.738 32.1235 96.4902 32.4003C94.5233 32.5285 92.4958 32.6169 90.3793 32.6169C88.8376 32.6169 87.5093 32.4449 86.0493 32.4449C83.4743 32.4449 80.9312 32.3876 78.367 32.3876C76.9461 32.3876 75.3356 32.3442 73.9322 32.3908C72.5035 32.4382 71.5604 32.515 70.0212 32.4895C64.0133 32.3899 58.6863 32.4033 52.9804 32.0563C47.418 31.7181 41.6082 32.1434 36.0095 32.1583C31.8356 32.1693 27.9161 32.1539 23.8226 32.2857C21.8253 32.35 20.1691 32.5607 18.2355 32.6615C16.5349 32.7502 14.087 32.7095 12.5086 32.5723C11.2309 32.4613 10.4075 32.4904 9.0516 32.4322C7.87861 32.3818 6.79113 32.3997 5.59456 32.3876C4.55782 32.3771 4.04172 32.1043 3.39463 31.9863C2.37717 31.8006 3.08035 31.6703 3.08035 31.4352C3.08035 31.1052 3.39463 30.7923 3.39463 30.4669C3.39463 30.2706 3.54498 30.1093 3.69144 29.9222C3.83985 29.7327 4.65173 29.5561 4.65173 29.3775C4.06348 29.3172 4.0751 29.1322 4.28763 28.9047C4.26429 28.825 4.30873 28.7506 4.4946 28.6895C4.73174 28.6117 4.41817 28.328 4.96601 28.3169C4.97101 28.317 4.97601 28.3172 4.98101 28.3173C5.27302 28.0623 5.43362 27.8329 5.00093 27.7244C4.01551 27.4772 4.96601 27.0784 4.96601 26.7943C4.96601 26.4633 5.22648 26.0887 4.94855 25.7591C4.57968 25.3217 4.02318 24.9256 4.02318 24.4787C4.02318 24.1714 3.80115 23.9061 3.69145 23.6059C3.55324 23.2277 2.4518 22.9844 2.4518 22.6089C2.4518 22.1082 5.22361 21.7407 4.45968 21.2297C3.16212 20.3618 2.74894 19.5878 3.86604 18.6911C4.44097 18.2296 5.19416 17.726 3.91842 17.2896C3.4835 17.1408 3.12525 16.9533 2.92322 16.7895C2.65672 16.5734 1.88624 16.323 1.82325 16.1047C1.76021 15.8862 2.32503 15.6459 2.4518 15.4262C2.6606 15.0644 3.14603 14.7198 3.56923 14.3655C3.83222 14.1454 3.96823 13.9244 4.04064 13.6998C4.09976 13.5165 4.6294 13.379 4.65174 13.1997C4.67195 13.0375 5.18779 12.8422 4.80887 12.6901C4.48566 12.5604 3.85239 12.3969 4.09302 12.2506C4.94276 11.7338 5.29425 11.2521 6.78183 10.7853C7.54799 10.5449 6.57325 10.4522 6.67707 10.2439C6.84497 9.90694 8.9589 9.69503 8.91193 9.32651C8.88774 9.13676 8.18648 8.92591 7.32308 8.82643C6.1042 8.68599 6.24479 8.58214 5.839 8.35183C5.2641 8.02553 4.96601 7.77957 4.96601 7.42174C4.96601 6.93647 5.77984 6.48456 5.90884 6.01387C5.9861 5.73198 6.47342 5.37759 5.52473 5.12837C4.28555 4.80283 3.96414 4.54597 4.26762 4.17917C4.41339 4.00299 3.97296 3.72853 4.51206 3.57398C4.96618 3.44379 4.96612 3.34713 4.96602 3.19849L4.96601 3.19175C4.96601 2.96008 4.37459 2.80003 3.95335 2.58656C3.59094 2.40291 3.94121 2.28456 4.01146 2.11382Z" fill="#EDB22E"/>
<path d="M3.39463 2.11514C6.28978 2.11514 9.56298 2.02004 12.334 2.11196C13.3512 2.1457 14.1703 2.29595 15.1625 2.34766C15.482 2.36431 15.9473 2.44154 16.28 2.47189C17.0121 2.53867 17.973 2.47429 18.7767 2.45596C20.096 2.42588 21.385 2.33412 22.7052 2.29033C23.7583 2.2554 25.434 2.40181 26.6336 2.40181C27.6929 2.40181 28.3186 2.27369 29.3224 2.23299C30.1828 2.19811 31.4934 2.39134 32.1509 2.48463C33.9624 2.74166 38.0196 2.33976 40.0078 2.28396C40.3426 2.27456 42.7628 2.01089 42.976 2.14699C43.1818 2.27841 43.5227 2.4509 43.2903 2.5993C43.0206 2.77147 42.417 2.71693 42.6966 2.94649C42.9305 3.13848 44.2539 3.1307 44.5474 2.9433C44.6695 2.86529 44.765 2.48924 45.0537 2.45915C46.805 2.27658 47.889 2.28714 50.0297 2.28714C50.6702 2.28714 51.3543 2.21264 51.9678 2.23299C52.9269 2.26481 53.9571 2.319 54.9359 2.319C56.3453 2.319 57.8534 2.34448 59.3358 2.34448C61.7112 2.34448 63.8219 2.56239 66.0753 2.57381C68.2483 2.58483 70.5844 2.39242 72.5354 2.24255C74.0989 2.12245 76.5242 2.1276 77.9479 2.2744C80.3344 2.52048 84.8377 2.51794 87.4461 2.33173C89.0707 2.21576 90.6137 2.00047 92.3348 2.00047C92.9219 2.00047 93.8616 2.17293 94.2903 2.22981C94.459 2.25219 95.4578 3.06504 95.6522 2.74582C95.7376 2.60564 96.5885 2.5164 97.2934 2.47189C98.864 2.3727 100.424 2.16656 102.077 2.17247C104.698 2.18185 107.304 2.39133 110.004 2.40181C111.91 2.40921 113.789 2.34448 115.696 2.34448C118.047 2.34448 119.968 2.56061 122.261 2.65026C124.456 2.73608 130.181 2.91821 132.422 2.57381C132.579 2.54975 136.226 1.78117 136.333 2.11514C136.388 2.2832 136.962 2.45754 136.962 2.60248C136.962 2.85841 137.036 2.97967 138.062 2.68848C138.624 2.52903 139.359 2.32213 140.244 2.22981C140.725 2.17967 140.286 2.12331 141.048 2.11514C141.489 2.1104 141.868 2.11514 142.427 2.11514C145.307 2.11514 146.394 2.38426 145.779 2.88915C145.563 3.06642 145.133 3.21891 145.133 3.40516C145.133 3.51606 144.801 3.60134 144.819 3.72049C144.841 3.8684 145.133 4.0051 145.133 4.15368C145.133 4.44049 145.762 4.71833 145.762 5.00732C145.762 5.29088 145.571 5.57248 145.43 5.8546C145.28 6.15595 145.247 6.4763 144.644 6.7592C143.708 7.19865 142.729 7.60689 144.016 8.04286C144.737 8.2872 144.19 8.77482 144.19 9.0462C144.19 9.2266 144.029 9.61865 143.387 9.76925C141.623 10.1831 141.676 10.5853 141.676 11.0879C141.676 11.2669 141.655 11.5557 141.117 11.7027C140.146 11.9686 141.684 12.4986 142.235 12.722C143.423 13.2038 141.822 13.778 142.759 14.2636C143.343 14.5667 143.91 14.6981 144.19 15.0249C144.468 15.3487 144.505 15.664 144.505 15.99C144.505 16.3768 141.043 16.2778 141.921 16.678C142.19 16.8009 143.967 17.6739 143.736 17.6973C142.599 17.8126 140.733 17.6516 140.733 17.9394C140.733 18.1415 141.402 18.2442 140.489 18.4108C140.269 18.4509 142.632 18.7504 142.759 18.7736C143.001 18.8177 141.105 18.5664 141.606 18.57C142.836 18.579 143.562 19.1784 143.562 19.36C143.562 19.7606 142.543 20.1428 142.619 20.5322C142.707 20.9826 142.933 21.4368 142.933 21.8954C142.933 22.2834 142.451 22.4216 143.876 22.7682C144.741 22.9787 145.098 23.2495 144.662 23.504C144.222 23.7607 142.48 24.0489 143.09 24.3385C143.854 24.7007 144.029 25.0004 143.422 25.3641C142.789 25.7439 143.492 26.1604 143.23 26.5427C143.013 26.8588 141.991 27.0766 142.287 27.374C142.67 27.7582 142.287 28.1902 142.008 28.5717C141.737 28.9429 141.616 29.2653 140.576 29.6069C139.691 29.8977 139.761 30.0789 140.087 30.4064C140.623 30.9436 141.713 31.4329 141.379 31.9799C141.24 32.2091 140.424 32.4987 139.267 32.6169C136.83 32.8659 134.54 32.5104 132.073 32.4163C129.383 32.3135 128.697 32.1524 126.451 32.4131C125.104 32.5695 122.772 32.5023 121.266 32.5023C119.434 32.5023 118.23 32.3568 116.517 32.2474C114.778 32.1364 112.195 32.2156 110.388 32.2156C105.957 32.2156 100.738 32.1235 96.4902 32.4003C94.5233 32.5285 92.4958 32.6169 90.3793 32.6169C88.8376 32.6169 87.5093 32.4449 86.0493 32.4449C83.4743 32.4449 80.9312 32.3876 78.367 32.3876C76.9461 32.3876 75.3356 32.3442 73.9322 32.3908C72.5035 32.4382 71.5604 32.515 70.0212 32.4895C64.0133 32.3899 58.6863 32.4033 52.9804 32.0563C47.418 31.7181 41.6082 32.1434 36.0095 32.1583C31.8356 32.1693 27.9161 32.1539 23.8226 32.2857C21.8253 32.35 20.1691 32.5607 18.2354 32.6615C16.5349 32.7502 14.087 32.7095 12.5086 32.5723C11.2309 32.4613 10.4075 32.4904 9.0516 32.4322C7.87861 32.3818 6.79113 32.3997 5.59456 32.3876C4.55782 32.3771 4.04172 32.1043 3.39463 31.9863C2.37717 31.8006 3.08035 31.6703 3.08035 31.4352C3.08035 31.1052 3.39463 30.7923 3.39463 30.4669C3.39463 30.2706 3.54498 30.1093 3.69144 29.9222C3.83985 29.7327 4.65173 29.5561 4.65173 29.3775M4.65173 29.3775C4.65173 29.1764 3.9372 28.8726 4.4946 28.6895C4.73174 28.6117 4.41817 28.328 4.96601 28.3169M4.65173 29.3775C7.57635 29.6777 6.17047 28.3507 4.96601 28.3169M4.65173 29.3775C2.97387 29.2054 6.17629 28.0192 5.00093 27.7244C4.01551 27.4772 4.96601 27.0784 4.96601 26.7943C4.96601 26.4633 5.22648 26.0887 4.94855 25.7591C4.57968 25.3217 4.02318 24.9256 4.02318 24.4787C4.02318 24.1714 3.80115 23.9061 3.69145 23.6059C3.55324 23.2277 2.4518 22.9844 2.4518 22.6089C2.4518 22.1082 5.22361 21.7407 4.45968 21.2297C3.16212 20.3618 2.74894 19.5878 3.86604 18.6911C4.44097 18.2296 5.19416 17.726 3.91842 17.2896C3.4835 17.1408 3.12525 16.9533 2.92322 16.7895C2.65672 16.5734 1.88624 16.323 1.82325 16.1047C1.76021 15.8862 2.32503 15.6459 2.4518 15.4262C2.6606 15.0644 3.14603 14.7198 3.56923 14.3655C3.83222 14.1454 3.96823 13.9244 4.04064 13.6998C4.09976 13.5165 4.6294 13.379 4.65174 13.1997C4.67195 13.0375 5.18779 12.8422 4.80887 12.6901C4.48566 12.5604 3.85239 12.3969 4.09302 12.2506C4.94275 11.7338 5.29425 11.2521 6.78183 10.7853C7.54799 10.5449 6.57325 10.4522 6.67707 10.2439C6.84497 9.90694 8.9589 9.69503 8.91193 9.32651C8.88774 9.13676 8.18648 8.92591 7.32308 8.82643C6.1042 8.68599 6.24479 8.58214 5.839 8.35183C5.2641 8.02553 4.96601 7.77957 4.96601 7.42174C4.96601 6.93647 5.77984 6.48456 5.90884 6.01387C5.9861 5.73198 6.47342 5.37759 5.52473 5.12837C4.28555 4.80283 3.96414 4.54597 4.26762 4.17917C4.41339 4.00299 3.97296 3.72853 4.51206 3.57398C4.97301 3.44183 4.96601 3.34423 4.96601 3.19175C4.96601 2.96008 4.37459 2.80003 3.95335 2.58656C3.55264 2.3835 4.02319 2.26029 4.02319 2.05781M4.96601 28.3169C5.47544 28.3065 2.95813 27.6639 4.96601 28.3169Z" stroke="#EDB22E" stroke-width="2.58911" stroke-linecap="round"/>
</g>
<defs>
<filter id="filter0_di_567_5878" x="0.26503" y="0.706055" width="147.233" height="33.8117" filterUnits="userSpaceOnUse" color-interpolation-filters="sRGB">
<feFlood flood-opacity="0" result="BackgroundImageFix"/>
<feColorMatrix in="SourceAlpha" type="matrix" values="0 0 0 0 0 0 0 0 0 0 0 0 0 0 0 0 0 0 127 0" result="hardAlpha"/>
<feOffset dy="0.257431"/>
<feGaussianBlur stdDeviation="0.128715"/>
<feComposite in2="hardAlpha" operator="out"/>
<feColorMatrix type="matrix" values="0 0 0 0 0 0 0 0 0 0 0 0 0 0 0 0 0 0 0.6 0"/>
<feBlend mode="normal" in2="BackgroundImageFix" result="effect1_dropShadow_567_5878"/>
<feBlend mode="normal" in="SourceGraphic" in2="effect1_dropShadow_567_5878" result="shape"/>
<feColorMatrix in="SourceAlpha" type="matrix" values="0 0 0 0 0 0 0 0 0 0 0 0 0 0 0 0 0 0 127 0" result="hardAlpha"/>
<feOffset/>
<feGaussianBlur stdDeviation="1.7162"/>
<feComposite in2="hardAlpha" operator="arithmetic" k2="-1" k3="1"/>
<feColorMatrix type="matrix" values="0 0 0 0 0 0 0 0 0 0 0 0 0 0 0 0 0 0 0.4 0"/>
<feBlend mode="normal" in2="shape" result="effect2_innerShadow_567_5878"/>
</filter>
</defs>
</svg>
