<svg width="148" height="47" viewBox="0 0 148 47" fill="none" xmlns="http://www.w3.org/2000/svg">
<g filter="url(#filter0_di_364_133079)">
<path d="M4.03392 1.57537C6.77066 1.5597 9.78054 1.45268 12.3565 1.57275C13.3737 1.62015 14.1928 1.83129 15.185 1.90396C15.5044 1.92736 15.9697 2.03588 16.3024 2.07853C17.0345 2.17237 17.9955 2.0819 18.7992 2.05615C20.1185 2.01387 21.4075 1.88493 22.7276 1.82339C23.7807 1.77431 25.4564 1.98006 26.6561 1.98006C27.7153 1.98006 28.3411 1.80001 29.3449 1.74283C30.2053 1.69381 31.5159 1.96534 32.1734 2.09643C33.9848 2.45762 38.0421 1.89286 40.0303 1.81444C40.3651 1.80124 42.7853 1.43072 42.9984 1.62197C43.2043 1.80664 43.5451 2.04904 43.3127 2.25757C43.0431 2.49951 42.4395 2.42286 42.7191 2.74545C42.953 3.01525 44.2763 3.0043 44.5698 2.74097C44.692 2.63135 44.7875 2.10291 45.0762 2.06062C46.8275 1.80407 47.9115 1.81892 50.0522 1.81892C50.6927 1.81892 51.3768 1.71423 51.9902 1.74283C52.9493 1.78753 53.9796 1.86368 54.9584 1.86368C56.3678 1.86368 57.8759 1.89949 59.3583 1.89949C61.7336 1.89949 63.8444 2.20571 66.0978 2.22176C68.2707 2.23723 70.6069 1.96685 72.5579 1.75626C74.1214 1.58749 76.5467 1.59473 77.9704 1.80102C80.3569 2.14682 84.8602 2.14324 87.4685 1.88158C89.0932 1.7186 90.6362 1.41608 92.3573 1.41608C92.9444 1.41608 93.884 1.65842 94.3128 1.73835C94.4815 1.7698 95.4802 2.91204 95.6747 2.46346C95.76 2.26648 96.611 2.14107 97.3159 2.07852C98.8864 1.93915 100.446 1.64947 102.1 1.65778C104.721 1.67095 107.326 1.96532 110.027 1.98005C111.933 1.99045 113.811 1.89949 115.718 1.89949C118.07 1.89949 119.99 2.20321 122.283 2.32918C124.479 2.44977 130.203 2.70571 132.445 2.22175C132.602 2.18794 136.248 1.10792 136.356 1.57721C136.41 1.81337 136.985 2.05836 136.985 2.26204C136.985 2.62168 137.058 2.79207 138.084 2.38289C138.646 2.15883 139.381 1.86808 140.267 1.73835C140.748 1.6679 140.309 1.58869 141.07 1.57721C141.512 1.57055 141.89 1.57721 142.449 1.57721C145.329 1.57721 146.417 1.95539 145.802 2.66488C145.586 2.91399 145.156 3.12827 145.156 3.38998C145.156 3.54583 144.823 3.66567 144.841 3.8331C144.864 4.04095 145.156 4.23304 145.156 4.44184C145.156 4.84486 145.784 5.2353 145.784 5.6414C145.784 6.03986 145.593 6.43557 145.453 6.83201C145.302 7.25547 145.27 7.70564 144.667 8.10318C143.73 8.7207 142.751 9.29437 144.038 9.90701C144.759 10.2504 144.213 10.9356 144.213 11.3169C144.213 11.5704 144.052 12.1214 143.41 12.333C141.645 12.9146 141.699 13.4797 141.699 14.186C141.699 14.4375 141.677 14.8433 141.14 15.0499C140.168 15.4236 141.706 16.1683 142.257 16.4822C143.446 17.1593 141.845 17.9662 142.781 18.6486C143.366 19.0745 143.933 19.2591 144.213 19.7184C144.49 20.1733 144.527 20.6164 144.527 21.0746C144.527 21.6181 141.066 21.4789 141.943 22.0414C142.213 22.2141 143.989 23.4409 143.759 23.4737C142.621 23.6357 140.756 23.4095 140.756 23.8139C140.756 24.0979 141.424 24.2422 140.511 24.4763C140.383 24.5092 141.136 24.6666 141.81 24.7983C141.579 24.7431 141.448 24.6983 141.629 24.7001C142.087 24.7048 142.474 24.8245 142.781 24.9861C142.805 24.9923 142.808 24.9944 142.794 24.9931C143.303 25.2652 143.584 25.6514 143.584 25.8102C143.584 26.3732 142.565 26.9102 142.641 27.4573C142.73 28.0903 142.956 28.7286 142.956 29.373C142.956 29.9183 142.474 30.1124 143.899 30.5995C144.764 30.8952 145.12 31.2758 144.684 31.6334C144.244 31.9942 142.502 32.3992 143.113 32.8061C143.877 33.3151 144.051 33.7363 143.445 34.2474C142.811 34.781 143.514 35.3663 143.253 35.9035C143.036 36.3478 142.013 36.6538 142.31 37.0717C142.693 37.6116 142.309 38.2187 142.03 38.7547C141.759 39.2764 141.639 39.7294 140.599 40.2094C139.713 40.618 139.783 40.8727 140.11 41.3329C140.645 42.0878 141.735 42.7753 141.402 43.544C141.262 43.8661 140.446 44.2731 139.289 44.4392C136.852 44.789 134.562 44.2895 132.096 44.1572C129.406 44.0129 128.719 43.7864 126.474 44.1527C125.126 44.3725 122.795 44.2781 121.288 44.2781C119.456 44.2781 118.252 44.0737 116.539 43.92C114.8 43.764 112.217 43.8752 110.411 43.8752C105.98 43.8752 100.761 43.7459 96.5127 44.1348C94.5457 44.3149 92.5182 44.4392 90.4018 44.4392C88.86 44.4392 87.5317 44.1975 86.0718 44.1975C83.4968 44.1975 80.9537 44.1169 78.3894 44.1169C76.9686 44.1169 75.358 44.056 73.9547 44.1214C72.5259 44.188 71.5828 44.296 70.0436 44.2602C64.0357 44.1201 58.7088 44.139 53.0029 43.6514C47.4405 43.1761 41.6307 43.7739 36.032 43.7947C31.8581 43.8102 27.9386 43.7885 23.845 43.9737C21.8477 44.0641 20.1916 44.3602 18.2579 44.5019C16.5574 44.6264 14.1095 44.5692 12.5311 44.3765C11.2533 44.2205 10.43 44.2614 9.07406 44.1796C7.90107 44.1088 6.81359 44.134 5.61702 44.1169C4.58028 44.1022 4.06418 43.7188 3.41709 43.553C2.39963 43.2921 3.10281 43.109 3.10281 42.7786C3.10281 42.3148 3.41709 41.8752 3.41709 41.4179C3.41709 41.1421 3.56744 40.9154 3.71391 40.6525C3.86231 40.3862 4.67419 40.138 4.67419 39.8871C4.08594 39.8023 4.09756 39.5423 4.31009 39.2226C4.28675 39.1107 4.33119 39.0061 4.51706 38.9203C4.7542 38.8109 4.44063 38.4122 4.98847 38.3966C4.99347 38.3968 4.99847 38.397 5.00347 38.3973C5.29548 38.0389 5.45609 37.7166 5.02339 37.5641C4.03797 37.2167 4.98847 36.6563 4.98847 36.2571C4.98847 35.7919 5.24894 35.2655 4.97101 34.8024C4.60215 34.1878 4.04564 33.6312 4.04564 33.0031C4.04564 32.5713 3.82361 32.1985 3.71391 31.7766C3.5757 31.2452 2.47426 30.9033 2.47426 30.3757C2.47426 29.6721 5.24607 29.1557 4.48214 28.4376C3.18458 27.2179 2.7714 26.1303 3.88851 24.8702C4.46344 24.2217 5.21662 23.514 3.94089 22.9008C3.50596 22.6917 3.14771 22.4282 2.94568 22.1981C2.67918 21.8944 1.9087 21.5425 1.84571 21.2357C1.78267 20.9287 2.34749 20.5911 2.47426 20.2823C2.68306 19.7738 3.16849 19.2896 3.59169 18.7918C3.85468 18.4825 3.99069 18.1719 4.0631 17.8564C4.12222 17.5987 4.65187 17.4055 4.6742 17.1536C4.69442 16.9256 5.21025 16.6512 4.83134 16.4375C4.50812 16.2552 3.87486 16.0254 4.11548 15.8198C4.96522 15.0937 5.31671 14.4168 6.80429 13.7608C7.57045 13.423 6.59571 13.2927 6.69953 12.9999C6.86743 12.5265 8.98136 12.2287 8.93439 11.7108C8.9102 11.4442 8.20894 11.1479 7.34555 11.0081C6.12666 10.8108 6.26725 10.6648 5.86146 10.3412C5.28656 9.88266 4.98847 9.53704 4.98847 9.0342C4.98847 8.35228 5.8023 7.71724 5.9313 7.05582C6.00856 6.65969 6.49588 6.16171 5.54719 5.81149C4.30801 5.35403 3.9866 4.99308 4.29008 4.47765C4.43585 4.23008 3.99542 3.84439 4.53452 3.62721C4.98865 3.44427 4.98858 3.30844 4.98848 3.09957L4.98848 3.0901C4.98848 2.76455 4.39705 2.53964 3.97581 2.23967C3.6134 1.9816 3.96366 1.8153 4.03392 1.57537Z" fill="#EDB22E"/>
<path d="M3.41709 1.57722C6.31224 1.57722 9.58544 1.44358 12.3565 1.57274C13.3737 1.62016 14.1928 1.83129 15.185 1.90396C15.5044 1.92736 15.9697 2.03589 16.3024 2.07853C17.0345 2.17237 17.9955 2.0819 18.7992 2.05615C20.1185 2.01387 21.4075 1.88493 22.7276 1.82339C23.7807 1.77431 25.4564 1.98005 26.6561 1.98005C27.7153 1.98005 28.3411 1.80001 29.3449 1.74283C30.2053 1.69381 31.5159 1.96534 32.1734 2.09643C33.9848 2.45762 38.0421 1.89286 40.0303 1.81444C40.3651 1.80124 42.7853 1.43072 42.9984 1.62197C43.2043 1.80664 43.5451 2.04904 43.3127 2.25757C43.0431 2.49951 42.4395 2.42287 42.7191 2.74545C42.953 3.01525 44.2763 3.0043 44.5698 2.74097C44.692 2.63135 44.7875 2.10291 45.0762 2.06062C46.8275 1.80407 47.9115 1.81892 50.0522 1.81892C50.6927 1.81892 51.3768 1.71423 51.9902 1.74282C52.9493 1.78753 53.9796 1.86368 54.9584 1.86368C56.3678 1.86368 57.8759 1.89949 59.3583 1.89949C61.7336 1.89949 63.8444 2.20571 66.0977 2.22176C68.2707 2.23723 70.6069 1.96685 72.5579 1.75626C74.1214 1.58749 76.5467 1.59473 77.9704 1.80102C80.3569 2.14681 84.8602 2.14324 87.4685 1.88158C89.0932 1.7186 90.6362 1.41608 92.3573 1.41608C92.9444 1.41608 93.884 1.65842 94.3128 1.73835C94.4815 1.7698 95.4802 2.91204 95.6746 2.46346C95.76 2.26648 96.611 2.14108 97.3159 2.07852C98.8864 1.93915 100.446 1.64947 102.1 1.65778C104.721 1.67095 107.326 1.96532 110.027 1.98005C111.933 1.99045 113.811 1.89949 115.718 1.89949C118.07 1.89949 119.99 2.20321 122.283 2.32918C124.479 2.44977 130.203 2.70571 132.445 2.22175C132.602 2.18794 136.248 1.10791 136.356 1.57721C136.41 1.81337 136.985 2.05836 136.985 2.26204C136.985 2.62168 137.058 2.79208 138.084 2.38289C138.646 2.15883 139.381 1.86808 140.267 1.73835C140.748 1.6679 140.309 1.58869 141.07 1.57721C141.512 1.57055 141.89 1.57721 142.449 1.57721C145.329 1.57721 146.417 1.95539 145.802 2.66488C145.586 2.91399 145.156 3.12827 145.156 3.38999C145.156 3.54583 144.823 3.66567 144.841 3.83311C144.864 4.04095 145.156 4.23304 145.156 4.44184C145.156 4.84486 145.784 5.2353 145.784 5.6414C145.784 6.03986 145.593 6.43557 145.453 6.83201C145.302 7.25548 145.27 7.70564 144.667 8.10319C143.73 8.7207 142.751 9.29437 144.038 9.90701C144.759 10.2504 144.213 10.9356 144.213 11.3169C144.213 11.5704 144.052 12.1214 143.41 12.333C141.645 12.9146 141.699 13.4797 141.699 14.186C141.699 14.4375 141.677 14.8433 141.14 15.0499C140.168 15.4236 141.706 16.1683 142.257 16.4822C143.446 17.1593 141.845 17.9662 142.781 18.6486C143.366 19.0745 143.933 19.2591 144.213 19.7184C144.49 20.1733 144.527 20.6164 144.527 21.0746C144.527 21.6181 141.066 21.4789 141.943 22.0414C142.213 22.2141 143.989 23.4409 143.759 23.4737C142.621 23.6357 140.756 23.4095 140.756 23.8139C140.756 24.0979 141.424 24.2422 140.511 24.4763C140.292 24.5326 142.654 24.9536 142.781 24.9861C143.023 25.0481 141.128 24.695 141.629 24.7001C142.858 24.7127 143.584 25.555 143.584 25.8102C143.584 26.3732 142.565 26.9102 142.641 27.4573C142.73 28.0903 142.956 28.7286 142.956 29.373C142.956 29.9183 142.474 30.1124 143.899 30.5995C144.764 30.8952 145.12 31.2758 144.684 31.6334C144.244 31.9942 142.502 32.3992 143.113 32.8061C143.877 33.3151 144.051 33.7363 143.445 34.2474C142.811 34.781 143.514 35.3663 143.253 35.9035C143.036 36.3478 142.013 36.6538 142.31 37.0717C142.693 37.6116 142.309 38.2187 142.03 38.7547C141.759 39.2764 141.639 39.7294 140.599 40.2094C139.713 40.618 139.783 40.8727 140.11 41.3329C140.645 42.0878 141.735 42.7753 141.402 43.544C141.262 43.8661 140.446 44.2731 139.289 44.4392C136.852 44.789 134.562 44.2895 132.096 44.1572C129.406 44.0129 128.719 43.7864 126.474 44.1527C125.126 44.3725 122.795 44.2781 121.288 44.2781C119.456 44.2781 118.252 44.0737 116.539 43.92C114.8 43.764 112.217 43.8752 110.411 43.8752C105.98 43.8752 100.761 43.7459 96.5127 44.1348C94.5457 44.3149 92.5182 44.4392 90.4018 44.4392C88.86 44.4392 87.5317 44.1975 86.0718 44.1975C83.4968 44.1975 80.9537 44.1169 78.3894 44.1169C76.9686 44.1169 75.358 44.056 73.9547 44.1214C72.5259 44.188 71.5828 44.296 70.0436 44.2602C64.0357 44.1201 58.7088 44.139 53.0029 43.6514C47.4405 43.1761 41.6307 43.7739 36.032 43.7947C31.8581 43.8102 27.9386 43.7885 23.845 43.9737C21.8477 44.0641 20.1916 44.3602 18.2579 44.5019C16.5574 44.6264 14.1095 44.5692 12.5311 44.3765C11.2533 44.2205 10.43 44.2614 9.07406 44.1796C7.90107 44.1088 6.81359 44.134 5.61702 44.1169C4.58028 44.1022 4.06418 43.7188 3.41709 43.553C2.39963 43.2921 3.10281 43.109 3.10281 42.7786C3.10281 42.3148 3.41709 41.8752 3.41709 41.4179C3.41709 41.1421 3.56744 40.9154 3.71391 40.6525C3.86231 40.3862 4.67419 40.138 4.67419 39.8871M4.67419 39.8871C4.67419 39.6045 3.95966 39.1775 4.51706 38.9203C4.7542 38.8109 4.44063 38.4122 4.98847 38.3966M4.67419 39.8871C7.59881 40.3089 6.19293 38.4441 4.98847 38.3966M4.67419 39.8871C2.99633 39.6452 6.19875 37.9784 5.02339 37.5641C4.03797 37.2167 4.98847 36.6563 4.98847 36.2571C4.98847 35.7919 5.24894 35.2655 4.97101 34.8024C4.60215 34.1878 4.04564 33.6312 4.04564 33.0031C4.04564 32.5713 3.82361 32.1985 3.71391 31.7766C3.5757 31.2452 2.47426 30.9033 2.47426 30.3757C2.47426 29.6721 5.24607 29.1557 4.48214 28.4376C3.18458 27.2179 2.7714 26.1303 3.88851 24.8702C4.46344 24.2217 5.21662 23.514 3.94089 22.9008C3.50596 22.6917 3.14771 22.4282 2.94568 22.1981C2.67918 21.8944 1.9087 21.5425 1.84571 21.2357C1.78267 20.9287 2.34749 20.5911 2.47426 20.2823C2.68306 19.7738 3.16849 19.2896 3.59169 18.7918C3.85468 18.4825 3.99069 18.1719 4.0631 17.8564C4.12222 17.5987 4.65187 17.4055 4.6742 17.1536C4.69442 16.9256 5.21025 16.6512 4.83134 16.4375C4.50812 16.2552 3.87486 16.0254 4.11548 15.8198C4.96522 15.0937 5.31671 14.4168 6.80429 13.7608C7.57045 13.423 6.59571 13.2927 6.69953 12.9999C6.86743 12.5265 8.98136 12.2287 8.93439 11.7108C8.9102 11.4442 8.20894 11.1479 7.34555 11.0081C6.12666 10.8108 6.26725 10.6648 5.86146 10.3412C5.28656 9.88266 4.98847 9.53704 4.98847 9.0342C4.98847 8.35228 5.8023 7.71724 5.9313 7.05582C6.00856 6.6597 6.49588 6.16171 5.54719 5.81149C4.30801 5.35404 3.9866 4.99308 4.29008 4.47765C4.43585 4.23008 3.99542 3.84439 4.53452 3.62721C4.99547 3.44152 4.98848 3.30437 4.98848 3.0901C4.98848 2.76455 4.39705 2.53964 3.97581 2.23967C3.57511 1.95433 4.04565 1.78118 4.04565 1.49665M4.98847 38.3966C5.4979 38.3821 2.9806 37.479 4.98847 38.3966Z" stroke="#EDB22E" stroke-width="2.58911" stroke-linecap="round"/>
</g>
<defs>
<filter id="filter0_di_364_133079" x="0.288468" y="0.121582" width="147.235" height="46.2556" filterUnits="userSpaceOnUse" color-interpolation-filters="sRGB">
<feFlood flood-opacity="0" result="BackgroundImageFix"/>
<feColorMatrix in="SourceAlpha" type="matrix" values="0 0 0 0 0 0 0 0 0 0 0 0 0 0 0 0 0 0 127 0" result="hardAlpha"/>
<feOffset dy="0.257431"/>
<feGaussianBlur stdDeviation="0.128715"/>
<feComposite in2="hardAlpha" operator="out"/>
<feColorMatrix type="matrix" values="0 0 0 0 0 0 0 0 0 0 0 0 0 0 0 0 0 0 0.6 0"/>
<feBlend mode="normal" in2="BackgroundImageFix" result="effect1_dropShadow_364_133079"/>
<feBlend mode="normal" in="SourceGraphic" in2="effect1_dropShadow_364_133079" result="shape"/>
<feColorMatrix in="SourceAlpha" type="matrix" values="0 0 0 0 0 0 0 0 0 0 0 0 0 0 0 0 0 0 127 0" result="hardAlpha"/>
<feOffset/>
<feGaussianBlur stdDeviation="1.7162"/>
<feComposite in2="hardAlpha" operator="arithmetic" k2="-1" k3="1"/>
<feColorMatrix type="matrix" values="0 0 0 0 0 0 0 0 0 0 0 0 0 0 0 0 0 0 0.4 0"/>
<feBlend mode="normal" in2="shape" result="effect2_innerShadow_364_133079"/>
</filter>
</defs>
</svg>
