<svg width="338" height="98" viewBox="0 0 338 98" fill="none" xmlns="http://www.w3.org/2000/svg">
<g filter="url(#filter0_di_407_29592)">
<path d="M7.56708 2.35088C13.8902 2.31676 20.8444 2.08363 26.7961 2.34518C29.1462 2.44845 31.0387 2.90838 33.3312 3.06669C34.0693 3.11766 35.1443 3.35406 35.913 3.44695C37.6045 3.65137 39.8247 3.45431 41.6816 3.3982C44.7298 3.30611 47.708 3.02523 50.7582 2.89119C53.1913 2.78426 57.063 3.23244 59.8347 3.23244C62.2821 3.23244 63.7279 2.84024 66.0471 2.71567C68.0351 2.60889 71.0632 3.20038 72.5822 3.48596C76.7675 4.27276 86.1417 3.04249 90.7353 2.87168C91.5089 2.84292 97.1006 2.03579 97.5931 2.45241C98.0687 2.85468 98.8562 3.38273 98.3193 3.83696C97.6963 4.364 96.3016 4.19704 96.9477 4.89975C97.488 5.48745 100.546 5.46362 101.224 4.89C101.506 4.6512 101.727 3.50007 102.394 3.40795C106.44 2.84909 108.945 2.88144 113.891 2.88144C115.37 2.88144 116.951 2.65339 118.368 2.71567C120.584 2.81305 122.965 2.97894 125.226 2.97894C128.482 2.97894 131.967 3.05694 135.392 3.05694C140.88 3.05694 145.757 3.724 150.963 3.75896C155.984 3.79267 161.381 3.20368 165.889 2.74493C169.501 2.37731 175.105 2.39306 178.395 2.84244C183.908 3.5957 194.313 3.58791 200.34 3.01792C204.093 2.6629 207.658 2.00391 211.635 2.00391C212.991 2.00391 215.162 2.5318 216.153 2.70593C216.543 2.77444 218.85 5.26265 219.3 4.28548C219.497 3.85638 221.463 3.58321 223.091 3.44695C226.72 3.14334 230.324 2.51231 234.145 2.53042C240.2 2.55911 246.22 3.20035 252.459 3.23244C256.863 3.25508 261.204 3.05694 265.61 3.05694C271.042 3.05694 275.48 3.71855 280.778 3.99296C285.85 4.25566 299.076 4.81318 304.256 3.75895C304.618 3.68531 313.043 1.33261 313.292 2.3549C313.417 2.86935 314.744 3.40303 314.744 3.8467C314.744 4.63013 314.915 5.00131 317.286 4.10997C318.584 3.62188 320.282 2.98852 322.328 2.70592C323.439 2.55246 322.425 2.37992 324.184 2.3549C325.204 2.3404 326.079 2.3549 327.371 2.3549C334.025 2.3549 336.537 3.17871 335.116 4.72423C334.617 5.26688 333.624 5.73367 333.624 6.30378C333.624 6.64326 332.856 6.90432 332.898 7.26905C332.95 7.72182 333.624 8.14026 333.624 8.59509C333.624 9.47301 335.076 10.3235 335.076 11.2081C335.076 12.0762 334.634 12.9381 334.309 13.8017C333.962 14.7242 333.887 15.7048 332.494 16.5708C330.33 17.916 328.069 19.1656 331.042 20.5002C332.708 21.2481 331.445 22.7408 331.445 23.5715C331.445 24.1237 331.073 25.3238 329.59 25.7848C325.513 27.0518 325.636 28.2828 325.636 29.8214C325.636 30.3692 325.587 31.2532 324.345 31.7033C322.1 32.5173 325.654 34.1395 326.927 34.8233C329.673 36.2982 325.973 38.0559 328.137 39.5425C329.488 40.4703 330.799 40.8724 331.445 41.8728C332.086 42.8639 332.171 43.8291 332.171 44.8271C332.171 46.0111 324.173 45.708 326.201 46.9332C326.824 47.3094 330.929 49.9818 330.396 50.0533C327.768 50.4062 323.458 49.9134 323.458 50.7943C323.458 51.413 325.003 51.7274 322.893 52.2373C322.597 52.309 324.337 52.6519 325.893 52.9387C325.361 52.8185 325.057 52.7208 325.475 52.7249C326.532 52.7351 327.429 52.9959 328.137 53.3479C328.193 53.3614 328.2 53.3659 328.168 53.363C329.343 53.9557 329.993 54.797 329.993 55.1429C329.993 56.3693 327.638 57.5392 327.815 58.731C328.018 60.1099 328.541 61.5003 328.541 62.9042C328.541 64.0919 327.427 64.5147 330.719 65.5757C332.718 66.22 333.542 67.0491 332.534 67.828C331.518 68.614 327.493 69.4962 328.904 70.3826C330.668 71.4915 331.072 72.4089 329.67 73.5222C328.207 74.6847 329.832 75.9597 329.227 77.1298C328.726 78.0976 326.363 78.7643 327.048 79.6746C327.933 80.8506 327.047 82.1731 326.403 83.3407C325.776 84.4772 325.498 85.4639 323.095 86.5096C321.049 87.3998 321.211 87.9544 321.965 88.9569C323.202 90.6014 325.72 92.0992 324.95 93.7735C324.628 94.4752 322.743 95.3617 320.069 95.7236C314.439 96.4856 309.147 95.3976 303.449 95.1093C297.234 94.7949 295.648 94.3015 290.46 95.0996C287.347 95.5784 281.96 95.3726 278.479 95.3726C274.246 95.3726 271.465 94.9274 267.506 94.5926C263.489 94.2527 257.521 94.4951 253.347 94.4951C243.109 94.4951 231.051 94.2133 221.236 95.0606C216.691 95.4529 212.007 95.7236 207.117 95.7236C203.555 95.7236 200.486 95.1971 197.112 95.1971C191.163 95.1971 185.287 95.0216 179.363 95.0216C176.08 95.0216 172.359 94.8888 169.116 95.0313C165.815 95.1764 163.636 95.4117 160.08 95.3336C146.199 95.0286 133.891 95.0697 120.708 94.0076C107.856 92.9721 94.433 94.2742 81.4974 94.3196C71.8537 94.3533 62.7979 94.3062 53.3399 94.7096C48.7252 94.9064 44.8987 95.5516 40.4311 95.8601C36.5021 96.1314 30.8463 96.0068 27.1995 95.5871C24.2472 95.2473 22.3449 95.3362 19.2121 95.1581C16.502 95.004 13.9894 95.0587 11.2248 95.0216C8.82942 94.9894 7.63699 94.1544 6.14191 93.793C3.7911 93.2249 5.41579 92.8259 5.41579 92.1062C5.41579 91.096 6.14191 90.1384 6.14191 89.1422C6.14191 88.5414 6.48929 88.0474 6.82769 87.4749C7.17057 86.8947 9.0464 86.354 9.0464 85.8076C7.68726 85.6228 7.71412 85.0565 8.20516 84.36C8.15124 84.1163 8.25391 83.8883 8.68334 83.7015C9.23125 83.4631 8.50675 82.5947 9.77253 82.5607C9.78407 82.5612 9.79563 82.5617 9.80719 82.5622C10.4819 81.7814 10.8529 81.0794 9.85321 80.7472C7.57642 79.9905 9.77253 78.7696 9.77253 77.9001C9.77253 76.8867 10.3743 75.7401 9.73219 74.7313C8.87994 73.3923 7.59416 72.1799 7.59416 70.8116C7.59416 69.8711 7.08117 69.059 6.82769 68.1401C6.50837 66.9823 3.96354 66.2375 3.96354 65.0882C3.96354 63.5556 10.3677 62.4306 8.60266 60.8664C5.60471 58.2094 4.65008 55.8403 7.2311 53.0954C8.55945 51.6827 10.2996 50.141 7.35212 48.8053C6.34724 48.3499 5.51951 47.7759 5.05273 47.2745C4.437 46.613 2.65682 45.8465 2.5113 45.1782C2.36566 44.5093 3.67065 43.7739 3.96354 43.1013C4.44595 41.9937 5.56754 40.9388 6.54532 39.8545C7.15295 39.1806 7.46719 38.5042 7.6345 37.8167C7.7711 37.2554 8.99481 36.8346 9.04641 36.2859C9.09312 35.7891 10.2849 35.1914 9.40947 34.7259C8.6627 34.3288 7.19956 33.8282 7.75552 33.3803C9.7188 31.7986 10.5309 30.324 13.9679 28.8952C15.7381 28.1593 13.486 27.8754 13.7259 27.2376C14.1138 26.2063 18.998 25.5576 18.8894 24.4296C18.8335 23.8487 17.2133 23.2033 15.2185 22.8988C12.4023 22.4689 12.7271 22.151 11.7895 21.446C10.4612 20.4471 9.77254 19.6942 9.77254 18.5989C9.77254 17.1134 11.6528 15.7301 11.9509 14.2893C12.1294 13.4264 13.2553 12.3416 11.0634 11.5787C8.20034 10.5822 7.45775 9.79589 8.15893 8.6731C8.49573 8.1338 7.47811 7.29363 8.72369 6.82054C9.77293 6.42202 9.77278 6.12616 9.77254 5.67114L9.77254 5.65052C9.77254 4.94135 8.40607 4.45142 7.43281 3.79798C6.59547 3.2358 7.40476 2.87353 7.56708 2.35088Z" fill="#E04B20"/>
<path d="M6.14192 2.35491C12.8311 2.35491 20.3936 2.06382 26.7961 2.34518C29.1462 2.44846 31.0387 2.90838 33.3312 3.06669C34.0693 3.11766 35.1443 3.35406 35.913 3.44695C37.6045 3.65137 39.8247 3.4543 41.6816 3.3982C44.7298 3.30611 47.708 3.02523 50.7582 2.89118C53.1913 2.78426 57.063 3.23244 59.8347 3.23244C62.2821 3.23244 63.7279 2.84024 66.0471 2.71567C68.0351 2.6089 71.0632 3.20039 72.5822 3.48596C76.7675 4.27275 86.1417 3.04249 90.7353 2.87168C91.5089 2.84291 97.1006 2.03578 97.5931 2.45241C98.0687 2.85468 98.8562 3.38272 98.3193 3.83696C97.6963 4.364 96.3016 4.19704 96.9477 4.89975C97.488 5.48746 100.546 5.46362 101.224 4.89C101.506 4.6512 101.727 3.50007 102.394 3.40795C106.44 2.84909 108.945 2.88144 113.891 2.88144C115.37 2.88144 116.951 2.65338 118.368 2.71567C120.584 2.81305 122.965 2.97894 125.226 2.97894C128.482 2.97894 131.967 3.05694 135.392 3.05694C140.88 3.05694 145.757 3.724 150.963 3.75896C155.984 3.79267 161.381 3.20368 165.889 2.74493C169.501 2.3773 175.105 2.39306 178.395 2.84244C183.908 3.59571 194.313 3.58791 200.34 3.01793C204.093 2.66291 207.658 2.00391 211.635 2.00391C212.991 2.00391 215.162 2.5318 216.153 2.70592C216.543 2.77443 218.85 5.26265 219.3 4.28548C219.497 3.85638 221.463 3.58321 223.091 3.44695C226.72 3.14334 230.324 2.51231 234.145 2.53042C240.2 2.55912 246.22 3.20035 252.459 3.23243C256.863 3.25508 261.204 3.05694 265.61 3.05694C271.042 3.05694 275.48 3.71855 280.778 3.99297C285.85 4.25566 299.076 4.81318 304.256 3.75895C304.618 3.68531 313.043 1.33261 313.292 2.3549C313.417 2.86935 314.744 3.40303 314.744 3.8467C314.744 4.63013 314.915 5.00131 317.286 4.10997C318.584 3.62188 320.282 2.98852 322.328 2.70592C323.439 2.55246 322.425 2.37992 324.184 2.3549C325.204 2.3404 326.079 2.3549 327.371 2.3549C334.025 2.3549 336.537 3.17871 335.116 4.72424C334.617 5.26688 333.624 5.73367 333.624 6.30378C333.624 6.64326 332.856 6.90432 332.898 7.26905C332.95 7.72182 333.624 8.14026 333.624 8.59509C333.624 9.47301 335.076 10.3235 335.076 11.2082C335.076 12.0762 334.634 12.9381 334.309 13.8017C333.962 14.7242 333.887 15.7048 332.494 16.5708C330.33 17.916 328.069 19.1656 331.042 20.5002C332.708 21.2481 331.445 22.7408 331.445 23.5715C331.445 24.1237 331.073 25.3238 329.59 25.7848C325.513 27.0518 325.636 28.2828 325.636 29.8214C325.636 30.3692 325.587 31.2532 324.345 31.7033C322.1 32.5173 325.654 34.1395 326.927 34.8233C329.673 36.2982 325.973 38.0559 328.137 39.5425C329.488 40.4703 330.799 40.8724 331.445 41.8728C332.086 42.8639 332.171 43.8291 332.171 44.8271C332.171 46.0111 324.173 45.708 326.201 46.9332C326.824 47.3094 330.929 49.9818 330.396 50.0533C327.768 50.4062 323.458 49.9134 323.458 50.7943C323.458 51.413 325.003 51.7274 322.893 52.2373C322.386 52.36 327.844 53.277 328.137 53.3479C328.696 53.483 324.317 52.7137 325.475 52.7249C328.315 52.7523 329.993 54.5872 329.993 55.1429C329.993 56.3693 327.638 57.5392 327.815 58.731C328.018 60.1099 328.541 61.5003 328.541 62.9042C328.541 64.0919 327.427 64.5147 330.719 65.5757C332.718 66.22 333.542 67.0491 332.534 67.828C331.518 68.614 327.493 69.4962 328.904 70.3826C330.668 71.4915 331.072 72.4089 329.67 73.5222C328.207 74.6847 329.832 75.9597 329.227 77.1298C328.726 78.0976 326.363 78.7643 327.048 79.6746C327.933 80.8506 327.047 82.1731 326.403 83.3407C325.776 84.4772 325.498 85.4639 323.095 86.5096C321.049 87.3998 321.211 87.9544 321.965 88.9569C323.202 90.6014 325.72 92.0992 324.95 93.7735C324.628 94.4752 322.743 95.3617 320.069 95.7236C314.439 96.4856 309.147 95.3976 303.449 95.1093C297.234 94.7949 295.648 94.3015 290.46 95.0996C287.347 95.5784 281.96 95.3726 278.479 95.3726C274.246 95.3726 271.465 94.9274 267.506 94.5926C263.489 94.2527 257.521 94.4951 253.347 94.4951C243.109 94.4951 231.051 94.2133 221.236 95.0606C216.691 95.4529 212.007 95.7236 207.117 95.7236C203.555 95.7236 200.486 95.1971 197.112 95.1971C191.163 95.1971 185.287 95.0216 179.363 95.0216C176.08 95.0216 172.359 94.8888 169.116 95.0313C165.815 95.1764 163.636 95.4117 160.08 95.3336C146.199 95.0286 133.891 95.0697 120.708 94.0076C107.856 92.9721 94.433 94.2742 81.4974 94.3196C71.8537 94.3533 62.7979 94.3062 53.3399 94.7096C48.7252 94.9064 44.8987 95.5516 40.4311 95.8601C36.5021 96.1314 30.8463 96.0068 27.1995 95.5871C24.2472 95.2473 22.3449 95.3362 19.2121 95.1581C16.502 95.004 13.9894 95.0587 11.2248 95.0216C8.82942 94.9894 7.63699 94.1544 6.14191 93.793C3.7911 93.2249 5.41579 92.8259 5.41579 92.1062C5.41579 91.096 6.14191 90.1384 6.14191 89.1422C6.14191 88.5414 6.48929 88.0474 6.82769 87.4749C7.17057 86.8947 9.0464 86.354 9.0464 85.8076M9.0464 85.8076C9.0464 85.1919 7.39551 84.2618 8.68334 83.7015C9.23125 83.4631 8.50675 82.5947 9.77253 82.5607M9.0464 85.8076C15.8036 86.7263 12.5554 82.6642 9.77253 82.5607M9.0464 85.8076C5.16977 85.2805 12.5688 81.6497 9.85321 80.7472C7.57642 79.9905 9.77253 78.7696 9.77253 77.9001C9.77253 76.8867 10.3743 75.7401 9.73219 74.7313C8.87994 73.3923 7.59416 72.1799 7.59416 70.8116C7.59416 69.8711 7.08117 69.059 6.82769 68.1401C6.50837 66.9823 3.96354 66.2375 3.96354 65.0882C3.96354 63.5556 10.3677 62.4306 8.60266 60.8664C5.60471 58.2095 4.65008 55.8403 7.2311 53.0954C8.55945 51.6827 10.2996 50.141 7.35212 48.8053C6.34724 48.3499 5.51951 47.7759 5.05273 47.2745C4.437 46.613 2.65682 45.8465 2.5113 45.1782C2.36566 44.5093 3.67065 43.7739 3.96354 43.1013C4.44595 41.9937 5.56754 40.9388 6.54532 39.8545C7.15295 39.1806 7.46719 38.5042 7.6345 37.8167C7.7711 37.2554 8.99481 36.8346 9.04641 36.2859C9.09312 35.7891 10.2849 35.1914 9.40947 34.7259C8.6627 34.3288 7.19956 33.8282 7.75552 33.3803C9.7188 31.7986 10.5309 30.324 13.9679 28.8952C15.7381 28.1593 13.486 27.8754 13.7259 27.2376C14.1138 26.2063 18.998 25.5576 18.8894 24.4296C18.8335 23.8487 17.2133 23.2033 15.2185 22.8988C12.4023 22.4689 12.7271 22.151 11.7895 21.446C10.4612 20.4471 9.77254 19.6942 9.77254 18.5989C9.77254 17.1134 11.6528 15.7301 11.9509 14.2893C12.1294 13.4264 13.2553 12.3416 11.0634 11.5787C8.20034 10.5822 7.45775 9.79589 8.15893 8.6731C8.49573 8.1338 7.47811 7.29363 8.72369 6.82054C9.7887 6.41603 9.77254 6.11728 9.77254 5.65052C9.77254 4.94135 8.40607 4.45142 7.43281 3.79798C6.507 3.1764 7.59417 2.79922 7.59417 2.17941M9.77253 82.5607C10.9496 82.5291 5.13341 80.5619 9.77253 82.5607Z" stroke="#E04B20" stroke-width="2.58556" stroke-linecap="round"/>
</g>
<defs>
<filter id="filter0_di_407_29592" x="0.949953" y="0.710938" width="336.105" height="97.1001" filterUnits="userSpaceOnUse" color-interpolation-filters="sRGB">
<feFlood flood-opacity="0" result="BackgroundImageFix"/>
<feColorMatrix in="SourceAlpha" type="matrix" values="0 0 0 0 0 0 0 0 0 0 0 0 0 0 0 0 0 0 127 0" result="hardAlpha"/>
<feOffset dy="0.257078"/>
<feGaussianBlur stdDeviation="0.128539"/>
<feComposite in2="hardAlpha" operator="out"/>
<feColorMatrix type="matrix" values="0 0 0 0 0 0 0 0 0 0 0 0 0 0 0 0 0 0 0.6 0"/>
<feBlend mode="normal" in2="BackgroundImageFix" result="effect1_dropShadow_407_29592"/>
<feBlend mode="normal" in="SourceGraphic" in2="effect1_dropShadow_407_29592" result="shape"/>
<feColorMatrix in="SourceAlpha" type="matrix" values="0 0 0 0 0 0 0 0 0 0 0 0 0 0 0 0 0 0 127 0" result="hardAlpha"/>
<feOffset/>
<feGaussianBlur stdDeviation="1.71385"/>
<feComposite in2="hardAlpha" operator="arithmetic" k2="-1" k3="1"/>
<feColorMatrix type="matrix" values="0 0 0 0 0 0 0 0 0 0 0 0 0 0 0 0 0 0 0.4 0"/>
<feBlend mode="normal" in2="shape" result="effect2_innerShadow_407_29592"/>
</filter>
</defs>
</svg>
