<svg width="424" height="245" viewBox="0 0 424 245" fill="none" xmlns="http://www.w3.org/2000/svg">
<g filter="url(#filter0_dd_141_23890)">
<path d="M19.3091 12.8145C27.2235 12.8145 36.1715 12.1394 43.7467 12.7919C46.5274 13.0314 48.7666 14.0981 51.479 14.4652C52.3522 14.5834 53.6242 15.1317 54.5337 15.3471C56.5351 15.8212 59.162 15.3642 61.3591 15.2341C64.9656 15.0205 68.4894 14.3691 72.0983 14.0582C74.9771 13.8102 79.558 14.8496 82.8375 14.8496C85.7332 14.8496 87.4438 13.9401 90.1879 13.6512C92.54 13.4036 96.1228 14.7753 97.9201 15.4376C102.872 17.2623 113.963 14.4091 119.399 14.013C120.314 13.9463 126.93 12.0744 127.513 13.0406C128.075 13.9736 129.007 15.1982 128.372 16.2516C127.635 17.4739 125.985 17.0867 126.749 18.7164C127.388 20.0793 131.006 20.0241 131.808 18.6938C132.142 18.14 132.403 15.4703 133.192 15.2567C137.98 13.9606 140.943 14.0356 146.795 14.0356C148.546 14.0356 150.417 13.5067 152.093 13.6512C154.715 13.877 157.532 14.2617 160.208 14.2617C164.06 14.2617 168.183 14.4426 172.235 14.4426C178.729 14.4426 184.499 15.9897 190.659 16.0707C196.599 16.1489 202.986 14.7829 208.319 13.719C212.593 12.8664 219.224 12.903 223.115 13.9452C229.639 15.6921 241.95 15.674 249.081 14.3521C253.522 13.5288 257.74 12.0005 262.445 12.0005C264.05 12.0005 266.619 13.2248 267.791 13.6286C268.252 13.7875 270.982 19.558 271.514 17.2918C271.747 16.2966 274.073 15.6631 276 15.3471C280.294 14.643 284.557 13.1795 289.078 13.2215C296.242 13.2881 303.366 14.7752 310.747 14.8496C315.958 14.9022 321.094 14.4426 326.307 14.4426C332.735 14.4426 337.985 15.977 344.254 16.6134C350.255 17.2226 365.904 18.5156 372.033 16.0707C372.461 15.8999 382.43 10.4437 382.724 12.8145C382.872 14.0076 384.442 15.2453 384.442 16.2742C384.442 18.0911 384.644 18.9519 387.449 16.8848C388.985 15.7528 390.995 14.284 393.416 13.6286C394.73 13.2727 393.529 12.8725 395.611 12.8145C396.818 12.7809 397.853 12.8145 399.382 12.8145C407.255 12.8145 410.227 14.725 408.546 18.3093C407.956 19.5678 406.78 20.6504 406.78 21.9725C406.78 22.7598 405.871 23.3653 405.921 24.2111C405.982 25.2612 406.78 26.2316 406.78 27.2864C406.78 29.3224 408.498 31.2949 408.498 33.3465C408.498 35.3596 407.976 37.3586 407.591 39.3614C407.181 41.5007 407.092 43.7749 405.443 45.7833C402.883 48.903 400.208 51.8011 403.725 54.8961C405.697 56.6307 404.203 60.0924 404.203 62.019C404.203 63.2997 403.762 66.0829 402.007 67.152C397.183 70.0902 397.329 72.9452 397.329 76.5135C397.329 77.7838 397.271 79.8339 395.802 80.8777C393.146 82.7655 397.35 86.5278 398.857 88.1136C402.106 91.534 397.728 95.6104 400.289 99.058C401.887 101.21 403.437 102.142 404.203 104.462C404.961 106.761 405.062 108.999 405.062 111.314C405.062 114.06 395.599 113.357 397.998 116.198C398.734 117.071 403.592 123.268 402.962 123.434C399.852 124.253 394.752 123.11 394.752 125.153C394.752 126.588 396.58 127.317 394.084 128.499C393.483 128.784 387.723 130.189 388.07 130.354C388.731 130.667 395.769 129.604 397.138 129.63C400.499 129.694 402.484 133.949 402.484 135.238C402.484 138.082 399.698 140.795 399.907 143.559C400.148 146.757 400.766 149.981 400.766 153.237C400.766 155.992 399.448 156.972 403.343 159.433C405.709 160.927 406.683 162.85 405.491 164.656C404.289 166.479 399.527 168.525 401.196 170.581C403.283 173.152 403.761 175.28 402.102 177.862C400.37 180.558 402.293 183.515 401.577 186.229C400.985 188.473 398.19 190.019 399 192.13C400.047 194.858 398.998 197.925 398.236 200.633C397.494 203.268 397.166 205.557 394.322 207.982C391.902 210.046 392.094 211.333 392.986 213.657C394.45 217.471 397.429 220.945 396.518 224.828C396.136 226.455 393.906 228.511 390.743 229.35C384.081 231.118 377.82 228.594 371.078 227.926C363.724 227.197 361.848 226.052 355.709 227.903C352.026 229.014 345.652 228.536 341.533 228.536C336.526 228.536 333.234 227.504 328.551 226.727C323.797 225.939 316.736 226.501 311.798 226.501C299.685 226.501 285.418 225.848 273.805 227.813C268.427 228.723 262.885 229.35 257.099 229.35C252.884 229.35 249.253 228.129 245.262 228.129C238.223 228.129 231.271 227.722 224.261 227.722C220.377 227.722 215.974 227.414 212.138 227.745C208.232 228.081 205.654 228.627 201.446 228.446C185.022 227.739 170.46 227.834 154.862 225.371C139.656 222.969 123.774 225.989 108.468 226.094C97.0582 226.173 86.3434 226.063 75.153 226.999C69.6929 227.455 65.1655 228.951 59.8794 229.667C55.2307 230.296 48.5388 230.007 44.224 229.034C40.731 228.246 38.4801 228.452 34.7735 228.039C31.5669 227.681 28.5941 227.808 25.323 227.722C22.4889 227.648 21.078 225.711 19.309 224.873C16.5276 223.555 18.4499 222.63 18.4499 220.961C18.4499 218.618 19.309 216.397 19.309 214.087C19.309 212.694 19.7201 211.548 20.1205 210.22C20.5261 208.875 22.7456 207.621 22.7456 206.354C22.7456 204.926 20.7923 202.769 22.316 201.469C22.9643 200.917 22.1071 198.903 23.6047 198.824C24.9974 198.75 27.7105 199.146 29.1891 199.253C32.4817 199.493 43.58 200.751 35.5849 198.62C30.9982 197.398 26.9133 196.711 23.7002 194.618C21.0063 192.863 23.6047 190.032 23.6047 188.015C23.6047 185.665 24.3168 183.006 23.557 180.666C22.5486 177.561 21.0273 174.749 21.0273 171.576C21.0273 169.395 20.4204 167.511 20.1205 165.38C19.7426 162.695 16.7316 160.968 16.7316 158.302C16.7316 154.748 24.3089 152.139 22.2206 148.511C18.6734 142.35 17.5439 136.855 20.5978 130.489C22.1694 127.213 24.2284 123.638 20.7409 120.54C19.552 119.484 18.5726 118.153 18.0203 116.99C17.2918 115.456 15.1856 113.678 15.0134 112.128C14.841 110.577 16.3851 108.871 16.7316 107.312C17.3024 104.743 18.6295 102.296 19.7864 99.7816C20.5053 98.2189 20.8771 96.65 21.0751 95.0557C21.2367 93.7541 22.6846 92.7781 22.7456 91.5055C22.8009 90.3533 24.211 88.9672 23.1752 87.8875C22.2916 86.9666 20.5604 85.8058 21.2182 84.767C23.5412 81.0987 24.502 77.6791 28.5686 74.3654C30.6631 72.6587 27.9985 72.0003 28.2823 70.5213C28.7412 68.1294 34.5201 66.6251 34.3917 64.0089C34.3256 62.6618 32.4085 61.165 30.0483 60.4588C26.7162 59.4618 27.1005 58.7246 25.9912 57.0895C24.4196 54.7731 23.6047 53.027 23.6047 50.4867C23.6047 47.0417 25.8295 43.8335 26.1822 40.4921C26.3934 38.4909 27.7255 35.9751 25.1321 34.2058C21.7445 31.8948 20.8659 30.0713 21.6955 27.4674C22.094 26.2166 20.89 24.2681 22.3638 23.171C23.6239 22.2329 23.6047 21.54 23.6047 20.4575C23.6047 18.8128 21.988 17.6766 20.8364 16.1612C19.741 14.7196 21.0273 13.8449 21.0273 12.4075" stroke="#4ea9b4" stroke-width="3.48426" stroke-linecap="round"/>
</g>
</svg>
