<svg width="424" height="245" viewBox="0 0 424 245" fill="none" xmlns="http://www.w3.org/2000/svg">
<g filter="url(#filter0_dd_141_23890)">
<path d="M43.7467 12.7919C36.7048 12.1853 28.4767 12.726 20.9953 12.8052C20.8032 14.0173 19.8457 14.8574 20.8364 16.1612C21.988 17.6766 23.6047 18.8128 23.6047 20.4575L23.6047 20.5053C23.605 21.5606 23.6052 22.2467 22.3638 23.171C20.89 24.2681 22.094 26.2166 21.6955 27.4674C20.8659 30.0713 21.7445 31.8948 25.1321 34.2058C27.7255 35.9751 26.3934 38.4909 26.1822 40.4921C25.8295 43.8335 23.6047 47.0417 23.6047 50.4867C23.6047 53.027 24.4196 54.7731 25.9912 57.0895C27.1005 58.7245 26.7162 59.4617 30.0483 60.4588C32.4085 61.165 34.3256 62.6618 34.3917 64.0089C34.5201 66.6251 28.7412 68.1294 28.2823 70.5213C27.9985 72.0003 30.6631 72.6587 28.5686 74.3654C24.502 77.6791 23.5412 81.0987 21.2182 84.767C20.5604 85.8058 22.2916 86.9666 23.1752 87.8875C24.211 88.9672 22.8009 90.3533 22.7456 91.5055C22.6846 92.7781 21.2367 93.7541 21.0751 95.0557C20.8771 96.65 20.5053 98.2189 19.7864 99.7816C18.6295 102.296 17.3024 104.743 16.7316 107.312C16.3851 108.871 14.841 110.577 15.0134 112.128C15.1856 113.678 17.2918 115.456 18.0203 116.99C18.5726 118.153 19.552 119.484 20.7409 120.54C24.2284 123.638 22.1694 127.213 20.5978 130.489C17.5439 136.855 18.6734 142.35 22.2206 148.511C24.3089 152.139 16.7316 154.748 16.7316 158.302C16.7316 160.968 19.7426 162.695 20.1205 165.38C20.4204 167.511 21.0273 169.395 21.0273 171.576C21.0273 174.749 22.5486 177.561 23.557 180.666C24.3168 183.006 23.6047 185.665 23.6047 188.015C23.6047 190.032 21.0063 192.863 23.7002 194.618C26.9133 196.711 30.9982 197.398 35.5849 198.62C43.58 200.751 32.4817 199.493 29.1891 199.253C27.7105 199.146 24.9974 198.75 23.6047 198.824C22.1071 198.903 22.9643 200.917 22.316 201.469C20.7923 202.769 22.7456 204.926 22.7456 206.354C22.7456 207.621 20.5261 208.875 20.1205 210.22C19.7201 211.548 19.309 212.694 19.309 214.087C19.309 216.397 18.4499 218.618 18.4499 220.961C18.4499 222.63 16.5276 223.555 19.309 224.873C21.078 225.711 22.4889 227.648 25.323 227.722C28.5941 227.808 31.5669 227.681 34.7735 228.039C38.4801 228.452 40.731 228.246 44.224 229.034C48.5388 230.007 55.2307 230.296 59.8794 229.667C65.1655 228.951 69.6929 227.455 75.153 226.999C86.3434 226.063 97.0582 226.173 108.468 226.094C123.774 225.989 139.656 222.969 154.862 225.371C170.46 227.834 185.022 227.739 201.446 228.446C205.654 228.627 208.232 228.081 212.138 227.745C215.974 227.414 220.377 227.722 224.261 227.722C231.271 227.722 238.223 228.129 245.262 228.129C249.253 228.129 252.884 229.35 257.099 229.35C262.885 229.35 268.427 228.723 273.805 227.813C285.418 225.848 299.685 226.501 311.798 226.501C316.736 226.501 323.797 225.939 328.551 226.727C333.234 227.504 336.526 228.536 341.533 228.536C345.652 228.536 352.026 229.014 355.709 227.903C361.848 226.052 363.724 227.197 371.078 227.926C377.82 228.594 384.081 231.118 390.743 229.35C393.906 228.511 396.136 226.455 396.518 224.828C397.429 220.945 394.45 217.471 392.986 213.657C392.094 211.333 391.902 210.046 394.322 207.982C397.166 205.557 397.495 203.268 398.236 200.633C398.998 197.925 400.047 194.858 399 192.13C398.19 190.019 400.985 188.473 401.577 186.229C402.293 183.515 400.371 180.558 402.102 177.862C403.761 175.28 403.283 173.152 401.196 170.581C399.527 168.525 404.289 166.479 405.491 164.656C406.683 162.85 405.709 160.927 403.343 159.433C399.448 156.972 400.766 155.992 400.766 153.237C400.766 149.981 400.148 146.757 399.907 143.559C399.698 140.795 402.484 138.082 402.484 135.238C402.484 133.949 400.499 129.694 397.138 129.63C395.769 129.604 388.731 130.667 388.07 130.354C387.723 130.189 393.483 128.784 394.084 128.499C396.58 127.317 394.752 126.588 394.752 125.153C394.752 123.11 399.852 124.253 402.962 123.434C403.592 123.268 398.734 117.071 397.998 116.198C395.599 113.357 405.062 114.06 405.062 111.314C405.062 108.999 404.961 106.761 404.203 104.462C403.437 102.142 401.887 101.21 400.289 99.058C397.728 95.6104 402.106 91.534 398.857 88.1136C397.35 86.5278 393.146 82.7655 395.802 80.8777C397.271 79.8339 397.329 77.7838 397.329 76.5135C397.329 72.9452 397.183 70.0902 402.007 67.152C403.762 66.0829 404.203 63.2997 404.203 62.019C404.203 60.0924 405.697 56.6307 403.725 54.8961C400.208 51.8011 402.883 48.903 405.444 45.7833C407.092 43.7749 407.181 41.5007 407.591 39.3614C407.976 37.3586 408.498 35.3596 408.498 33.3465C408.498 31.2949 406.78 29.3224 406.78 27.2864C406.78 26.2316 405.982 25.2612 405.921 24.2111C405.871 23.3653 406.78 22.7598 406.78 21.9725C406.78 20.6504 407.956 19.5678 408.546 18.3093C410.227 14.725 407.255 12.8145 399.382 12.8145C397.853 12.8145 396.818 12.7809 395.611 12.8145C393.529 12.8725 394.73 13.2727 393.416 13.6286C390.995 14.2839 388.985 15.7528 387.449 16.8848C384.644 18.9519 384.442 18.0911 384.442 16.2742C384.442 15.2453 382.872 14.0076 382.724 12.8145C382.43 10.4436 372.461 15.8999 372.033 16.0707C365.904 18.5156 350.255 17.2226 344.254 16.6134C337.985 15.977 332.735 14.4426 326.307 14.4426C321.094 14.4426 315.958 14.9021 310.747 14.8496C303.366 14.7752 296.242 13.2881 289.078 13.2215C284.557 13.1796 280.294 14.643 276 15.3471C274.073 15.6631 271.747 16.2966 271.514 17.2918C270.982 19.558 268.252 13.7875 267.791 13.6286C266.619 13.2248 264.05 12.0005 262.445 12.0005C257.74 12.0005 253.522 13.5288 249.081 14.3521C241.95 15.674 229.639 15.6921 223.115 13.9452C219.224 12.903 212.593 12.8664 208.319 13.719C202.986 14.7829 196.599 16.1489 190.659 16.0707C184.499 15.9896 178.729 14.4426 172.235 14.4426C168.183 14.4426 164.06 14.2617 160.208 14.2617C157.532 14.2617 154.715 13.877 152.093 13.6512C150.417 13.5067 148.546 14.0356 146.795 14.0356C140.943 14.0356 137.98 13.9606 133.192 15.2567C132.403 15.4703 132.142 18.14 131.808 18.6938C131.006 20.0241 127.388 20.0793 126.749 18.7164C125.985 17.0867 127.635 17.4739 128.372 16.2516C129.007 15.1982 128.075 13.9736 127.513 13.0406C126.93 12.0744 120.314 13.9463 119.399 14.013C113.963 14.4091 102.872 17.2622 97.9201 15.4376C96.1228 14.7753 92.54 13.4035 90.1879 13.6512C87.4438 13.9401 85.7332 14.8496 82.8375 14.8496C79.558 14.8496 74.9771 13.8102 72.0983 14.0582C68.4894 14.3691 64.9656 15.0205 61.359 15.2341C59.162 15.3642 56.5351 15.8212 54.5337 15.3471C53.6242 15.1317 52.3522 14.5834 51.479 14.4652C48.7666 14.0981 46.5274 13.0314 43.7467 12.7919Z" fill="#1A2626"/>
</g>
</svg>
