<svg width="101" height="57" viewBox="0 0 101 57" fill="none" xmlns="http://www.w3.org/2000/svg">
<g filter="url(#filter0_di_130_21071)">
<path d="M3.36816 1.34656C5.22903 1.32695 7.27561 1.19303 9.02716 1.34328C9.71879 1.40261 10.2757 1.66682 10.9504 1.75776C11.1676 1.78704 11.484 1.92285 11.7102 1.97621C12.208 2.09365 12.8614 1.98044 13.4079 1.94821C14.3049 1.8953 15.1814 1.73394 16.0791 1.65694C16.7951 1.59552 17.9345 1.85298 18.7502 1.85298C19.4705 1.85298 19.896 1.62768 20.5785 1.55612C21.1635 1.49478 22.0547 1.83457 22.5018 1.99862C23.7335 2.45061 26.4922 1.74386 27.8441 1.64574C28.0718 1.62921 29.7174 1.16554 29.8623 1.40488C30.0023 1.63597 30.234 1.93931 30.076 2.20026C29.8927 2.50303 29.4822 2.40711 29.6724 2.8108C29.8314 3.14842 30.7312 3.13473 30.9308 2.80519C31.0139 2.66802 31.0788 2.00673 31.2751 1.95381C32.4659 1.63276 33.203 1.65134 34.6586 1.65134C35.0941 1.65134 35.5592 1.52033 35.9763 1.55612C36.6285 1.61206 37.329 1.70735 37.9946 1.70735C38.9529 1.70735 39.9783 1.75216 40.9863 1.75216C42.6014 1.75216 44.0366 2.13537 45.5688 2.15545C47.0464 2.17481 48.6348 1.83646 49.9614 1.57293C51.0245 1.36173 52.6737 1.37079 53.6417 1.62894C55.2644 2.06167 58.3264 2.05719 60.1 1.72975C61.2047 1.5258 62.2539 1.14723 63.4241 1.14723C63.8233 1.14723 64.4623 1.45049 64.7538 1.55051C64.8685 1.58987 65.5476 3.01927 65.6798 2.45792C65.7379 2.21141 66.3165 2.05449 66.7958 1.97621C67.8637 1.8018 68.9241 1.43929 70.0487 1.4497C71.8306 1.46618 73.6025 1.83455 75.4385 1.85298C76.7346 1.86599 78.012 1.75216 79.3087 1.75216C80.9074 1.75216 82.2133 2.13224 83.7726 2.28988C85.2652 2.44079 89.1577 2.76107 90.682 2.15545C90.7885 2.11314 93.2681 0.761591 93.3413 1.34887C93.3781 1.6444 93.7687 1.95098 93.7687 2.20585C93.7687 2.65591 93.8189 2.86914 94.5166 2.3571C94.8987 2.0767 95.3985 1.71286 96.0006 1.55051C96.3276 1.46235 96.0289 1.36324 96.5467 1.34887C96.847 1.34053 97.1044 1.34887 97.4846 1.34887C99.4429 1.34887 100.182 1.82212 99.764 2.70997C99.6172 3.0217 99.3247 3.28986 99.3247 3.61737C99.3247 3.81239 99.0987 3.96236 99.1111 4.17189C99.1264 4.43199 99.3247 4.67237 99.3247 4.93365C99.3247 5.43799 99.7521 5.92658 99.7521 6.43477C99.7521 6.93341 99.6222 7.4286 99.5266 7.92471C99.4245 8.45463 99.4024 9.01796 98.9923 9.51545C98.3554 10.2882 97.69 11.0061 98.5649 11.7727C99.0553 12.2024 98.6837 13.0599 98.6837 13.5371C98.6837 13.8544 98.5741 14.5438 98.1375 14.8086C96.9377 15.5364 96.9741 16.2436 96.9741 17.1275C96.9741 17.4422 96.9596 17.95 96.5942 18.2086C95.9335 18.6762 96.9793 19.6081 97.354 20.0009C98.1621 20.8482 97.0733 21.8579 97.7102 22.7119C98.1077 23.245 98.4933 23.4759 98.6837 24.0506C98.8722 24.62 98.8974 25.1745 98.8974 25.7478C98.8974 26.4279 96.5436 26.2538 97.1403 26.9577C97.3236 27.1738 98.5317 28.709 98.375 28.7501C97.6015 28.9528 96.333 28.6697 96.333 29.1757C96.333 29.5312 96.7877 29.7118 96.1668 30.0047C96.0795 30.0459 96.5917 30.2429 97.0498 30.4076C96.893 30.3386 96.8036 30.2825 96.9266 30.2848C97.2378 30.2907 97.5016 30.4405 97.7102 30.6427C97.7266 30.6505 97.7285 30.653 97.719 30.6514C98.065 30.9919 98.2563 31.4752 98.2563 31.6739C98.2563 32.3784 97.5634 33.0505 97.6152 33.7351C97.6751 34.5273 97.8289 35.326 97.8289 36.1325C97.8289 36.8148 97.501 37.0577 98.47 37.6672C99.0583 38.0373 99.3006 38.5136 99.0042 38.9611C98.7051 39.4126 97.5206 39.9194 97.9357 40.4286C98.455 41.0656 98.5739 41.5926 98.1613 42.2322C97.7305 42.9 98.2088 43.6325 98.0307 44.3047C97.8834 44.8606 97.1881 45.2436 97.3896 45.7666C97.65 46.4421 97.3892 47.2018 97.1997 47.8726C97.0152 48.5255 96.9335 49.0923 96.2262 49.693C95.624 50.2044 95.6718 50.523 95.8938 51.0989C96.2578 52.0437 96.9988 52.9041 96.7723 53.8659C96.6774 54.269 96.1226 54.7783 95.3358 54.9862C93.6789 55.4239 92.1215 54.7989 90.4446 54.6333C88.6154 54.4527 88.1488 54.1692 86.6218 54.6277C85.7057 54.9028 84.1203 54.7845 83.0959 54.7845C81.8503 54.7845 81.0317 54.5288 79.8667 54.3364C78.6844 54.1412 76.928 54.2804 75.6997 54.2804C72.6869 54.2804 69.1382 54.1186 66.2497 54.6053C64.9122 54.8307 63.5336 54.9862 62.0945 54.9862C61.0462 54.9862 60.143 54.6837 59.1503 54.6837C57.3994 54.6837 55.6702 54.5829 53.9266 54.5829C52.9605 54.5829 51.8654 54.5066 50.9112 54.5885C49.9397 54.6718 49.2984 54.807 48.2519 54.7621C44.1668 54.5869 40.5447 54.6105 36.6649 54.0004C32.8827 53.4056 28.9323 54.1536 25.1254 54.1796C22.2874 54.199 19.6223 54.1719 16.8389 54.4037C15.4808 54.5167 14.3547 54.8874 13.0399 55.0646C11.8836 55.2205 10.2191 55.1489 9.14587 54.9078C8.27704 54.7126 7.71719 54.7637 6.79524 54.6613C5.99766 54.5728 5.25822 54.6042 4.4446 54.5829C3.73966 54.5644 3.38874 54.0847 2.94875 53.8771C2.25692 53.5507 2.73505 53.3216 2.73505 52.9081C2.73505 52.3278 2.94875 51.7777 2.94875 51.2054C2.94875 50.8602 3.05098 50.5765 3.15057 50.2476C3.25148 49.9143 3.80352 49.6037 3.80352 49.2897C3.40353 49.1836 3.41144 48.8583 3.55595 48.4582C3.54008 48.3182 3.5703 48.1872 3.69668 48.0799C3.85792 47.9429 3.64471 47.4441 4.01722 47.4245C4.02061 47.4248 4.02401 47.4251 4.02742 47.4254C4.22597 46.9769 4.33517 46.5736 4.04096 46.3827C3.37092 45.948 4.01722 45.2467 4.01722 44.7472C4.01722 44.165 4.19432 43.5063 4.00534 42.9268C3.75453 42.1576 3.37613 41.4611 3.37613 40.6751C3.37613 40.1348 3.22517 39.6683 3.15057 39.1403C3.05659 38.4753 2.30766 38.0474 2.30767 37.3871C2.30767 36.5067 4.19237 35.8604 3.67293 34.9618C2.79065 33.4355 2.50971 32.0745 3.26929 30.4976C3.66022 29.6861 4.17235 28.8005 3.3049 28.0331C3.00917 27.7715 2.76558 27.4418 2.62821 27.1537C2.447 26.7737 1.92311 26.3334 1.88028 25.9494C1.83742 25.5652 2.22147 25.1427 2.30767 24.7564C2.44964 24.1201 2.77971 23.5141 3.06747 22.8912C3.24629 22.5041 3.33877 22.1155 3.38801 21.7205C3.42821 21.3981 3.78834 21.1564 3.80352 20.8411C3.81727 20.5557 4.16802 20.2124 3.91037 19.9449C3.6906 19.7168 3.26001 19.4293 3.42362 19.172C4.0014 18.2633 4.2404 17.4162 5.25189 16.5954C5.77285 16.1727 5.11007 16.0096 5.18066 15.6432C5.29482 15.0507 6.73221 14.6781 6.70027 14.03C6.68382 13.6964 6.20699 13.3256 5.61992 13.1506C4.79114 12.9037 4.88673 12.7211 4.61081 12.3161C4.2199 11.7423 4.01722 11.3098 4.01722 10.6805C4.01722 9.82717 4.57058 9.03248 4.6583 8.20477C4.71083 7.70907 5.04219 7.08589 4.39712 6.64762C3.55453 6.07517 3.33599 5.62347 3.54234 4.97847C3.64146 4.66866 3.34198 4.18601 3.70855 3.91423C4.01734 3.68529 4.01729 3.51533 4.01722 3.25394L4.01722 3.2421C4.01722 2.8347 3.61508 2.55325 3.32865 2.17786C3.08223 1.85491 3.32039 1.64681 3.36816 1.34656Z" fill="#4EA9B4"/>
<path d="M2.94875 1.34887C4.91732 1.34887 7.14295 1.18165 9.02716 1.34328C9.71879 1.40261 10.2757 1.66682 10.9504 1.75776C11.1676 1.78704 11.484 1.92285 11.7102 1.97621C12.208 2.09365 12.8614 1.98044 13.4079 1.94821C14.3049 1.8953 15.1814 1.73394 16.0791 1.65694C16.7951 1.59552 17.9345 1.85298 18.7502 1.85298C19.4705 1.85298 19.896 1.62768 20.5785 1.55612C21.1636 1.49478 22.0547 1.83457 22.5018 1.99862C23.7335 2.45061 26.4922 1.74386 27.8441 1.64574C28.0718 1.62921 29.7174 1.16554 29.8623 1.40488C30.0023 1.63597 30.234 1.93931 30.076 2.20026C29.8927 2.50303 29.4822 2.40711 29.6724 2.8108C29.8314 3.14842 30.7312 3.13473 30.9308 2.80519C31.0139 2.66802 31.0788 2.00673 31.2751 1.95381C32.4659 1.63276 33.203 1.65134 34.6586 1.65134C35.0941 1.65134 35.5592 1.52033 35.9763 1.55611C36.6285 1.61206 37.329 1.70735 37.9946 1.70735C38.9529 1.70735 39.9783 1.75216 40.9863 1.75216C42.6014 1.75216 44.0366 2.13537 45.5688 2.15545C47.0464 2.17481 48.6348 1.83646 49.9614 1.57292C51.0245 1.36173 52.6737 1.37079 53.6417 1.62894C55.2644 2.06167 58.3264 2.05719 60.1 1.72975C61.2047 1.5258 62.2539 1.14723 63.4241 1.14723C63.8233 1.14723 64.4623 1.45049 64.7538 1.55052C64.8685 1.58987 65.5476 3.01927 65.6798 2.45792C65.7379 2.21141 66.3165 2.05449 66.7958 1.97621C67.8637 1.8018 68.9242 1.43929 70.0487 1.44969C71.8306 1.46618 73.6025 1.83455 75.4385 1.85298C76.7346 1.86599 78.012 1.75216 79.3087 1.75216C80.9074 1.75216 82.2133 2.13224 83.7726 2.28988C85.2652 2.44079 89.1577 2.76107 90.682 2.15545C90.7885 2.11314 93.2681 0.76159 93.3413 1.34887C93.3781 1.6444 93.7687 1.95098 93.7687 2.20585C93.7687 2.65591 93.8189 2.86914 94.5166 2.35709C94.8987 2.0767 95.3985 1.71286 96.0006 1.55051C96.3276 1.46236 96.0289 1.36324 96.5467 1.34887C96.847 1.34053 97.1044 1.34887 97.4846 1.34887C99.4429 1.34887 100.182 1.82212 99.764 2.70997C99.6172 3.0217 99.3247 3.28986 99.3247 3.61737C99.3247 3.81239 99.0987 3.96236 99.111 4.17189C99.1264 4.43199 99.3247 4.67237 99.3247 4.93365C99.3247 5.43799 99.7521 5.92658 99.7521 6.43477C99.7521 6.93341 99.6222 7.4286 99.5266 7.92471C99.4245 8.45463 99.4024 9.01796 98.9923 9.51545C98.3554 10.2882 97.69 11.0061 98.5649 11.7727C99.0553 12.2024 98.6837 13.0599 98.6837 13.5371C98.6837 13.8544 98.5741 14.5438 98.1375 14.8086C96.9377 15.5364 96.9741 16.2436 96.9741 17.1275C96.9741 17.4422 96.9596 17.95 96.5942 18.2086C95.9335 18.6762 96.9793 19.6081 97.354 20.0009C98.1621 20.8482 97.0733 21.8579 97.7102 22.7119C98.1077 23.245 98.4933 23.4759 98.6837 24.0506C98.8722 24.62 98.8974 25.1745 98.8974 25.7478C98.8974 26.4279 96.5436 26.2538 97.1403 26.9577C97.3236 27.1738 98.5317 28.709 98.375 28.7501C97.6015 28.9528 96.333 28.6697 96.333 29.1757C96.333 29.5312 96.7877 29.7118 96.1668 30.0047C96.0174 30.0752 97.6239 30.602 97.7102 30.6427C97.8746 30.7203 96.586 30.2784 96.9266 30.2848C97.7625 30.3006 98.2563 31.3546 98.2563 31.6739C98.2563 32.3784 97.5634 33.0505 97.6152 33.7351C97.6751 34.5273 97.8289 35.326 97.8289 36.1325C97.8289 36.8148 97.501 37.0577 98.47 37.6672C99.0584 38.0373 99.3006 38.5136 99.0042 38.9611C98.7051 39.4126 97.5206 39.9194 97.9357 40.4286C98.455 41.0656 98.5739 41.5926 98.1613 42.2322C97.7305 42.9 98.2088 43.6325 98.0307 44.3047C97.8834 44.8606 97.1881 45.2436 97.3896 45.7666C97.65 46.4421 97.3892 47.2018 97.1997 47.8726C97.0152 48.5255 96.9335 49.0923 96.2262 49.693C95.624 50.2044 95.6718 50.523 95.8938 51.0989C96.2578 52.0437 96.9988 52.9041 96.7723 53.8659C96.6774 54.269 96.1226 54.7783 95.3358 54.9862C93.6789 55.4239 92.1215 54.7989 90.4446 54.6333C88.6154 54.4527 88.1488 54.1692 86.6218 54.6277C85.7058 54.9028 84.1203 54.7845 83.0959 54.7845C81.8503 54.7845 81.0317 54.5288 79.8667 54.3364C78.6844 54.1412 76.928 54.2804 75.6997 54.2804C72.6869 54.2804 69.1382 54.1186 66.2497 54.6053C64.9122 54.8307 63.5336 54.9862 62.0945 54.9862C61.0462 54.9862 60.143 54.6837 59.1503 54.6837C57.3994 54.6837 55.6702 54.5829 53.9266 54.5829C52.9605 54.5829 51.8654 54.5066 50.9112 54.5885C49.9397 54.6718 49.2984 54.807 48.2519 54.7621C44.1668 54.5869 40.5447 54.6105 36.6649 54.0004C32.8827 53.4056 28.9323 54.1536 25.1254 54.1796C22.2874 54.199 19.6223 54.1719 16.8389 54.4037C15.4808 54.5167 14.3547 54.8874 13.0399 55.0646C11.8836 55.2205 10.2191 55.1489 9.14587 54.9078C8.27704 54.7126 7.71719 54.7637 6.79524 54.6613C5.99766 54.5728 5.25822 54.6042 4.4446 54.5829C3.73966 54.5644 3.38874 54.0847 2.94875 53.8771C2.25692 53.5507 2.73505 53.3216 2.73505 52.9081C2.73505 52.3278 2.94875 51.7777 2.94875 51.2054C2.94875 50.8602 3.05098 50.5765 3.15057 50.2476C3.25148 49.9143 3.80352 49.6037 3.80352 49.2897M3.80352 49.2897C3.80352 48.9361 3.31767 48.4018 3.69668 48.0799C3.85792 47.9429 3.64471 47.4441 4.01722 47.4245M3.80352 49.2897C5.79213 49.8175 4.83619 47.484 4.01722 47.4245M3.80352 49.2897C2.66265 48.987 4.84015 46.9012 4.04096 46.3827C3.37092 45.948 4.01722 45.2467 4.01722 44.7472C4.01722 44.165 4.19432 43.5063 4.00534 42.9268C3.75453 42.1576 3.37613 41.4611 3.37613 40.6751C3.37613 40.1348 3.22517 39.6683 3.15057 39.1403C3.05659 38.4753 2.30766 38.0474 2.30767 37.3871C2.30767 36.5067 4.19237 35.8604 3.67293 34.9618C2.79065 33.4355 2.50971 32.0745 3.26929 30.4976C3.66022 29.6861 4.17235 28.8005 3.3049 28.0331C3.00917 27.7715 2.76558 27.4418 2.62821 27.1537C2.447 26.7737 1.92311 26.3334 1.88028 25.9494C1.83742 25.5652 2.22147 25.1427 2.30767 24.7564C2.44964 24.1201 2.77971 23.5141 3.06747 22.8912C3.24629 22.5041 3.33877 22.1155 3.38801 21.7205C3.42821 21.3981 3.78834 21.1564 3.80352 20.8411C3.81727 20.5557 4.16802 20.2124 3.91037 19.9449C3.6906 19.7168 3.26001 19.4293 3.42362 19.172C4.0014 18.2633 4.2404 17.4162 5.25189 16.5954C5.77285 16.1727 5.11007 16.0096 5.18066 15.6432C5.29482 15.0507 6.73221 14.6781 6.70027 14.03C6.68382 13.6964 6.20699 13.3256 5.61992 13.1507C4.79114 12.9037 4.88673 12.7211 4.61081 12.3161C4.2199 11.7423 4.01722 11.3098 4.01722 10.6805C4.01722 9.82717 4.57058 9.03248 4.6583 8.20477C4.71083 7.70907 5.04219 7.08589 4.39712 6.64763C3.55453 6.07517 3.33599 5.62347 3.54234 4.97847C3.64146 4.66865 3.34198 4.18601 3.70855 3.91423C4.02198 3.68185 4.01722 3.51023 4.01722 3.24209C4.01722 2.8347 3.61508 2.55325 3.32865 2.17787C3.05619 1.82079 3.37614 1.60411 3.37614 1.24805M4.01722 47.4245C4.36361 47.4064 2.65195 46.2763 4.01722 47.4245Z" stroke="#4EA9B4" stroke-width="1.84953" stroke-linecap="round"/>
</g>
<defs>
<filter id="filter0_di_130_21071" x="0.768253" y="0.222412" width="100.217" height="56.2174" filterUnits="userSpaceOnUse" color-interpolation-filters="sRGB">
<feFlood flood-opacity="0" result="BackgroundImageFix"/>
<feColorMatrix in="SourceAlpha" type="matrix" values="0 0 0 0 0 0 0 0 0 0 0 0 0 0 0 0 0 0 127 0" result="hardAlpha"/>
<feOffset dy="0.183895"/>
<feGaussianBlur stdDeviation="0.0919477"/>
<feComposite in2="hardAlpha" operator="out"/>
<feColorMatrix type="matrix" values="0 0 0 0 0 0 0 0 0 0 0 0 0 0 0 0 0 0 0.6 0"/>
<feBlend mode="normal" in2="BackgroundImageFix" result="effect1_dropShadow_130_21071"/>
<feBlend mode="normal" in="SourceGraphic" in2="effect1_dropShadow_130_21071" result="shape"/>
<feColorMatrix in="SourceAlpha" type="matrix" values="0 0 0 0 0 0 0 0 0 0 0 0 0 0 0 0 0 0 127 0" result="hardAlpha"/>
<feOffset/>
<feGaussianBlur stdDeviation="1.22597"/>
<feComposite in2="hardAlpha" operator="arithmetic" k2="-1" k3="1"/>
<feColorMatrix type="matrix" values="0 0 0 0 0 0 0 0 0 0 0 0 0 0 0 0 0 0 0.4 0"/>
<feBlend mode="normal" in2="shape" result="effect2_innerShadow_130_21071"/>
</filter>
</defs>
</svg>
