<svg width="785" height="438" viewBox="0 0 785 438" fill="none" xmlns="http://www.w3.org/2000/svg">
<g filter="url(#filter0_d_1_6383)">
<g filter="url(#filter1_d_1_6383)">
<path d="M785.94 388.226L16.8019 388.226C13.2503 388.226 10.3711 394.27 10.3711 401.726C10.3711 409.182 13.2503 415.226 16.8019 415.226L785.94 415.226C789.492 415.226 792.371 409.182 792.371 401.726C792.371 394.27 789.492 388.226 785.94 388.226Z" fill="#FFBA1B"/>
</g>
<path d="M372.347 284.046C372.112 286.336 371.555 288.979 370.615 291.974C370.321 292.943 369.969 293.941 369.587 294.999C369.587 294.999 369.029 295.116 368.001 295.38C367.884 295.38 367.766 295.41 367.62 295.439C366.944 295.615 366.093 295.791 365.124 296.026L365.094 296.026C354.259 298.552 327.038 304.894 318.904 307.126C310.917 309.299 283.873 320.545 272.685 330.206C263.141 338.428 254.156 330.764 249.076 324.422C247.138 321.984 245.758 319.723 245.2 318.637C245.171 318.549 245.112 318.461 245.024 318.402C244.848 318.108 244.554 317.844 244.231 317.668C242.704 316.757 239.239 314.056 241.5 309.152C241.706 308.682 241.999 308.183 242.322 307.655C243.644 305.599 245.67 304.131 247.96 303.279C249.781 302.604 252.453 301.606 255.712 300.519C263.318 297.935 274.182 294.705 285.018 292.826C285.018 292.826 288.982 289.889 293.768 286.923C298.555 283.987 304.164 281.021 307.511 280.962C308.598 280.933 309.654 280.639 310.623 280.17C311.064 279.964 311.505 279.7 311.916 279.406C313.09 278.584 314.617 277.586 316.35 276.528C318.493 275.178 320.989 273.768 323.573 272.564C324.454 272.153 325.306 271.771 326.187 271.419L326.216 271.419C327.303 270.979 328.389 270.568 329.475 270.274C330.298 270.01 331.12 269.804 331.942 269.657L331.854 270.656L331.325 276.029C331.325 276.029 332.412 275.559 334.203 274.855C335.26 274.414 336.611 273.915 338.138 273.386L338.167 273.386C339.136 273.063 340.135 272.711 341.251 272.388C342.102 272.094 342.983 271.83 343.893 271.566C346.448 270.861 349.179 270.215 351.91 269.804C353.907 269.481 355.874 269.275 357.783 269.275C357.988 269.275 358.164 269.275 358.37 269.275L358.987 269.275C360.514 269.275 361.982 269.452 363.333 269.775C365.652 270.244 367.678 271.184 369.235 272.652C369.235 272.682 369.264 272.682 369.264 272.682C369.763 273.152 370.204 273.68 370.556 274.267C371.261 275.295 371.789 276.499 372.083 277.909C372.494 279.641 372.612 281.667 372.347 284.075L372.347 284.046Z" fill="#F3E5DC" stroke="#FFBA1B" stroke-width="0.910293" stroke-miterlimit="10"/>
<path d="M283.638 256.149C283.638 256.149 283.345 257.617 282.434 259.761C282.082 260.613 281.612 261.611 281.025 262.668C280.555 263.49 280.027 264.371 279.439 265.223C277.912 267.396 275.886 269.598 273.214 271.507C271.658 272.622 263.23 280.903 261.674 283.282C252.277 297.435 238.829 300.577 233.161 305.599C230.342 308.065 228.169 308.065 226.76 307.126C226.731 307.096 226.701 307.067 226.672 307.067C226.319 306.685 225.967 306.333 225.644 305.951C225.585 305.922 225.585 305.863 225.526 305.834C225.057 305.041 224.792 304.101 224.792 303.279C224.792 302.897 223.941 302.163 222.825 301.135C221.151 299.52 218.92 297.2 218.391 294.029C217.716 290.153 217.774 285.748 221.092 283.634C237.008 273.533 246.375 261.435 249.253 253.771C250.662 250.071 252.16 246.371 254.832 243.728C255.126 243.434 255.449 243.141 255.772 242.906C256.007 242.7 256.242 242.524 256.477 242.377C256.858 242.113 257.24 241.878 257.651 241.643C258.884 240.968 260.088 240.439 261.204 240.028C261.997 239.735 262.731 239.5 263.465 239.323L263.494 239.323C265.726 238.766 267.723 238.707 269.514 239.03L269.543 239.03C269.543 239.03 269.749 239.03 269.867 239.088C270.953 239.265 271.951 239.617 272.862 240.058C272.862 240.058 272.871 240.058 272.891 240.058C274.447 240.792 275.798 241.819 276.943 243.023C278.852 244.932 280.261 247.281 281.289 249.425C281.348 249.513 281.377 249.572 281.407 249.66C281.407 249.689 281.436 249.718 281.436 249.748C282.728 252.508 283.374 254.945 283.58 255.797C283.609 256.002 283.638 256.12 283.638 256.12L283.638 256.149Z" fill="#F3E5DC" stroke="#FFBA1B" stroke-width="0.910293" stroke-miterlimit="10"/>
<path d="M459.587 244.114C459.352 240.502 458.148 236.949 456.269 233.513C455.094 231.34 453.655 229.197 451.982 227.141C449.339 223.823 446.197 220.681 442.849 217.774C440.853 216.012 438.768 214.368 436.683 212.782L436.653 212.782C425.319 204.267 414.102 198.775 414.102 198.775C412.633 199.392 411.018 199.891 409.286 200.302C407.465 200.743 405.527 201.095 403.589 201.36C403.501 201.389 403.413 201.389 403.325 201.418C393.694 202.71 383.563 202.182 383.563 202.182C379.687 202.123 376.075 201.653 372.698 200.89L372.669 200.89C359.014 197.777 349.471 189.467 342.981 180.981C342.981 180.981 342.952 180.951 342.952 180.922C334.29 169.558 331.206 157.871 331.206 157.871C331.206 157.871 325.862 141.104 322.192 131.649C320.753 127.949 319.578 125.394 319.079 125.394C317.317 125.453 314.058 124.484 314.058 124.484C311.855 122.722 309.712 121.166 307.656 119.815C307.45 119.697 307.245 119.551 307.04 119.433C307.04 119.404 307.04 119.404 307.04 119.404C271.274 96.4704 258.823 133.587 260.732 140.869C262.758 148.651 241.352 203.914 241.352 203.914C241.352 203.914 233.218 211.461 243.437 227.964C243.701 228.404 243.994 228.844 244.317 229.285C245.052 230.43 245.903 231.634 246.843 232.867C246.96 233.044 247.078 233.19 247.224 233.337C249.515 236.303 252.334 239.474 255.828 242.91C257.59 244.613 259.499 246.404 261.584 248.225C263.081 249.546 264.638 250.868 266.311 252.218L266.311 252.248C266.752 252.63 267.192 252.982 267.662 253.364C272.155 256.975 276.648 260.059 281.052 262.672C282.785 263.7 284.488 264.669 286.191 265.579L286.22 265.579C286.426 265.667 286.631 265.785 286.837 265.902C287.16 266.049 287.454 266.225 287.777 266.401C298.084 271.57 307.832 274.535 316.378 276.532C318.169 276.943 319.93 277.325 321.604 277.677L321.633 277.677C323.19 278 324.717 278.294 326.156 278.558C326.772 278.676 327.36 278.793 327.947 278.881C329.562 279.204 331.118 279.468 332.557 279.762C333.702 279.997 334.789 280.203 335.817 280.408C336.081 280.467 336.316 280.526 336.58 280.584L336.609 280.584C336.609 280.584 336.639 280.614 336.668 280.614C337.373 280.761 338.048 280.937 338.724 281.084C341.19 281.7 343.598 282.346 345.947 283.11C354.375 285.723 361.951 289.394 367.823 295.208L367.882 295.208C367.882 295.208 368 295.325 368.029 295.384C368.528 295.854 368.998 296.324 369.439 296.823C369.497 296.881 369.556 296.97 369.615 297.028C370.848 298.526 372.551 299.495 374.401 299.789C375.488 299.994 376.603 299.935 377.719 299.642C395.719 294.709 444.406 278.177 456.856 255.419C457.238 254.744 457.561 254.068 457.854 253.393C457.972 253.158 458.089 252.894 458.177 252.659C459.323 249.811 459.763 246.933 459.587 244.114ZM310.27 125.101C310.769 124.631 310.915 124.19 310.592 123.779C310.181 123.251 309.8 122.722 309.418 122.223C310.211 123.133 310.886 123.897 311.385 124.455C312.002 125.13 312.883 125.541 313.823 125.541L315.731 125.541C317.023 125.541 318.227 126.393 318.638 127.655L319.872 131.238L327.389 152.82C330.061 161.835 333.438 169.294 337.255 175.431C334.055 171.525 330.237 167.532 326.156 163.656C325.392 162.922 324.599 162.217 323.806 161.483C319.607 157.636 315.203 153.907 310.915 150.501C309.946 149.737 308.948 148.974 308.008 148.24C296.498 139.283 286.69 133.029 285.839 133.029C296.645 130.503 307.832 127.45 310.27 125.101Z" fill="#FFBA1B" stroke="#1A2626" stroke-width="0.176186" stroke-miterlimit="10"/>
<path d="M440.795 141.216C440.883 142.332 440.384 143.359 439.533 143.947C439.033 144.299 438.446 144.505 437.8 144.505C431.399 144.593 417.128 145.356 410.315 150.495L410.286 150.495C408.377 151.963 407.056 153.754 406.674 155.957C405.529 162.505 407.026 173.839 408.788 183.236C408.935 184.146 409.082 185.057 409.258 185.908C409.346 186.407 409.434 186.907 409.552 187.406C410.902 194.072 412.165 198.975 412.165 198.975C412.165 198.975 411.783 199.122 411.079 199.357C409.728 199.827 407.085 200.62 403.591 201.354C403.503 201.383 403.415 201.383 403.327 201.413C395.78 202.969 384.269 204.232 372.2 201.324C367.179 200.121 362.04 198.182 357.048 195.246C357.048 195.246 357.019 195.246 357.019 195.217C355.991 194.659 355.022 194.013 354.024 193.308C352.233 192.104 350.5 190.724 348.767 189.197C348.767 189.197 348.738 189.197 348.738 189.168C344.627 185.556 340.781 181.034 337.286 175.455L337.257 175.455C333.44 169.288 330.063 161.83 327.391 152.815L319.873 131.232L318.64 127.649C318.229 126.387 317.025 125.535 315.733 125.535L313.824 125.535C312.885 125.535 312.003 125.124 311.387 124.449C310.888 123.891 310.212 123.127 309.42 122.217C308.715 121.395 307.922 120.455 307.041 119.427C307.041 119.398 307.041 119.398 307.041 119.398C300.052 111.029 288.864 96.2297 290.01 88.595C290.098 87.9489 290.274 87.3617 290.568 86.8038C290.568 86.8038 304.516 72.8851 326.01 73.6192C326.597 73.6192 327.214 73.6192 327.801 73.5312L327.89 73.5312C328.829 73.4137 330.356 73.1788 332.471 72.9732L332.5 72.9732C333.087 72.9145 333.733 72.8557 334.408 72.7677C337.345 72.5034 341.015 72.2391 345.185 72.0629C345.214 79.0516 345.391 88.595 345.89 95.4075C346.095 98.3733 346.36 100.811 346.683 102.308C347.916 107.799 350.941 112.057 354.875 114.905C354.964 114.964 355.052 115.023 355.11 115.082C364.243 121.542 378.044 120.514 385.532 109.884C389.29 104.569 394.018 93.4107 396.073 83.4856C396.367 82.0467 396.602 80.6373 396.778 79.2865C396.778 79.1984 396.807 79.081 396.807 78.9929C397.395 79.1984 394.459 77.2604 398.57 79.5508C402.592 81.8412 415.865 85.4824 424.762 90.4449C428.11 92.3242 430.841 94.3797 432.221 96.6114C437.007 104.364 439.914 131.672 440.825 141.216L440.795 141.216Z" fill="#CCCBCA" stroke="#FFBA1B" stroke-width="0.910293" stroke-miterlimit="10"/>
<path d="M401.358 104.742C391.198 121.392 392.255 140.684 406.791 154.338C405.175 152.723 403.414 151.226 401.945 149.493C390.552 137.102 391.815 117.839 401.358 104.742Z" fill="#FFBA1B"/>
<path d="M397.63 79.6389C396.337 90.4743 390.7 104.393 386.383 110.559C375.577 125.888 351.645 121.277 347.505 102.984C346.389 98.021 346.066 82.7515 346.007 72.7383C360.278 72.1216 380.305 72.797 396.249 79.1397C396.719 79.3159 397.16 79.4921 397.63 79.6683L397.63 79.6389Z" fill="#F3E5DC" stroke="#FFBA1B" stroke-width="0.910293" stroke-miterlimit="10"/>
<path opacity="0.74" d="M368.384 106.003C376.459 97.2819 375.49 93.3177 375.607 93.1709L375.695 88.7663C375.461 89.1186 373.699 91.0273 373.464 91.3209L373.405 91.409C373.199 91.7027 372.965 91.9669 372.759 92.2312C372.7 92.2899 372.671 92.3193 372.641 92.378C372.436 92.6129 372.231 92.8478 372.025 93.0827C371.849 93.2883 371.643 93.4939 371.438 93.6994C371.379 93.7582 371.32 93.8168 371.261 93.8462C371.173 93.9343 371.085 94.0518 370.968 94.1399C370.293 94.7859 369.588 95.3732 368.883 95.9017C368.619 96.0779 368.384 96.2541 368.12 96.4009C367.943 96.5183 367.738 96.6358 367.562 96.7532C367.356 96.8707 367.151 96.9882 366.945 97.1057C364.919 98.2215 362.834 98.8382 360.837 99.1318C360.426 99.1906 360.015 99.2493 359.633 99.2786L359.575 99.2786C359.222 99.308 358.84 99.3373 358.488 99.3667C358.429 99.3667 358.37 99.3667 358.341 99.3667C357.989 99.3667 357.636 99.3667 357.284 99.3667C357.049 99.3667 356.814 99.3667 356.55 99.3667L355.992 99.3373C354.964 99.2492 354.024 99.1318 353.144 98.9556C352.909 98.9262 352.703 98.8675 352.498 98.8088C352.41 98.8088 352.351 98.8088 352.263 98.7501C352.263 98.7501 352.263 98.7501 352.233 98.7501L352.204 98.7501C351.822 98.662 351.47 98.5739 351.147 98.4858C351.03 98.4565 350.883 98.4271 350.765 98.3683C350.707 98.3683 350.648 98.339 350.589 98.3096C350.471 98.2803 350.354 98.2509 350.237 98.1922C350.06 98.1334 349.914 98.104 349.767 98.0453C349.591 97.9866 349.444 97.9278 349.326 97.8691C348.622 97.6048 348.211 97.4287 348.211 97.4287C348.24 99.954 349.121 102.421 350.883 104.241C353.584 107.09 356.99 109.057 360.69 110.32C361.336 110.525 362.012 110.525 362.629 110.261C364.743 109.321 366.563 107.97 368.354 106.032L368.384 106.003Z" fill="#000002"/>
<path d="M336.637 36.3006L335.668 39.4132" stroke="#1A2626" stroke-width="1.02775" stroke-miterlimit="10" stroke-linecap="round"/>
<path d="M391.052 60.0278C388.585 70.1585 377.045 86.3969 373.492 91.3889C373.345 91.565 373.198 91.7413 373.052 91.8881C373.052 91.8881 372.699 92.3873 372.053 93.1507C371.877 93.3269 371.701 93.5324 371.495 93.7674C371.378 93.8848 371.29 93.9729 371.172 94.0904C370.967 94.3253 370.702 94.5602 370.438 94.7951C370.056 95.1475 369.587 95.5292 369.117 95.911C368.999 95.9991 368.911 96.0871 368.794 96.1459C368.03 96.7038 367.237 97.1443 366.445 97.5848C366.151 97.7316 365.887 97.849 365.593 97.9664C365.388 98.0545 365.182 98.1426 364.976 98.2307C364.771 98.3188 364.536 98.407 364.33 98.495C362.158 99.2879 360.014 99.6108 357.988 99.6108C357.577 99.6108 357.166 99.6109 356.755 99.5815L356.696 99.5815C356.343 99.5815 355.962 99.5228 355.609 99.4934C355.551 99.4934 355.492 99.4934 355.462 99.4934C355.11 99.4641 354.758 99.4053 354.405 99.3465C354.17 99.3172 353.936 99.2585 353.701 99.1998C353.524 99.1704 353.319 99.1116 353.143 99.0823C352.144 98.8474 351.234 98.5831 350.382 98.2895C350.177 98.2308 349.971 98.1426 349.766 98.0545C349.707 98.0251 349.619 97.9958 349.56 97.9664C349.56 97.9664 349.56 97.9664 349.531 97.9664L349.501 97.9664C349.296 97.849 349.061 97.7315 348.855 97.6141C347.975 97.1149 347.152 96.5863 346.36 95.9697C346.125 95.7641 345.86 95.5586 345.625 95.3824C345.625 95.3824 345.625 95.3531 345.596 95.3531C345.361 95.1475 345.126 94.942 344.921 94.7364C344.656 94.5015 344.422 94.2666 344.157 94.0023C343.864 93.7087 343.599 93.415 343.335 93.1213L342.983 92.7103C342.983 92.7103 342.748 92.3873 342.63 92.2404C342.483 92.0643 342.366 91.8881 342.248 91.7119C342.014 91.4183 341.955 90.919 341.603 90.8015C332.764 88.0119 325.746 49.7209 333.557 39.326C333.557 39.326 353.73 24.4089 353.906 24.2034C358.017 19.5345 357.635 24.7613 371.172 29.254C380.275 32.2786 385.443 45.0521 388.233 51.1305L388.321 51.336C388.586 52.1582 390.171 57.0914 391.023 60.1159L391.052 60.0278Z" fill="#F3E5DC" stroke="#FFBA1B" stroke-width="0.910293" stroke-miterlimit="10"/>
<path d="M424.996 90.4743C424.996 90.4743 424.819 90.4743 424.702 90.4449C420.649 90.1219 406.701 88.8299 396.923 83.9554C396.6 83.8086 396.307 83.6618 396.013 83.4856C392.607 81.665 389.817 79.3746 388.231 76.4969C387.38 74.9699 386.91 73.3256 386.822 71.505C386.793 71.0058 386.88 70.5066 386.998 69.978C387.292 68.4804 387.879 66.9536 387.585 65.5441C386.734 61.4331 386.323 55.4133 386.117 54.6499C384.502 48.2484 376.985 50.0691 372.991 39.4686C369.409 29.9839 362.038 25.1388 356.694 27.1943C356.43 27.2824 336.726 40.9955 336.726 40.9955C334.113 43.8438 333.261 49.8342 333.496 52.4182C334.319 60.8458 335.2 59.2601 334.377 71.9161C334.348 72.2097 334.348 72.474 334.348 72.7677C334.172 79.6095 337.255 85.9522 342.071 90.8854C342.57 91.3846 342.893 92.0013 343.128 92.706C344.42 96.6702 341.806 103.424 340.426 107.417C340.162 107.917 339.986 108.445 339.898 109.033C339.78 109.444 339.663 109.796 339.633 110.06C339.633 110.06 334.73 93.7925 332.821 87.8902C331.558 83.9848 329.708 78.8755 327.829 73.5312C324.305 63.5179 320.635 52.7118 320.282 47.3969C319.724 39.0281 315.408 27.7522 334.054 13.1288C334.054 13.1288 343.891 7.49089 351.144 8.548C352.143 8.69482 354.903 11.132 355.52 10.3392C356.136 9.51698 356.988 8.90034 358.015 8.6067L362.596 8.45991C365.386 8.37182 368.117 7.72579 370.672 6.60995C372.551 5.78775 374.841 5.05365 376.339 5.52348C386.176 8.45991 393.194 10.2511 398.245 18.6493C399.361 20.4699 400.153 23.5238 401.621 25.6086C406.672 32.7735 408.082 41.7884 406.936 50.4802C406.584 53.0936 406.613 55.5896 407.553 57.9093C408.698 60.8164 409.374 63.8409 409.52 66.9242C409.785 73.032 412.339 78.9341 417.096 82.8102C418.829 84.1903 422.999 89.7108 424.996 90.4743Z" fill="white" stroke="#FFBA1B" stroke-width="0.910293" stroke-miterlimit="10"/>
<path d="M425.405 90.5634C425.405 90.5634 425.14 90.5341 424.994 90.4753C425.963 90.5634 426.198 90.5634 425.405 90.5634Z" fill="white" stroke="#FFBA1B" stroke-width="0.910293" stroke-miterlimit="10"/>
<path d="M346.827 10.9844C344.478 10.2503 342.745 12.5114 341.835 14.332C340.014 17.239 337.959 19.9699 335.639 22.4952C333.378 25.0206 330.735 27.3404 328.034 29.3078C322.689 33.5949 320.81 40.8773 322.337 47.4549C320.164 40.8773 321.955 33.0958 327.476 28.6617C330.206 26.5475 332.732 24.4333 335.052 21.9373C337.313 19.5001 339.574 16.7985 341.424 14.097C342.451 12.2471 344.536 10.0154 346.827 10.9551L346.827 10.9844Z" fill="#FFBA1B"/>
<path d="M339.103 26.5163C333.318 30.0987 330.852 36.8231 329.736 43.2246C329.53 36.647 332.584 28.9829 339.103 26.5163Z" fill="#FFBA1B"/>
<path d="M401.357 56.6743C394.662 52.6807 389.112 46.7198 385.266 39.9367C390.17 46.0151 395.367 51.653 401.357 56.6743Z" fill="#FFBA1B"/>
<path d="M376.25 6.48892C379.657 21.1123 389.64 33.6215 402.678 40.8745C401.034 39.9935 399.301 39.2301 397.686 38.2611C386.44 31.4486 378.101 19.5267 376.221 6.48892L376.25 6.48892Z" fill="#FFBA1B"/>
<path d="M390.02 10.9853C391.929 15.7717 393.045 21.028 396.48 24.9922C392.134 21.9383 390.666 16.0066 390.02 10.9853Z" fill="#FFBA1B"/>
<path d="M161.335 292.358C157.37 297.262 149.207 294.237 149.207 294.237C142.218 293.532 141.073 284.899 141.073 284.899C133.145 276.501 148.297 265.783 148.297 265.783L144.567 260.879C144.567 255.065 156.695 258.559 156.695 258.559C152.936 263.463 160.189 265.783 160.189 265.783C167.178 263.698 172.317 270.922 172.317 270.922C180.92 282.58 161.335 292.358 161.335 292.358Z" fill="#F9E0BC" stroke="#1A2626" stroke-width="0.469828" stroke-miterlimit="10"/>
<path d="M181.506 235.421C181.095 237.418 180.067 239.855 177.777 241.646C177.278 242.028 176.808 242.439 176.426 242.938C175.193 244.377 172.139 247.607 168.704 247.93C166.442 248.165 164.299 249.075 162.596 250.602L161.979 251.219C161.979 251.219 161.744 251.424 161.656 251.542C160.012 253.451 157.457 254.273 154.99 253.744C154.11 253.568 153.405 252.922 153.14 252.041C152.729 250.632 151.76 248.782 149.441 250.162C145.946 252.247 146.357 249.163 147.356 247.842C147.414 247.754 147.473 247.695 147.502 247.607C151.379 242.145 147.444 231.868 165.092 227.199C165.239 227.17 165.385 227.111 165.532 227.081C165.532 227.081 173.695 223.352 174.4 227.081C175.105 230.811 179.803 228.432 181.624 231.985C181.771 232.25 181.888 233.659 181.506 235.421Z" fill="#CA7771" stroke="#1A2626" stroke-width="0.469828" stroke-miterlimit="10"/>
<path d="M198.507 222.559C189.492 230.341 177.834 219.447 177.834 219.447C177.834 219.447 179.831 216.363 180.301 209.991C180.36 209.228 181.417 208.259 183.09 207.29C183.149 207.261 183.179 207.231 183.237 207.202C189.374 203.737 203.264 200.301 206.2 206.38C206.347 206.703 206.494 207.084 206.582 207.495C207.11 209.874 207.521 214.807 198.507 222.559Z" fill="#886945" stroke="black" stroke-width="0.469828" stroke-miterlimit="10"/>
<path d="M206.2 206.382C206.318 209.993 202.735 215.249 197.714 220.095C190.402 227.083 176.572 220.388 179.215 217.276C181.857 214.163 180.301 209.993 180.301 209.993C180.918 209.054 181.887 208.173 183.091 207.292C183.149 207.262 183.179 207.233 183.238 207.204C188.758 203.357 199.065 200.655 203.616 202.682C205.349 203.445 206.142 204.737 206.2 206.382Z" fill="#F8E2D7" stroke="#1A2626" stroke-width="0.469828" stroke-miterlimit="10"/>
<path d="M128.855 253.185C128.855 253.185 128.62 253.42 128.502 253.508C126.182 255.74 122.835 256.268 119.517 255.886C114.378 255.328 109.386 252.686 108.652 251.012C108.006 249.573 106.42 248.898 105.07 248.604C102.72 248.105 100.665 246.431 100.078 244.082C98.9324 239.413 104.423 237.005 105.539 236.858C106.949 236.712 110.208 233.775 111.119 230.956C112.058 228.166 120.456 231.896 120.456 231.896L120.633 231.984C123.07 233.129 126.3 240.411 128.003 246.137C129.031 249.602 129.501 252.509 128.855 253.185Z" fill="#CA7771" stroke="#1A2626" stroke-width="0.469828" stroke-miterlimit="10"/>
<path d="M136.197 270.686C129.59 285.339 114.409 292.064 109.74 290.331C107.302 289.45 103.426 289.01 100.93 288.804C98.4638 288.599 96.0853 287.542 94.529 285.603C88.7442 278.468 97.2599 266.634 98.0821 266.106C99.0218 265.46 101.018 259.734 100.725 259.264L100.872 258.647C102.751 251.012 108.036 257.091 108.036 257.091C110.65 260.937 117.903 256.856 119.518 255.887C119.724 255.769 119.841 255.681 119.841 255.681C121.779 253.596 124.187 252.98 126.595 253.185C127.27 253.244 127.887 253.332 128.503 253.508C135.668 255.27 139.368 263.639 136.197 270.686Z" fill="#95837E" stroke="#1A2626" stroke-width="0.469828" stroke-miterlimit="10"/>
<path d="M105.073 263.46C104.104 269.45 103.164 275.529 103.399 281.636C103.576 283.604 103.722 285.806 105.249 287.245C103.605 285.924 103.311 283.633 103.106 281.666C102.665 275.558 103.663 269.391 105.102 263.46L105.073 263.46Z" fill="#1A2626"/>
<path d="M110.502 263.93C111.941 269.421 112.881 275.147 115.347 280.315C115.729 281.02 116.14 281.754 116.904 282.136C115.377 281.402 114.731 279.669 114.085 278.201C112.264 273.65 111.236 268.775 110.532 263.93L110.502 263.93Z" fill="#1A2626"/>
<path d="M117.815 261.911C122.043 264.701 126.8 269.106 126.976 274.509C126.183 269.223 121.691 265.2 117.815 261.911Z" fill="#1A2626"/>
<path d="M207.674 264.779C206.881 265.66 206.117 266.659 205.413 267.774C202.564 272.238 198.864 270.27 195.899 267.305C194.9 266.306 193.99 265.161 193.226 264.133C191.993 262.43 189.703 262.078 187.882 263.106C183.654 265.484 178.309 264.486 176.078 263.928C175.52 263.781 174.932 263.693 174.345 263.81C171.761 264.339 169.177 262.313 167.826 260.991C167.239 260.404 166.945 259.641 166.769 258.848C166.446 257.056 164.596 255.06 163.246 253.797C162.511 253.122 162.071 252.211 161.983 251.213C161.924 250.743 161.953 250.273 162.071 249.804C164.009 242.051 175.96 237.236 181.51 235.415C182.009 235.239 182.45 235.092 182.832 234.975C183.683 234.71 184.593 234.798 185.445 235.063C187.383 235.65 190.496 235.239 192.375 234.886C193.52 234.652 194.695 234.945 195.605 235.65C204.15 242.11 199.07 250.303 196.486 253.621C198.394 251.301 201.155 247.631 202.388 247.131C203.269 246.779 204.121 246.28 204.649 245.487C205.853 243.696 207.057 243.754 208.261 243.872C210.287 244.107 211.873 245.751 212.255 247.748C212.754 250.303 213.87 253.885 213.87 253.885C214.545 258.672 211.139 260.727 207.674 264.779Z" fill="#435C59" stroke="#1A2626" stroke-width="0.469828" stroke-miterlimit="10"/>
<path d="M195.75 251.271C197.042 241.757 194.164 235.326 183.564 238.674L186.353 237.793C195.456 235.561 197.512 244.165 195.75 251.271Z" fill="#1A2626"/>
<path d="M210.784 257.967C211.636 253.562 209.111 249.275 204.853 247.895C209.375 248.687 212.311 253.65 210.784 257.967Z" fill="#1A2626"/>
<path d="M173.022 252.162C175.166 255.861 179.277 260.442 183.799 257.594C179.483 261.118 174.549 256.243 173.022 252.162Z" fill="#1A2626"/>
<path d="M189.965 248.135C190.024 251.424 186.852 254.243 183.564 253.392C186.852 253.568 189.348 251.307 189.965 248.135Z" fill="#1A2626"/>
<path d="M216.687 279.668C216.775 285.717 215.835 293.792 211.078 298.255C203.914 305.039 183.799 298.608 178.69 296.846C177.809 296.523 177.045 295.936 176.575 295.113C171.26 285.629 186.677 264.839 186.677 264.839C189.789 260.023 191.962 265.632 191.962 265.632C191.962 265.632 192.814 268.069 195.897 267.306C196.984 267.041 198.334 266.366 200.067 265.015C202.416 263.165 205.118 263.517 207.672 264.78C207.79 264.809 207.878 264.868 207.995 264.927C213.428 267.717 216.628 273.531 216.687 279.668Z" fill="#BC8F3F" stroke="#1A2626" stroke-width="0.469828" stroke-miterlimit="10"/>
<path d="M185.764 281.962C185.822 288.892 188.759 297.084 196.335 298.582C188.524 297.672 185.176 288.921 185.764 281.962Z" fill="#1A2626"/>
<path d="M190.114 279.312C192.816 284.245 195.224 291.88 201.008 293.759C199.393 293.701 198.043 292.643 196.956 291.528C193.755 288.063 191.7 283.687 190.114 279.312Z" fill="#1A2626"/>
<path d="M193.079 276.674C199.187 278.994 205.148 283.31 207.526 289.565C204.59 283.545 198.952 279.552 193.079 276.674Z" fill="#1A2626"/>
<path d="M199.451 273.233C203.944 275.699 209.729 278.841 210.786 284.274C209.112 279.047 203.68 276.257 199.451 273.233Z" fill="#1A2626"/>
<path d="M201.917 270.445C206.645 272.413 212.929 275.379 213.722 281.017C212.312 275.555 206.41 273 201.917 270.445Z" fill="#1A2626"/>
<path d="M170.938 218.621C170.673 219.414 170.35 220.148 170.027 220.735C169.616 221.528 169.029 222.233 168.265 222.703C166.239 223.936 165.417 225.757 165.094 227.196C164.801 228.546 164.918 229.574 164.918 229.574C166.856 236.798 157.929 238.736 157.929 238.736C154.699 239.852 154.67 242.318 154.67 242.318C154.229 245.489 153.084 246.165 150.999 247.016C149.883 247.486 148.709 247.633 147.505 247.604C146.888 247.604 146.242 247.545 145.596 247.457C143.335 247.134 140.663 248.984 140.663 248.984C139.048 252.889 135.671 252.302 133.146 251.127C131.443 250.335 130.151 248.925 129.182 247.31C128.8 246.693 128.418 246.312 128.007 246.136C127.743 245.989 127.479 245.93 127.214 245.93C123.749 245.93 120.49 243.992 119.814 240.586C119.286 237.914 119.668 234.948 120.637 231.982C123.456 223.085 131.267 213.805 134.585 210.106C135.466 209.136 135.847 207.815 135.642 206.523L135.642 206.376C135.319 203.822 137.404 201.59 139.988 201.649L144.128 201.707C146.037 201.707 147.71 202.999 148.239 204.849L148.357 205.319C148.621 206.229 149.149 207.052 149.883 207.61C156.667 212.778 162.657 213.159 166.034 212.807C169.293 212.425 171.995 215.509 170.938 218.621Z" fill="#837572" stroke="#1A2626" stroke-width="0.469828" stroke-miterlimit="10"/>
<path d="M129.946 219.151C128.243 224.936 125.63 230.633 125.776 236.77C125.864 238.737 126.452 240.851 128.096 242.143C121.9 236.74 127.802 225.435 129.975 219.151L129.946 219.151Z" fill="#1A2626"/>
<path d="M134.935 216.502C135.61 222.903 136.227 229.422 138.458 235.5C139.281 237.409 140.279 239.582 142.422 240.287C140.22 239.758 139.016 237.556 138.194 235.618C135.786 229.569 135.17 222.932 134.964 216.502L134.935 216.502Z" fill="#1A2626"/>
<path d="M140.045 214.334C142.041 218.709 146.652 234.331 152.642 232.833C146.358 234.801 141.513 218.944 140.045 214.334Z" fill="#1A2626"/>
<path d="M143.95 210.285C149.676 212.516 157.282 215.042 159.954 221.003C156.694 215.306 149.559 213.104 143.95 210.285Z" fill="#1A2626"/>
<path d="M490.681 360.391C490.27 362.388 489.242 364.855 486.981 366.646C486.482 367.027 486.012 367.439 485.601 367.908C484.397 369.347 481.314 372.607 477.908 372.93C475.647 373.135 473.474 374.075 471.8 375.572L471.183 376.189C471.183 376.189 470.949 376.395 470.86 376.512C469.216 378.421 466.632 379.243 464.165 378.744C463.284 378.538 462.58 377.892 462.345 377.041C461.934 375.602 460.935 373.752 458.645 375.132C455.15 377.246 455.532 374.134 456.531 372.812C456.589 372.754 456.619 372.695 456.677 372.607C460.553 367.145 456.589 356.838 474.296 352.169C474.443 352.14 474.59 352.081 474.736 352.052C474.736 352.052 482.9 348.322 483.604 352.052C484.28 355.781 489.007 353.402 490.828 356.956C490.975 357.22 491.063 358.629 490.681 360.391Z" fill="#435C59" stroke="#1A2626" stroke-width="0.469828" stroke-miterlimit="10"/>
<path d="M515.79 332.466C516.318 334.844 516.729 339.777 507.715 347.559C498.7 355.34 487.042 344.446 487.042 344.446C487.042 344.446 489.068 341.334 489.538 334.962C489.803 331.291 513.646 322.834 515.819 332.466L515.79 332.466Z" fill="#886945" stroke="black" stroke-width="0.469828" stroke-miterlimit="10"/>
<path d="M489.509 334.965C489.509 334.965 491.066 339.164 488.423 342.276C485.78 345.389 499.61 352.084 506.922 345.066C514.234 338.077 518.433 330.149 512.824 327.653C507.216 325.157 492.916 329.826 489.509 334.965Z" fill="#EFC281" stroke="black" stroke-width="0.469828" stroke-miterlimit="10"/>
<path d="M523.129 379.777C523.335 384.915 518.431 386.824 514.614 392.756C512.147 396.602 509.035 395.692 506.362 393.46C506.01 393.196 505.687 392.902 505.393 392.609C504.278 391.522 503.25 390.26 502.428 389.115C501.194 387.411 498.904 387.059 497.054 388.087C492.825 390.465 487.51 389.496 485.279 388.909C484.721 388.762 484.104 388.674 483.546 388.792C480.933 389.32 478.378 387.323 476.998 385.973C476.411 385.415 476.117 384.651 475.97 383.829C475.618 382.067 473.768 380.041 472.417 378.808C471.712 378.103 471.243 377.163 471.184 376.194C471.096 375.754 471.125 375.284 471.243 374.814C473.181 367.062 485.132 362.246 490.682 360.396C491.181 360.22 491.651 360.073 492.033 359.956C492.884 359.692 493.765 359.809 494.617 360.073C496.584 360.661 499.697 360.22 501.576 359.868C502.721 359.662 503.896 359.926 504.806 360.631C513.175 366.974 508.476 374.932 505.834 378.338C507.772 376.047 510.356 372.641 511.589 372.142C512.47 371.79 513.292 371.261 513.821 370.498C515.025 368.677 516.229 368.736 517.433 368.883C519.459 369.117 521.074 370.733 521.456 372.729C521.602 373.581 521.837 374.521 522.102 375.401C522.571 377.251 523.07 378.866 523.07 378.866C523.129 379.189 523.129 379.483 523.129 379.777Z" fill="#CA7771" stroke="#1A2626" stroke-width="0.469828" stroke-miterlimit="10"/>
<path d="M504.924 376.253C506.216 366.739 503.338 360.308 492.737 363.656L495.527 362.775C504.63 360.543 506.686 369.147 504.924 376.253Z" fill="#1A2626"/>
<path d="M480.142 343.599C479.878 344.392 479.526 345.126 479.203 345.743C478.792 346.506 478.234 347.211 477.47 347.681C475.444 348.914 474.622 350.705 474.299 352.174C474.005 353.524 474.123 354.552 474.123 354.552C476.061 361.776 467.105 363.714 467.105 363.714C463.904 364.859 463.845 367.296 463.845 367.296C463.434 370.468 462.289 371.172 460.175 371.995C459.059 372.464 457.884 372.611 456.68 372.611C456.034 372.611 455.418 372.523 454.772 372.435C452.54 372.141 449.868 373.991 449.868 373.991C448.224 377.867 444.876 377.28 442.351 376.105C440.618 375.313 439.326 373.903 438.357 372.288C437.77 371.26 437.065 370.908 436.419 370.908C432.954 370.908 429.695 368.97 429.019 365.593C426.905 354.934 439.326 340.046 443.789 335.084C444.67 334.115 445.023 332.823 444.847 331.501C444.847 331.501 444.817 331.413 444.817 331.354C444.494 328.8 446.609 326.597 449.193 326.627L453.333 326.685C455.241 326.685 456.915 327.978 457.414 329.827L457.561 330.297C457.796 331.208 458.325 332.03 459.088 332.588C465.872 337.756 471.832 338.167 475.209 337.785C478.498 337.433 481.199 340.487 480.142 343.599Z" fill="#F8E2D7" stroke="#1A2626" stroke-width="0.469828" stroke-miterlimit="10"/>
<path d="M439.15 344.13C437.446 349.915 434.833 355.612 434.98 361.749C435.068 363.716 435.655 365.83 437.3 367.122C431.104 361.719 437.006 350.414 439.179 344.13L439.15 344.13Z" fill="#1A2626"/>
<path d="M444.115 341.481C444.791 347.882 445.407 354.401 447.639 360.479C448.461 362.388 449.459 364.561 451.603 365.266C449.401 364.737 448.197 362.535 447.375 360.597C444.967 354.548 444.35 347.911 444.145 341.481L444.115 341.481Z" fill="#1A2626"/>
<path d="M449.254 339.313C451.251 343.688 455.861 359.339 461.851 357.812C455.567 359.78 450.722 343.923 449.254 339.313Z" fill="#1A2626"/>
<path d="M453.125 335.287C458.851 337.518 466.456 340.044 469.129 346.005C465.869 340.308 458.734 338.106 453.125 335.287Z" fill="#1A2626"/>
<path d="M151.411 271.535C151.411 271.535 145.802 285.366 150.001 287.539L151.411 271.535Z" fill="#F9E0BC"/>
<path d="M151.411 271.535C150.177 275.558 148.768 279.611 148.621 283.81C148.65 285.16 148.797 286.717 150.031 287.539C148.68 286.863 148.357 285.19 148.327 283.81C148.298 279.552 149.737 275.382 151.44 271.535L151.411 271.535Z" fill="#1A2626"/>
<path d="M155.139 271.685C155.139 271.685 159.661 284.282 157.782 287.395L155.139 271.685Z" fill="#F9E0BC"/>
<path d="M155.139 271.685C156.813 276.56 159.456 282.256 157.782 287.395C158.868 282.139 156.255 276.795 155.139 271.685Z" fill="#1A2626"/>
<path d="M160.714 270.596C161.184 270.742 168.643 278.524 167.409 283.193L160.714 270.596Z" fill="#F9E0BC"/>
<path d="M160.714 270.596C164.15 273.65 168.29 278.26 167.409 283.193C167.674 278.26 163.768 274.09 160.714 270.596Z" fill="#1A2626"/>
<path d="M480.552 339.143L480.552 339.671C480.346 339.378 479.084 337.528 480.552 339.143Z" fill="#BC8F3F" stroke="#1A2626" stroke-width="0.469828" stroke-miterlimit="10"/>
<path d="M528.121 328.039C527.035 335.468 514.114 356.757 489.36 354.878C486.453 354.672 484.163 352.294 483.987 349.387C483.781 346.127 483.164 342.104 481.491 340.166C481.109 339.726 480.815 339.403 480.551 339.138C480.668 335.35 481.931 313.885 498.346 313.18C500.401 313.092 502.427 313.914 503.807 315.471C506.656 318.671 512.059 323.957 513.909 320.58C513.909 320.58 529.296 320.11 528.121 328.039Z" fill="#BC8F3F" stroke="#1A2626" stroke-width="0.469828" stroke-miterlimit="10"/>
<path d="M496.057 321.721C491.74 326.889 485.163 336.608 490.742 342.687C493.473 345.682 497.995 346.269 501.665 344.537C505.923 342.511 512.383 339.075 516.083 335.346C519.167 332.233 517.522 326.86 513.205 326.037C510.416 325.509 506.452 324.187 502.4 321.045C500.461 319.548 497.642 319.812 496.086 321.691L496.057 321.721Z" fill="#F9E0BC" stroke="#1A2626" stroke-width="0.469828" stroke-miterlimit="10"/>
<path d="M448.781 315.229C445.345 312.41 438.21 322.981 438.21 322.981C435.508 326.974 432.102 327.532 429.489 326.71C428.725 326.446 428.05 326.093 427.463 325.682C426.141 324.713 425.319 323.421 425.466 322.364C425.847 319.251 422.353 318.312 422.353 318.312C412.076 313.672 423.91 306.83 423.91 306.83C426.083 297.493 433.218 301.222 433.218 301.222C433.688 301.104 434.334 301.251 435.068 301.633C438.973 303.483 445.815 310.853 448.341 314.054C449.339 315.317 449.633 315.933 448.781 315.229Z" fill="#435C59" stroke="#1A2626" stroke-width="0.469828" stroke-miterlimit="10"/>
<path d="M522.016 289.328C520.842 289.739 519.579 290.355 519.579 291.207C519.579 292.176 506.6 303.863 504.604 300.457C503.869 299.194 502.284 298.665 500.815 298.695C494.003 298.871 480.378 297.344 485.605 281.34C487.308 276.114 491.243 271.738 496.499 270.182C500.992 268.831 506.953 268.978 513.472 274.381C514.969 275.644 516.173 277.2 517.142 278.933C518.522 281.311 520.724 284.805 522.134 284.893C522.78 284.952 523.191 285.275 523.455 285.745C524.277 287.066 523.485 288.828 522.016 289.328Z" fill="#C2D6CE" stroke="black" stroke-width="0.469828" stroke-miterlimit="10"/>
<path d="M514.734 286.073C511.035 285.075 504.281 284.164 503.4 289.186C503.106 291.329 504.751 293.62 506.953 293.825C508.862 293.766 510.976 291.3 512.503 290.301C510.917 291.535 509.126 294.031 506.923 294.148C504.486 294.001 502.636 291.564 502.93 289.156C503.928 283.871 510.917 284.693 514.705 286.102L514.734 286.073Z" fill="black"/>
<path d="M473.064 287.743C472.712 291.061 471.273 294.732 467.837 298.402C467.544 298.754 467.191 299.136 466.81 299.489C465.4 300.839 463.726 301.867 461.906 302.66C461.142 302.983 460.232 303.394 459.38 303.834C457.442 304.833 455.592 306.007 455.416 306.976C455.299 307.593 454.946 307.975 454.447 308.18C453.537 308.621 452.509 308.357 451.805 307.681C451.423 307.329 451.158 306.888 451.041 306.36C450.747 305.156 450.277 303.834 449.455 303.746C448.868 303.688 444.904 298.49 442.643 294.027C441.292 291.325 440.529 288.888 441.556 288.066C441.556 288.066 441.733 287.919 441.85 287.86C443.201 287.244 443.905 285.746 444.023 284.278C444.17 282.545 444.463 280.372 445.08 278.229C445.256 277.73 445.403 277.23 445.579 276.761C447.136 272.591 450.072 268.92 455.651 269.096C457.677 269.155 460.114 269.772 462.933 271.035C467.955 273.296 471.86 277.671 472.858 283.074C473.123 284.513 473.24 286.069 473.064 287.743Z" fill="#C55740"/>
<path d="M455.096 299.461C455.096 299.461 458.502 292.238 455.33 288.802C453.187 286.482 449.076 287.51 448.195 290.564C447.695 292.208 449.252 293.823 451.19 296.818L455.125 299.491L455.096 299.461Z" fill="#C55740"/>
<path d="M404.379 321.58C402.794 328.686 392.663 349.74 392.663 349.74C392.663 349.74 392.457 349.564 392.134 349.27C388.581 346.011 369.318 327.13 388.464 317.792C388.464 317.792 403.616 316.147 404.555 319.642C404.643 320.024 404.585 320.699 404.379 321.58Z" fill="#F8E2D7" stroke="#1A2626" stroke-width="0.469828" stroke-miterlimit="10"/>
<path d="M433.216 331.998C431.601 332.468 428.576 343.186 428.576 343.186C423.203 362.331 392.194 360.687 391.959 353.698C391.9 352.142 391.988 350.674 392.135 349.264C393.31 338.928 399.476 332.292 399.887 330.853C400.357 329.208 402.207 325.009 402.207 325.009L402.912 323.6C403.176 322.601 403.705 321.955 404.38 321.574C406.201 320.546 409.049 321.486 409.901 322.689C411.075 324.304 420.854 326.419 425.053 325.479C425.816 325.303 426.638 325.391 427.46 325.685C428.165 325.92 428.84 326.272 429.486 326.712C432.217 328.533 434.302 331.675 433.216 331.998Z" fill="#BC8F3F" stroke="#1A2626" stroke-width="0.469828" stroke-miterlimit="10"/>
<path d="M399.417 338.784C399.417 338.784 394.366 351.763 407.022 353.084C412.425 353.642 417.74 351.645 421.822 348.033C426.138 344.216 430.778 338.255 429.046 331.09" fill="#BC8F3F"/>
<path d="M399.417 338.784C395.423 350.559 404.556 355.404 414.892 351.88C422.967 348.826 430.896 340.281 429.046 331.09C431.571 342.542 419.297 353.759 408.226 353.348C399.476 353.26 396.48 346.389 399.417 338.784Z" fill="#1A2626"/>
<path d="M531.207 397.889C530.943 399.357 529.739 403.027 529.739 403.027L529.269 404.261C528.799 407.491 524.571 406.933 523.455 405.641C522.31 404.378 513.882 403.438 510.417 404.584C506.952 405.758 501.608 400.326 502.959 399.797C503.311 399.65 503.663 398.916 504.016 397.918C504.544 396.42 505.044 394.277 505.396 392.603C505.719 391.076 505.924 389.931 505.924 389.931C507.393 381.474 514.939 376.981 522.104 375.396C529.005 373.869 535.553 375.043 535.935 377.921C537.403 388.727 531.471 396.479 531.207 397.889Z" fill="#BC8F3F" stroke="#1A2626" stroke-width="0.469828" stroke-miterlimit="10"/>
<path d="M530.915 391.16C534.204 374.335 513.619 378.827 508.393 389.193C506.337 392.394 505.309 396.475 506.572 400.205C505.926 398.384 505.691 396.387 506.014 394.449C507.189 388.723 511.329 383.672 516.527 381.059C525.013 377.183 533.734 380.795 530.886 391.16L530.915 391.16Z" fill="#1A2626"/>
<path d="M240.498 380.39L226.022 382.358C224.788 382.534 223.555 382.622 222.322 382.739C210.605 383.884 199.653 391.901 192.928 397.921C188.641 401.797 186.057 404.88 186.057 404.88C185.998 404.939 185.939 404.997 185.851 405.085C181.593 409.431 174.458 408.991 170.553 404.293C169.202 402.619 167.499 400.417 165.884 397.921C163.211 393.722 160.804 388.7 160.774 384.119C160.686 377.512 154.578 371.023 150.056 367.117C147.913 365.268 145.564 363.682 143.185 362.214C134.053 356.546 143.391 353.581 143.391 353.581C162.037 347.502 202.031 325.127 202.031 325.127C203.529 323.13 207.405 328.915 210.576 334.464C212.867 338.458 214.775 342.628 216.508 346.886C223.878 364.974 241.555 373.519 241.555 373.519C247.604 377.953 240.498 380.39 240.498 380.39Z" fill="#E04B20"/>
<path d="M203.56 328.509C200.242 334.029 196.248 340.019 196.806 346.685C195.661 340.049 199.772 333.618 203.56 328.509Z" fill="black"/>
<path d="M148.883 357.426C155.314 357.543 161.862 358.16 168.028 360.068C170.025 360.773 172.198 361.595 173.49 363.357C172.051 361.713 169.937 361.037 167.94 360.362C161.744 358.63 155.314 358.013 148.912 357.426L148.883 357.426Z" fill="black"/>
<path d="M179.307 401.969C177.692 396.595 176.811 389.724 180.834 385.173C177.339 390.076 178.308 396.39 179.307 401.969Z" fill="black"/>
<path d="M232.247 375.024C226.345 371.852 220.443 368.622 214.129 366.332C212.074 365.744 209.725 364.746 207.64 365.686C209.666 364.57 212.133 365.48 214.218 366.038C220.619 368.152 226.58 371.441 232.247 375.024Z" fill="black"/>
<path d="M193.285 362.036C194.355 362.036 195.222 361.168 195.222 360.098C195.222 359.027 194.355 358.16 193.285 358.16C192.214 358.16 191.346 359.027 191.346 360.098C191.346 361.168 192.214 362.036 193.285 362.036Z" fill="#F9E0BC" stroke="#1A2626" stroke-width="0.469828" stroke-miterlimit="10"/>
<path d="M194.34 365.592C195.41 365.592 196.278 364.724 196.278 363.654C196.278 362.583 195.41 361.716 194.34 361.716C193.269 361.716 192.402 362.583 192.402 363.654C192.402 364.724 193.269 365.592 194.34 365.592Z" fill="#F9E0BC" stroke="#1A2626" stroke-width="0.469828" stroke-miterlimit="10"/>
<path d="M197.718 364.892C198.788 364.892 199.656 364.024 199.656 362.954C199.656 361.884 198.788 361.016 197.718 361.016C196.647 361.016 195.78 361.884 195.78 362.954C195.78 364.024 196.647 364.892 197.718 364.892Z" fill="#F9E0BC" stroke="#1A2626" stroke-width="0.469828" stroke-miterlimit="10"/>
<path d="M184.504 365.534C185.574 365.534 186.442 364.667 186.442 363.596C186.442 362.526 185.574 361.658 184.504 361.658C183.434 361.658 182.566 362.526 182.566 363.596C182.566 364.667 183.434 365.534 184.504 365.534Z" fill="#F9E0BC" stroke="#1A2626" stroke-width="0.469828" stroke-miterlimit="10"/>
<path d="M186.792 359.753C187.862 359.753 188.73 358.885 188.73 357.815C188.73 356.745 187.862 355.877 186.792 355.877C185.722 355.877 184.854 356.745 184.854 357.815C184.854 358.885 185.722 359.753 186.792 359.753Z" fill="#F9E0BC" stroke="#1A2626" stroke-width="0.469828" stroke-miterlimit="10"/>
<path d="M188.645 356.255C189.715 356.255 190.583 355.387 190.583 354.317C190.583 353.246 189.715 352.379 188.645 352.379C187.574 352.379 186.707 353.246 186.707 354.317C186.707 355.387 187.574 356.255 188.645 356.255Z" fill="#F9E0BC" stroke="#1A2626" stroke-width="0.469828" stroke-miterlimit="10"/>
<path d="M191.082 364.272C192.153 364.272 193.02 363.405 193.02 362.334C193.02 361.264 192.153 360.396 191.082 360.396C190.012 360.396 189.144 361.264 189.144 362.334C189.144 363.405 190.012 364.272 191.082 364.272Z" fill="#F9E0BC" stroke="#1A2626" stroke-width="0.469828" stroke-miterlimit="10"/>
<path d="M182.8 372.141C183.871 372.141 184.738 371.274 184.738 370.203C184.738 369.133 183.871 368.265 182.8 368.265C181.73 368.265 180.862 369.133 180.862 370.203C180.862 371.274 181.73 372.141 182.8 372.141Z" fill="#F9E0BC" stroke="#1A2626" stroke-width="0.469828" stroke-miterlimit="10"/>
<path d="M183.827 377.074C184.897 377.074 185.765 376.206 185.765 375.135C185.765 374.065 184.897 373.197 183.827 373.197C182.757 373.197 181.889 374.065 181.889 375.135C181.889 376.206 182.757 377.074 183.827 377.074Z" fill="#F9E0BC" stroke="#1A2626" stroke-width="0.469828" stroke-miterlimit="10"/>
<path d="M196.221 370.696C197.291 370.696 198.159 369.828 198.159 368.758C198.159 367.688 197.291 366.82 196.221 366.82C195.151 366.82 194.283 367.688 194.283 368.758C194.283 369.828 195.151 370.696 196.221 370.696Z" fill="#F9E0BC" stroke="#1A2626" stroke-width="0.469828" stroke-miterlimit="10"/>
<path d="M189.436 370.237C190.507 370.237 191.374 369.369 191.374 368.299C191.374 367.229 190.507 366.361 189.436 366.361C188.366 366.361 187.498 367.229 187.498 368.299C187.498 369.369 188.366 370.237 189.436 370.237Z" fill="#F9E0BC" stroke="#1A2626" stroke-width="0.469828" stroke-miterlimit="10"/>
<path d="M179.01 375.984C180.08 375.984 180.948 375.116 180.948 374.046C180.948 372.975 180.08 372.108 179.01 372.108C177.939 372.108 177.071 372.975 177.071 374.046C177.071 375.116 177.939 375.984 179.01 375.984Z" fill="#F9E0BC" stroke="#1A2626" stroke-width="0.469828" stroke-miterlimit="10"/>
<path d="M192.608 369.09C193.678 369.09 194.546 368.222 194.546 367.152C194.546 366.082 193.678 365.214 192.608 365.214C191.537 365.214 190.67 366.082 190.67 367.152C190.67 368.222 191.537 369.09 192.608 369.09Z" fill="#F9E0BC" stroke="#1A2626" stroke-width="0.469828" stroke-miterlimit="10"/>
<path d="M188.909 377.75C189.979 377.75 190.847 376.883 190.847 375.812C190.847 374.742 189.979 373.874 188.909 373.874C187.838 373.874 186.97 374.742 186.97 375.812C186.97 376.883 187.838 377.75 188.909 377.75Z" fill="#F9E0BC" stroke="#1A2626" stroke-width="0.469828" stroke-miterlimit="10"/>
<path d="M188.582 386.559C189.652 386.559 190.52 385.692 190.52 384.621C190.52 383.551 189.652 382.683 188.582 382.683C187.511 382.683 186.643 383.551 186.643 384.621C186.643 385.692 187.511 386.559 188.582 386.559Z" fill="#F9E0BC" stroke="#1A2626" stroke-width="0.469828" stroke-miterlimit="10"/>
<path d="M190.113 373.701C191.183 373.701 192.051 372.834 192.051 371.763C192.051 370.693 191.183 369.825 190.113 369.825C189.042 369.825 188.175 370.693 188.175 371.763C188.175 372.834 189.042 373.701 190.113 373.701Z" fill="#F9E0BC" stroke="#1A2626" stroke-width="0.469828" stroke-miterlimit="10"/>
<path d="M193.399 374.665C194.469 374.665 195.337 373.797 195.337 372.727C195.337 371.656 194.469 370.789 193.399 370.789C192.329 370.789 191.461 371.656 191.461 372.727C191.461 373.797 192.329 374.665 193.399 374.665Z" fill="#F9E0BC" stroke="#1A2626" stroke-width="0.469828" stroke-miterlimit="10"/>
<path d="M179.686 367.381C180.756 367.381 181.624 366.513 181.624 365.443C181.624 364.373 180.756 363.505 179.686 363.505C178.616 363.505 177.748 364.373 177.748 365.443C177.748 366.513 178.616 367.381 179.686 367.381Z" fill="#F9E0BC" stroke="#1A2626" stroke-width="0.469828" stroke-miterlimit="10"/>
<path d="M180.776 362.242C181.846 362.242 182.714 361.374 182.714 360.304C182.714 359.234 181.846 358.366 180.776 358.366C179.706 358.366 178.838 359.234 178.838 360.304C178.838 361.374 179.706 362.242 180.776 362.242Z" fill="#F9E0BC" stroke="#1A2626" stroke-width="0.469828" stroke-miterlimit="10"/>
<path d="M189.23 360.981C190.3 360.981 191.167 360.113 191.167 359.042C191.167 357.972 190.3 357.104 189.23 357.104C188.159 357.104 187.292 357.972 187.292 359.042C187.292 360.113 188.159 360.981 189.23 360.981Z" fill="#F9E0BC" stroke="#1A2626" stroke-width="0.469828" stroke-miterlimit="10"/>
<path d="M186.999 363.217C188.069 363.217 188.937 362.35 188.937 361.279C188.937 360.209 188.069 359.341 186.999 359.341C185.928 359.341 185.061 360.209 185.061 361.279C185.061 362.35 185.928 363.217 186.999 363.217Z" fill="#F9E0BC" stroke="#1A2626" stroke-width="0.469828" stroke-miterlimit="10"/>
<path d="M188.318 366.383C189.388 366.383 190.256 365.515 190.256 364.445C190.256 363.375 189.388 362.507 188.318 362.507C187.247 362.507 186.38 363.375 186.38 364.445C186.38 365.515 187.247 366.383 188.318 366.383Z" fill="#F9E0BC" stroke="#1A2626" stroke-width="0.469828" stroke-miterlimit="10"/>
<path d="M191.581 358.549C192.651 358.549 193.519 357.681 193.519 356.611C193.519 355.54 192.651 354.673 191.581 354.673C190.511 354.673 189.643 355.54 189.643 356.611C189.643 357.681 190.511 358.549 191.581 358.549Z" fill="#F9E0BC" stroke="#1A2626" stroke-width="0.469828" stroke-miterlimit="10"/>
<path d="M195.424 358.893C196.494 358.893 197.362 358.025 197.362 356.955C197.362 355.884 196.494 355.017 195.424 355.017C194.353 355.017 193.486 355.884 193.486 356.955C193.486 358.025 194.353 358.893 195.424 358.893Z" fill="#F9E0BC" stroke="#1A2626" stroke-width="0.469828" stroke-miterlimit="10"/>
<path d="M192.786 356.633C193.856 356.633 194.724 355.766 194.724 354.695C194.724 353.625 193.856 352.757 192.786 352.757C191.715 352.757 190.847 353.625 190.847 354.695C190.847 355.766 191.715 356.633 192.786 356.633Z" fill="#F9E0BC" stroke="#1A2626" stroke-width="0.469828" stroke-miterlimit="10"/>
<path d="M337.287 175.461C330.092 166.857 321.518 159.663 312.944 152.528C304.34 145.539 295.501 138.462 285.811 133.03C295.677 138.169 304.516 145.245 313.237 152.175C321.753 159.428 330.386 166.623 337.287 175.461Z" fill="#FFBA1B"/>
<g opacity="0.36">
<path d="M285.251 142.366C285.251 142.366 301.108 206.41 339.663 232.515L285.251 142.366Z" fill="#FFBA1B"/>
<path d="M285.251 142.366C296.027 175.842 311.121 210.491 339.663 232.515C309.77 212.048 294.119 176.4 285.251 142.366Z" fill="#1A2626"/>
<path d="M312.441 165.535C312.441 165.535 327.123 212.87 358.132 225.702L312.441 165.535Z" fill="#FFBA1B"/>
<path d="M312.441 165.535C321.925 188.909 334.758 213.781 358.132 225.702C333.671 215.572 320.017 189.614 312.441 165.535Z" fill="#1A2626"/>
<path d="M323.188 173.705C323.188 173.705 340.924 204.479 362.83 212.877L323.188 173.705Z" fill="#FFBA1B"/>
<path d="M323.188 173.705C333.965 188.886 345.799 204.42 362.83 212.877C344.888 206.27 332.203 189.914 323.188 173.705Z" fill="#1A2626"/>
<path d="M417.034 240.624C417.152 240.976 413.305 249.844 385.204 262.529C385.204 262.529 374.016 269.283 370.521 274.305" fill="#FFBA1B"/>
<path d="M417.034 240.624C414.333 246.614 408.167 250.431 402.91 254.043C392.075 261.003 379.36 264.556 370.521 274.334C371.344 272.983 372.46 271.809 373.575 270.693C379.302 264.908 386.437 261.091 393.69 257.626C401.971 252.986 411.543 248.67 417.034 240.624Z" fill="#1A2626"/>
<path d="M432.188 240.83C431.836 241.417 420.178 264.732 382.181 276.272L432.188 240.83Z" fill="#FFBA1B"/>
<path d="M432.188 240.83C423.614 257.274 406.817 268.08 389.727 274.07C387.232 274.863 384.706 275.568 382.181 276.272C401.532 269.137 420.619 258.419 432.188 240.83Z" fill="#1A2626"/>
<path d="M443.496 249.456C443.496 249.456 433.248 274.651 390.641 282.109L443.496 249.456Z" fill="#FFBA1B"/>
<path d="M443.496 249.456C434.247 269.483 411.46 279.349 390.641 282.109L398.422 280.083C416.041 274.974 434.012 265.841 443.496 249.456Z" fill="#1A2626"/>
</g>
<path d="M473.151 301.433C472.123 302.255 471.448 303.547 471.742 304.839C472.211 306.895 469.158 308.363 466.867 309.156C465.722 309.567 464.841 310.536 464.548 311.74C463.784 314.97 457.941 314.882 457.941 314.882C456.149 318.053 452.214 316.145 450.041 314.706C449.542 314.353 448.926 314.118 448.338 314.06C447.986 314.06 447.634 314.06 447.281 314.119C444.668 314.765 442.994 312.21 442.319 310.859C442.025 310.301 441.585 309.861 441.085 309.508C435.712 305.779 434.919 303.107 435.066 301.639C435.124 300.728 435.565 300.288 435.565 300.288C432.012 298.673 433.715 294.415 435.447 291.508C436.446 289.834 436.005 287.632 434.39 286.516L433.216 285.665L433.186 285.665C431.63 284.519 431.924 282.082 433.744 281.377L445.578 276.767L448.573 275.593L452.156 274.213C454.065 273.449 456.002 275.299 455.356 277.266C454.799 278.969 455.503 280.819 457.03 281.7C461.787 284.461 472.065 287.133 472.065 287.133C472.211 287.192 472.358 287.28 472.505 287.368C472.711 287.485 472.887 287.603 473.063 287.749C474.854 289.159 474.825 291.831 473.122 293.505C472.476 294.151 472.27 295.179 474.032 296.676C475.97 298.379 474.678 300.17 473.151 301.433Z" fill="#837572" stroke="#1A2626" stroke-width="0.469828" stroke-miterlimit="10"/>
<path d="M440.937 284.899C442.434 292.211 444.96 300.11 443.257 307.509C444.372 300.022 441.876 292.357 440.937 284.899Z" fill="black"/>
<path d="M449.54 283.523C452.183 290.188 454.855 296.942 458.848 302.903C460.229 304.753 461.785 306.955 464.222 307.308C461.726 307.102 459.994 304.929 458.584 303.079C454.414 297.177 451.742 290.335 449.511 283.523L449.54 283.523Z" fill="black"/>
<path d="M457.236 287.72C461.347 292.213 464.841 298.144 471.213 299.613C464.636 298.732 460.848 292.536 457.236 287.72Z" fill="black"/>
<path d="M446.987 289.808C449.19 294.477 451.098 299.41 451.803 304.549C451.979 306.223 452.126 308.132 451.186 309.629C451.979 308.073 451.715 306.282 451.509 304.608C450.599 299.528 448.749 294.683 446.987 289.808Z" fill="black"/>
<path d="M251.042 185.415C247.548 204.796 249.545 225.292 256.945 243.557C249.369 225.322 247.372 204.796 251.042 185.415Z" fill="#4EA9B4"/>
<path d="M254.774 175.459C254.334 203.355 256.977 233.424 272.804 257.239C256.8 233.483 254.128 203.414 254.774 175.459Z" fill="#4EA9B4"/>
<path d="M257.882 165.537C262.199 200.04 266.075 236.54 286.395 265.904C265.928 236.628 262.023 200.07 257.882 165.537Z" fill="#4EA9B4"/>
<path d="M263.17 149.031C267.134 169.851 271.627 190.582 276.795 211.137C279.379 221.414 282.139 231.662 285.369 241.734C288.776 251.689 291.83 262.142 298.319 270.599C291.83 262.172 288.717 251.718 285.281 241.764C282.022 231.692 279.232 221.444 276.619 211.166C271.509 190.582 267.105 169.851 263.17 149.031Z" fill="#4EA9B4"/>
<path d="M271.687 137.056C280.819 182.894 291.508 228.526 307.1 272.631C291.331 228.585 280.643 182.894 271.687 137.056Z" fill="#4EA9B4"/>
<path d="M285.136 132.973C286.398 181.571 298.878 229.053 314.705 274.773C298.702 229.111 286.222 181.571 285.136 132.973Z" fill="#4EA9B4"/>
<path d="M298.611 141.426C294.735 188.673 307.655 235.451 326.125 278.557C307.479 235.509 294.529 188.703 298.611 141.426Z" fill="#4EA9B4"/>
<path d="M310.914 150.442C302.369 199.569 318.197 236.773 336.696 280.908C317.874 236.391 302.222 200.068 310.914 150.442Z" fill="#4EA9B4"/>
<path d="M323.809 161.488C316.879 203.978 334.028 244.589 348.387 283.673C333.852 244.677 316.703 204.008 323.809 161.488Z" fill="#4EA9B4"/>
<path d="M339.604 180.781C334.054 217.311 346.417 253.164 357.692 287.403C346.24 253.223 333.878 217.281 339.604 180.781Z" fill="#4EA9B4"/>
<path d="M354.17 192.848C344.363 225.854 355.55 260.151 366.415 291.454C355.374 260.21 344.187 225.824 354.17 192.848Z" fill="#4EA9B4"/>
<path d="M364.532 199.1C359.041 232.78 366.324 267.049 377.1 298.997C366.147 267.137 358.865 232.78 364.532 199.1Z" fill="#4EA9B4"/>
<path d="M379.748 203.149C371.703 233.688 376.607 266.81 390.114 295.088C376.43 266.899 371.526 233.658 379.748 203.149Z" fill="#4EA9B4"/>
<path d="M395.927 204.709C381.186 231.988 387.793 264.935 399.862 291.95C387.617 264.993 380.981 231.959 395.927 204.709Z" fill="#4EA9B4"/>
<path d="M406.173 202.828C395.807 230.019 395.396 262.408 410.313 288.013C395.22 262.466 395.601 229.96 406.173 202.828Z" fill="#4EA9B4"/>
<path d="M418.945 201.6C406.26 226.853 409.049 257.392 419.327 282.998C408.873 257.422 406.113 226.795 418.945 201.6Z" fill="#4EA9B4"/>
<path d="M429.52 209.354C419.302 231.201 422.414 256.631 429.08 279.094C422.238 256.689 419.125 231.172 429.52 209.354Z" fill="#4EA9B4"/>
<path d="M440.999 217.751C432.806 235.075 432.072 255.278 437.475 273.543C431.896 255.337 432.63 235.017 440.999 217.751Z" fill="#4EA9B4"/>
<path d="M450.016 226.147C445.318 239.361 443.615 253.749 445.847 267.609C443.439 253.749 445.142 239.273 450.016 226.147Z" fill="#4EA9B4"/>
<path d="M457.033 255.802C453.979 250.575 456.122 244.261 458.002 239.005C456.299 244.32 454.155 250.545 457.033 255.802Z" fill="#4EA9B4"/>
<path d="M457.97 253.332C428.782 264.784 401.179 280.347 376.308 299.434C401.091 280.171 428.694 264.608 457.97 253.332Z" fill="#4EA9B4"/>
<path d="M459.765 244.086C424.117 249.313 390.465 268.165 367.326 295.797C390.348 268.018 424.058 249.137 459.765 244.086Z" fill="#4EA9B4"/>
<path d="M452.19 227.082C432.428 231.546 413.84 240.003 396.134 249.693C378.456 259.442 361.161 270.13 345.745 283.256C361.102 270.072 378.368 259.324 396.046 249.517C413.782 239.885 432.399 231.458 452.19 227.053L452.19 227.082Z" fill="#4EA9B4"/>
<path d="M436.652 212.784C397.392 226.262 359.806 248.197 332.468 279.822C359.688 248.05 397.304 226.086 436.652 212.784Z" fill="#4EA9B4"/>
<path d="M399.655 204.066C366.444 219.688 342.6 248.905 321.399 277.947C342.453 248.817 366.356 219.541 399.655 204.066Z" fill="#4EA9B4"/>
<path d="M372.935 200.659C349.297 222.183 326.276 245.264 310.536 273.395C326.099 245.176 349.18 222.066 372.935 200.659Z" fill="#4EA9B4"/>
<path d="M357.431 194.867C333.587 215.569 312.621 240.587 300.494 269.981C312.445 240.47 333.47 215.451 357.431 194.867Z" fill="#4EA9B4"/>
<path d="M346.356 187.503C322.835 210.231 294.851 232.959 287.716 266.581C294.675 232.871 322.689 210.113 346.356 187.503Z" fill="#4EA9B4"/>
<path d="M336.226 174.346C324.539 187.413 312.558 200.304 302.34 214.634C292.326 228.817 281.256 243.411 278.408 260.971C281.197 243.411 292.238 228.729 302.193 214.517C312.441 200.246 324.48 187.384 336.226 174.346Z" fill="#4EA9B4"/>
<path d="M326.128 163.656C299.054 187.177 272.685 215.689 266.283 252.248C272.509 215.631 298.907 187.059 326.128 163.656Z" fill="#4EA9B4"/>
<path d="M316.791 155.351C296.559 172.882 277.795 192.556 265.345 216.488C261.087 224.269 257.504 232.726 256.946 241.712C257.475 232.726 261.028 224.269 265.257 216.458C277.56 192.438 296.5 172.823 316.791 155.351Z" fill="#4EA9B4"/>
<path d="M308.038 148.217C277.352 170.475 253.772 192.674 248.252 232.081C253.743 192.322 277.088 170.563 308.038 148.217Z" fill="#4EA9B4"/>
<path d="M301.314 143.342C288.834 153.649 275.826 163.544 264.873 175.554C253.861 187.535 246.05 202.07 240.148 217.164C245.992 202.041 253.744 187.476 264.726 175.437C275.708 163.456 288.775 153.619 301.284 143.342L301.314 143.342Z" fill="#4EA9B4"/>
<path d="M289.627 135.645C272.83 146.744 258.618 161.955 251.659 181.071C258.471 161.838 272.713 146.598 289.627 135.645Z" fill="#4EA9B4"/>
<path d="M269.867 136.758C267.195 139.841 264.728 143.1 262.555 146.565C264.582 143.012 267.078 139.724 269.867 136.758Z" fill="#4EA9B4"/>
<path d="M319.139 235.626C319.139 235.626 308.098 211.841 293.504 211.078C293.504 211.078 282.845 209.375 281.23 216.598C279.585 223.822 280.408 223.469 277.853 225.173C275.298 226.876 271.686 230.194 273.36 234.745C274.505 237.799 273.155 240.002 272.156 241.117C271.363 241.998 270.805 243.085 270.541 244.23C270.071 246.52 269.983 249.897 273.096 251.512C277.324 253.715 289.275 258.178 293.68 258.853C294.825 259.03 295.883 259.588 296.793 260.322C299.7 262.729 306.19 266.929 313.061 263.552C313.736 263.229 314.441 262.964 315.204 262.906C318.611 262.583 328.741 261.32 328.565 257.356C328.389 253.392 330.591 249.985 334.379 249.516C335.084 249.428 335.847 249.369 336.699 249.339C343.746 249.163 340.017 242.028 337.257 237.887C335.994 236.008 333.909 234.892 331.648 234.863C329.035 234.833 324.983 234.922 319.55 235.479" fill="#BC8F3F"/>
<path d="M319.139 235.626C319.139 235.626 308.098 211.841 293.504 211.078C293.504 211.078 282.845 209.375 281.23 216.598C279.585 223.822 280.408 223.469 277.853 225.173C275.298 226.876 271.686 230.194 273.36 234.745C274.505 237.799 273.155 240.002 272.156 241.117C271.363 241.998 270.805 243.085 270.541 244.23C270.071 246.52 269.983 249.897 273.096 251.512C277.324 253.715 289.275 258.178 293.68 258.853C294.825 259.03 295.883 259.588 296.793 260.322C299.7 262.73 306.19 266.929 313.061 263.552C313.736 263.229 314.441 262.964 315.204 262.906C318.611 262.583 328.741 261.32 328.565 257.356C328.389 253.392 330.591 249.985 334.379 249.516C335.084 249.428 335.847 249.369 336.699 249.339C343.746 249.163 340.017 242.028 337.257 237.887C335.994 236.008 333.909 234.892 331.648 234.863C329.035 234.833 324.983 234.922 319.55 235.479" stroke="#1A2626" stroke-width="0.469828" stroke-miterlimit="10"/>
<path d="M315.025 238.509C315.025 238.509 298.405 203.683 286.571 223.123C286.571 223.123 276.94 228.555 278.79 235.103C280.111 239.743 277.703 241.622 277.703 241.622C277.703 241.622 273.827 247.231 279.876 249.227C285.925 251.254 297.289 256.686 300.872 255.13C300.872 255.13 306.627 268.021 317.492 258.389C328.386 248.758 329.003 242.679 329.003 242.679C329.003 242.679 326.683 235.074 317.492 240.183C317.492 240.183 314.379 242.063 314.996 238.48L315.025 238.509Z" fill="#F9E0BC" stroke="#1A2626" stroke-width="0.469828" stroke-miterlimit="10"/>
<path d="M300.172 254.916L314.619 240.439" stroke="#1A2626" stroke-width="0.469828" stroke-miterlimit="10"/>
<path d="M300.495 246.051C302.555 246.051 304.224 244.381 304.224 242.322C304.224 240.262 302.555 238.592 300.495 238.592C298.436 238.592 296.766 240.262 296.766 242.322C296.766 244.381 298.436 246.051 300.495 246.051Z" fill="white" stroke="#1A2626" stroke-width="0.469828" stroke-miterlimit="10"/>
<path d="M307.63 237.182C305.515 233.805 301.816 229.929 297.529 231.897C301.669 229.254 306.103 233.453 307.63 237.182Z" fill="#1A2626"/>
<path d="M316.028 243.41C317.643 247.815 317.202 254.422 310.948 253.394L309.039 252.895C316.351 254.657 317.32 249.254 316.028 243.41Z" fill="#1A2626"/>
<path d="M260.998 223.205C260.998 223.205 254.773 223.058 254.773 226.171C254.773 229.284 258.649 231.457 258.649 231.457C258.649 231.457 267.458 236.683 272.773 236.331C273.624 236.272 274.271 235.509 274.153 234.628C273.977 233.277 274.212 231.192 276.531 229.577C277.236 229.107 277.442 228.138 276.943 227.463C275.416 225.349 271.246 221.737 260.763 223.058" fill="#7C5818"/>
<path d="M260.998 223.205C260.998 223.205 254.773 223.058 254.773 226.171C254.773 229.284 258.649 231.457 258.649 231.457C258.649 231.457 267.458 236.683 272.773 236.331C273.624 236.272 274.271 235.509 274.153 234.628C273.977 233.277 274.212 231.192 276.531 229.577C277.236 229.107 277.442 228.138 276.943 227.463C275.416 225.349 271.246 221.737 260.763 223.058" stroke="black" stroke-width="0.469828" stroke-miterlimit="10"/>
<path d="M274.038 233.277C274.038 233.277 286.547 246.931 293.125 249.163C299.82 251.424 303.314 249.985 304.371 243.319C304.371 243.319 304.665 245.052 301.288 246.079C298.146 247.019 294.74 246.314 292.068 244.406C289.337 242.468 285.285 238.915 279.529 232.513C278.59 231.456 277.533 230.487 276.388 229.665L276.27 229.577C276.27 229.577 273.98 231.251 274.038 233.277Z" fill="#1C1B1B"/>
<path d="M310.269 125.1C307.832 127.449 296.644 130.503 285.838 133.028L285.809 133.028C285.603 133.087 285.368 133.116 285.163 133.175L285.133 133.175C277.616 134.907 270.392 136.375 266.546 137.139C264.725 137.491 263.668 137.697 263.668 137.697C262.464 138.783 262.229 141.984 262.611 146.447L262.611 146.506C262.846 149.296 263.316 152.526 263.932 156.02C264.05 156.754 264.197 157.488 264.343 158.222C265.195 162.715 266.281 167.56 267.427 172.288C267.456 172.405 267.485 172.493 267.515 172.611C268.249 175.606 268.983 178.543 269.717 181.362C269.776 181.538 269.805 181.714 269.864 181.89C269.864 181.949 269.893 181.978 269.893 182.037C269.952 182.242 270.011 182.448 270.069 182.653C270.069 182.712 270.099 182.771 270.099 182.83C270.099 182.888 270.128 182.918 270.128 182.977C270.128 183.035 270.128 183.094 270.187 183.153C272.448 191.698 274.445 198.481 275.002 200.331C275.091 200.624 275.149 200.801 275.149 200.801C275.149 200.801 278.468 209.111 279.995 215.688L279.995 215.747C280.318 217.039 280.523 218.243 280.641 219.3L280.641 219.359C280.817 220.533 280.817 221.532 280.611 222.266C280.464 222.883 280.259 223.382 280.053 223.793C280.053 223.793 280.053 223.852 280.024 223.852C279.349 225.202 278.409 225.643 277.675 225.702C277.499 225.731 277.322 225.702 277.146 225.643L277.117 225.643C276.647 225.467 276.324 225.085 276.206 224.586C276.118 224.233 276.03 223.822 275.884 223.323C275.267 220.651 274.092 216.569 272.83 216.364C272.213 216.246 271.655 219.388 271.156 223.587C270.833 226.377 270.539 229.636 270.304 232.749C270.246 233.924 270.158 235.039 270.069 236.096C270.04 236.654 270.011 237.154 269.981 237.682L269.981 237.741C269.981 238.211 269.922 238.651 269.893 239.092C269.688 242.439 269.57 244.788 269.57 244.788C269.57 244.788 269.541 244.994 269.512 245.317C269.335 246.257 268.924 248.195 267.926 249.252C267.603 249.604 267.221 249.868 266.781 249.927L266.751 249.927C266.047 250.103 265.195 249.839 264.138 248.987C263.697 248.635 263.345 248.107 263.022 247.431C262.17 245.728 261.613 243.056 261.231 240.031C260.937 237.653 260.761 235.039 260.643 232.514C260.643 231.809 260.614 231.105 260.614 230.429L260.614 230.37L260.614 230.312C260.585 229.02 260.585 227.728 260.585 226.583C260.585 225.32 260.585 224.204 260.614 223.206C260.614 220.651 260.731 219.006 260.731 219.006C259.586 218.889 258.764 219.33 258.206 220.152C257.619 221.062 257.296 222.266 257.149 223.705C256.944 225.966 257.149 228.55 257.413 230.517C257.501 231.163 257.59 231.721 257.678 232.191C257.854 233.189 257.59 234.217 257.002 235.01C256.151 236.126 255.329 236.772 254.594 237.066C251.276 238.416 249.25 232.837 249.25 232.837C248.457 233.189 247.811 233.336 247.253 233.336L247.165 233.336C245.139 233.248 244.523 231.075 244.346 229.284C244.258 228.52 244.258 227.845 244.288 227.405L244.288 226.935C244.288 226.935 244.2 227.052 244.17 227.082C243.906 227.434 243.671 227.728 243.465 227.963C239.413 232.397 240.059 224.351 237.446 218.537C235.478 214.161 239.648 199.655 242.32 191.433C243.495 187.792 242.819 183.828 240.558 180.745C232.835 170.203 216.509 144.686 224.702 126.803C234.774 104.897 282.96 90.8609 287.482 89.5982C287.658 89.5395 289.567 88.8053 290.037 88.5997C290.125 88.5997 290.155 88.5704 290.155 88.5704C290.155 88.5704 291.799 98.0257 307.714 119.814C308.272 120.607 308.859 121.4 309.476 122.222C309.858 122.721 310.24 123.25 310.651 123.778C310.974 124.189 310.827 124.63 310.328 125.1L310.269 125.1Z" fill="#F3E5DC" stroke="#FFBA1B" stroke-width="0.910293" stroke-miterlimit="10"/>
<path d="M443.967 215.575C443.615 216.339 443.262 217.073 442.822 217.778C442.499 218.424 442.117 219.07 441.677 219.686C440.737 221.243 439.621 222.711 438.359 224.12C434.248 228.936 428.845 233.077 423.031 236.512L423.001 236.512L422.972 236.571C418.919 238.979 414.662 241.064 410.492 242.884C408.113 243.883 405.764 244.822 403.503 245.674C401.888 246.261 400.303 246.819 398.776 247.318C394.694 248.698 390.965 249.756 387.94 250.548C383.037 251.84 379.924 252.428 379.924 252.428L377.428 254.336L366.915 262.382L359.075 268.372C359.075 268.372 358.87 268.519 358.781 268.578C358.458 268.842 358.136 269.077 357.783 269.283C356.139 270.369 354.377 271.25 352.527 271.837C349.913 272.718 347.153 273.071 344.393 272.865C343.718 272.836 343.072 272.748 342.396 272.63C341.985 272.572 341.574 272.483 341.251 272.395C340.723 272.249 340.282 272.102 339.988 271.896C339.9 271.837 339.812 271.779 339.724 271.749C338.843 271.221 337.874 270.868 336.846 270.898C335.584 270.898 334.057 270.868 332.501 270.751C332.266 270.751 332.06 270.692 331.854 270.663C331.032 270.575 330.239 270.457 329.476 270.281C328.771 270.134 328.096 269.929 327.508 269.694C326.657 269.341 325.952 268.901 325.482 268.314C324.807 267.521 323.956 266.904 322.928 266.816C322.37 266.787 321.783 266.728 321.166 266.64L321.137 266.64C318.641 266.317 316.086 265.436 317.525 263.204C317.671 262.969 317.848 262.764 318.083 262.558C318.376 262.206 318.758 261.942 319.198 261.707C319.786 261.384 320.491 261.178 321.166 261.119C322.37 260.973 324.132 260.738 326.187 260.356C326.774 260.239 327.391 260.121 328.008 259.974C330.739 259.416 333.881 258.594 336.935 257.478C337.404 257.331 337.874 257.126 338.344 256.95C341.339 255.746 344.217 254.219 346.566 252.281C348.269 250.901 349.678 249.315 350.647 247.465C350.354 247.671 348.592 248.992 346.126 250.607C344.1 251.958 341.603 253.543 339.049 254.894L339.019 254.894C338.608 255.1 338.226 255.335 337.815 255.54C334.204 257.331 330.68 258.594 328.448 258.066C327.714 257.919 327.127 257.566 326.774 256.979C326.745 256.979 326.745 256.92 326.716 256.891C326.481 256.597 326.363 256.216 326.246 255.775L326.246 255.716C326.158 255.364 326.128 254.924 326.128 254.454C326.128 254.454 327.068 251.459 334.644 246.966C335.848 246.232 337.257 245.468 338.872 244.675C339.372 244.441 339.841 244.147 340.311 243.853C340.957 243.413 341.545 242.943 342.103 242.414C342.514 242.033 343.042 241.563 343.659 241.064C345.45 239.654 348.093 237.98 351.558 236.894C352.909 236.483 354.348 236.16 355.933 235.984C358.106 235.719 360.485 235.719 363.127 236.072C363.773 236.16 364.449 236.277 365.154 236.424C365.154 236.424 369.382 231.696 376.077 225.354C380.717 220.978 386.531 215.84 392.962 210.965C394.019 210.143 395.105 209.35 396.192 208.587C400.391 205.533 404.795 202.685 409.259 200.306C409.846 199.954 410.463 199.66 411.05 199.366C411.373 199.19 411.696 199.014 412.019 198.867C412.019 198.867 410.786 194.051 409.523 187.415C409.406 186.916 409.318 186.417 409.229 185.918C409.053 185.066 408.906 184.156 408.76 183.245C406.733 171.235 405.353 155.819 410.257 150.534L410.287 150.534C410.492 150.269 410.698 150.064 410.932 149.888C410.932 149.888 416.629 144.719 439.504 143.956C439.739 143.956 439.974 143.927 440.238 143.927C440.238 143.927 456.388 188.384 443.967 215.575Z" fill="#F3E5DC" stroke="#FFBA1B" stroke-width="0.910293" stroke-miterlimit="10"/>
<path d="M161.335 292.358C157.37 297.262 149.207 294.237 149.207 294.237C142.218 293.532 141.073 284.899 141.073 284.899C133.145 276.501 148.297 265.783 148.297 265.783L144.567 260.879C144.567 255.065 156.695 258.559 156.695 258.559C152.936 263.463 160.189 265.783 160.189 265.783C167.178 263.698 172.317 270.922 172.317 270.922C180.92 282.58 161.335 292.358 161.335 292.358Z" stroke="#FFBA1B" stroke-width="0.763471" stroke-miterlimit="10"/>
<path d="M748.98 275.08C744.708 271.042 719.977 263.132 719.977 263.132L714.971 247.779L711.4 261.096C693.144 247.079 671.084 249.215 660.971 251.217C657.5 251.951 655.431 252.619 655.431 252.619C657.2 253.186 659.069 253.987 660.971 254.988C677.758 263.632 698.05 286.628 698.05 286.628C716.006 305.551 717.942 346.368 717.942 346.368C686.97 334.354 673.887 316.298 673.887 316.298L673.153 321.705L675.389 322.939L674.12 329.648H676.69L674.921 337.958L676.791 337.691L675.623 345.167H677.892L675.789 354.445L678.359 355.013L675.623 363.423L678.159 364.358L675.288 372.768L677.925 373.702L674.755 382.947L677.358 383.047L673.82 392.926L676.424 393.861L675.456 396.364L661.071 393.16L660.971 392.893L659.102 387.62H660.971L662.506 387.686L660.971 385.15L658.735 381.479L660.971 381.045L663.14 380.611C663.14 380.611 661.972 377.874 660.971 375.672C660.303 374.17 659.703 372.935 659.569 372.868C659.569 372.768 660.237 372.301 660.971 371.867C661.839 371.333 662.806 370.799 662.806 370.799L660.971 365.025L660.37 363.156L660.971 363.056L663.908 362.622L661.204 354.979L664.409 353.544L661.171 347.236C661.171 347.236 663.34 345.067 663.641 344.8C663.34 344.733 661.104 339.126 661.104 339.126L664.275 337.724L660.971 332.318L663.107 329.648L660.971 326.477L659.402 324.141L660.971 324.007L661.839 323.941L660.971 322.339L658.334 317.533L660.971 317.032H661.104L660.971 316.832L656.866 311.492L659.936 309.189L656.065 305.952L656.699 302.648L653.194 299.544L654.396 295.372L649.957 292.468L651.96 289.531L648.522 286.594L650.057 283.591L646.519 280.82L648.122 279.352L645.518 277.984L645.852 274.012L644.317 273.244C648.055 286.728 629.865 337.791 629.865 337.791L616.683 373.869C615.448 370.966 609.674 355.113 609.674 355.113C602.699 338.626 608.305 301.646 611.543 287.562C614.78 273.478 633.17 254.087 633.17 254.087C628.263 254.555 617.584 260.061 617.584 260.061C601.364 268.972 568.823 307.954 568.823 307.954C566.854 307.253 563.45 291.634 563.45 291.634C561.18 296.073 562.048 310.991 562.048 310.991C544.593 323.941 532.511 327.645 532.511 327.645C533.479 316.298 546.462 290.432 546.462 290.432C557.909 270.608 580.304 256.757 580.304 256.757C594.321 245.877 626.495 244.575 626.628 244.409C626.628 244.208 608.172 237.634 608.172 237.634L609.307 226.853L603.5 235.097C589.816 230.658 567.622 238.201 567.622 238.201L565.619 225.452L560.913 241.105C553.871 247.379 528.373 255.756 528.373 255.756C531.877 238.668 539.086 227.521 539.086 227.521C552.703 205.06 581.038 204.926 581.038 204.926C599.828 202.223 629.899 227.654 631.701 229.156C626.194 221.08 615.715 198.718 617.05 176.157C618.418 153.496 638.71 133.371 638.71 133.371C636.273 139.278 641.013 169.883 641.013 169.883L629.498 174.589L641.213 176.324C640.011 194.48 645.084 235.164 645.251 236.399C644.917 227.888 650.925 210.767 650.925 210.767C650.925 210.767 654.163 203.024 660.971 193.011C663.407 189.44 666.277 185.569 669.648 181.664C682.431 166.879 709.899 166.812 709.899 166.812C737.8 168.047 753.719 199.052 753.719 199.052C741.237 191.343 716.974 198.084 716.974 198.084L704.458 186.704L709.197 202.356C699.953 200.621 688.338 204.593 688.338 204.593C678.893 208.631 668.013 221.08 660.971 230.158C656.432 235.965 653.495 240.404 653.495 240.404C655.531 238.401 658.167 236.632 660.971 235.13C669.849 230.324 680.495 227.921 680.495 227.921C700.286 223.516 722.347 235.898 722.347 235.898C745.743 251.284 748.98 275.08 748.98 275.08Z" fill="#EAE1C5" stroke="#FDB91D" stroke-width="3.33748" stroke-miterlimit="10"/>
</g>
<defs>
<filter id="filter0_d_1_6383" x="10.3711" y="0.921165" width="808.002" height="436.305" filterUnits="userSpaceOnUse" color-interpolation-filters="sRGB">
<feFlood flood-opacity="0" result="BackgroundImageFix"/>
<feColorMatrix in="SourceAlpha" type="matrix" values="0 0 0 0 0 0 0 0 0 0 0 0 0 0 0 0 0 0 127 0" result="hardAlpha"/>
<feOffset dx="13" dy="9"/>
<feGaussianBlur stdDeviation="6.5"/>
<feComposite in2="hardAlpha" operator="out"/>
<feColorMatrix type="matrix" values="0 0 0 0 0 0 0 0 0 0 0 0 0 0 0 0 0 0 0.25 0"/>
<feBlend mode="normal" in2="BackgroundImageFix" result="effect1_dropShadow_1_6383"/>
<feBlend mode="normal" in="SourceGraphic" in2="effect1_dropShadow_1_6383" result="shape"/>
</filter>
<filter id="filter1_d_1_6383" x="0.371094" y="378.226" width="808" height="53" filterUnits="userSpaceOnUse" color-interpolation-filters="sRGB">
<feFlood flood-opacity="0" result="BackgroundImageFix"/>
<feColorMatrix in="SourceAlpha" type="matrix" values="0 0 0 0 0 0 0 0 0 0 0 0 0 0 0 0 0 0 127 0" result="hardAlpha"/>
<feOffset dx="3" dy="3"/>
<feGaussianBlur stdDeviation="6.5"/>
<feComposite in2="hardAlpha" operator="out"/>
<feColorMatrix type="matrix" values="0 0 0 0 0 0 0 0 0 0 0 0 0 0 0 0 0 0 0.25 0"/>
<feBlend mode="normal" in2="BackgroundImageFix" result="effect1_dropShadow_1_6383"/>
<feBlend mode="normal" in="SourceGraphic" in2="effect1_dropShadow_1_6383" result="shape"/>
</filter>
</defs>
</svg>
