<svg width="906" height="37" viewBox="0 0 906 37" fill="none" xmlns="http://www.w3.org/2000/svg">
<path d="M5.12601 0.921265L28.1809 0.921265C28.1809 0.921265 28.3354 1.03166 28.2691 1.11999L16.7418 16.0909C16.7418 16.0909 16.6092 16.1572 16.543 16.0909L5.01563 1.11999C5.01563 1.11999 5.01558 0.921265 5.10391 0.921265H5.12601Z" fill="#E04B20"/>
<path d="M0.667518 9.02576L32.666 9.02576C32.7985 9.02576 32.8869 9.13615 32.7985 9.22448L16.8103 24.1954C16.8103 24.1954 16.6116 24.2616 16.5453 24.1954L0.557129 9.22448C0.557129 9.22448 0.557124 9.02576 0.689623 9.02576H0.667518Z" fill="#E04B20"/>
<path d="M28.1831 36.1002H5.12823C5.12823 36.1002 4.9737 35.9898 5.03995 35.9015L16.5673 20.9306C16.5673 20.9306 16.6999 20.8643 16.7661 20.9306L28.2935 35.9015C28.2935 35.9015 28.2935 36.1002 28.2052 36.1002H28.1831Z" fill="#E04B20"/>
<path d="M32.6666 27.9957H0.668051C0.535552 27.9957 0.447225 27.8853 0.535558 27.797L16.5238 12.8261C16.5238 12.8261 16.7225 12.7598 16.7887 12.8261L32.7771 27.797C32.7771 27.797 32.7771 27.9957 32.6446 27.9957H32.6666Z" fill="#E04B20"/>
<path d="M44.1084 0.921265L67.1633 0.921265C67.1633 0.921265 67.3178 1.03166 67.2516 1.11999L55.7242 16.0909C55.7242 16.0909 55.5917 16.1572 55.5254 16.0909L43.998 1.11999C43.998 1.11999 43.998 0.921265 44.0863 0.921265H44.1084Z" fill="#0E0B06"/>
<path d="M39.6294 9.02576L71.6281 9.02576C71.7606 9.02576 71.8489 9.13615 71.7606 9.22448L55.7722 24.1954C55.7722 24.1954 55.5735 24.2616 55.5072 24.1954L39.519 9.22448C39.519 9.22448 39.519 9.02576 39.6515 9.02576H39.6294Z" fill="#0E0B06"/>
<path d="M67.1421 36.1002H44.0872C44.0872 36.1002 43.9327 35.9898 43.9989 35.9015L55.5263 20.9306C55.5263 20.9306 55.6588 20.8643 55.7251 20.9306L67.2524 35.9015C67.2524 35.9015 67.2525 36.1002 67.1642 36.1002H67.1421Z" fill="#0E0B06"/>
<path d="M71.6257 27.9957H39.627C39.4945 27.9957 39.4062 27.8853 39.4945 27.797L55.4829 12.8261C55.4829 12.8261 55.6816 12.7598 55.7479 12.8261L71.7361 27.797C71.7361 27.797 71.7361 27.9957 71.6036 27.9957H71.6257Z" fill="#0E0B06"/>
<path d="M83.0699 0.921265L106.125 0.921265C106.125 0.921265 106.279 1.03166 106.213 1.11999L94.6856 16.0909C94.6856 16.0909 94.5531 16.1572 94.4868 16.0909L82.9595 1.11999C82.9595 1.11999 82.9594 0.921265 83.0478 0.921265H83.0699Z" fill="#4EA9B4"/>
<path d="M78.591 9.02576L110.59 9.02576C110.722 9.02576 110.81 9.13615 110.722 9.22448L94.7338 24.1954C94.7338 24.1954 94.5351 24.2616 94.4688 24.1954L78.4805 9.22448C78.4805 9.22448 78.4806 9.02576 78.6131 9.02576H78.591Z" fill="#4EA9B4"/>
<path d="M106.103 36.1002H83.0486C83.0486 36.1002 82.8941 35.9898 82.9604 35.9015L94.4877 20.9306C94.4877 20.9306 94.6203 20.8643 94.6865 20.9306L106.214 35.9015C106.214 35.9015 106.214 36.1002 106.126 36.1002H106.103Z" fill="#4EA9B4"/>
<path d="M110.587 27.9957H78.5885C78.456 27.9957 78.3676 27.8853 78.456 27.797L94.4442 12.8261C94.4442 12.8261 94.6429 12.7598 94.7092 12.8261L110.697 27.797C110.697 27.797 110.697 27.9957 110.565 27.9957H110.587Z" fill="#4EA9B4"/>
<path d="M122.031 0.921265L145.086 0.921265C145.086 0.921265 145.241 1.03166 145.175 1.11999L133.647 16.0909C133.647 16.0909 133.515 16.1572 133.448 16.0909L121.921 1.11999C121.921 1.11999 121.921 0.921265 122.009 0.921265H122.031Z" fill="#EDB22E"/>
<path d="M117.576 9.02576L149.574 9.02576C149.707 9.02576 149.795 9.13615 149.707 9.22448L133.719 24.1954C133.719 24.1954 133.52 24.2616 133.454 24.1954L117.465 9.22448C117.465 9.22448 117.465 9.02576 117.598 9.02576H117.576Z" fill="#EDB22E"/>
<path d="M145.088 36.1002H122.034C122.034 36.1002 121.879 35.9898 121.945 35.9015L133.473 20.9306C133.473 20.9306 133.605 20.8643 133.671 20.9306L145.199 35.9015C145.199 35.9015 145.199 36.1002 145.11 36.1002H145.088Z" fill="#EDB22E"/>
<path d="M149.548 27.9957H117.55C117.417 27.9957 117.329 27.8853 117.417 27.797L133.406 12.8261C133.406 12.8261 133.604 12.7598 133.671 12.8261L149.659 27.797C149.659 27.797 149.659 27.9957 149.526 27.9957H149.548Z" fill="#EDB22E"/>
<path d="M160.993 0.921265L184.048 0.921265C184.048 0.921265 184.203 1.03166 184.136 1.11999L172.609 16.0909C172.609 16.0909 172.476 16.1572 172.41 16.0909L160.883 1.11999C160.883 1.11999 160.883 0.921265 160.971 0.921265H160.993Z" fill="#E04B20"/>
<path d="M156.535 9.02576L188.533 9.02576C188.666 9.02576 188.754 9.13615 188.666 9.22448L172.678 24.1954C172.678 24.1954 172.479 24.2616 172.413 24.1954L156.424 9.22448C156.424 9.22448 156.424 9.02576 156.557 9.02576H156.535Z" fill="#E04B20"/>
<path d="M184.05 36.1002H160.995C160.995 36.1002 160.841 35.9898 160.907 35.9015L172.434 20.9306C172.434 20.9306 172.567 20.8643 172.633 20.9306L184.161 35.9015C184.161 35.9015 184.161 36.1002 184.072 36.1002H184.05Z" fill="#E04B20"/>
<path d="M188.534 27.9957H156.535C156.403 27.9957 156.314 27.8853 156.403 27.797L172.391 12.8261C172.391 12.8261 172.59 12.7598 172.656 12.8261L188.644 27.797C188.644 27.797 188.644 27.9957 188.512 27.9957H188.534Z" fill="#E04B20"/>
<path d="M199.975 0.921265L223.03 0.921265C223.03 0.921265 223.185 1.03166 223.118 1.11999L211.591 16.0909C211.591 16.0909 211.458 16.1572 211.392 16.0909L199.865 1.11999C199.865 1.11999 199.865 0.921265 199.953 0.921265H199.975Z" fill="#0E0B06"/>
<path d="M195.493 9.02576L227.492 9.02576C227.624 9.02576 227.713 9.13615 227.624 9.22448L211.636 24.1954C211.636 24.1954 211.437 24.2616 211.371 24.1954L195.383 9.22448C195.383 9.22448 195.383 9.02576 195.515 9.02576H195.493Z" fill="#0E0B06"/>
<path d="M223.009 36.1002H199.954C199.954 36.1002 199.799 35.9898 199.866 35.9015L211.393 20.9306C211.393 20.9306 211.526 20.8643 211.592 20.9306L223.119 35.9015C223.119 35.9015 223.119 36.1002 223.031 36.1002H223.009Z" fill="#0E0B06"/>
<path d="M227.492 27.9957H195.494C195.361 27.9957 195.273 27.8853 195.361 27.797L211.35 12.8261C211.35 12.8261 211.548 12.7598 211.615 12.8261L227.603 27.797C227.603 27.797 227.603 27.9957 227.47 27.9957H227.492Z" fill="#0E0B06"/>
<path d="M238.935 0.921265L261.989 0.921265C261.989 0.921265 262.144 1.03166 262.078 1.11999L250.55 16.0909C250.55 16.0909 250.418 16.1572 250.352 16.0909L238.824 1.11999C238.824 1.11999 238.824 0.921265 238.913 0.921265H238.935Z" fill="#4EA9B4"/>
<path d="M234.455 9.02576L266.454 9.02576C266.586 9.02576 266.675 9.13615 266.586 9.22448L250.598 24.1954C250.598 24.1954 250.399 24.2616 250.333 24.1954L234.345 9.22448C234.345 9.22448 234.345 9.02576 234.477 9.02576H234.455Z" fill="#4EA9B4"/>
<path d="M261.968 36.1002H238.913C238.913 36.1002 238.758 35.9898 238.825 35.9015L250.352 20.9306C250.352 20.9306 250.485 20.8643 250.551 20.9306L262.078 35.9015C262.078 35.9015 262.078 36.1002 261.99 36.1002H261.968Z" fill="#4EA9B4"/>
<path d="M266.451 27.9957H234.453C234.32 27.9957 234.232 27.8853 234.32 27.797L250.308 12.8261C250.308 12.8261 250.507 12.7598 250.573 12.8261L266.562 27.797C266.562 27.797 266.562 27.9957 266.429 27.9957H266.451Z" fill="#4EA9B4"/>
<path d="M277.896 0.921265L300.951 0.921265C300.951 0.921265 301.106 1.03166 301.039 1.11999L289.512 16.0909C289.512 16.0909 289.379 16.1572 289.313 16.0909L277.786 1.11999C277.786 1.11999 277.786 0.921265 277.874 0.921265H277.896Z" fill="#EDB22E"/>
<path d="M273.44 9.02576L305.439 9.02576C305.571 9.02576 305.66 9.13615 305.571 9.22448L289.583 24.1954C289.583 24.1954 289.385 24.2616 289.318 24.1954L273.33 9.22448C273.33 9.22448 273.33 9.02576 273.463 9.02576H273.44Z" fill="#EDB22E"/>
<path d="M300.953 36.1002H277.898C277.898 36.1002 277.744 35.9898 277.81 35.9015L289.337 20.9306C289.337 20.9306 289.47 20.8643 289.536 20.9306L301.064 35.9015C301.064 35.9015 301.064 36.1002 300.975 36.1002H300.953Z" fill="#EDB22E"/>
<path d="M305.413 27.9957H273.415C273.282 27.9957 273.194 27.8853 273.282 27.797L289.27 12.8261C289.27 12.8261 289.469 12.7598 289.535 12.8261L305.524 27.797C305.524 27.797 305.524 27.9957 305.391 27.9957H305.413Z" fill="#EDB22E"/>
<path d="M316.857 0.921265L339.912 0.921265C339.912 0.921265 340.067 1.03166 340.001 1.11999L328.473 16.0909C328.473 16.0909 328.341 16.1572 328.274 16.0909L316.747 1.11999C316.747 1.11999 316.747 0.921265 316.835 0.921265H316.857Z" fill="#E04B20"/>
<path d="M312.402 9.02576L344.4 9.02576C344.533 9.02576 344.621 9.13615 344.533 9.22448L328.545 24.1954C328.545 24.1954 328.346 24.2616 328.28 24.1954L312.292 9.22448C312.292 9.22448 312.291 9.02576 312.424 9.02576H312.402Z" fill="#E04B20"/>
<path d="M339.915 36.1002H316.86C316.86 36.1002 316.705 35.9898 316.771 35.9015L328.299 20.9306C328.299 20.9306 328.431 20.8643 328.498 20.9306L340.025 35.9015C340.025 35.9015 340.025 36.1002 339.937 36.1002H339.915Z" fill="#E04B20"/>
<path d="M344.398 27.9957H312.399C312.267 27.9957 312.179 27.8853 312.267 27.797L328.255 12.8261C328.255 12.8261 328.454 12.7598 328.52 12.8261L344.509 27.797C344.509 27.797 344.509 27.9957 344.376 27.9957H344.398Z" fill="#E04B20"/>
<path d="M355.819 0.921265L378.874 0.921265C378.874 0.921265 379.028 1.03166 378.962 1.11999L367.435 16.0909C367.435 16.0909 367.302 16.1572 367.236 16.0909L355.708 1.11999C355.708 1.11999 355.708 0.921265 355.797 0.921265H355.819Z" fill="#E04B20"/>
<path d="M351.36 9.02576L383.359 9.02576C383.491 9.02576 383.58 9.13615 383.491 9.22448L367.503 24.1954C367.503 24.1954 367.304 24.2616 367.238 24.1954L351.25 9.22448C351.25 9.22448 351.25 9.02576 351.382 9.02576H351.36Z" fill="#E04B20"/>
<path d="M378.876 36.1002H355.821C355.821 36.1002 355.667 35.9898 355.733 35.9015L367.26 20.9306C367.26 20.9306 367.393 20.8643 367.459 20.9306L378.986 35.9015C378.986 35.9015 378.986 36.1002 378.898 36.1002H378.876Z" fill="#E04B20"/>
<path d="M383.359 27.9957H351.361C351.228 27.9957 351.14 27.8853 351.228 27.797L367.217 12.8261C367.217 12.8261 367.415 12.7598 367.482 12.8261L383.47 27.797C383.47 27.797 383.47 27.9957 383.337 27.9957H383.359Z" fill="#E04B20"/>
<path d="M394.801 0.921265L417.856 0.921265C417.856 0.921265 418.011 1.03166 417.944 1.11999L406.417 16.0909C406.417 16.0909 406.285 16.1572 406.218 16.0909L394.691 1.11999C394.691 1.11999 394.691 0.921265 394.779 0.921265H394.801Z" fill="#0E0B06"/>
<path d="M390.322 9.02576L422.321 9.02576C422.453 9.02576 422.542 9.13615 422.453 9.22448L406.465 24.1954C406.465 24.1954 406.266 24.2616 406.2 24.1954L390.212 9.22448C390.212 9.22448 390.212 9.02576 390.344 9.02576H390.322Z" fill="#0E0B06"/>
<path d="M417.835 36.1002H394.78C394.78 36.1002 394.626 35.9898 394.692 35.9015L406.219 20.9306C406.219 20.9306 406.352 20.8643 406.418 20.9306L417.945 35.9015C417.945 35.9015 417.945 36.1002 417.857 36.1002H417.835Z" fill="#0E0B06"/>
<path d="M422.319 27.9957H390.32C390.187 27.9957 390.099 27.8853 390.187 27.797L406.176 12.8261C406.176 12.8261 406.374 12.7598 406.441 12.8261L422.429 27.797C422.429 27.797 422.429 27.9957 422.296 27.9957H422.319Z" fill="#0E0B06"/>
<path d="M433.763 0.921265L456.818 0.921265C456.818 0.921265 456.972 1.03166 456.906 1.11999L445.379 16.0909C445.379 16.0909 445.246 16.1572 445.18 16.0909L433.652 1.11999C433.652 1.11999 433.652 0.921265 433.741 0.921265H433.763Z" fill="#4EA9B4"/>
<path d="M429.284 9.02576L461.282 9.02576C461.415 9.02576 461.503 9.13615 461.415 9.22448L445.427 24.1954C445.427 24.1954 445.228 24.2616 445.162 24.1954L429.173 9.22448C429.173 9.22448 429.173 9.02576 429.306 9.02576H429.284Z" fill="#4EA9B4"/>
<path d="M456.796 36.1002H433.742C433.742 36.1002 433.587 35.9898 433.653 35.9015L445.181 20.9306C445.181 20.9306 445.313 20.8643 445.379 20.9306L456.907 35.9015C456.907 35.9015 456.907 36.1002 456.818 36.1002H456.796Z" fill="#4EA9B4"/>
<path d="M461.28 27.9957H429.281C429.149 27.9957 429.061 27.8853 429.149 27.797L445.137 12.8261C445.137 12.8261 445.336 12.7598 445.402 12.8261L461.39 27.797C461.39 27.797 461.39 27.9957 461.258 27.9957H461.28Z" fill="#4EA9B4"/>
<path d="M472.725 0.921265L495.78 0.921265C495.78 0.921265 495.934 1.03166 495.868 1.11999L484.341 16.0909C484.341 16.0909 484.208 16.1572 484.142 16.0909L472.614 1.11999C472.614 1.11999 472.614 0.921265 472.703 0.921265H472.725Z" fill="#EDB22E"/>
<path d="M468.269 9.02576L500.268 9.02576C500.4 9.02576 500.488 9.13615 500.4 9.22448L484.412 24.1954C484.412 24.1954 484.213 24.2616 484.147 24.1954L468.159 9.22448C468.159 9.22448 468.159 9.02576 468.291 9.02576H468.269Z" fill="#EDB22E"/>
<path d="M495.782 36.1002H472.727C472.727 36.1002 472.572 35.9898 472.639 35.9015L484.166 20.9306C484.166 20.9306 484.298 20.8643 484.365 20.9306L495.892 35.9015C495.892 35.9015 495.892 36.1002 495.804 36.1002H495.782Z" fill="#EDB22E"/>
<path d="M500.242 27.9957H468.243C468.111 27.9957 468.022 27.8853 468.111 27.797L484.099 12.8261C484.099 12.8261 484.298 12.7598 484.364 12.8261L500.352 27.797C500.352 27.797 500.352 27.9957 500.22 27.9957H500.242Z" fill="#EDB22E"/>
<path d="M511.686 0.921265L534.741 0.921265C534.741 0.921265 534.895 1.03166 534.829 1.11999L523.302 16.0909C523.302 16.0909 523.169 16.1572 523.103 16.0909L511.576 1.11999C511.576 1.11999 511.576 0.921265 511.664 0.921265H511.686Z" fill="#E04B20"/>
<path d="M507.228 9.02576L539.226 9.02576C539.359 9.02576 539.447 9.13615 539.359 9.22448L523.37 24.1954C523.37 24.1954 523.172 24.2616 523.105 24.1954L507.117 9.22448C507.117 9.22448 507.117 9.02576 507.25 9.02576H507.228Z" fill="#E04B20"/>
<path d="M534.743 36.1002H511.688C511.688 36.1002 511.534 35.9898 511.6 35.9015L523.127 20.9306C523.127 20.9306 523.26 20.8643 523.326 20.9306L534.854 35.9015C534.854 35.9015 534.854 36.1002 534.765 36.1002H534.743Z" fill="#E04B20"/>
<path d="M539.227 27.9957H507.228C507.096 27.9957 507.007 27.8853 507.096 27.797L523.084 12.8261C523.084 12.8261 523.283 12.7598 523.349 12.8261L539.337 27.797C539.337 27.797 539.337 27.9957 539.205 27.9957H539.227Z" fill="#E04B20"/>
<path d="M550.668 0.921265L573.723 0.921265C573.723 0.921265 573.877 1.03166 573.811 1.11999L562.284 16.0909C562.284 16.0909 562.151 16.1572 562.085 16.0909L550.558 1.11999C550.558 1.11999 550.558 0.921265 550.646 0.921265H550.668Z" fill="#0E0B06"/>
<path d="M546.186 9.02576L578.185 9.02576C578.317 9.02576 578.406 9.13615 578.317 9.22448L562.329 24.1954C562.329 24.1954 562.13 24.2616 562.064 24.1954L546.076 9.22448C546.076 9.22448 546.076 9.02576 546.208 9.02576H546.186Z" fill="#0E0B06"/>
<path d="M573.702 36.1002H550.647C550.647 36.1002 550.492 35.9898 550.559 35.9015L562.086 20.9306C562.086 20.9306 562.218 20.8643 562.285 20.9306L573.812 35.9015C573.812 35.9015 573.812 36.1002 573.724 36.1002H573.702Z" fill="#0E0B06"/>
<path d="M578.185 27.9957H546.187C546.054 27.9957 545.966 27.8853 546.054 27.797L562.042 12.8261C562.042 12.8261 562.241 12.7598 562.307 12.8261L578.296 27.797C578.296 27.797 578.296 27.9957 578.163 27.9957H578.185Z" fill="#0E0B06"/>
<path d="M589.627 0.921265L612.682 0.921265C612.682 0.921265 612.837 1.03166 612.771 1.11999L601.243 16.0909C601.243 16.0909 601.111 16.1572 601.044 16.0909L589.517 1.11999C589.517 1.11999 589.517 0.921265 589.605 0.921265H589.627Z" fill="#4EA9B4"/>
<path d="M585.148 9.02576L617.147 9.02576C617.279 9.02576 617.367 9.13615 617.279 9.22448L601.291 24.1954C601.291 24.1954 601.092 24.2616 601.026 24.1954L585.038 9.22448C585.038 9.22448 585.038 9.02576 585.17 9.02576H585.148Z" fill="#4EA9B4"/>
<path d="M612.661 36.1002H589.606C589.606 36.1002 589.451 35.9898 589.517 35.9015L601.045 20.9306C601.045 20.9306 601.177 20.8643 601.244 20.9306L612.771 35.9015C612.771 35.9015 612.771 36.1002 612.683 36.1002H612.661Z" fill="#4EA9B4"/>
<path d="M617.144 27.9957H585.146C585.013 27.9957 584.925 27.8853 585.013 27.797L601.001 12.8261C601.001 12.8261 601.2 12.7598 601.266 12.8261L617.254 27.797C617.254 27.797 617.254 27.9957 617.122 27.9957H617.144Z" fill="#4EA9B4"/>
<path d="M628.589 0.921265L651.644 0.921265C651.644 0.921265 651.798 1.03166 651.732 1.11999L640.205 16.0909C640.205 16.0909 640.072 16.1572 640.006 16.0909L628.479 1.11999C628.479 1.11999 628.479 0.921265 628.567 0.921265H628.589Z" fill="#EDB22E"/>
<path d="M624.133 9.02576L656.132 9.02576C656.264 9.02576 656.353 9.13615 656.264 9.22448L640.276 24.1954C640.276 24.1954 640.077 24.2616 640.011 24.1954L624.023 9.22448C624.023 9.22448 624.023 9.02576 624.155 9.02576H624.133Z" fill="#EDB22E"/>
<path d="M651.646 36.1002H628.591C628.591 36.1002 628.437 35.9898 628.503 35.9015L640.03 20.9306C640.03 20.9306 640.163 20.8643 640.229 20.9306L651.756 35.9015C651.756 35.9015 651.756 36.1002 651.668 36.1002H651.646Z" fill="#EDB22E"/>
<path d="M656.106 27.9957H624.108C623.975 27.9957 623.887 27.8853 623.975 27.797L639.963 12.8261C639.963 12.8261 640.162 12.7598 640.228 12.8261L656.217 27.797C656.217 27.797 656.216 27.9957 656.084 27.9957H656.106Z" fill="#EDB22E"/>
<path d="M667.55 0.921265L690.605 0.921265C690.605 0.921265 690.76 1.03166 690.693 1.11999L679.166 16.0909C679.166 16.0909 679.034 16.1572 678.967 16.0909L667.44 1.11999C667.44 1.11999 667.44 0.921265 667.528 0.921265H667.55Z" fill="#E04B20"/>
<path d="M663.095 9.02576L695.093 9.02576C695.226 9.02576 695.314 9.13615 695.226 9.22448L679.238 24.1954C679.238 24.1954 679.039 24.2616 678.973 24.1954L662.984 9.22448C662.984 9.22448 662.984 9.02576 663.117 9.02576H663.095Z" fill="#E04B20"/>
<path d="M690.607 36.1002H667.553C667.553 36.1002 667.398 35.9898 667.464 35.9015L678.992 20.9306C678.992 20.9306 679.124 20.8643 679.19 20.9306L690.718 35.9015C690.718 35.9015 690.718 36.1002 690.629 36.1002H690.607Z" fill="#E04B20"/>
<path d="M695.091 27.9957H663.092C662.96 27.9957 662.872 27.8853 662.96 27.797L678.948 12.8261C678.948 12.8261 679.147 12.7598 679.213 12.8261L695.201 27.797C695.201 27.797 695.201 27.9957 695.069 27.9957H695.091Z" fill="#E04B20"/>
<path d="M706.941 0.921265L729.996 0.921265C729.996 0.921265 730.151 1.03166 730.085 1.11999L718.557 16.0909C718.557 16.0909 718.425 16.1572 718.358 16.0909L706.831 1.11999C706.831 1.11999 706.831 0.921265 706.919 0.921265H706.941Z" fill="#E04B20"/>
<path d="M702.486 9.02576L734.484 9.02576C734.617 9.02576 734.705 9.13615 734.617 9.22448L718.629 24.1954C718.629 24.1954 718.43 24.2616 718.364 24.1954L702.375 9.22448C702.375 9.22448 702.375 9.02576 702.508 9.02576H702.486Z" fill="#E04B20"/>
<path d="M729.999 36.1002H706.944C706.944 36.1002 706.789 35.9898 706.855 35.9015L718.383 20.9306C718.383 20.9306 718.515 20.8643 718.582 20.9306L730.109 35.9015C730.109 35.9015 730.109 36.1002 730.021 36.1002H729.999Z" fill="#E04B20"/>
<path d="M734.482 27.9957H702.483C702.351 27.9957 702.263 27.8853 702.351 27.797L718.339 12.8261C718.339 12.8261 718.538 12.7598 718.604 12.8261L734.593 27.797C734.593 27.797 734.593 27.9957 734.46 27.9957H734.482Z" fill="#E04B20"/>
<path d="M745.926 0.921265L768.981 0.921265C768.981 0.921265 769.136 1.03166 769.069 1.11999L757.542 16.0909C757.542 16.0909 757.41 16.1572 757.343 16.0909L745.816 1.11999C745.816 1.11999 745.816 0.921265 745.904 0.921265H745.926Z" fill="#0E0B06"/>
<path d="M741.444 9.02576L773.443 9.02576C773.576 9.02576 773.664 9.13615 773.576 9.22448L757.587 24.1954C757.587 24.1954 757.388 24.2616 757.322 24.1954L741.334 9.22448C741.334 9.22448 741.334 9.02576 741.466 9.02576H741.444Z" fill="#0E0B06"/>
<path d="M768.96 36.1002H745.905C745.905 36.1002 745.751 35.9898 745.817 35.9015L757.344 20.9306C757.344 20.9306 757.477 20.8643 757.543 20.9306L769.07 35.9015C769.07 35.9015 769.07 36.1002 768.982 36.1002H768.96Z" fill="#0E0B06"/>
<path d="M773.444 27.9957H741.445C741.312 27.9957 741.224 27.8853 741.312 27.797L757.301 12.8261C757.301 12.8261 757.499 12.7598 757.566 12.8261L773.554 27.797C773.554 27.797 773.554 27.9957 773.421 27.9957H773.444Z" fill="#0E0B06"/>
<path d="M784.885 0.921265L807.94 0.921265C807.94 0.921265 808.095 1.03166 808.029 1.11999L796.501 16.0909C796.501 16.0909 796.369 16.1572 796.302 16.0909L784.775 1.11999C784.775 1.11999 784.775 0.921265 784.863 0.921265H784.885Z" fill="#4EA9B4"/>
<path d="M780.403 9.02576L812.402 9.02576C812.534 9.02576 812.623 9.13615 812.534 9.22448L796.546 24.1954C796.546 24.1954 796.348 24.2616 796.281 24.1954L780.293 9.22448C780.293 9.22448 780.293 9.02576 780.426 9.02576H780.403Z" fill="#4EA9B4"/>
<path d="M807.919 36.1002H784.864C784.864 36.1002 784.71 35.9898 784.776 35.9015L796.303 20.9306C796.303 20.9306 796.436 20.8643 796.502 20.9306L808.029 35.9015C808.029 35.9015 808.029 36.1002 807.941 36.1002H807.919Z" fill="#4EA9B4"/>
<path d="M812.402 27.9957H780.404C780.271 27.9957 780.183 27.8853 780.271 27.797L796.26 12.8261C796.26 12.8261 796.458 12.7598 796.525 12.8261L812.513 27.797C812.513 27.797 812.513 27.9957 812.38 27.9957H812.402Z" fill="#4EA9B4"/>
<path d="M823.844 0.921265L846.899 0.921265C846.899 0.921265 847.054 1.03166 846.988 1.11999L835.46 16.0909C835.46 16.0909 835.328 16.1572 835.261 16.0909L823.734 1.11999C823.734 1.11999 823.734 0.921265 823.822 0.921265H823.844Z" fill="#EDB22E"/>
<path d="M819.386 9.02576L851.384 9.02576C851.517 9.02576 851.605 9.13615 851.517 9.22448L835.529 24.1954C835.529 24.1954 835.33 24.2616 835.264 24.1954L819.275 9.22448C819.275 9.22448 819.275 9.02576 819.408 9.02576H819.386Z" fill="#EDB22E"/>
<path d="M846.901 36.1002H823.847C823.847 36.1002 823.692 35.9898 823.758 35.9015L835.286 20.9306C835.286 20.9306 835.418 20.8643 835.484 20.9306L847.012 35.9015C847.012 35.9015 847.012 36.1002 846.923 36.1002H846.901Z" fill="#EDB22E"/>
<path d="M851.361 27.9957H819.363C819.23 27.9957 819.142 27.8853 819.23 27.797L835.219 12.8261C835.219 12.8261 835.417 12.7598 835.484 12.8261L851.472 27.797C851.472 27.797 851.472 27.9957 851.339 27.9957H851.361Z" fill="#EDB22E"/>
<path d="M862.803 0.921265L885.858 0.921265C885.858 0.921265 886.013 1.03166 885.946 1.11999L874.419 16.0909C874.419 16.0909 874.286 16.1572 874.22 16.0909L862.693 1.11999C862.693 1.11999 862.693 0.921265 862.781 0.921265H862.803Z" fill="#E04B20"/>
<path d="M858.348 9.02576L890.346 9.02576C890.479 9.02576 890.567 9.13615 890.479 9.22448L874.49 24.1954C874.49 24.1954 874.292 24.2616 874.226 24.1954L858.237 9.22448C858.237 9.22448 858.237 9.02576 858.37 9.02576H858.348Z" fill="#E04B20"/>
<path d="M885.86 36.1002H862.805C862.805 36.1002 862.651 35.9898 862.717 35.9015L874.245 20.9306C874.245 20.9306 874.377 20.8643 874.443 20.9306L885.971 35.9015C885.971 35.9015 885.971 36.1002 885.882 36.1002H885.86Z" fill="#E04B20"/>
<path d="M890.344 27.9957H858.345C858.213 27.9957 858.124 27.8853 858.213 27.797L874.201 12.8261C874.201 12.8261 874.4 12.7598 874.466 12.8261L890.454 27.797C890.454 27.797 890.454 27.9957 890.322 27.9957H890.344Z" fill="#E04B20"/>
<path d="M901.788 0.921265L924.843 0.921265C924.843 0.921265 924.998 1.03166 924.931 1.11999L913.404 16.0909C913.404 16.0909 913.271 16.1572 913.205 16.0909L901.678 1.11999C901.678 1.11999 901.678 0.921265 901.766 0.921265H901.788Z" fill="#0E0B06"/>
<path d="M897.309 9.02576L929.308 9.02576C929.44 9.02576 929.529 9.13615 929.44 9.22448L913.452 24.1954C913.452 24.1954 913.253 24.2616 913.187 24.1954L897.199 9.22448C897.199 9.22448 897.199 9.02576 897.331 9.02576H897.309Z" fill="#0E0B06"/>
<path d="M924.822 36.1002H901.767C901.767 36.1002 901.612 35.9898 901.679 35.9015L913.206 20.9306C913.206 20.9306 913.339 20.8643 913.405 20.9306L924.932 35.9015C924.932 35.9015 924.932 36.1002 924.844 36.1002H924.822Z" fill="#0E0B06"/>
<path d="M929.305 27.9957H897.307C897.174 27.9957 897.086 27.8853 897.174 27.797L913.163 12.8261C913.163 12.8261 913.361 12.7598 913.428 12.8261L929.416 27.797C929.416 27.797 929.416 27.9957 929.283 27.9957H929.305Z" fill="#0E0B06"/>
</svg>
