<svg width="95" height="125" viewBox="0 0 95 125" fill="none" xmlns="http://www.w3.org/2000/svg">
<g id="Frame 2539">
<path id="Vector" d="M94.1401 81.9878C94.0961 81.8896 94.0487 81.7947 93.9979 81.7033C93.9775 81.6694 93.9606 81.6355 93.9403 81.6051C93.9166 81.5678 93.8929 81.5306 93.8658 81.4933C93.8488 81.4696 93.8319 81.4425 93.815 81.4188C93.8014 81.3984 93.7845 81.3748 93.7676 81.3544C93.754 81.3341 93.7371 81.3138 93.7201 81.2901C93.693 81.2562 93.6659 81.2224 93.6355 81.1885C93.6118 81.1614 93.5881 81.1343 93.5643 81.1072C93.544 81.0801 93.5169 81.053 93.4898 81.0293C93.4661 81.0056 93.439 80.9785 93.4119 80.9548C93.3611 80.9006 93.3069 80.8532 93.2494 80.8092C93.1782 80.7482 93.1037 80.694 93.0292 80.6398C92.9987 80.6161 92.9649 80.5958 92.931 80.5754C92.9005 80.5551 92.8633 80.5348 92.8294 80.5145C92.8192 80.5077 92.8091 80.5009 92.7989 80.4975C92.7921 80.4942 92.7549 80.4705 92.6973 80.4366C92.6939 80.4366 92.6905 80.4332 92.6838 80.4298C92.6533 80.4129 92.6194 80.3993 92.5889 80.3824C91.3629 79.7897 89.9404 80.0336 88.9887 80.8904C88.6839 81.1648 88.4231 81.5001 88.2368 81.8929L79.055 100.802L76.5521 105.953L74.3506 110.485L72.349 108.317L71.5768 107.481C71.5328 107.433 71.4854 107.386 71.4413 107.345C71.4075 107.311 71.3736 107.278 71.3397 107.25C71.3025 107.213 71.2618 107.179 71.2212 107.149C71.1873 107.122 71.1568 107.098 71.123 107.074C71.106 107.064 71.0891 107.051 71.0722 107.037L71.5971 105.953L74.0966 100.802L81.8966 84.7379C82.1404 84.2367 82.242 83.7015 82.2183 83.18C82.2183 83.1529 82.2183 83.1224 82.2149 83.0953C82.2149 83.058 82.2116 83.0174 82.2048 82.9835C82.198 82.909 82.1879 82.8345 82.1743 82.76C82.1709 82.7295 82.1641 82.6956 82.1574 82.6651C82.1506 82.6211 82.1404 82.5805 82.1269 82.5398C82.1235 82.5094 82.1133 82.4789 82.1066 82.4484C82.1032 82.4247 82.0964 82.4044 82.0862 82.3841C82.0761 82.3502 82.0659 82.3163 82.0558 82.2824C82.0354 82.2147 82.0083 82.1504 81.9812 82.0826C81.9677 82.0521 81.9542 82.0216 81.9406 81.9878C81.883 81.8591 81.8153 81.7338 81.7408 81.6084C81.7069 81.5576 81.6764 81.5068 81.6426 81.456C81.6155 81.4188 81.5918 81.3849 81.5613 81.3476C81.5477 81.3273 81.5308 81.307 81.5139 81.2867C81.4089 81.1512 81.2903 81.0259 81.1616 80.9073C81.1345 80.8802 81.1041 80.8565 81.0736 80.8295C81.0499 80.8091 81.0262 80.7888 80.9991 80.7685C80.8534 80.65 80.6942 80.545 80.5249 80.4535C80.4775 80.4298 80.4301 80.4027 80.3826 80.379C79.1566 79.7863 77.7375 80.0302 76.7824 80.8837C76.7553 80.9108 76.7248 80.9378 76.6977 80.9649C76.6774 80.9853 76.6537 81.0056 76.6334 81.0293C76.3929 81.2732 76.1863 81.561 76.0271 81.8862L66.8487 100.795H36.8038L55.8787 85.0935C59.9023 81.7405 63.7667 78.3604 67.3602 75.0481C71.0315 71.6612 74.2964 68.0474 77.0601 64.305C79.8543 60.5218 82.1066 56.4644 83.7492 52.2409C85.4223 47.943 86.269 43.1235 86.269 37.9179C86.269 32.7122 85.3343 27.5879 83.485 23.0495C81.6222 18.4908 78.8823 14.4739 75.3396 11.1074C71.8037 7.7544 67.4177 5.11602 62.3036 3.27018C57.2436 1.44805 51.4317 0.523438 45.0271 0.523438C38.6226 0.523438 33.2849 1.35661 28.4586 3.00602C23.6255 4.65881 19.3411 6.93817 15.7307 9.77975C12.1136 12.6247 9.07216 15.9676 6.69458 19.7134C4.35087 23.3984 2.5118 27.3508 1.2214 31.4557L0.5 33.7588L24.4824 43.0151L25.2445 40.2819C26.4671 35.9027 28.5229 32.1161 31.3577 29.0273C33.9961 26.1519 37.8673 24.7531 43.1881 24.7531C47.4115 24.7531 50.8763 25.9046 53.7788 28.272C56.5222 30.5141 57.8532 33.7215 57.8532 38.0804V40.2582C57.8532 44.8541 56.5289 49.1927 53.9244 53.1554C51.1608 57.3517 46.6935 62.161 40.6513 67.4479L3.11466 100.358V124.523H89.2833V100.792H86.2893L94.0893 84.7277C94.5228 83.8268 94.5093 82.8277 94.1367 81.9776L94.1401 81.9878ZM84.1353 105.95V119.382H75.8951C75.8205 119.399 75.746 119.413 75.6681 119.426C75.448 119.457 75.2312 119.467 75.0179 119.457C74.835 119.447 74.6589 119.423 74.4827 119.382H63.6989C63.6244 119.399 63.5499 119.413 63.472 119.426C63.2485 119.457 63.0351 119.467 62.8184 119.457C62.7642 119.457 62.71 119.45 62.6558 119.443C62.6118 119.44 62.5711 119.433 62.5305 119.426C62.5203 119.426 62.5068 119.426 62.4932 119.423C62.4594 119.419 62.4221 119.413 62.3882 119.406C62.3577 119.402 62.3239 119.396 62.2934 119.386H8.2627V102.705L44.0416 71.3361C50.436 65.7443 55.2047 60.5828 58.2224 56.0003C61.3925 51.1842 63.0013 45.8939 63.0013 40.2717V38.094C63.0013 32.1771 60.9928 27.5337 57.0336 24.2993C53.2268 21.1935 48.5698 19.6152 43.1847 19.6152C36.4347 19.6152 31.1782 21.6135 27.5611 25.5558C24.7771 28.5904 22.6264 32.1669 21.1463 36.2176L6.9215 30.7275C7.99852 27.8656 9.37698 25.1019 11.0433 22.4839C13.1059 19.2291 15.7544 16.3232 18.9144 13.8372C22.0676 11.3546 25.8405 9.353 30.1215 7.88987C34.4093 6.42675 39.4219 5.68502 45.0238 5.68502C50.6256 5.68502 56.0582 6.50465 60.5559 8.12696C64.9961 9.72895 68.7759 11.9948 71.7936 14.8533C74.8011 17.7118 77.1313 21.1292 78.7163 25.0071C80.3115 28.9223 81.121 33.2677 81.121 37.9314C81.121 42.5951 80.3894 46.6864 78.9534 50.3883C77.4767 54.185 75.4446 57.8428 72.9214 61.2601C70.3507 64.7418 67.3093 68.1084 63.8717 71.2751C60.3426 74.5299 56.5425 77.8524 52.5968 81.1411L22.4469 105.96H64.3526L62.1511 110.492L60.1427 108.317L59.3739 107.488C59.3299 107.44 59.2859 107.396 59.2418 107.352C59.2046 107.315 59.1639 107.277 59.1233 107.244C59.1199 107.24 59.1131 107.233 59.1064 107.227C59.0691 107.193 59.0285 107.162 58.9912 107.132C58.9573 107.108 58.9235 107.081 58.8896 107.057C58.8659 107.04 58.8388 107.02 58.8117 107.003C58.7473 106.959 58.6762 106.915 58.6085 106.874C58.5848 106.861 58.5509 106.844 58.517 106.824C57.3316 106.194 55.8245 106.343 54.7745 107.305C53.7551 108.246 53.474 109.696 53.9617 110.915C53.9786 110.962 53.9956 111.006 54.0159 111.047C54.0362 111.091 54.0565 111.135 54.0802 111.179C54.0972 111.213 54.1141 111.247 54.131 111.277C54.148 111.311 54.1683 111.345 54.1886 111.376C54.297 111.565 54.4325 111.741 54.5849 111.907L60.5966 118.42C60.6372 118.464 60.6779 118.508 60.7185 118.546C60.749 118.573 60.7795 118.6 60.8099 118.63C60.9183 118.728 61.0335 118.82 61.152 118.901C61.1757 118.915 61.1994 118.932 61.2231 118.949C61.2435 118.962 61.2672 118.976 61.2909 118.993C61.2909 118.993 61.2977 118.993 61.301 118.996C61.301 118.996 61.3044 118.996 61.3078 118.999C61.3078 118.999 61.3146 119.003 61.318 119.006C61.318 119.006 61.3214 119.01 61.3281 119.013C61.3281 119.013 61.3349 119.016 61.3417 119.02C61.3451 119.023 61.3518 119.027 61.3552 119.027C61.4162 119.064 61.4772 119.098 61.5449 119.128C61.5957 119.152 61.6465 119.179 61.6973 119.199C61.7515 119.223 61.8023 119.243 61.8565 119.264C61.8666 119.267 61.8802 119.27 61.8904 119.277C61.9445 119.294 61.9987 119.314 62.0529 119.331C62.1139 119.348 62.1749 119.365 62.2392 119.379C62.2528 119.379 62.2697 119.386 62.2866 119.389H63.6922C64.6608 119.176 65.4838 118.529 65.9207 117.631L67.2179 114.962L67.604 114.17L68.0409 113.269L72.7961 118.42C72.8333 118.461 72.874 118.505 72.9146 118.542C72.9485 118.576 72.9857 118.61 73.023 118.64C73.0602 118.674 73.1009 118.708 73.1415 118.742C73.1822 118.776 73.2228 118.806 73.2635 118.84C73.3515 118.901 73.4396 118.962 73.531 119.016C73.5751 119.04 73.6191 119.064 73.6631 119.088C73.7071 119.111 73.7546 119.135 73.802 119.159C73.8494 119.179 73.8968 119.199 73.9442 119.223C73.9849 119.24 74.0289 119.257 74.0695 119.274C74.2016 119.321 74.3371 119.362 74.476 119.389H75.8883C76.8569 119.176 77.6799 118.529 78.1168 117.631L83.7865 105.957H84.1285L84.1353 105.95Z" fill="#4EA9B4"/>
</g>
</svg>
